<?xml version="1.0" encoding="UTF-8" standalone="no"?>
<svg
   contentStyleType="text/css"
   height="256px"
   preserveAspectRatio="none"
   style="width:299px;height:256px;background:#FFFFFF;"
   version="1.1"
   viewBox="0 0 299 256"
   width="299px"
   zoomAndPan="magnify"
   id="svg12"
   sodipodi:docname="beat.svg"
   inkscape:version="1.3 (0e150ed6c4, 2023-07-21)"
   xmlns:inkscape="http://www.inkscape.org/namespaces/inkscape"
   xmlns:sodipodi="http://sodipodi.sourceforge.net/DTD/sodipodi-0.dtd"
   xmlns="http://www.w3.org/2000/svg"
   xmlns:svg="http://www.w3.org/2000/svg">
  <sodipodi:namedview
     id="namedview12"
     pagecolor="#ffffff"
     bordercolor="#666666"
     borderopacity="1.0"
     inkscape:showpageshadow="2"
     inkscape:pageopacity="0.0"
     inkscape:pagecheckerboard="0"
     inkscape:deskcolor="#d1d1d1"
     inkscape:zoom="2.6210938"
     inkscape:cx="149.36513"
     inkscape:cy="128"
     inkscape:window-width="1679"
     inkscape:window-height="878"
     inkscape:window-x="66"
     inkscape:window-y="24"
     inkscape:window-maximized="1"
     inkscape:current-layer="svg12" />
  <defs
     id="defs1" />
  <g
     id="g12">
    <rect
       codeLine="2"
       fill="#f1f1f1"
       height="235.26559"
       id="beats"
       rx="3.5"
       ry="3.5"
       style="stroke:#181818;stroke-width:0.5"
       width="278"
       x="7"
       y="7" />
    <circle
       cx="121.25"
       cy="23"
       fill="#add1b2"
       style="stroke:#181818;stroke-width:1"
       id="ellipse1"
       r="11" />
    <path
       d="M 120.0469,23.875 H 121.5 v 0.1094 c 0,0.4062 0.0313,0.5625 0.1094,0.7187 0.1562,0.25 0.4375,0.4063 0.7344,0.4063 0.25,0 0.5156,-0.1406 0.6718,-0.3594 0.125,-0.1562 0.1563,-0.3125 0.1563,-0.7656 v -1.9219 c 0,-0.1562 0,-0.2031 -0.0156,-0.3594 -0.0625,-0.4687 -0.375,-0.7812 -0.8282,-0.7812 -0.25,0 -0.5156,0.1406 -0.6875,0.3594 -0.1093,0.1718 -0.1406,0.3281 -0.1406,0.7812 v 0.125 h -1.4531 v -2.4062 h 3.9844 v 0.8593 c 0,0.4063 0.0312,0.5782 0.1093,0.7344 0.1719,0.25 0.4532,0.4063 0.7344,0.4063 0.2656,0 0.5313,-0.1407 0.7031,-0.3594 0.1094,-0.1719 0.1407,-0.3125 0.1407,-0.7813 v -2.5468 h -7.625 c -0.4375,0 -0.5625,0.0156 -0.7188,0.1093 -0.25,0.1563 -0.4062,0.4532 -0.4062,0.7344 0,0.2813 0.1406,0.5313 0.3593,0.7031 0.1563,0.1094 0.3438,0.1407 0.7657,0.1407 h 0.25 v 6.5156 h -0.25 c -0.4063,0 -0.5625,0.0156 -0.7188,0.125 -0.25,0.1719 -0.4062,0.4375 -0.4062,0.7344 0,0.2656 0.1406,0.5156 0.3593,0.6718 0.1407,0.125 0.375,0.1719 0.7657,0.1719 h 8 v -2.5781 c 0,-0.4375 -0.0313,-0.5781 -0.1094,-0.7344 -0.1719,-0.25 -0.4531,-0.4062 -0.7344,-0.4062 -0.2656,0 -0.5312,0.1093 -0.7031,0.3593 -0.1094,0.1563 -0.1406,0.2969 -0.1406,0.7813 v 0.875 h -4.3594 z"
       fill="#000000"
       id="path1" />
    <path
       d="m 143.08,27.846701 h 1.12 v -1.176 h 0.056 c 0.462,0.882 1.218,1.344 2.226,1.344 1.764,0 2.828,-1.414 2.828,-3.78 0,-2.366 -1.064,-3.78 -2.828,-3.78 -1.008,0 -1.764,0.462 -2.226,1.344 H 144.2 v -4.312 h -1.12 z m 2.968,-0.826 c -0.994,0 -1.848,-0.518 -1.848,-1.484 v -2.604 c 0,-0.966 0.854,-1.484 1.848,-1.484 1.302,0 2.058,0.868 2.058,2.17 v 1.232 c 0,1.302 -0.756,2.17 -2.058,2.17 z m 8.178,0.994 c 1.428,0 2.464,-0.7 2.898,-1.666 l -0.826,-0.56 c -0.378,0.784 -1.106,1.26 -2.072,1.26 -1.358,0 -2.212,-0.924 -2.212,-2.198 v -0.336 h 5.348 v -0.532 c 0,-2.044 -1.26,-3.528 -3.206,-3.528 -1.96,0 -3.318,1.484 -3.318,3.794 0,2.282 1.316,3.766 3.388,3.766 z m -0.07,-6.636 c 1.19,0 2.002,0.868 2.002,2.142 v 0.154 h -4.144 v -0.098 c 0,-1.26 0.91,-2.198 2.142,-2.198 z m 11.594,6.468 v -0.98 h -1.008 v -3.976 c 0,-1.526 -1.078,-2.436 -2.772,-2.436 -1.47,0 -2.394,0.7 -2.758,1.456 l 0.756,0.56 c 0.378,-0.658 0.966,-1.064 1.932,-1.064 1.092,0 1.722,0.546 1.722,1.596 v 0.714 h -1.54 c -2.17,0 -3.108,0.77 -3.108,2.1 0,1.358 0.966,2.198 2.478,2.198 1.176,0 1.862,-0.518 2.17,-1.344 h 0.07 c 0.084,0.672 0.42,1.176 1.288,1.176 z m -4.102,-0.77 c -0.924,0 -1.498,-0.392 -1.498,-1.134 v -0.294 c 0,-0.7 0.602,-1.092 1.932,-1.092 h 1.54 v 1.19 c 0,0.742 -0.826,1.33 -1.974,1.33 z m 11.916,0.77 v -0.952 h -3.29 v -5.32 h 3.29 v -0.952 h -3.29 v -2.548 h -1.078 v 1.89 c 0,0.49 -0.182,0.658 -0.658,0.658 h -1.792 v 0.952 h 2.408 v 4.62 c 0,0.966 0.504,1.652 1.596,1.652 z m 5.06999,0.168 c 1.848,0 3.052,-0.826 3.052,-2.254 0,-1.568 -1.442,-1.848 -2.478,-2.002 l -1.134,-0.168 c -0.644,-0.098 -1.274,-0.294 -1.274,-1.05 0,-0.742 0.63,-1.148 1.764,-1.148 1.274,0 1.918,0.504 2.254,0.91 l 0.728,-0.686 c -0.686,-0.728 -1.638,-1.162 -2.94,-1.162 -1.68,0 -2.912,0.714 -2.912,2.156 0,1.568 1.456,1.848 2.478,2.002 l 1.134,0.168 c 0.658,0.098 1.274,0.294 1.274,1.05 0,0.854 -0.798,1.246 -1.918,1.246 -1.148,0 -1.932,-0.406 -2.618,-1.134 l -0.756,0.658 c 0.756,0.854 1.834,1.414 3.346,1.414 z"
       id="text1"
       style="font-size:14px;font-family:'IBM Plex Mono';-inkscape-font-specification:'IBM Plex Mono, Normal'"
       aria-label="beats" />
    <line
       style="stroke:#181818;stroke-width:0.5"
       x1="8"
       x2="284"
       y1="39"
       y2="39"
       id="line1" />
    <path
       d="m 14.33,55.995098 h 1.12 v -1.176 h 0.056 c 0.462,0.882 1.218,1.344 2.226,1.344 1.764,0 2.828,-1.414 2.828,-3.78 0,-2.366 -1.064,-3.78 -2.828,-3.78 -1.008,0 -1.764,0.462 -2.226,1.344 H 15.45 v -4.312 h -1.12 z m 2.968,-0.826 c -0.994,0 -1.848,-0.518 -1.848,-1.484 v -2.604 c 0,-0.966 0.854,-1.484 1.848,-1.484 1.302,0 2.058,0.868 2.058,2.17 v 1.232 c 0,1.302 -0.756,2.17 -2.058,2.17 z m 7.565499,0.994 c 1.428,0 2.464,-0.7 2.898,-1.666 l -0.826,-0.56 c -0.378,0.784 -1.106,1.26 -2.072,1.26 -1.358,0 -2.212,-0.924 -2.212,-2.198 v -0.336 h 5.348 v -0.532 c 0,-2.044 -1.26,-3.528 -3.206,-3.528 -1.96,0 -3.318,1.484 -3.318,3.794 0,2.282 1.316,3.766 3.388,3.766 z m -0.07,-6.636 c 1.19,0 2.002,0.868 2.002,2.142 v 0.154 h -4.144 v -0.098 c 0,-1.26 0.91,-2.198 2.142,-2.198 z m 10.9815,6.468 v -0.98 h -1.008 v -3.976 c 0,-1.526 -1.078,-2.436 -2.772,-2.436 -1.47,0 -2.394,0.7 -2.758,1.456 l 0.756,0.56 c 0.378,-0.658 0.966,-1.064 1.932,-1.064 1.092,0 1.722,0.546 1.722,1.596 v 0.714 h -1.54 c -2.17,0 -3.108,0.77 -3.108,2.1 0,1.358 0.966,2.198 2.478,2.198 1.176,0 1.862,-0.518 2.17,-1.344 h 0.07 c 0.084,0.672 0.42,1.176 1.288,1.176 z m -4.102,-0.77 c -0.924,0 -1.498,-0.392 -1.498,-1.134 v -0.294 c 0,-0.7 0.602,-1.092 1.932,-1.092 h 1.54 v 1.19 c 0,0.742 -0.826,1.33 -1.974,1.33 z m 11.3035,0.77 v -0.952 h -3.29 v -5.32 h 3.29 v -0.952 h -3.29 v -2.548 h -1.078 v 1.89 c 0,0.49 -0.182,0.658 -0.658,0.658 h -1.792 v 0.952 h 2.408 v 4.62 c 0,0.966 0.504,1.652 1.596,1.652 z m 7.733499,2.366 v -1.036 h -6.72 v 1.036 z m 4.625498,-11.186 c 0.644,0 0.882,-0.308 0.882,-0.714 v -0.224 c 0,-0.406 -0.238,-0.714 -0.882,-0.714 -0.644,0 -0.882,0.308 -0.882,0.714 v 0.224 c 0,0.406 0.238,0.714 0.882,0.714 z m -3.164,8.82 h 6.16 v -0.952 h -2.436 v -6.272 h -3.724 v 0.952 h 2.604 v 5.32 h -2.604 z m 12.003502,0 h 1.12 v -10.36 h -1.12 v 4.312 h -0.056 c -0.462,-0.882 -1.218,-1.344 -2.226,-1.344 -1.764,0 -2.828,1.414 -2.828,3.78 0,2.366 1.064,3.78 2.828,3.78 1.008,0 1.764,-0.462 2.226,-1.344 h 0.056 z m -1.848,-0.826 c -1.302,0 -2.058,-0.868 -2.058,-2.17 v -1.232 c 0,-1.302 0.756,-2.17 2.058,-2.17 0.994,0 1.848,0.518 1.848,1.484 v 2.604 c 0,0.966 -0.854,1.484 -1.848,1.484 z m 15.172997,0.952 c 0.756,0 1.036,-0.364 1.036,-0.84 v -0.252 c 0,-0.476 -0.28,-0.84 -1.036,-0.84 -0.756,0 -1.036,0.364 -1.036,0.84 v 0.252 c 0,0.476 0.28,0.84 1.036,0.84 z m 0,-5.544 c 0.756,0 1.036,-0.364 1.036,-0.84 v -0.252 c 0,-0.476 -0.28,-0.84 -1.036,-0.84 -0.756,0 -1.036,0.364 -1.036,0.84 v 0.252 c 0,0.476 0.28,0.84 1.036,0.84 z m 18.098997,5.418 v -0.938 h -2.436 v -7.896 h 2.436 v -0.938 h -6.048 v 0.938 h 2.436 v 7.896 h -2.436 v 0.938 z m 5.927498,0 h 1.666 v -9.772 h -1.064 v 8.232 h -0.098 l -3.331999,-8.232 h -1.666 v 9.772 h 1.064 v -8.232 h 0.098 z m 9.97351,-8.75 v -1.022 h -7.7 v 1.022 h 3.262 v 8.75 h 1.176 v -8.75 z m 6.7675,8.75 v -1.022 h -4.844 v -3.416 h 4.676 v -1.022 h -4.676 v -3.29 h 4.844 v -1.022 h -6.02 v 9.772 z m 6.47349,0 h 1.092 v -4.83 h -3.15 v 0.938 h 2.058 v 1.008 c 0,1.204 -0.756,2.058 -2.016,2.058 -1.596,0 -2.17,-1.386 -2.17,-3.346 v -1.512 c 0,-1.96 0.714,-3.234 2.282,-3.234 1.176,0 1.638,0.714 1.988,1.582 l 1.008,-0.462 c -0.42,-1.064 -1.204,-2.142 -3.038,-2.142 -2.352,0 -3.486,1.792 -3.486,5.124 0,3.192 1.036,4.984 3.15,4.984 1.344,0 1.89,-0.714 2.212,-1.47 h 0.07 z m 8.6015,0 v -1.022 h -4.844 v -3.416 h 4.676 v -1.022 h -4.676 v -3.29 h 4.844 v -1.022 h -6.02 v 9.772 z m 2.6935,-4.172 h 1.554 l 2.38,4.172 h 1.316 l -2.492,-4.228 c 1.554,-0.154 2.408,-1.162 2.408,-2.73 0,-1.764 -0.98,-2.814 -2.786,-2.814 h -3.556 v 9.772 h 1.176 z m 0,-0.994 v -3.584 h 2.352 c 0.98,0 1.568,0.518 1.568,1.428 v 0.728 c 0,0.91 -0.588,1.428 -1.568,1.428 z"
       id="text2"
       style="font-size:14px;font-family:'IBM Plex Mono';-inkscape-font-specification:'IBM Plex Mono, Normal'"
       aria-label="beat_id : INTEGER" />
    <line
       style="stroke:#181818;stroke-width:1"
       x1="8"
       x2="284"
       y1="63.296902"
       y2="63.296902"
       id="line2" />
    <circle
       cx="18"
       cy="76.945297"
       fill="#000000"
       style="stroke:#000000;stroke-width:1"
       id="ellipse2"
       r="3" />
    <path
       d="M 29.492,80.292 V 75.28 c 0,-0.952 0.896,-1.386 1.792,-1.386 1.106,0 1.708,0.644 1.708,1.96 v 4.438 h 1.12 v -4.634 c 0,-1.75 -0.994,-2.758 -2.506,-2.758 -1.19,0 -1.75,0.63 -2.058,1.344 h -0.056 v -1.176 h -1.12 v 7.224 z m 9.215692,0.168 c 2.03,0 3.276,-1.484 3.276,-3.78 0,-2.296 -1.246,-3.78 -3.276,-3.78 -2.03,0 -3.276,1.484 -3.276,3.78 0,2.296 1.246,3.78 3.276,3.78 z m 0,-0.966 c -1.246,0 -2.086,-0.742 -2.086,-2.296 v -1.036 c 0,-1.554 0.84,-2.296 2.086,-2.296 1.246,0 2.086,0.742 2.086,2.296 v 1.036 c 0,1.554 -0.84,2.296 -2.086,2.296 z m 9.257692,0.798 h 1.12 v -10.36 h -1.12 v 4.312 h -0.056 c -0.462,-0.882 -1.218,-1.344 -2.226,-1.344 -1.764,0 -2.828,1.414 -2.828,3.78 0,2.366 1.064,3.78 2.828,3.78 1.008,0 1.764,-0.462 2.226,-1.344 h 0.056 z m -1.848,-0.826 c -1.302,0 -2.058,-0.868 -2.058,-2.17 v -1.232 c 0,-1.302 0.756,-2.17 2.058,-2.17 0.994,0 1.848,0.518 1.848,1.484 v 2.604 c 0,0.966 -0.854,1.484 -1.848,1.484 z m 7.731691,0.994 c 1.428,0 2.464,-0.7 2.898,-1.666 l -0.826,-0.56 c -0.378,0.784 -1.106,1.26 -2.072,1.26 -1.358,0 -2.212,-0.924 -2.212,-2.198 V 76.96 h 5.348 v -0.532 c 0,-2.044 -1.26,-3.528 -3.206,-3.528 -1.96,0 -3.318,1.484 -3.318,3.794 0,2.282 1.316,3.766 3.388,3.766 z m -0.07,-6.636 c 1.19,0 2.002,0.868 2.002,2.142 v 0.154 h -4.144 v -0.098 c 0,-1.26 0.91,-2.198 2.142,-2.198 z m 10.811692,8.834 v -1.036 h -6.72 v 1.036 z M 69.18646,71.472 c 0.644,0 0.882,-0.308 0.882,-0.714 v -0.224 c 0,-0.406 -0.238,-0.714 -0.882,-0.714 -0.644,0 -0.882,0.308 -0.882,0.714 v 0.224 c 0,0.406 0.238,0.714 0.882,0.714 z m -3.164,8.82 h 6.16 V 79.34 h -2.436 v -6.272 h -3.724 v 0.952 h 2.604 v 5.32 h -2.604 z m 11.97369,0 h 1.12 v -10.36 h -1.12 v 4.312 h -0.056 c -0.462,-0.882 -1.218,-1.344 -2.226,-1.344 -1.764,0 -2.828,1.414 -2.828,3.78 0,2.366 1.064,3.78 2.828,3.78 1.008,0 1.764,-0.462 2.226,-1.344 h 0.056 z m -1.848,-0.826 c -1.302,0 -2.058,-0.868 -2.058,-2.17 v -1.232 c 0,-1.302 0.756,-2.17 2.058,-2.17 0.994,0 1.848,0.518 1.848,1.484 v 2.604 c 0,0.966 -0.854,1.484 -1.848,1.484 z m 15.113385,0.952 c 0.756,0 1.036,-0.364 1.036,-0.84 v -0.252 c 0,-0.476 -0.28,-0.84 -1.036,-0.84 -0.756,0 -1.036,0.364 -1.036,0.84 v 0.252 c 0,0.476 0.28,0.84 1.036,0.84 z m 0,-5.544 c 0.756,0 1.036,-0.364 1.036,-0.84 v -0.252 c 0,-0.476 -0.28,-0.84 -1.036,-0.84 -0.756,0 -1.036,0.364 -1.036,0.84 v 0.252 c 0,0.476 0.28,0.84 1.036,0.84 z M 110.12692,71.542 V 70.52 h -7.7 v 1.022 h 3.262 v 8.75 h 1.176 v -8.75 z m 6.73769,8.75 V 79.27 h -4.844 v -3.416 h 4.676 v -1.022 h -4.676 v -3.29 h 4.844 V 70.52 h -6.02 v 9.772 z m 5.15569,-4.998 3.024,-4.774 h -1.288 l -1.176,1.89 -1.204,1.974 h -0.056 l -1.218,-1.974 -1.134,-1.89 h -1.33 l 3.01,4.788 -3.192,4.984 h 1.288 l 1.232,-1.946 1.33,-2.128 h 0.056 l 1.288,2.128 1.162,1.946 h 1.33 z m 10.62969,-3.752 V 70.52 h -7.7 v 1.022 h 3.262 v 8.75 h 1.176 v -8.75 z"
       id="text3"
       style="font-size:14px;font-family:'IBM Plex Mono';-inkscape-font-specification:'IBM Plex Mono, Normal'"
       aria-label="node_id : TEXT" />
    <path
       d="m 34.7,96.588898 v -0.98 h -1.008 v -3.976 c 0,-1.526 -1.078,-2.436 -2.772,-2.436 -1.47,0 -2.394,0.7 -2.758,1.456 l 0.756,0.56 c 0.378,-0.658 0.966,-1.064 1.932,-1.064 1.092,0 1.722,0.546 1.722,1.596 v 0.714 h -1.54 c -2.17,0 -3.108,0.77 -3.108,2.1 0,1.358 0.966,2.198 2.478,2.198 1.176,0 1.862,-0.518 2.17,-1.344 h 0.07 c 0.084,0.672 0.42,1.176 1.288,1.176 z m -4.102,-0.77 c -0.924,0 -1.498,-0.392 -1.498,-1.134 v -0.294 c 0,-0.7 0.602,-1.092 1.932,-1.092 h 1.54 v 1.19 c 0,0.742 -0.826,1.33 -1.974,1.33 z m 9.782769,0.77 h 1.12 v -10.36 h -1.12 v 4.312 h -0.056 c -0.462,-0.882 -1.218,-1.344 -2.226,-1.344 -1.764,0 -2.828,1.414 -2.828,3.78 0,2.366 1.064,3.78 2.828,3.78 1.008,0 1.764,-0.462 2.226,-1.344 h 0.056 z m -1.848,-0.826 c -1.302,0 -2.058,-0.868 -2.058,-2.17 v -1.232 c 0,-1.302 0.756,-2.17 2.058,-2.17 0.994,0 1.848,0.518 1.848,1.484 v 2.604 c 0,0.966 -0.854,1.484 -1.848,1.484 z m 9.278769,0.826 h 1.12 v -10.36 h -1.12 v 4.312 h -0.056 c -0.462,-0.882 -1.218,-1.344 -2.226,-1.344 -1.764,0 -2.828,1.414 -2.828,3.78 0,2.366 1.064,3.78 2.828,3.78 1.008,0 1.764,-0.462 2.226,-1.344 h 0.056 z m -1.848,-0.826 c -1.302,0 -2.058,-0.868 -2.058,-2.17 v -1.232 c 0,-1.302 0.756,-2.17 2.058,-2.17 0.994,0 1.848,0.518 1.848,1.484 v 2.604 c 0,0.966 -0.854,1.484 -1.848,1.484 z m 4.406769,0.826 h 5.488 v -0.952 h -2.254 v -3.122 c 0,-1.12 0.742,-2.03 2.156,-2.03 h 1.358 v -1.12 h -1.008 c -1.512,0 -2.156,0.868 -2.436,1.82 h -0.07 v -1.82 h -3.234 v 0.952 h 2.114 v 5.32 h -2.114 z m 10.678769,0.168 c 1.428,0 2.464,-0.7 2.898,-1.666 l -0.826,-0.56 c -0.378,0.784 -1.106,1.26 -2.072,1.26 -1.358,0 -2.212,-0.924 -2.212,-2.198 v -0.336 h 5.348 v -0.532 c 0,-2.044 -1.26,-3.528 -3.206,-3.528 -1.96,0 -3.318,1.484 -3.318,3.794 0,2.282 1.316,3.766 3.388,3.766 z m -0.07,-6.636 c 1.19,0 2.002,0.868 2.002,2.142 v 0.154 h -4.144 v -0.098 c 0,-1.26 0.91,-2.198 2.142,-2.198 z m 7.458767,6.636 c 1.848,0 3.052,-0.826 3.052,-2.254 0,-1.568 -1.442,-1.848 -2.478,-2.002 l -1.134,-0.168 c -0.644,-0.098 -1.274,-0.294 -1.274,-1.05 0,-0.742 0.63,-1.148 1.764,-1.148 1.274,0 1.918,0.504 2.254,0.91 l 0.728,-0.686 c -0.686,-0.728 -1.638,-1.162 -2.94,-1.162 -1.68,0 -2.912,0.714 -2.912,2.156 0,1.568 1.456,1.848 2.478,2.002 l 1.134,0.168 c 0.658,0.098 1.274,0.294 1.274,1.05 0,0.854 -0.798,1.246 -1.918,1.246 -1.148,0 -1.932,-0.406 -2.618,-1.134 l -0.756,0.658 c 0.756,0.854 1.834,1.414 3.346,1.414 z m 7.430771,0 c 1.848,0 3.052,-0.826 3.052,-2.254 0,-1.568 -1.442,-1.848 -2.478,-2.002 l -1.134,-0.168 c -0.644,-0.098 -1.274,-0.294 -1.274,-1.05 0,-0.742 0.63,-1.148 1.764,-1.148 1.274,0 1.918,0.504 2.254,0.91 l 0.728,-0.686 c -0.686,-0.728 -1.638,-1.162 -2.94,-1.162 -1.68,0 -2.912,0.714 -2.912,2.156 0,1.568 1.456,1.848 2.478,2.002 l 1.134,0.168 c 0.658,0.098 1.274,0.294 1.274,1.05 0,0.854 -0.798,1.246 -1.918,1.246 -1.148,0 -1.932,-0.406 -2.618,-1.134 l -0.756,0.658 c 0.756,0.854 1.834,1.414 3.346,1.414 z m 14.777538,-0.042 c 0.756,0 1.036,-0.364 1.036,-0.84 v -0.252 c 0,-0.476 -0.28,-0.84 -1.036,-0.84 -0.756,0 -1.036,0.364 -1.036,0.84 v 0.252 c 0,0.476 0.28,0.84 1.036,0.84 z m 0,-5.544 c 0.756,0 1.036,-0.364 1.036,-0.84 v -0.252 c 0,-0.476 -0.28,-0.84 -1.036,-0.84 -0.756,0 -1.036,0.364 -1.036,0.84 v 0.252 c 0,0.476 0.28,0.84 1.036,0.84 z m 18.711538,-3.332 v -1.022 h -7.7 v 1.022 h 3.262 v 8.75 h 1.176 v -8.75 z m 6.66077,8.75 v -1.022 h -4.844 v -3.416 h 4.676 v -1.022 h -4.676 v -3.29 h 4.844 v -1.022 h -6.02 v 9.772 z m 5.07877,-4.998 3.024,-4.774 h -1.288 l -1.176,1.89 -1.204,1.974 h -0.056 l -1.218,-1.974 -1.134,-1.89 h -1.33 l 3.01,4.788 -3.192,4.984 h 1.288 l 1.232,-1.946 1.33,-2.128 h 0.056 l 1.288,2.128 1.162,1.946 h 1.33 z m 10.55276,-3.752 v -1.022 h -7.7 v 1.022 h 3.262 v 8.75 h 1.176 v -8.75 z"
       id="text4"
       style="font-size:14px;font-family:'IBM Plex Mono';-inkscape-font-specification:'IBM Plex Mono, Normal'"
       aria-label="address : TEXT" />
    <path
       d="m 31.914,112.8857 2.59,-7.224 h -1.106 l -1.036,3.024 -1.12,3.262 h -0.056 l -1.12,-3.262 -1.036,-3.024 h -1.134 l 2.59,7.224 z m 6.612,0.168 c 1.428,0 2.464,-0.7 2.898,-1.666 l -0.826,-0.56 c -0.378,0.784 -1.106,1.26 -2.072,1.26 -1.358,0 -2.212,-0.924 -2.212,-2.198 v -0.336 h 5.348 v -0.532 c 0,-2.044 -1.26,-3.528 -3.206,-3.528 -1.96,0 -3.318,1.484 -3.318,3.794 0,2.282 1.316,3.766 3.388,3.766 z m -0.07,-6.636 c 1.19,0 2.002,0.868 2.002,2.142 v 0.154 h -4.144 v -0.098 c 0,-1.26 0.91,-2.198 2.142,-2.198 z m 4.022,6.468 h 5.488 v -0.952 h -2.254 v -3.122 c 0,-1.12 0.742,-2.03 2.156,-2.03 h 1.358 v -1.12 h -1.008 c -1.512,0 -2.156,0.868 -2.436,1.82 h -0.07 v -1.82 h -3.234 v 0.952 h 2.114 v 5.32 h -2.114 z m 10.405998,0.168 c 1.848,0 3.052,-0.826 3.052,-2.254 0,-1.568 -1.442,-1.848 -2.478,-2.002 l -1.134,-0.168 c -0.644,-0.098 -1.274,-0.294 -1.274,-1.05 0,-0.742 0.63,-1.148 1.764,-1.148 1.274,0 1.918,0.504 2.254,0.91 l 0.728,-0.686 c -0.686,-0.728 -1.638,-1.162 -2.94,-1.162 -1.68,0 -2.912,0.714 -2.912,2.156 0,1.568 1.456,1.848 2.478,2.002 l 1.134,0.168 c 0.658,0.098 1.274,0.294 1.274,1.05 0,0.854 -0.798,1.246 -1.918,1.246 -1.148,0 -1.932,-0.406 -2.618,-1.134 l -0.756,0.658 c 0.756,0.854 1.834,1.414 3.346,1.414 z m 7.564001,-8.988 c 0.644,0 0.882,-0.308 0.882,-0.714 v -0.224 c 0,-0.406 -0.238,-0.714 -0.882,-0.714 -0.644,0 -0.882,0.308 -0.882,0.714 v 0.224 c 0,0.406 0.238,0.714 0.882,0.714 z m -3.164,8.82 h 6.16 v -0.952 h -2.436 v -6.272 h -3.724 v 0.952 h 2.604 v 5.32 h -2.604 z m 9.915997,0.168 c 2.03,0 3.276,-1.484 3.276,-3.78 0,-2.296 -1.246,-3.78 -3.276,-3.78 -2.03,0 -3.276,1.484 -3.276,3.78 0,2.296 1.246,3.78 3.276,3.78 z m 0,-0.966 c -1.246,0 -2.086,-0.742 -2.086,-2.296 v -1.036 c 0,-1.554 0.84,-2.296 2.086,-2.296 1.246,0 2.086,0.742 2.086,2.296 v 1.036 c 0,1.554 -0.84,2.296 -2.086,2.296 z m 5.492001,0.798 v -5.012 c 0,-0.952 0.896,-1.386 1.792,-1.386 1.106,0 1.708,0.644 1.708,1.96 v 4.438 h 1.12 v -4.634 c 0,-1.75 -0.994,-2.758 -2.506,-2.758 -1.19,0 -1.75,0.63 -2.058,1.344 h -0.056 v -1.176 h -1.12 v 7.224 z m 16.108001,0.126 c 0.756,0 1.036,-0.364 1.036,-0.84 v -0.252 c 0,-0.476 -0.28,-0.84 -1.036,-0.84 -0.756,0 -1.036,0.364 -1.036,0.84 v 0.252 c 0,0.476 0.28,0.84 1.036,0.84 z m 0,-5.544 c 0.756,0 1.036,-0.364 1.036,-0.84 v -0.252 c 0,-0.476 -0.28,-0.84 -1.036,-0.84 -0.756,0 -1.036,0.364 -1.036,0.84 v 0.252 c 0,0.476 0.28,0.84 1.036,0.84 z m 18.249992,-3.332 v -1.022 h -7.699998 v 1.022 h 3.261998 v 8.75 h 1.176 v -8.75 z m 6.43001,8.75 v -1.022 h -4.844 v -3.416 h 4.676 v -1.022 h -4.676 v -3.29 h 4.844 v -1.022 h -6.02 v 9.772 z m 4.84799,-4.998 3.024,-4.774 h -1.288 l -1.176,1.89 -1.204,1.974 h -0.056 l -1.218,-1.974 -1.134,-1.89 h -1.33 l 3.01,4.788 -3.192,4.984 h 1.288 l 1.232,-1.946 1.33,-2.128 h 0.056 l 1.288,2.128 1.162,1.946 h 1.33 z m 10.322,-3.752 v -1.022 h -7.7 v 1.022 h 3.262 v 8.75 h 1.176 v -8.75 z"
       id="text5"
       style="font-size:14px;font-family:'IBM Plex Mono';-inkscape-font-specification:'IBM Plex Mono, Normal'"
       aria-label="version : TEXT" />
    <circle
       cx="18"
       cy="125.8359"
       fill="#000000"
       style="stroke:#000000;stroke-width:1"
       id="ellipse5"
       r="3" />
    <path
       d="m 34.364,129.1826 v -0.952 h -3.29 v -5.32 h 3.29 v -0.952 h -3.29 v -2.548 h -1.078 v 1.89 c 0,0.49 -0.182,0.658 -0.658,0.658 h -1.792 v 0.952 h 2.408 v 4.62 c 0,0.966 0.504,1.652 1.596,1.652 z m 4.924,-8.82 c 0.644,0 0.882,-0.308 0.882,-0.714 v -0.224 c 0,-0.406 -0.238,-0.714 -0.882,-0.714 -0.644,0 -0.882,0.308 -0.882,0.714 v 0.224 c 0,0.406 0.238,0.714 0.882,0.714 z m -3.164,8.82 h 6.16 v -0.952 h -2.436 v -6.272 h -3.724 v 0.952 h 2.604 v 5.32 h -2.604 z m 7.948,0 v -5.306 c 0,-0.77 0.42,-1.162 1.022,-1.162 0.658,0 0.868,0.406 0.868,1.638 v 4.83 h 1.036 v -5.306 c 0,-0.77 0.42,-1.162 1.008,-1.162 0.672,0 0.882,0.406 0.882,1.638 v 4.83 h 1.036 v -5.012 c 0,-1.526 -0.308,-2.38 -1.484,-2.38 -0.854,0 -1.302,0.476 -1.568,1.134 H 46.83 c -0.084,-0.672 -0.49,-1.134 -1.316,-1.134 -0.798,0 -1.162,0.448 -1.386,1.008 h -0.056 v -0.84 h -1.036 v 7.224 z m 10.173998,0.168 c 1.428,0 2.464,-0.7 2.898,-1.666 l -0.826,-0.56 c -0.378,0.784 -1.106,1.26 -2.072,1.26 -1.358,0 -2.212,-0.924 -2.212,-2.198 v -0.336 h 5.348 v -0.532 c 0,-2.044 -1.26,-3.528 -3.206,-3.528 -1.96,0 -3.318,1.484 -3.318,3.794 0,2.282 1.316,3.766 3.388,3.766 z m -0.07,-6.636 c 1.19,0 2.002,0.868 2.002,2.142 v 0.154 h -4.144 v -0.098 c 0,-1.26 0.91,-2.198 2.142,-2.198 z m 10.944001,8.834 v -1.036 h -6.72 v 1.036 z m 4.363998,-2.198 c 1.848,0 3.052,-0.826 3.052,-2.254 0,-1.568 -1.442,-1.848 -2.478,-2.002 l -1.134,-0.168 c -0.644,-0.098 -1.274,-0.294 -1.274,-1.05 0,-0.742 0.63,-1.148 1.764,-1.148 1.274,0 1.918,0.504 2.254,0.91 l 0.728,-0.686 c -0.686,-0.728 -1.638,-1.162 -2.94,-1.162 -1.68,0 -2.912,0.714 -2.912,2.156 0,1.568 1.456,1.848 2.478,2.002 l 1.134,0.168 c 0.658,0.098 1.274,0.294 1.274,1.05 0,0.854 -0.798,1.246 -1.918,1.246 -1.148,0 -1.932,-0.406 -2.618,-1.134 l -0.756,0.658 c 0.756,0.854 1.834,1.414 3.346,1.414 z m 7.681999,0 c 1.428,0 2.464,-0.7 2.898,-1.666 l -0.826,-0.56 c -0.378,0.784 -1.106,1.26 -2.072,1.26 -1.358,0 -2.212,-0.924 -2.212,-2.198 v -0.336 h 5.348 v -0.532 c 0,-2.044 -1.26,-3.528 -3.206,-3.528 -1.96,0 -3.318,1.484 -3.318,3.794 0,2.282 1.316,3.766 3.388,3.766 z m -0.07,-6.636 c 1.19,0 2.002,0.868 2.002,2.142 v 0.154 h -4.144 v -0.098 c 0,-1.26 0.91,-2.198 2.142,-2.198 z m 5.876,6.468 v -5.012 c 0,-0.952 0.896,-1.386 1.792,-1.386 1.106,0 1.708,0.644 1.708,1.96 v 4.438 h 1.12 v -4.634 c 0,-1.75 -0.994,-2.758 -2.506,-2.758 -1.19,0 -1.75,0.63 -2.058,1.344 h -0.056 v -1.176 h -1.12 v 7.224 z m 12.512003,0 v -0.952 h -3.29 v -5.32 h 3.29 v -0.952 h -3.29 v -2.548 h -1.078 v 1.89 c 0,0.49 -0.182,0.658 -0.658,0.658 h -1.792 v 0.952 h 2.408 v 4.62 c 0,0.966 0.504,1.652 1.596,1.652 z m 12.115991,0.126 c 0.756,0 1.036,-0.364 1.036,-0.84 v -0.252 c 0,-0.476 -0.28,-0.84 -1.036,-0.84 -0.756,0 -1.036,0.364 -1.036,0.84 v 0.252 c 0,0.476 0.28,0.84 1.036,0.84 z m 0,-5.544 c 0.756,0 1.036,-0.364 1.036,-0.84 v -0.252 c 0,-0.476 -0.28,-0.84 -1.036,-0.84 -0.756,0 -1.036,0.364 -1.036,0.84 v 0.252 c 0,0.476 0.28,0.84 1.036,0.84 z m 19.13,-3.332 v -1.022 h -7.7 v 1.022 h 3.262 v 8.75 h 1.176 v -8.75 z m 6.87,8.75 v -1.022 h -4.844 v -3.416 h 4.676 v -1.022 h -4.676 v -3.29 h 4.844 v -1.022 h -6.02 v 9.772 z m 5.288,-4.998 3.024,-4.774 h -1.288 l -1.176,1.89 -1.204,1.974 h -0.056 l -1.218,-1.974 -1.134,-1.89 h -1.33 l 3.01,4.788 -3.192,4.984 h 1.288 l 1.232,-1.946 1.33,-2.128 h 0.056 l 1.288,2.128 1.162,1.946 h 1.33 z m 10.762,-3.752 v -1.022 h -7.7 v 1.022 h 3.262 v 8.75 h 1.176 v -8.75 z"
       id="text6"
       style="font-size:14px;font-family:'IBM Plex Mono';-inkscape-font-specification:'IBM Plex Mono, Normal'"
       aria-label="time_sent : TEXT" />
    <circle
       cx="18"
       cy="142.1328"
       fill="#000000"
       style="stroke:#000000;stroke-width:1"
       id="ellipse6"
       r="3" />
    <path
       d="m 34.364,145.47951 v -0.952 h -3.29 v -5.32 h 3.29 v -0.952 h -3.29 v -2.548 h -1.078 v 1.89 c 0,0.49 -0.182,0.658 -0.658,0.658 h -1.792 v 0.952 h 2.408 v 4.62 c 0,0.966 0.504,1.652 1.596,1.652 z m 4.857333,-8.82 c 0.644,0 0.882,-0.308 0.882,-0.714 v -0.224 c 0,-0.406 -0.238,-0.714 -0.882,-0.714 -0.644,0 -0.882,0.308 -0.882,0.714 v 0.224 c 0,0.406 0.238,0.714 0.882,0.714 z m -3.164,8.82 h 6.16 v -0.952 h -2.436 v -6.272 h -3.724 v 0.952 h 2.604 v 5.32 h -2.604 z m 7.881333,0 v -5.306 c 0,-0.77 0.42,-1.162 1.022,-1.162 0.658,0 0.868,0.406 0.868,1.638 v 4.83 h 1.036 v -5.306 c 0,-0.77 0.42,-1.162 1.008,-1.162 0.672,0 0.882,0.406 0.882,1.638 v 4.83 h 1.036 v -5.012 c 0,-1.526 -0.308,-2.38 -1.484,-2.38 -0.854,0 -1.302,0.476 -1.568,1.134 h -0.042 c -0.084,-0.672 -0.49,-1.134 -1.316,-1.134 -0.798,0 -1.162,0.448 -1.386,1.008 h -0.056 v -0.84 h -1.036 v 7.224 z m 10.107333,0.168 c 1.428,0 2.464,-0.7 2.898,-1.666 l -0.826,-0.56 c -0.378,0.784 -1.106,1.26 -2.072,1.26 -1.358,0 -2.212,-0.924 -2.212,-2.198 v -0.336 h 5.348 v -0.532 c 0,-2.044 -1.26,-3.528 -3.206,-3.528 -1.96,0 -3.318,1.484 -3.318,3.794 0,2.282 1.316,3.766 3.388,3.766 z m -0.07,-6.636 c 1.19,0 2.002,0.868 2.002,2.142 v 0.154 h -4.144 v -0.098 c 0,-1.26 0.91,-2.198 2.142,-2.198 z m 10.877332,8.834 v -1.036 h -6.72 v 1.036 z m 1.091334,-2.366 h 5.488 v -0.952 h -2.254 v -3.122 c 0,-1.12 0.742,-2.03 2.156,-2.03 h 1.358 v -1.12 h -1.008 c -1.512,0 -2.156,0.868 -2.436,1.82 h -0.07 v -1.82 h -3.234 v 0.952 h 2.114 v 5.32 h -2.114 z m 10.821334,0.168 c 1.428,0 2.464,-0.7 2.898,-1.666 l -0.826,-0.56 c -0.378,0.784 -1.106,1.26 -2.072,1.26 -1.358,0 -2.212,-0.924 -2.212,-2.198 v -0.336 h 5.348 v -0.532 c 0,-2.044 -1.26,-3.528 -3.206,-3.528 -1.96,0 -3.318,1.484 -3.318,3.794 0,2.282 1.316,3.766 3.388,3.766 z m -0.07,-6.636 c 1.19,0 2.002,0.868 2.002,2.142 v 0.154 h -4.144 v -0.098 c 0,-1.26 0.91,-2.198 2.142,-2.198 z m 7.769333,6.636 c 1.442,0 2.352,-0.714 2.772,-1.68 l -0.798,-0.546 c -0.364,0.784 -0.994,1.26 -1.96,1.26 -1.358,0 -2.086,-0.924 -2.086,-2.198 v -1.232 c 0,-1.274 0.742,-2.198 2.058,-2.198 0.896,0 1.512,0.434 1.778,1.176 l 0.896,-0.476 c -0.406,-0.98 -1.274,-1.666 -2.674,-1.666 -2.044,0 -3.262,1.484 -3.262,3.78 0,2.282 1.204,3.78 3.276,3.78 z m 8.03533,-0.168 2.59,-7.224 h -1.106 l -1.036,3.024 -1.12,3.262 h -0.056 l -1.12,-3.262 -1.036,-3.024 h -1.134 l 2.59,7.224 z m 14.432668,0.126 c 0.756,0 1.036,-0.364 1.036,-0.84 v -0.252 c 0,-0.476 -0.28,-0.84 -1.036,-0.84 -0.756,0 -1.036,0.364 -1.036,0.84 v 0.252 c 0,0.476 0.28,0.84 1.036,0.84 z m 0,-5.544 c 0.756,0 1.036,-0.364 1.036,-0.84 v -0.252 c 0,-0.476 -0.28,-0.84 -1.036,-0.84 -0.756,0 -1.036,0.364 -1.036,0.84 v 0.252 c 0,0.476 0.28,0.84 1.036,0.84 z m 18.99667,-3.332 v -1.022 h -7.7 v 1.022 h 3.262 v 8.75 h 1.176 v -8.75 z m 6.80333,8.75 v -1.022 h -4.844 v -3.416 h 4.676 v -1.022 h -4.676 v -3.29 h 4.844 v -1.022 h -6.02 v 9.772 z m 5.22133,-4.998 3.024,-4.774 h -1.288 l -1.176,1.89 -1.204,1.974 h -0.056 l -1.218,-1.974 -1.134,-1.89 h -1.33 l 3.01,4.788 -3.192,4.984 h 1.288 l 1.232,-1.946 1.33,-2.128 h 0.056 l 1.288,2.128 1.162,1.946 h 1.33 z m 10.69534,-3.752 v -1.022 h -7.7 v 1.022 h 3.262 v 8.75 h 1.176 v -8.75 z"
       id="text7"
       style="font-size:14px;font-family:'IBM Plex Mono';-inkscape-font-specification:'IBM Plex Mono, Normal'"
       aria-label="time_recv : TEXT" />
    <circle
       cx="18"
       cy="158.4297"
       fill="#000000"
       style="stroke:#000000;stroke-width:1"
       id="ellipse7"
       r="3" />
    <path
       d="m 31.326,161.9444 c 1.428,0 2.464,-0.7 2.898,-1.666 l -0.826,-0.56 c -0.378,0.784 -1.106,1.26 -2.072,1.26 -1.358,0 -2.212,-0.924 -2.212,-2.198 v -0.336 h 5.348 v -0.532 c 0,-2.044 -1.26,-3.528 -3.206,-3.528 -1.96,0 -3.318,1.484 -3.318,3.794 0,2.282 1.316,3.766 3.388,3.766 z m -0.07,-6.636 c 1.19,0 2.002,0.868 2.002,2.142 v 0.154 h -4.144 v -0.098 c 0,-1.26 0.91,-2.198 2.142,-2.198 z m 4.150571,6.468 h 5.488 v -0.952 h -2.254 v -3.122 c 0,-1.12 0.742,-2.03 2.156,-2.03 h 1.358 v -1.12 h -1.008 c -1.512,0 -2.156,0.868 -2.436,1.82 h -0.07 v -1.82 h -3.234 v 0.952 h 2.114 v 5.32 h -2.114 z m 7.328572,0 h 5.488 v -0.952 h -2.254 v -3.122 c 0,-1.12 0.742,-2.03 2.156,-2.03 h 1.358 v -1.12 h -1.008 c -1.512,0 -2.156,0.868 -2.436,1.82 h -0.07 v -1.82 h -3.234 v 0.952 h 2.114 v 5.32 h -2.114 z m 10.450571,0.168 c 2.03,0 3.276,-1.484 3.276,-3.78 0,-2.296 -1.246,-3.78 -3.276,-3.78 -2.03,0 -3.276,1.484 -3.276,3.78 0,2.296 1.246,3.78 3.276,3.78 z m 0,-0.966 c -1.246,0 -2.086,-0.742 -2.086,-2.296 v -1.036 c 0,-1.554 0.84,-2.296 2.086,-2.296 1.246,0 2.086,0.742 2.086,2.296 v 1.036 c 0,1.554 -0.84,2.296 -2.086,2.296 z m 4.206571,0.798 h 5.488 v -0.952 h -2.254 v -3.122 c 0,-1.12 0.742,-2.03 2.156,-2.03 h 1.358 v -1.12 h -1.008 c -1.512,0 -2.156,0.868 -2.436,1.82 h -0.07 v -1.82 h -3.234 v 0.952 h 2.114 v 5.32 h -2.114 z m 17.779143,0.126 c 0.756,0 1.036,-0.364 1.036,-0.84 v -0.252 c 0,-0.476 -0.28,-0.84 -1.036,-0.84 -0.756,0 -1.036,0.364 -1.036,0.84 v 0.252 c 0,0.476 0.28,0.84 1.036,0.84 z m 0,-5.544 c 0.756,0 1.036,-0.364 1.036,-0.84 v -0.252 c 0,-0.476 -0.28,-0.84 -1.036,-0.84 -0.756,0 -1.036,0.364 -1.036,0.84 v 0.252 c 0,0.476 0.28,0.84 1.036,0.84 z m 17.681143,5.418 v -0.938 h -2.436 v -7.896 h 2.436 v -0.938 h -6.048 v 0.938 h 2.436 v 7.896 h -2.436 v 0.938 z m 5.718567,0 h 1.666002 v -9.772 h -1.064002 v 8.232 h -0.098 l -3.332,-8.232 h -1.666 v 9.772 h 1.064 v -8.232 h 0.098 z m 9.764572,-8.75 v -1.022 h -7.7 v 1.022 h 3.262 v 8.75 h 1.176 v -8.75 z m 6.55858,8.75 v -1.022 h -4.844 v -3.416 h 4.676 v -1.022 h -4.676 v -3.29 h 4.844 v -1.022 h -6.02 v 9.772 z m 6.26457,0 h 1.092 v -4.83 h -3.15 v 0.938 h 2.058 v 1.008 c 0,1.204 -0.756,2.058 -2.016,2.058 -1.596,0 -2.17,-1.386 -2.17,-3.346 v -1.512 c 0,-1.96 0.714,-3.234 2.282,-3.234 1.176,0 1.638,0.714 1.988,1.582 l 1.008,-0.462 c -0.42,-1.064 -1.204,-2.142 -3.038,-2.142 -2.352,0 -3.486,1.792 -3.486,5.124 0,3.192 1.036,4.984 3.15,4.984 1.344,0 1.89,-0.714 2.212,-1.47 h 0.07 z m 8.39256,0 v -1.022 h -4.844 v -3.416 h 4.676 v -1.022 h -4.676 v -3.29 h 4.844 v -1.022 h -6.02 v 9.772 z m 2.48458,-4.172 h 1.554 l 2.38,4.172 h 1.316 l -2.492,-4.228 c 1.554,-0.154 2.408,-1.162 2.408,-2.73 0,-1.764 -0.98,-2.814 -2.786,-2.814 h -3.556 v 9.772 h 1.176 z m 0,-0.994 v -3.584 h 2.352 c 0.98,0 1.568,0.518 1.568,1.428 v 0.728 c 0,0.91 -0.588,1.428 -1.568,1.428 z"
       id="text8"
       style="font-size:14px;font-family:'IBM Plex Mono';-inkscape-font-specification:'IBM Plex Mono, Normal'"
       aria-label="error : INTEGER" />
    <circle
       cx="18"
       cy="174.72659"
       fill="#000000"
       style="stroke:#000000;stroke-width:1"
       id="ellipse8"
       r="3" />
    <path
       d="m 31.648,169.2532 c 0.644,0 0.882,-0.308 0.882,-0.714 v -0.224 c 0,-0.406 -0.238,-0.714 -0.882,-0.714 -0.644,0 -0.882,0.308 -0.882,0.714 v 0.224 c 0,0.406 0.238,0.714 0.882,0.714 z m -3.164,8.82 h 6.16 v -0.952 h -2.436 v -6.272 h -3.724 v 0.952 h 2.604 v 5.32 h -2.604 z m 8.16094,0 v -5.012 c 0,-0.952 0.896,-1.386 1.792,-1.386 1.106,0 1.708,0.644 1.708,1.96 v 4.438 h 1.12 v -4.634 c 0,-1.75 -0.994,-2.758 -2.506,-2.758 -1.19,0 -1.75,0.63 -2.058,1.344 h -0.056 v -1.176 h -1.12 v 7.224 z m 12.024941,0 v -0.952 h -3.29 v -5.32 h 3.29 v -0.952 h -3.29 v -2.548 h -1.078 v 1.89 c 0,0.49 -0.182,0.658 -0.658,0.658 h -1.792 v 0.952 h 2.408 v 4.62 c 0,0.966 0.504,1.652 1.596,1.652 z m 4.114939,0.168 c 1.428,0 2.464,-0.7 2.898,-1.666 l -0.826,-0.56 c -0.378,0.784 -1.106,1.26 -2.072,1.26 -1.358,0 -2.212,-0.924 -2.212,-2.198 v -0.336 h 5.348 v -0.532 c 0,-2.044 -1.26,-3.528 -3.206,-3.528 -1.96,0 -3.318,1.484 -3.318,3.794 0,2.282 1.316,3.766 3.388,3.766 z m -0.07,-6.636 c 1.19,0 2.002,0.868 2.002,2.142 v 0.154 h -4.144 v -0.098 c 0,-1.26 0.91,-2.198 2.142,-2.198 z m 3.974941,6.468 h 5.488 v -0.952 h -2.254 v -3.122 c 0,-1.12 0.742,-2.03 2.156,-2.03 h 1.358 v -1.12 h -1.008 c -1.512,0 -2.156,0.868 -2.436,1.82 h -0.07 v -1.82 h -3.234 v 0.952 h 2.114 v 5.32 h -2.114 z m 10.988941,0 2.59,-7.224 h -1.106 l -1.036,3.024 -1.12,3.262 h -0.056 l -1.12,-3.262 -1.036,-3.024 h -1.134 l 2.59,7.224 z m 9.938939,0 v -0.98 h -1.008 v -3.976 c 0,-1.526 -1.078,-2.436 -2.772,-2.436 -1.47,0 -2.394,0.7 -2.758,1.456 l 0.756,0.56 c 0.378,-0.658 0.966,-1.064 1.932,-1.064 1.092,0 1.722,0.546 1.722,1.596 v 0.714 h -1.54 c -2.17,0 -3.108,0.77 -3.108,2.1 0,1.358 0.966,2.198 2.478,2.198 1.176,0 1.862,-0.518 2.17,-1.344 h 0.07 c 0.084,0.672 0.42,1.176 1.288,1.176 z m -4.102,-0.77 c -0.924,0 -1.498,-0.392 -1.498,-1.134 v -0.294 c 0,-0.7 0.602,-1.092 1.932,-1.092 h 1.54 v 1.19 c 0,0.742 -0.826,1.33 -1.974,1.33 z m 4.674942,0.77 h 6.16 v -0.952 h -2.52 v -9.408 h -3.64 v 0.952 h 2.52 v 8.456 h -2.52 z m 17.385882,0.126 c 0.756,0 1.036,-0.364 1.036,-0.84 v -0.252 c 0,-0.476 -0.28,-0.84 -1.036,-0.84 -0.756,0 -1.036,0.364 -1.036,0.84 v 0.252 c 0,0.476 0.28,0.84 1.036,0.84 z m 0,-5.544 c 0.756,0 1.036,-0.364 1.036,-0.84 v -0.252 c 0,-0.476 -0.28,-0.84 -1.036,-0.84 -0.756,0 -1.036,0.364 -1.036,0.84 v 0.252 c 0,0.476 0.28,0.84 1.036,0.84 z m 17.329875,5.418 v -0.938 h -2.436 v -7.896 h 2.436 v -0.938 h -6.048 v 0.938 h 2.436 v 7.896 h -2.436 v 0.938 z m 5.54294,0 h 1.666 v -9.772 h -1.064 v 8.232 h -0.098 l -3.332,-8.232 h -1.666 v 9.772 h 1.064 v -8.232 h 0.098 z m 9.58895,-8.75 v -1.022 h -7.7 v 1.022 h 3.262 v 8.75 h 1.176 v -8.75 z m 6.38294,8.75 v -1.022 h -4.844 v -3.416 h 4.676 v -1.022 h -4.676 v -3.29 h 4.844 v -1.022 h -6.02 v 9.772 z m 6.08894,0 h 1.092 v -4.83 h -3.15 v 0.938 h 2.058 v 1.008 c 0,1.204 -0.756,2.058 -2.016,2.058 -1.596,0 -2.17,-1.386 -2.17,-3.346 v -1.512 c 0,-1.96 0.714,-3.234 2.282,-3.234 1.176,0 1.638,0.714 1.988,1.582 l 1.008,-0.462 c -0.42,-1.064 -1.204,-2.142 -3.038,-2.142 -2.352,0 -3.486,1.792 -3.486,5.124 0,3.192 1.036,4.984 3.15,4.984 1.344,0 1.89,-0.714 2.212,-1.47 h 0.07 z m 8.21693,0 v -1.022 h -4.844 v -3.416 h 4.676 v -1.022 h -4.676 v -3.29 h 4.844 v -1.022 h -6.02 v 9.772 z m 2.30895,-4.172 h 1.554 l 2.38,4.172 h 1.316 l -2.492,-4.228 c 1.554,-0.154 2.408,-1.162 2.408,-2.73 0,-1.764 -0.98,-2.814 -2.786,-2.814 h -3.556 v 9.772 h 1.176 z m 0,-0.994 v -3.584 h 2.352 c 0.98,0 1.568,0.518 1.568,1.428 v 0.728 c 0,0.91 -0.588,1.428 -1.568,1.428 z"
       id="text9"
       style="font-size:14px;font-family:'IBM Plex Mono';-inkscape-font-specification:'IBM Plex Mono, Normal'"
       aria-label="interval : INTEGER" />
    <circle
       cx="18"
       cy="191.02341"
       fill="#000000"
       style="stroke:#000000;stroke-width:1"
       id="ellipse9"
       r="3" />
    <path
       d="m 32.908,194.3701 h 1.12 v -7.224 h -1.12 v 5.012 c 0,0.952 -0.896,1.386 -1.792,1.386 -1.106,0 -1.708,-0.644 -1.708,-1.96 v -4.438 h -1.12 v 4.634 c 0,1.75 0.994,2.758 2.506,2.758 1.19,0 1.75,-0.63 2.058,-1.344 h 0.056 z m 3.328666,2.8 h 1.12 v -3.976 h 0.056 c 0.462,0.882 1.218,1.344 2.226,1.344 1.764,0 2.828,-1.414 2.828,-3.78 0,-2.366 -1.064,-3.78 -2.828,-3.78 -1.008,0 -1.764,0.462 -2.226,1.344 h -0.056 v -1.176 h -1.12 z m 2.968,-3.626 c -0.994,0 -1.848,-0.518 -1.848,-1.484 v -2.604 c 0,-0.966 0.854,-1.484 1.848,-1.484 1.302,0 2.058,0.868 2.058,2.17 v 1.232 c 0,1.302 -0.756,2.17 -2.058,2.17 z m 10.972667,0.826 v -0.952 h -3.29 v -5.32 h 3.29 v -0.952 h -3.29 v -2.548 h -1.078 v 1.89 c 0,0.49 -0.182,0.658 -0.658,0.658 h -1.792 v 0.952 h 2.408 v 4.62 c 0,0.966 0.504,1.652 1.596,1.652 z m 5.190666,-8.82 c 0.644,0 0.882,-0.308 0.882,-0.714 v -0.224 c 0,-0.406 -0.238,-0.714 -0.882,-0.714 -0.644,0 -0.882,0.308 -0.882,0.714 v 0.224 c 0,0.406 0.238,0.714 0.882,0.714 z m -3.164,8.82 h 6.16 v -0.952 h -2.436 v -6.272 h -3.724 v 0.952 h 2.604 v 5.32 h -2.604 z m 8.214666,0 v -5.306 c 0,-0.77 0.42,-1.162 1.022,-1.162 0.658,0 0.868,0.406 0.868,1.638 v 4.83 h 1.036 v -5.306 c 0,-0.77 0.42,-1.162 1.008,-1.162 0.672,0 0.882,0.406 0.882,1.638 v 4.83 h 1.036 v -5.012 c 0,-1.526 -0.308,-2.38 -1.484,-2.38 -0.854,0 -1.302,0.476 -1.568,1.134 h -0.042 c -0.084,-0.672 -0.49,-1.134 -1.316,-1.134 -0.798,0 -1.162,0.448 -1.386,1.008 h -0.056 v -0.84 h -1.036 v 7.224 z m 10.440668,0.168 c 1.428,0 2.464,-0.7 2.898,-1.666 l -0.826,-0.56 c -0.378,0.784 -1.106,1.26 -2.072,1.26 -1.358,0 -2.212,-0.924 -2.212,-2.198 v -0.336 h 5.348 v -0.532 c 0,-2.044 -1.26,-3.528 -3.206,-3.528 -1.96,0 -3.318,1.484 -3.318,3.794 0,2.282 1.316,3.766 3.388,3.766 z m -0.07,-6.636 c 1.19,0 2.002,0.868 2.002,2.142 v 0.154 h -4.144 v -0.098 c 0,-1.26 0.91,-2.198 2.142,-2.198 z m 15.757331,6.594 c 0.756,0 1.036,-0.364 1.036,-0.84 v -0.252 c 0,-0.476 -0.28,-0.84 -1.036,-0.84 -0.756,0 -1.036,0.364 -1.036,0.84 v 0.252 c 0,0.476 0.28,0.84 1.036,0.84 z m 0,-5.544 c 0.756,0 1.036,-0.364 1.036,-0.84 v -0.252 c 0,-0.476 -0.28,-0.84 -1.036,-0.84 -0.756,0 -1.036,0.364 -1.036,0.84 v 0.252 c 0,0.476 0.28,0.84 1.036,0.84 z m 18.837336,5.418 v -0.938 h -2.436 v -7.896 h 2.436 v -0.938 h -6.048004 v 0.938 H 101.772 v 7.896 h -2.436004 v 0.938 z m 6.29667,0 h 1.666 v -9.772 h -1.064 v 8.232 h -0.098 l -3.332,-8.232 h -1.666 v 9.772 h 1.064 v -8.232 h 0.098 z m 10.34266,-8.75 v -1.022 h -7.7 v 1.022 h 3.262 v 8.75 h 1.176 v -8.75 z m 7.13667,8.75 v -1.022 h -4.844 v -3.416 h 4.676 v -1.022 h -4.676 v -3.29 h 4.844 v -1.022 h -6.02 v 9.772 z m 6.84266,0 h 1.092 v -4.83 h -3.15 v 0.938 h 2.058 v 1.008 c 0,1.204 -0.756,2.058 -2.016,2.058 -1.596,0 -2.17,-1.386 -2.17,-3.346 v -1.512 c 0,-1.96 0.714,-3.234 2.282,-3.234 1.176,0 1.638,0.714 1.988,1.582 l 1.008,-0.462 c -0.42,-1.064 -1.204,-2.142 -3.038,-2.142 -2.352,0 -3.486,1.792 -3.486,5.124 0,3.192 1.036,4.984 3.15,4.984 1.344,0 1.89,-0.714 2.212,-1.47 h 0.07 z m 8.97067,0 v -1.022 h -4.844 v -3.416 h 4.676 v -1.022 h -4.676 v -3.29 h 4.844 v -1.022 h -6.02 v 9.772 z m 3.06266,-4.172 h 1.554 l 2.38,4.172 h 1.316 l -2.492,-4.228 c 1.554,-0.154 2.408,-1.162 2.408,-2.73 0,-1.764 -0.98,-2.814 -2.786,-2.814 h -3.556 v 9.772 h 1.176 z m 0,-0.994 v -3.584 h 2.352 c 0.98,0 1.568,0.518 1.568,1.428 v 0.728 c 0,0.91 -0.588,1.428 -1.568,1.428 z"
       id="text10"
       style="font-size:14px;font-family:'IBM Plex Mono';-inkscape-font-specification:'IBM Plex Mono, Normal'"
       aria-label="uptime : INTEGER" />
    <line
       style="stroke:#181818;stroke-width:1"
       x1="8"
       x2="284"
       y1="201.67191"
       y2="201.67191"
       id="line10" />
    <path
       d="m 31.648,209.84701 c 0.644,0 0.882,-0.308 0.882,-0.714 v -0.224 c 0,-0.406 -0.238,-0.714 -0.882,-0.714 -0.644,0 -0.882,0.308 -0.882,0.714 v 0.224 c 0,0.406 0.238,0.714 0.882,0.714 z m -3.164,8.82 h 6.16 v -0.952 h -2.436 v -6.272 h -3.724 v 0.952 h 2.604 v 5.32 h -2.604 z m 11.746,0 h 1.12 v -10.36 h -1.12 v 4.312 h -0.056 c -0.462,-0.882 -1.218,-1.344 -2.226,-1.344 -1.764,0 -2.828,1.414 -2.828,3.78 0,2.366 1.064,3.78 2.828,3.78 1.008,0 1.764,-0.462 2.226,-1.344 h 0.056 z m -1.848,-0.826 c -1.302,0 -2.058,-0.868 -2.058,-2.17 v -1.232 c 0,-1.302 0.756,-2.17 2.058,-2.17 0.994,0 1.848,0.518 1.848,1.484 v 2.604 c 0,0.966 -0.854,1.484 -1.848,1.484 z m 5.319999,0.826 1.176,-1.694 0.798,-1.148 h 0.056 l 0.826,1.148 1.218,1.694 h 1.344 l -2.716,-3.682 2.646,-3.542 h -1.288 l -1.078,1.526 -0.84,1.204 h -0.056 l -0.868,-1.204 -1.092,-1.526 h -1.344 l 2.618,3.556 -2.688,3.668 z m 12.697999,2.366 v -1.036 h -6.72 v 1.036 z m 2.212001,-2.366 v -5.012 c 0,-0.952 0.896,-1.386 1.792,-1.386 1.106,0 1.708,0.644 1.708,1.96 v 4.438 h 1.12 v -4.634 c 0,-1.75 -0.994,-2.758 -2.506,-2.758 -1.19,0 -1.75,0.63 -2.058,1.344 h -0.056 v -1.176 h -1.12 v 7.224 z m 8.987999,0.168 c 2.03,0 3.276,-1.484 3.276,-3.78 0,-2.296 -1.246,-3.78 -3.276,-3.78 -2.03,0 -3.276,1.484 -3.276,3.78 0,2.296 1.246,3.78 3.276,3.78 z m 0,-0.966 c -1.246,0 -2.086,-0.742 -2.086,-2.296 v -1.036 c 0,-1.554 0.84,-2.296 2.086,-2.296 1.246,0 2.086,0.742 2.086,2.296 v 1.036 c 0,1.554 -0.84,2.296 -2.086,2.296 z m 9.029998,0.798 h 1.12 v -10.36 h -1.12 v 4.312 h -0.056 c -0.462,-0.882 -1.218,-1.344 -2.226,-1.344 -1.764,0 -2.828,1.414 -2.828,3.78 0,2.366 1.064,3.78 2.828,3.78 1.008,0 1.764,-0.462 2.226,-1.344 h 0.056 z m -1.848,-0.826 c -1.302,0 -2.058,-0.868 -2.058,-2.17 v -1.232 c 0,-1.302 0.756,-2.17 2.058,-2.17 0.994,0 1.848,0.518 1.848,1.484 v 2.604 c 0,0.966 -0.854,1.484 -1.848,1.484 z m 7.503999,0.994 c 1.428,0 2.464,-0.7 2.898,-1.666 l -0.826,-0.56 c -0.378,0.784 -1.106,1.26 -2.072,1.26 -1.358,0 -2.212,-0.924 -2.212,-2.198 v -0.336 h 5.348 v -0.532 c 0,-2.044 -1.26,-3.528 -3.206,-3.528 -1.96,0 -3.318,1.484 -3.318,3.794 0,2.282 1.316,3.766 3.388,3.766 z m -0.07,-6.636 c 1.19,0 2.002,0.868 2.002,2.142 v 0.154 h -4.144 v -0.098 c 0,-1.26 0.91,-2.198 2.142,-2.198 z m 10.584003,8.834 v -1.036 h -6.72 v 1.036 z m 4.367999,-11.186 c 0.644,0 0.882,-0.308 0.882,-0.714 v -0.224 c 0,-0.406 -0.238,-0.714 -0.882,-0.714 -0.644,0 -0.882,0.308 -0.882,0.714 v 0.224 c 0,0.406 0.238,0.714 0.882,0.714 z m -3.164,8.82 H 100.164 v -0.952 h -2.436003 v -6.272 h -3.724 v 0.952 h 2.604 v 5.32 h -2.604 z m 11.746003,0 h 1.12 v -10.36 h -1.12 v 4.312 h -0.056 c -0.462,-0.882 -1.218,-1.344 -2.226,-1.344 -1.764,0 -2.828,1.414 -2.828,3.78 0,2.366 1.064,3.78 2.828,3.78 1.008,0 1.764,-0.462 2.226,-1.344 h 0.056 z m -1.848,-0.826 c -1.302,0 -2.058,-0.868 -2.058,-2.17 v -1.232 c 0,-1.302 0.756,-2.17 2.058,-2.17 0.994,0 1.848,0.518 1.848,1.484 v 2.604 c 0,0.966 -0.854,1.484 -1.848,1.484 z m 13.32799,-3.528 c 0,2.73 1.33,5.11 2.912,6.286 h 1.134 c -1.624,-1.218 -2.996,-3.29 -2.996,-5.684 v -1.204 c 0,-2.394 1.372,-4.466 2.996,-5.684 h -1.134 c -1.582,1.176 -2.912,3.556 -2.912,6.286 z m 6.902,4.354 v -5.012 c 0,-0.952 0.896,-1.386 1.792,-1.386 1.106,0 1.708,0.644 1.708,1.96 v 4.438 h 1.12 v -4.634 c 0,-1.75 -0.994,-2.758 -2.506,-2.758 -1.19,0 -1.75,0.63 -2.058,1.344 h -0.056 v -1.176 h -1.12 v 7.224 z m 8.988,0.168 c 2.03,0 3.276,-1.484 3.276,-3.78 0,-2.296 -1.246,-3.78 -3.276,-3.78 -2.03,0 -3.276,1.484 -3.276,3.78 0,2.296 1.246,3.78 3.276,3.78 z m 0,-0.966 c -1.246,0 -2.086,-0.742 -2.086,-2.296 v -1.036 c 0,-1.554 0.84,-2.296 2.086,-2.296 1.246,0 2.086,0.742 2.086,2.296 v 1.036 c 0,1.554 -0.84,2.296 -2.086,2.296 z m 9.03,0.798 h 1.12 v -10.36 h -1.12 v 4.312 h -0.056 c -0.462,-0.882 -1.218,-1.344 -2.226,-1.344 -1.764,0 -2.828,1.414 -2.828,3.78 0,2.366 1.064,3.78 2.828,3.78 1.008,0 1.764,-0.462 2.226,-1.344 h 0.056 z m -1.848,-0.826 c -1.302,0 -2.058,-0.868 -2.058,-2.17 v -1.232 c 0,-1.302 0.756,-2.17 2.058,-2.17 0.994,0 1.848,0.518 1.848,1.484 v 2.604 c 0,0.966 -0.854,1.484 -1.848,1.484 z m 7.50401,0.994 c 1.428,0 2.464,-0.7 2.898,-1.666 l -0.826,-0.56 c -0.378,0.784 -1.106,1.26 -2.072,1.26 -1.358,0 -2.212,-0.924 -2.212,-2.198 v -0.336 h 5.348 v -0.532 c 0,-2.044 -1.26,-3.528 -3.206,-3.528 -1.96,0 -3.318,1.484 -3.318,3.794 0,2.282 1.316,3.766 3.388,3.766 z m -0.07,-6.636 c 1.19,0 2.002,0.868 2.002,2.142 v 0.154 h -4.144 v -0.098 c 0,-1.26 0.91,-2.198 2.142,-2.198 z m 10.58399,8.834 v -1.036 h -6.72 v 1.036 z m 4.368,-11.186 c 0.644,0 0.882,-0.308 0.882,-0.714 v -0.224 c 0,-0.406 -0.238,-0.714 -0.882,-0.714 -0.644,0 -0.882,0.308 -0.882,0.714 v 0.224 c 0,0.406 0.238,0.714 0.882,0.714 z m -3.164,8.82 h 6.16 v -0.952 h -2.436 v -6.272 h -3.724 v 0.952 h 2.604 v 5.32 h -2.604 z m 11.746,0 h 1.12 v -10.36 h -1.12 v 4.312 h -0.056 c -0.462,-0.882 -1.218,-1.344 -2.226,-1.344 -1.764,0 -2.828,1.414 -2.828,3.78 0,2.366 1.064,3.78 2.828,3.78 1.008,0 1.764,-0.462 2.226,-1.344 h 0.056 z m -1.848,-0.826 c -1.302,0 -2.058,-0.868 -2.058,-2.17 v -1.232 c 0,-1.302 0.756,-2.17 2.058,-2.17 0.994,0 1.848,0.518 1.848,1.484 v 2.604 c 0,0.966 -0.854,1.484 -1.848,1.484 z m 8.708,-3.528 c 0,-2.73 -1.33,-5.11 -2.912,-6.286 h -1.134 c 1.624,1.218 2.996,3.29 2.996,5.684 v 1.204 c 0,2.394 -1.372,4.466 -2.996,5.684 h 1.134 c 1.582,-1.176 2.912,-3.556 2.912,-6.286 z"
       id="text11"
       style="font-size:14px;font-family:'IBM Plex Mono';-inkscape-font-specification:'IBM Plex Mono, Normal'"
       aria-label="idx_node_id (node_id)" />
    <rect
       fill="#f24d5c"
       height="6"
       style="stroke:#c82930;stroke-width:1"
       width="6"
       x="15"
       y="228.6172"
       id="rect11" />
    <path
       d="m 31.284,235.1319 c 1.848,0 3.052,-0.826 3.052,-2.254 0,-1.568 -1.442,-1.848 -2.478,-2.002 l -1.134,-0.168 c -0.644,-0.098 -1.274,-0.294 -1.274,-1.05 0,-0.742 0.63,-1.148 1.764,-1.148 1.274,0 1.918,0.504 2.254,0.91 l 0.728,-0.686 c -0.686,-0.728 -1.638,-1.162 -2.94,-1.162 -1.68,0 -2.912,0.714 -2.912,2.156 0,1.568 1.456,1.848 2.478,2.002 l 1.134,0.168 c 0.658,0.098 1.274,0.294 1.274,1.05 0,0.854 -0.798,1.246 -1.918,1.246 -1.148,0 -1.932,-0.406 -2.618,-1.134 l -0.756,0.658 c 0.756,0.854 1.834,1.414 3.346,1.414 z m 9.047818,2.632 h 1.12 v -10.024 h -1.12 v 1.176 h -0.056 c -0.462,-0.882 -1.218,-1.344 -2.226,-1.344 -1.764,0 -2.828,1.414 -2.828,3.78 0,2.366 1.064,3.78 2.828,3.78 1.008,0 1.764,-0.462 2.226,-1.344 h 0.056 z m -1.848,-3.626 c -1.302,0 -2.058,-0.868 -2.058,-2.17 v -1.232 c 0,-1.302 0.756,-2.17 2.058,-2.17 0.994,0 1.848,0.518 1.848,1.484 v 2.604 c 0,0.966 -0.854,1.484 -1.848,1.484 z m 4.399818,0.826 h 6.16 v -0.952 h -2.52 v -9.408 h -3.64 v 0.952 h 2.52 v 8.456 h -2.52 z m 10.909816,-8.82 c 0.644,0 0.882,-0.308 0.882,-0.714 v -0.224 c 0,-0.406 -0.238,-0.714 -0.882,-0.714 -0.644,0 -0.882,0.308 -0.882,0.714 v 0.224 c 0,0.406 0.238,0.714 0.882,0.714 z m -3.164,8.82 h 6.16 v -0.952 h -2.436 v -6.272 h -3.724 v 0.952 h 2.604 v 5.32 h -2.604 z m 13.261819,0 v -0.952 h -3.29 v -5.32 h 3.29 v -0.952 h -3.29 v -2.548 h -1.078 v 1.89 c 0,0.49 -0.182,0.658 -0.658,0.658 h -1.792 v 0.952 h 2.408 v 4.62 c 0,0.966 0.504,1.652 1.596,1.652 z m 4.343817,0.168 c 1.428,0 2.464,-0.7 2.898,-1.666 l -0.826,-0.56 c -0.378,0.784 -1.106,1.26 -2.072,1.26 -1.358,0 -2.212,-0.924 -2.212,-2.198 v -0.336 h 5.348 v -0.532 c 0,-2.044 -1.26,-3.528 -3.206,-3.528 -1.96,0 -3.318,1.484 -3.318,3.794 0,2.282 1.316,3.766 3.388,3.766 z m -0.07,-6.636 c 1.19,0 2.002,0.868 2.002,2.142 v 0.154 h -4.144 v -0.098 c 0,-1.26 0.91,-2.198 2.142,-2.198 z m 10.685817,8.834 v -1.036 h -6.72 v 1.036 z m 7.521821,-2.366 v -0.98 h -1.008 v -3.976 c 0,-1.526 -1.078,-2.436 -2.772,-2.436 -1.47,0 -2.394,0.7 -2.758,1.456 l 0.756,0.56 c 0.378,-0.658 0.966,-1.064 1.932,-1.064 1.092,0 1.722,0.546 1.722,1.596 v 0.714 h -1.54 c -2.17,0 -3.108,0.77 -3.108,2.1 0,1.358 0.966,2.198 2.478,2.198 1.176,0 1.862,-0.518 2.17,-1.344 h 0.07 c 0.084,0.672 0.42,1.176 1.288,1.176 z m -4.102,-0.77 c -0.924,0 -1.498,-0.392 -1.498,-1.134 v -0.294 c 0,-0.7 0.602,-1.092 1.932,-1.092 h 1.54 v 1.19 c 0,0.742 -0.826,1.33 -1.974,1.33 z m 9.691817,0.77 h 1.12 v -7.224 h -1.12 v 5.012 c 0,0.952 -0.896,1.386 -1.792,1.386 -1.106,0 -1.708,-0.644 -1.708,-1.96 v -4.438 h -1.12 v 4.634 c 0,1.75 0.994,2.758 2.506,2.758 1.19,0 1.75,-0.63 2.058,-1.344 h 0.056 z m 8.837817,0 v -0.952 h -3.289997 v -5.32 h 3.289997 v -0.952 h -3.289997 v -2.548 h -1.078 v 1.89 c 0,0.49 -0.182,0.658 -0.658,0.658 h -1.792 v 0.952 h 2.408 v 4.62 c 0,0.966 0.504,1.652 1.596,1.652 z m 4.21782,0.168 c 2.03,0 3.276,-1.484 3.276,-3.78 0,-2.296 -1.246,-3.78 -3.276,-3.78 -2.03,0 -3.276,1.484 -3.276,3.78 0,2.296 1.246,3.78 3.276,3.78 z m 0,-0.966 c -1.246,0 -2.086,-0.742 -2.086,-2.296 v -1.036 c 0,-1.554 0.84,-2.296 2.086,-2.296 1.246,0 2.086,0.742 2.086,2.296 v 1.036 c 0,1.554 -0.84,2.296 -2.086,2.296 z m 7.82982,-8.022 c 0.644,0 0.882,-0.308 0.882,-0.714 v -0.224 c 0,-0.406 -0.238,-0.714 -0.882,-0.714 -0.644,0 -0.882,0.308 -0.882,0.714 v 0.224 c 0,0.406 0.238,0.714 0.882,0.714 z m -3.164,8.82 h 6.16 v -0.952 h -2.436 v -6.272 h -3.724 v 0.952 h 2.604 v 5.32 h -2.604 z m 8.38981,0 v -5.012 c 0,-0.952 0.896,-1.386 1.792,-1.386 1.106,0 1.708,0.644 1.708,1.96 v 4.438 h 1.12 v -4.634 c 0,-1.75 -0.994,-2.758 -2.506,-2.758 -1.19,0 -1.75,0.63 -2.058,1.344 h -0.056 v -1.176 h -1.12 v 7.224 z m 10.83982,0 h 1.12 v -10.36 h -1.12 v 4.312 h -0.056 c -0.462,-0.882 -1.218,-1.344 -2.226,-1.344 -1.764,0 -2.828,1.414 -2.828,3.78 0,2.366 1.064,3.78 2.828,3.78 1.008,0 1.764,-0.462 2.226,-1.344 h 0.056 z m -1.848,-0.826 c -1.302,0 -2.058,-0.868 -2.058,-2.17 v -1.232 c 0,-1.302 0.756,-2.17 2.058,-2.17 0.994,0 1.848,0.518 1.848,1.484 v 2.604 c 0,0.966 -0.854,1.484 -1.848,1.484 z m 7.60582,0.994 c 1.428,0 2.464,-0.7 2.898,-1.666 l -0.826,-0.56 c -0.378,0.784 -1.106,1.26 -2.072,1.26 -1.358,0 -2.212,-0.924 -2.212,-2.198 v -0.336 h 5.348 v -0.532 c 0,-2.044 -1.26,-3.528 -3.206,-3.528 -1.96,0 -3.318,1.484 -3.318,3.794 0,2.282 1.316,3.766 3.388,3.766 z m -0.07,-6.636 c 1.19,0 2.002,0.868 2.002,2.142 v 0.154 h -4.144 v -0.098 c 0,-1.26 0.91,-2.198 2.142,-2.198 z m 5.26781,6.468 1.176,-1.694 0.798,-1.148 h 0.056 l 0.826,1.148 1.218,1.694 h 1.344 l -2.716,-3.682 2.646,-3.542 h -1.288 l -1.078,1.526 -0.84,1.204 h -0.056 l -0.868,-1.204 -1.092,-1.526 h -1.344 l 2.618,3.556 -2.688,3.668 z m 12.79983,2.366 v -1.036 h -6.72 v 1.036 z m 1.15182,-2.366 h 1.12 v -1.176 h 0.056 c 0.462,0.882 1.218,1.344 2.226,1.344 1.764,0 2.828,-1.414 2.828,-3.78 0,-2.366 -1.064,-3.78 -2.828,-3.78 -1.008,0 -1.764,0.462 -2.226,1.344 h -0.056 v -4.312 h -1.12 z m 2.968,-0.826 c -0.994,0 -1.848,-0.518 -1.848,-1.484 v -2.604 c 0,-0.966 0.854,-1.484 1.848,-1.484 1.302,0 2.058,0.868 2.058,2.17 v 1.232 c 0,1.302 -0.756,2.17 -2.058,2.17 z m 7.40982,0.994 c 1.428,0 2.464,-0.7 2.898,-1.666 l -0.826,-0.56 c -0.378,0.784 -1.106,1.26 -2.072,1.26 -1.358,0 -2.212,-0.924 -2.212,-2.198 v -0.336 h 5.348 v -0.532 c 0,-2.044 -1.26,-3.528 -3.206,-3.528 -1.96,0 -3.318,1.484 -3.318,3.794 0,2.282 1.316,3.766 3.388,3.766 z m -0.07,-6.636 c 1.19,0 2.002,0.868 2.002,2.142 v 0.154 h -4.144 v -0.098 c 0,-1.26 0.91,-2.198 2.142,-2.198 z m 10.8258,6.468 v -0.98 h -1.008 v -3.976 c 0,-1.526 -1.078,-2.436 -2.772,-2.436 -1.47,0 -2.394,0.7 -2.758,1.456 l 0.756,0.56 c 0.378,-0.658 0.966,-1.064 1.932,-1.064 1.092,0 1.722,0.546 1.722,1.596 v 0.714 h -1.54 c -2.17,0 -3.108,0.77 -3.108,2.1 0,1.358 0.966,2.198 2.478,2.198 1.176,0 1.862,-0.518 2.17,-1.344 h 0.07 c 0.084,0.672 0.42,1.176 1.288,1.176 z m -4.102,-0.77 c -0.924,0 -1.498,-0.392 -1.498,-1.134 v -0.294 c 0,-0.7 0.602,-1.092 1.932,-1.092 h 1.54 v 1.19 c 0,0.742 -0.826,1.33 -1.974,1.33 z m 11.14782,0.77 v -0.952 h -3.29 v -5.32 h 3.29 v -0.952 h -3.29 v -2.548 h -1.078 v 1.89 c 0,0.49 -0.182,0.658 -0.658,0.658 h -1.792 v 0.952 h 2.408 v 4.62 c 0,0.966 0.504,1.652 1.596,1.652 z m 4.30182,0.168 c 1.848,0 3.052,-0.826 3.052,-2.254 0,-1.568 -1.442,-1.848 -2.478,-2.002 l -1.134,-0.168 c -0.644,-0.098 -1.274,-0.294 -1.274,-1.05 0,-0.742 0.63,-1.148 1.764,-1.148 1.274,0 1.918,0.504 2.254,0.91 l 0.728,-0.686 c -0.686,-0.728 -1.638,-1.162 -2.94,-1.162 -1.68,0 -2.912,0.714 -2.912,2.156 0,1.568 1.456,1.848 2.478,2.002 l 1.134,0.168 c 0.658,0.098 1.274,0.294 1.274,1.05 0,0.854 -0.798,1.246 -1.918,1.246 -1.148,0 -1.932,-0.406 -2.618,-1.134 l -0.756,0.658 c 0.756,0.854 1.834,1.414 3.346,1.414 z m 10.65782,2.198 v -1.036 h -6.72 v 1.036 z m 7.56382,-2.366 v -1.022 h -2.576 v -8.75 h -1.834 l -2.59,2.422 0.686,0.742 2.464,-2.296 h 0.098 v 7.882 h -2.8 v 1.022 z m 9.89163,-4.354 c 0,2.73 1.33,5.11 2.912,6.286 h 1.134 c -1.624,-1.218 -2.996,-3.29 -2.996,-5.684 v -1.204 c 0,-2.394 1.372,-4.466 2.996,-5.684 h -1.134 c -1.582,1.176 -2.912,3.556 -2.912,6.286 z m 7.00382,4.354 v -5.012 c 0,-0.952 0.896,-1.386 1.792,-1.386 1.106,0 1.708,0.644 1.708,1.96 v 4.438 h 1.12 v -4.634 c 0,-1.75 -0.994,-2.758 -2.506,-2.758 -1.19,0 -1.75,0.63 -2.058,1.344 h -0.056 v -1.176 h -1.12 v 7.224 z m 9.08982,0.168 c 2.03,0 3.276,-1.484 3.276,-3.78 0,-2.296 -1.246,-3.78 -3.276,-3.78 -2.03,0 -3.276,1.484 -3.276,3.78 0,2.296 1.246,3.78 3.276,3.78 z m 0,-0.966 c -1.246,0 -2.086,-0.742 -2.086,-2.296 v -1.036 c 0,-1.554 0.84,-2.296 2.086,-2.296 1.246,0 2.086,0.742 2.086,2.296 v 1.036 c 0,1.554 -0.84,2.296 -2.086,2.296 z m 9.13182,0.798 h 1.12 v -10.36 h -1.12 v 4.312 h -0.056 c -0.462,-0.882 -1.218,-1.344 -2.226,-1.344 -1.764,0 -2.828,1.414 -2.828,3.78 0,2.366 1.064,3.78 2.828,3.78 1.008,0 1.764,-0.462 2.226,-1.344 h 0.056 z m -1.848,-0.826 c -1.302,0 -2.058,-0.868 -2.058,-2.17 v -1.232 c 0,-1.302 0.756,-2.17 2.058,-2.17 0.994,0 1.848,0.518 1.848,1.484 v 2.604 c 0,0.966 -0.854,1.484 -1.848,1.484 z m 7.60582,0.994 c 1.428,0 2.464,-0.7 2.898,-1.666 l -0.826,-0.56 c -0.378,0.784 -1.106,1.26 -2.072,1.26 -1.358,0 -2.212,-0.924 -2.212,-2.198 v -0.336 h 5.348 v -0.532 c 0,-2.044 -1.26,-3.528 -3.206,-3.528 -1.96,0 -3.318,1.484 -3.318,3.794 0,2.282 1.316,3.766 3.388,3.766 z m -0.07,-6.636 c 1.19,0 2.002,0.868 2.002,2.142 v 0.154 h -4.144 v -0.098 c 0,-1.26 0.91,-2.198 2.142,-2.198 z m 10.68581,8.834 v -1.036 h -6.72 v 1.036 z m 4.46982,-11.186 c 0.644,0 0.882,-0.308 0.882,-0.714 v -0.224 c 0,-0.406 -0.238,-0.714 -0.882,-0.714 -0.644,0 -0.882,0.308 -0.882,0.714 v 0.224 c 0,0.406 0.238,0.714 0.882,0.714 z m -3.164,8.82 h 6.16 v -0.952 h -2.436 v -6.272 h -3.724 v 0.952 h 2.604 v 5.32 h -2.604 z m 11.84782,0 h 1.12 v -10.36 h -1.12 v 4.312 h -0.056 c -0.462,-0.882 -1.218,-1.344 -2.226,-1.344 -1.764,0 -2.828,1.414 -2.828,3.78 0,2.366 1.064,3.78 2.828,3.78 1.008,0 1.764,-0.462 2.226,-1.344 h 0.056 z m -1.848,-0.826 c -1.302,0 -2.058,-0.868 -2.058,-2.17 v -1.232 c 0,-1.302 0.756,-2.17 2.058,-2.17 0.994,0 1.848,0.518 1.848,1.484 v 2.604 c 0,0.966 -0.854,1.484 -1.848,1.484 z m 8.80982,-3.528 c 0,-2.73 -1.33,-5.11 -2.912,-6.286 h -1.134 c 1.624,1.218 2.996,3.29 2.996,5.684 v 1.204 c 0,2.394 -1.372,4.466 -2.996,5.684 h 1.134 c 1.582,-1.176 2.912,-3.556 2.912,-6.286 z"
       id="text12"
       style="font-size:14px;font-family:'IBM Plex Mono';-inkscape-font-specification:'IBM Plex Mono, Normal'"
       aria-label="sqlite_autoindex_beats_1 (node_id)" />
  </g>
</svg>
