<?xml version="1.0" encoding="us-ascii" standalone="no"?><svg xmlns="http://www.w3.org/2000/svg" xmlns:xlink="http://www.w3.org/1999/xlink" contentStyleType="text/css" height="256px" preserveAspectRatio="none" style="width:299px;height:256px;background:#FFFFFF;" version="1.1" viewBox="0 0 299 256" width="299px" zoomAndPan="magnify"><defs/><g><!--class beats--><g id="elem_beats"><rect codeLine="1" fill="#F1F1F1" height="235.2656" id="beats" rx="2.5" ry="2.5" style="stroke:#181818;stroke-width:0.5;" width="278" x="7" y="7"/><ellipse cx="121.25" cy="23" fill="#ADD1B2" rx="11" ry="11" style="stroke:#181818;stroke-width:1.0;"/><path d="M120.0469,23.875 L121.5,23.875 L121.5,23.9844 C121.5,24.3906 121.5313,24.5469 121.6094,24.7031 C121.7656,24.9531 122.0469,25.1094 122.3438,25.1094 C122.5938,25.1094 122.8594,24.9688 123.0156,24.75 C123.1406,24.5938 123.1719,24.4375 123.1719,23.9844 L123.1719,22.0625 C123.1719,21.9063 123.1719,21.8594 123.1563,21.7031 C123.0938,21.2344 122.7813,20.9219 122.3281,20.9219 C122.0781,20.9219 121.8125,21.0625 121.6406,21.2813 C121.5313,21.4531 121.5,21.6094 121.5,22.0625 L121.5,22.1875 L120.0469,22.1875 L120.0469,19.7813 L124.0313,19.7813 L124.0313,20.6406 C124.0313,21.0469 124.0625,21.2188 124.1406,21.375 C124.3125,21.625 124.5938,21.7813 124.875,21.7813 C125.1406,21.7813 125.4063,21.6406 125.5781,21.4219 C125.6875,21.25 125.7188,21.1094 125.7188,20.6406 L125.7188,18.0938 L118.0938,18.0938 C117.6563,18.0938 117.5313,18.1094 117.375,18.2031 C117.125,18.3594 116.9688,18.6563 116.9688,18.9375 C116.9688,19.2188 117.1094,19.4688 117.3281,19.6406 C117.4844,19.75 117.6719,19.7813 118.0938,19.7813 L118.3438,19.7813 L118.3438,26.2969 L118.0938,26.2969 C117.6875,26.2969 117.5313,26.3125 117.375,26.4219 C117.125,26.5938 116.9688,26.8594 116.9688,27.1563 C116.9688,27.4219 117.1094,27.6719 117.3281,27.8281 C117.4688,27.9531 117.7031,28 118.0938,28 L126.0938,28 L126.0938,25.4219 C126.0938,24.9844 126.0625,24.8438 125.9844,24.6875 C125.8125,24.4375 125.5313,24.2813 125.25,24.2813 C124.9844,24.2813 124.7188,24.3906 124.5469,24.6406 C124.4375,24.7969 124.4063,24.9375 124.4063,25.4219 L124.4063,26.2969 L120.0469,26.2969 L120.0469,23.875 Z " fill="#000000"/><text fill="#000000" font-family="sans-serif" font-size="14" lengthAdjust="spacing" textLength="41" x="141.75" y="27.8467">beats</text><line style="stroke:#181818;stroke-width:0.5;" x1="8" x2="284" y1="39" y2="39"/><text fill="#000000" font-family="sans-serif" font-size="14" lengthAdjust="spacing" textLength="129" x="13" y="55.9951">beat_id : INTEGER</text><line style="stroke:#181818;stroke-width:1.0;" x1="8" x2="284" y1="63.2969" y2="63.2969"/><ellipse cx="18" cy="76.9453" fill="#000000" rx="3" ry="3" style="stroke:#000000;stroke-width:1.0;"/><text fill="#000000" font-family="sans-serif" font-size="14" lengthAdjust="spacing" textLength="106" x="27" y="80.292">node_id : TEXT</text><text fill="#000000" font-family="sans-serif" font-size="14" lengthAdjust="spacing" textLength="105" x="27" y="96.5889">address : TEXT</text><text fill="#000000" font-family="sans-serif" font-size="14" lengthAdjust="spacing" textLength="91" x="27" y="112.8857">client : TEXT</text><ellipse cx="18" cy="125.8359" fill="#000000" rx="3" ry="3" style="stroke:#000000;stroke-width:1.0;"/><text fill="#000000" font-family="sans-serif" font-size="14" lengthAdjust="spacing" textLength="123" x="27" y="129.1826">time_sent : TEXT</text><ellipse cx="18" cy="142.1328" fill="#000000" rx="3" ry="3" style="stroke:#000000;stroke-width:1.0;"/><text fill="#000000" font-family="sans-serif" font-size="14" lengthAdjust="spacing" textLength="122" x="27" y="145.4795">time_recv : TEXT</text><ellipse cx="18" cy="158.4297" fill="#000000" rx="3" ry="3" style="stroke:#000000;stroke-width:1.0;"/><text fill="#000000" font-family="sans-serif" font-size="14" lengthAdjust="spacing" textLength="111" x="27" y="161.7764">error : INTEGER</text><ellipse cx="18" cy="174.7266" fill="#000000" rx="3" ry="3" style="stroke:#000000;stroke-width:1.0;"/><text fill="#000000" font-family="sans-serif" font-size="14" lengthAdjust="spacing" textLength="130" x="27" y="178.0732">interval : INTEGER</text><ellipse cx="18" cy="191.0234" fill="#000000" rx="3" ry="3" style="stroke:#000000;stroke-width:1.0;"/><text fill="#000000" font-family="sans-serif" font-size="14" lengthAdjust="spacing" textLength="127" x="27" y="194.3701">uptime : INTEGER</text><line style="stroke:#181818;stroke-width:1.0;" x1="8" x2="284" y1="201.6719" y2="201.6719"/><text fill="#000000" font-family="sans-serif" font-size="14" lengthAdjust="spacing" textLength="154" x="27" y="218.667">idx_node_id (node_id)</text><rect fill="#F24D5C" height="6" style="stroke:#C82930;stroke-width:1.0;" width="6" x="15" y="228.6172"/><text fill="#000000" font-family="sans-serif" font-size="14" lengthAdjust="spacing" textLength="252" x="27" y="234.9639">sqlite_autoindex_beats_1 (node_id)</text></g><!--SRC=[RO-z3i8m38Htdi8ZHEh0oXuX5WQKWIqAZGTB8G77hLeXtfsqW5f-5klydMMVCGf93oTqak6sW55Pyh21tTxehJuKLbMbA8Z9uzCo-cWASjupvZo1EX16cNe5GcUq-HzahDivHER47sSLK1JareKlt5o63RyHoNVs7NBv4gl1X7mD96XT8ucYnywE3zlrREp-0000]--></g></svg>