<?xml version="1.0" encoding="UTF-8" standalone="no"?>
<svg
   contentStyleType="text/css"
   height="272px"
   preserveAspectRatio="none"
   style="width:299px;height:272px;background:#FFFFFF;"
   version="1.1"
   viewBox="0 0 299 272"
   width="299px"
   zoomAndPan="magnify"
   id="svg13"
   sodipodi:docname="beat.svg"
   inkscape:version="1.3.2 (091e20ef0f, 2023-11-25)"
   xmlns:inkscape="http://www.inkscape.org/namespaces/inkscape"
   xmlns:sodipodi="http://sodipodi.sourceforge.net/DTD/sodipodi-0.dtd"
   xmlns="http://www.w3.org/2000/svg"
   xmlns:svg="http://www.w3.org/2000/svg">
  <sodipodi:namedview
     id="namedview13"
     pagecolor="#ffffff"
     bordercolor="#666666"
     borderopacity="1.0"
     inkscape:showpageshadow="2"
     inkscape:pageopacity="0.0"
     inkscape:pagecheckerboard="0"
     inkscape:deskcolor="#d1d1d1"
     inkscape:zoom="2.4669118"
     inkscape:cx="149.37705"
     inkscape:cy="136"
     inkscape:window-width="1679"
     inkscape:window-height="878"
     inkscape:window-x="18"
     inkscape:window-y="144"
     inkscape:window-maximized="1"
     inkscape:current-layer="svg13" />
  <defs
     id="defs1" />
  <g
     id="g13">
    <rect
       codeLine="1"
       fill="#f1f1f1"
       height="251.5625"
       id="beats"
       rx="2.5"
       ry="2.5"
       style="stroke:#181818;stroke-width:0.5"
       width="278"
       x="7"
       y="7" />
    <circle
       cx="121.25"
       cy="23"
       fill="#add1b2"
       style="stroke:#181818;stroke-width:1"
       id="ellipse1"
       r="11" />
    <path
       d="M 120.0469,23.875 H 121.5 v 0.1094 c 0,0.4062 0.0313,0.5625 0.1094,0.7187 0.1562,0.25 0.4375,0.4063 0.7344,0.4063 0.25,0 0.5156,-0.1406 0.6718,-0.3594 0.125,-0.1562 0.1563,-0.3125 0.1563,-0.7656 v -1.9219 c 0,-0.1562 0,-0.2031 -0.0156,-0.3594 -0.0625,-0.4687 -0.375,-0.7812 -0.8282,-0.7812 -0.25,0 -0.5156,0.1406 -0.6875,0.3594 -0.1093,0.1718 -0.1406,0.3281 -0.1406,0.7812 v 0.125 h -1.4531 v -2.4062 h 3.9844 v 0.8593 c 0,0.4063 0.0312,0.5782 0.1093,0.7344 0.1719,0.25 0.4532,0.4063 0.7344,0.4063 0.2656,0 0.5313,-0.1407 0.7031,-0.3594 0.1094,-0.1719 0.1407,-0.3125 0.1407,-0.7813 v -2.5468 h -7.625 c -0.4375,0 -0.5625,0.0156 -0.7188,0.1093 -0.25,0.1563 -0.4062,0.4532 -0.4062,0.7344 0,0.2813 0.1406,0.5313 0.3593,0.7031 0.1563,0.1094 0.3438,0.1407 0.7657,0.1407 h 0.25 v 6.5156 h -0.25 c -0.4063,0 -0.5625,0.0156 -0.7188,0.125 -0.25,0.1719 -0.4062,0.4375 -0.4062,0.7344 0,0.2656 0.1406,0.5156 0.3593,0.6718 0.1407,0.125 0.375,0.1719 0.7657,0.1719 h 8 v -2.5781 c 0,-0.4375 -0.0313,-0.5781 -0.1094,-0.7344 -0.1719,-0.25 -0.4531,-0.4062 -0.7344,-0.4062 -0.2656,0 -0.5312,0.1093 -0.7031,0.3593 -0.1094,0.1563 -0.1406,0.2969 -0.1406,0.7813 v 0.875 h -4.3594 z"
       fill="#000000"
       id="path1" />
    <path
       d="m 144.172,17.206701 v 2.59 q 0,0.476 -0.028,0.896 -0.014,0.406 -0.042,0.644 h 0.07 q 0.322,-0.476 0.882,-0.798 0.56,-0.322 1.442,-0.322 1.4,0 2.24,0.98 0.854,0.966 0.854,2.898 0,1.932 -0.854,2.912 -0.854,0.98 -2.24,0.98 -0.882,0 -1.442,-0.322 -0.56,-0.322 -0.882,-0.77 h -0.098 l -0.252,0.952 h -0.882 v -10.64 z m 2.114,4.032 q -1.204,0 -1.666,0.686 -0.448,0.686 -0.448,2.128 v 0.056 q 0,1.386 0.448,2.128 0.462,0.728 1.694,0.728 1.008,0 1.498,-0.742 0.504,-0.742 0.504,-2.142 0,-2.842 -2.03,-2.842 z m 9.382,-1.036 q 0.952,0 1.652,0.42 0.7,0.42 1.064,1.19 0.378,0.756 0.378,1.778 v 0.742 h -5.138 q 0.028,1.274 0.644,1.946 0.63,0.658 1.75,0.658 0.714,0 1.26,-0.126 0.56,-0.14 1.148,-0.392 v 1.078 q -0.574,0.252 -1.134,0.364 -0.56,0.126 -1.33,0.126 -1.078,0 -1.89,-0.434 -0.812,-0.434 -1.274,-1.288 -0.448,-0.854 -0.448,-2.114 0,-1.232 0.406,-2.114 0.42,-0.882 1.162,-1.358 0.756,-0.476 1.75,-0.476 z m -0.014,1.008 q -0.882,0 -1.4,0.574 -0.504,0.56 -0.602,1.568 h 3.822 q -0.014,-0.952 -0.448,-1.54 -0.434,-0.602 -1.372,-0.602 z m 9.07399,-0.994 q 1.372,0 2.03,0.602 0.658,0.602 0.658,1.918 v 5.11 h -0.896 l -0.238,-1.064 h -0.056 q -0.49,0.616 -1.036,0.91 -0.546,0.294 -1.484,0.294 -1.022,0 -1.694,-0.532 -0.672,-0.546 -0.672,-1.694 0,-1.12 0.882,-1.722 0.882,-0.616 2.716,-0.672 l 1.274,-0.042 v -0.448 q 0,-0.938 -0.406,-1.302 -0.406,-0.364 -1.148,-0.364 -0.588,0 -1.12,0.182 -0.532,0.168 -0.994,0.392 l -0.378,-0.924 q 0.49,-0.266 1.162,-0.448 0.672,-0.196 1.4,-0.196 z m 1.47,3.962 -1.106,0.042 q -1.4,0.056 -1.946,0.448 -0.532,0.392 -0.532,1.106 0,0.63 0.378,0.924 0.392,0.294 0.994,0.294 0.938,0 1.568,-0.518 0.644,-0.532 0.644,-1.624 z m 7.26801,2.8 q 0.28,0 0.574,-0.042 0.294,-0.042 0.476,-0.112 v 0.938 q -0.196,0.098 -0.56,0.154 -0.364,0.07 -0.7,0.07 -0.588,0 -1.092,-0.196 -0.49,-0.21 -0.798,-0.714 -0.308,-0.504 -0.308,-1.414 v -4.368 h -1.064 v -0.588 l 1.078,-0.49 0.49,-1.596 h 0.728 v 1.722 h 2.17 v 0.952 h -2.17 v 4.34 q 0,0.686 0.322,1.022 0.336,0.322 0.854,0.322 z m 8.654,-1.204 q 0,1.092 -0.812,1.652 -0.812,0.56 -2.184,0.56 -0.784,0 -1.358,-0.126 -0.56,-0.126 -0.994,-0.35 v -1.12 q 0.448,0.224 1.078,0.42 0.644,0.182 1.302,0.182 0.938,0 1.358,-0.294 0.42,-0.308 0.42,-0.812 0,-0.28 -0.154,-0.504 -0.154,-0.224 -0.56,-0.448 -0.392,-0.224 -1.134,-0.504 -0.728,-0.28 -1.246,-0.56 -0.518,-0.28 -0.798,-0.672 -0.28,-0.392 -0.28,-1.008 0,-0.952 0.77,-1.47 0.784,-0.518 2.044,-0.518 0.686,0 1.274,0.14 0.602,0.14 1.12,0.364 l -0.42,0.98 q -0.476,-0.196 -0.994,-0.336 -0.518,-0.14 -1.064,-0.14 -0.756,0 -1.162,0.252 -0.392,0.238 -0.392,0.658 0,0.322 0.182,0.532 0.182,0.21 0.602,0.42 0.434,0.21 1.148,0.476 0.714,0.266 1.218,0.546 0.504,0.28 0.77,0.686 0.266,0.392 0.266,0.994 z"
       id="text1"
       style="font-size:14px"
       aria-label="beats" />
    <line
       style="stroke:#181818;stroke-width:0.5"
       x1="8"
       x2="284"
       y1="39"
       y2="39"
       id="line1" />
    <path
       d="m 15.422,45.355098 v 2.59 q 0,0.476 -0.028,0.896 -0.014,0.406 -0.042,0.644 h 0.07 q 0.322,-0.476 0.882,-0.798 0.56,-0.322 1.442,-0.322 1.4,0 2.24,0.98 0.854,0.966 0.854,2.898 0,1.932 -0.854,2.912 -0.854,0.98 -2.24,0.98 -0.882,0 -1.442,-0.322 -0.56,-0.322 -0.882,-0.77 h -0.098 l -0.252,0.952 H 14.19 v -10.64 z m 2.114,4.032 q -1.204,0 -1.666,0.686 -0.448,0.686 -0.448,2.128 v 0.056 q 0,1.386 0.448,2.128 0.462,0.728 1.694,0.728 1.008,0 1.498,-0.742 0.504,-0.742 0.504,-2.142 0,-2.842 -2.03,-2.842 z m 8.941872,-1.036 q 0.952,0 1.652,0.42 0.7,0.42 1.064,1.19 0.378,0.756 0.378,1.778 v 0.742 h -5.138 q 0.028,1.274 0.644,1.946 0.63,0.658 1.75,0.658 0.714,0 1.26,-0.126 0.56,-0.14 1.148,-0.392 v 1.078 q -0.574,0.252 -1.134,0.364 -0.56,0.126 -1.33,0.126 -1.078,0 -1.89,-0.434 -0.812,-0.434 -1.274,-1.288 -0.448,-0.854 -0.448,-2.114 0,-1.232 0.406,-2.114 0.42,-0.882 1.162,-1.358 0.756,-0.476 1.75,-0.476 z m -0.014,1.008 q -0.882,0 -1.4,0.574 -0.504,0.56 -0.602,1.568 h 3.822 q -0.014,-0.952 -0.448,-1.54 -0.434,-0.602 -1.372,-0.602 z m 8.633863,-0.994 q 1.372,0 2.03,0.602 0.658,0.602 0.658,1.918 v 5.11 h -0.896 l -0.238,-1.064 h -0.056 q -0.49,0.616 -1.036,0.91 -0.546,0.294 -1.484,0.294 -1.022,0 -1.694,-0.532 -0.672,-0.546 -0.672,-1.694 0,-1.12 0.882,-1.722 0.882,-0.616 2.716,-0.672 l 1.274,-0.042 v -0.448 q 0,-0.938 -0.406,-1.302 -0.406,-0.364 -1.148,-0.364 -0.588,0 -1.12,0.182 -0.532,0.168 -0.994,0.392 l -0.378,-0.924 q 0.49,-0.266 1.162,-0.448 0.672,-0.196 1.4,-0.196 z m 1.47,3.962 -1.106,0.042 q -1.4,0.056 -1.946,0.448 -0.532,0.392 -0.532,1.106 0,0.63 0.378,0.924 0.392,0.294 0.994,0.294 0.938,0 1.568,-0.518 0.644,-0.532 0.644,-1.624 z m 6.827886,2.8 q 0.28,0 0.574,-0.042 0.294,-0.042 0.476,-0.112 v 0.938 q -0.196,0.098 -0.56,0.154 -0.364,0.07 -0.7,0.07 -0.588,0 -1.092,-0.196 -0.49,-0.21 -0.798,-0.714 -0.308,-0.504 -0.308,-1.414 v -4.368 h -1.064 v -0.588 l 1.078,-0.49 0.49,-1.596 h 0.728 v 1.722 h 2.17 v 0.952 h -2.17 v 4.34 q 0,0.686 0.322,1.022 0.336,0.322 0.854,0.322 z m 8.381876,3.024 h -6.272 v -0.896 h 6.272 z m 2.571876,-12.474 q 0.28,0 0.49,0.196 0.224,0.182 0.224,0.588 0,0.406 -0.224,0.602 -0.21,0.182 -0.49,0.182 -0.308,0 -0.518,-0.182 -0.21,-0.196 -0.21,-0.602 0,-0.406 0.21,-0.588 0.21,-0.196 0.518,-0.196 z m 0.602,2.814 v 7.504 h -1.232 v -7.504 z m 5.819869,7.644 q -1.4,0 -2.24,-0.966 -0.84,-0.98 -0.84,-2.912 0,-1.932 0.84,-2.912 0.854,-0.994 2.254,-0.994 0.868,0 1.414,0.322 0.56,0.322 0.91,0.784 h 0.084 q -0.028,-0.182 -0.056,-0.532 -0.028,-0.364 -0.028,-0.574 v -2.996 h 1.232 v 10.64 h -0.994 l -0.182,-1.008 h -0.056 q -0.336,0.476 -0.896,0.812 -0.56,0.336 -1.442,0.336 z m 0.196,-1.022 q 1.19,0 1.666,-0.644 0.49,-0.658 0.49,-1.974 v -0.224 q 0,-1.4 -0.462,-2.142 -0.462,-0.756 -1.708,-0.756 -0.994,0 -1.498,0.798 -0.49,0.784 -0.49,2.114 0,1.344 0.49,2.086 0.504,0.742 1.512,0.742 z m 10.771749,-5.866 q 0,-0.532 0.252,-0.742 0.252,-0.21 0.602,-0.21 0.35,0 0.616,0.21 0.266,0.21 0.266,0.742 0,0.504 -0.266,0.728 -0.266,0.224 -0.616,0.224 -0.35,0 -0.602,-0.224 -0.252,-0.224 -0.252,-0.728 z m 0,5.992 q 0,-0.518 0.252,-0.728 0.252,-0.21 0.602,-0.21 0.35,0 0.616,0.21 0.266,0.21 0.266,0.728 0,0.504 -0.266,0.728 -0.266,0.224 -0.616,0.224 -0.35,0 -0.602,-0.224 -0.252,-0.224 -0.252,-0.728 z m 12.115748,0.756 h -3.612 v -0.728 l 1.176,-0.266 v -7.994 l -1.176,-0.28 v -0.728 h 3.612 v 0.728 l -1.176,0.28 v 7.994 l 1.176,0.266 z m 10.635887,0 h -1.47 l -5.348,-8.302 h -0.056 q 0.028,0.49 0.07,1.218 0.042,0.728 0.042,1.498 v 5.586 h -1.162 v -9.996 h 1.456 l 5.334,8.274 h 0.056 q -0.014,-0.224 -0.042,-0.672 -0.014,-0.448 -0.042,-0.966 -0.014,-0.532 -0.014,-0.994 v -5.642 h 1.176 z m 6.659874,0 h -1.259998 v -8.89 h -3.122 v -1.106 h 7.489998 v 1.106 h -3.108 z m 10.98588,0 h -5.586 v -9.996 h 5.586 v 1.106 h -4.326 v 3.122 h 4.074 v 1.092 h -4.074 v 3.57 h 4.326 z m 7.31786,-5.278 h 3.458 v 4.9 q -0.812,0.266 -1.638,0.392 -0.826,0.126 -1.876,0.126 -1.554,0 -2.618,-0.616 -1.064,-0.63 -1.624,-1.778 -0.546,-1.162 -0.546,-2.744 0,-1.554 0.602,-2.702 0.616,-1.162 1.778,-1.792 1.162,-0.644 2.8,-0.644 0.84,0 1.582,0.154 0.756,0.154 1.4,0.434 l -0.476,1.092 q -0.532,-0.224 -1.204,-0.392 -0.658,-0.182 -1.372,-0.182 -1.792,0 -2.8,1.092 -0.994,1.078 -0.994,2.94 0,1.19 0.378,2.114 0.392,0.91 1.218,1.428 0.826,0.504 2.17,0.504 0.658,0 1.12,-0.07 0.462,-0.07 0.84,-0.168 v -2.968 h -2.198 z m 12.21789,5.278 h -5.586 v -9.996 h 5.586 v 1.106 h -4.326 v 3.122 h 4.074 v 1.092 h -4.074 v 3.57 h 4.326 z m 5.73587,-9.996 q 1.862,0 2.744,0.714 0.896,0.7 0.896,2.128 0,0.798 -0.294,1.33 -0.294,0.532 -0.756,0.854 -0.448,0.322 -0.952,0.49 l 2.744,4.48 h -1.47 l -2.422,-4.13 h -1.988 v 4.13 h -1.26 v -9.996 z m -0.07,1.092 h -1.428 v 3.71 h 1.498 q 1.218,0 1.778,-0.476 0.56,-0.49 0.56,-1.428 0,-0.98 -0.588,-1.386 -0.588,-0.42 -1.82,-0.42 z"
       id="text2"
       style="font-size:14px"
       aria-label="beat_id : INTEGER" />
    <line
       style="stroke:#181818;stroke-width:1"
       x1="8"
       x2="284"
       y1="63.296902"
       y2="63.296902"
       id="line2" />
    <circle
       cx="18"
       cy="76.945297"
       fill="#000000"
       style="stroke:#000000;stroke-width:1"
       id="ellipse2"
       r="3" />
    <path
       d="m 31.802,72.648 q 1.344,0 2.03,0.658 0.686,0.658 0.686,2.1 v 4.886 H 33.3 V 75.49 q 0,-1.806 -1.68,-1.806 -1.246,0 -1.722,0.7 -0.476,0.7 -0.476,2.016 v 3.892 H 28.19 v -7.504 h 0.994 l 0.182,1.022 h 0.07 q 0.364,-0.588 1.008,-0.868 0.644,-0.294 1.358,-0.294 z m 12.436772,3.878 q 0,1.862 -0.952,2.884 -0.938,1.022 -2.548,1.022 -0.994,0 -1.778,-0.448 -0.77,-0.462 -1.218,-1.33 -0.448,-0.882 -0.448,-2.128 0,-1.862 0.924,-2.87 0.938,-1.008 2.562,-1.008 1.008,0 1.792,0.462 0.784,0.448 1.218,1.316 0.448,0.854 0.448,2.1 z m -5.67,0 q 0,1.33 0.518,2.114 0.532,0.77 1.68,0.77 1.134,0 1.666,-0.77 0.532,-0.784 0.532,-2.114 0,-1.33 -0.532,-2.086 -0.532,-0.756 -1.68,-0.756 -1.148,0 -1.666,0.756 -0.518,0.756 -0.518,2.086 z m 11.148765,3.906 q -1.4,0 -2.24,-0.966 -0.84,-0.98 -0.84,-2.912 0,-1.932 0.84,-2.912 0.854,-0.994 2.254,-0.994 0.868,0 1.414,0.322 0.56,0.322 0.91,0.784 h 0.084 q -0.028,-0.182 -0.056,-0.532 -0.028,-0.364 -0.028,-0.574 v -2.996 h 1.232 v 10.64 h -0.994 l -0.182,-1.008 h -0.056 q -0.336,0.476 -0.896,0.812 -0.56,0.336 -1.442,0.336 z m 0.196,-1.022 q 1.19,0 1.666,-0.644 0.49,-0.658 0.49,-1.974 v -0.224 q 0,-1.4 -0.462,-2.142 -0.462,-0.756 -1.708,-0.756 -0.994,0 -1.498,0.798 -0.49,0.784 -0.49,2.114 0,1.344 0.49,2.086 0.504,0.742 1.512,0.742 z m 9.524769,-6.762 q 0.952,0 1.652,0.42 0.7,0.42 1.064,1.19 0.378,0.756 0.378,1.778 v 0.742 h -5.138 q 0.028,1.274 0.644,1.946 0.63,0.658 1.75,0.658 0.714,0 1.26,-0.126 0.56,-0.14 1.148,-0.392 v 1.078 q -0.574,0.252 -1.134,0.364 -0.56,0.126 -1.33,0.126 -1.078,0 -1.89,-0.434 -0.812,-0.434 -1.274,-1.288 -0.448,-0.854 -0.448,-2.114 0,-1.232 0.406,-2.114 0.42,-0.882 1.162,-1.358 0.756,-0.476 1.75,-0.476 z m -0.014,1.008 q -0.882,0 -1.4,0.574 -0.504,0.56 -0.602,1.568 h 3.822 q -0.014,-0.952 -0.448,-1.54 -0.434,-0.602 -1.372,-0.602 z m 10.938758,8.792 h -6.272 v -0.896 h 6.272 z M 73.02784,69.974 q 0.28,0 0.49,0.196 0.224,0.182 0.224,0.588 0,0.406 -0.224,0.602 -0.21,0.182 -0.49,0.182 -0.308,0 -0.518,-0.182 -0.21,-0.196 -0.21,-0.602 0,-0.406 0.21,-0.588 0.21,-0.196 0.518,-0.196 z m 0.602,2.814 v 7.504 h -1.232 v -7.504 z m 5.912764,7.644 q -1.4,0 -2.24,-0.966 -0.84,-0.98 -0.84,-2.912 0,-1.932 0.84,-2.912 0.854,-0.994 2.254,-0.994 0.868,0 1.414,0.322 0.56,0.322 0.91,0.784 h 0.084 q -0.028,-0.182 -0.056,-0.532 -0.028,-0.364 -0.028,-0.574 v -2.996 h 1.232 v 10.64 h -0.994 l -0.182,-1.008 h -0.056 q -0.336,0.476 -0.896,0.812 -0.56,0.336 -1.442,0.336 z m 0.196,-1.022 q 1.19,0 1.666,-0.644 0.49,-0.658 0.49,-1.974 v -0.224 q 0,-1.4 -0.462,-2.142 -0.462,-0.756 -1.708,-0.756 -0.994,0 -1.498,0.798 -0.49,0.784 -0.49,2.114 0,1.344 0.49,2.086 0.504,0.742 1.512,0.742 z m 10.957544,-5.866 q 0,-0.532 0.252,-0.742 0.252,-0.21 0.602,-0.21 0.35,0 0.616,0.21 0.266,0.21 0.266,0.742 0,0.504 -0.266,0.728 -0.266,0.224 -0.616,0.224 -0.35,0 -0.602,-0.224 -0.252,-0.224 -0.252,-0.728 z m 0,5.992 q 0,-0.518 0.252,-0.728 0.252,-0.21 0.602,-0.21 0.35,0 0.616,0.21 0.266,0.21 0.266,0.728 0,0.504 -0.266,0.728 -0.266,0.224 -0.616,0.224 -0.35,0 -0.602,-0.224 -0.252,-0.224 -0.252,-0.728 z m 12.651542,0.756 h -1.26 v -8.89 h -3.121999 v -1.106 h 7.489999 v 1.106 h -3.108 z m 11.07877,0 h -5.586 v -9.996 h 5.586 v 1.106 h -4.326 v 3.122 h 4.074 v 1.092 h -4.074 v 3.57 h 4.326 z m 9.86077,0 h -1.428 l -2.646,-4.34 -2.688,4.34 h -1.33 l 3.318,-5.208 -3.108,-4.788 h 1.4 l 2.45,3.92 2.464,-3.92 h 1.33 l -3.094,4.76 z m 5.45077,0 h -1.26 v -8.89 h -3.122 v -1.106 h 7.49 v 1.106 h -3.108 z"
       id="text3"
       style="font-size:14px"
       aria-label="node_id : TEXT" />
    <path
       d="m 31.032,88.958898 q 1.372,0 2.03,0.602 0.658,0.602 0.658,1.918 v 5.11 h -0.896 l -0.238,-1.064 H 32.53 q -0.49,0.616 -1.036,0.91 -0.546,0.294 -1.484,0.294 -1.022,0 -1.694,-0.532 -0.672,-0.546 -0.672,-1.694 0,-1.12 0.882,-1.722 0.882,-0.616 2.716,-0.672 l 1.274,-0.042 v -0.448 q 0,-0.938 -0.406,-1.302 -0.406,-0.364 -1.148,-0.364 -0.588,0 -1.12,0.182 -0.532,0.168 -0.994,0.392 l -0.378,-0.924 q 0.49,-0.266 1.162,-0.448 0.672,-0.196 1.4,-0.196 z m 1.47,3.962 -1.106,0.042 q -1.4,0.056 -1.946,0.448 -0.532,0.392 -0.532,1.106 0,0.63 0.378,0.924 0.392,0.294 0.994,0.294 0.938,0 1.568,-0.518 0.644,-0.532 0.644,-1.624 z m 7.011858,3.808 q -1.4,0 -2.24,-0.966 -0.84,-0.98 -0.84,-2.912 0,-1.932 0.84,-2.912 0.854,-0.994 2.254,-0.994 0.868,0 1.414,0.322 0.56,0.322 0.91,0.784 h 0.084 q -0.028,-0.182 -0.056,-0.532 -0.028,-0.364 -0.028,-0.574 v -2.996 h 1.232 v 10.64 h -0.994 l -0.182,-1.008 h -0.056 q -0.336,0.476 -0.896,0.812 -0.56,0.336 -1.442,0.336 z m 0.196,-1.022 q 1.19,0 1.666,-0.644 0.49,-0.658 0.49,-1.974 v -0.224 q 0,-1.4 -0.462,-2.142 -0.462,-0.756 -1.708,-0.756 -0.994,0 -1.498,0.798 -0.49,0.784 -0.49,2.114 0,1.344 0.49,2.086 0.504,0.742 1.512,0.742 z m 9.223844,1.022 q -1.4,0 -2.24,-0.966 -0.84,-0.98 -0.84,-2.912 0,-1.932 0.84,-2.912 0.854,-0.994 2.254,-0.994 0.868,0 1.414,0.322 0.56,0.322 0.91,0.784 h 0.084 q -0.028,-0.182 -0.056,-0.532 -0.028,-0.364 -0.028,-0.574 v -2.996 h 1.232 v 10.64 h -0.994 l -0.182,-1.008 h -0.056 q -0.336,0.476 -0.896,0.812 -0.56,0.336 -1.442,0.336 z m 0.196,-1.022 q 1.19,0 1.666,-0.644 0.49,-0.658 0.49,-1.974 v -0.224 q 0,-1.4 -0.462,-2.142 -0.462,-0.756 -1.708,-0.756 -0.994,0 -1.498,0.798 -0.49,0.784 -0.49,2.114 0,1.344 0.49,2.086 0.504,0.742 1.512,0.742 z m 10.063846,-6.762 q 0.21,0 0.448,0.028 0.238,0.014 0.434,0.056 l -0.154,1.134 q -0.182,-0.042 -0.406,-0.07 -0.224,-0.028 -0.406,-0.028 -0.574,0 -1.078,0.322 -0.504,0.308 -0.812,0.882 -0.294,0.56 -0.294,1.316 v 4.004 h -1.232 v -7.504 h 1.008 l 0.14,1.372 h 0.056 q 0.35,-0.616 0.924,-1.064 0.588,-0.448 1.372,-0.448 z m 5.70984,0 q 0.952,0 1.652,0.42 0.7,0.42 1.064,1.19 0.378,0.756 0.378,1.778 v 0.742 h -5.138 q 0.028,1.274 0.644,1.946 0.63,0.658 1.75,0.658 0.714,0 1.26,-0.126 0.56,-0.14 1.148,-0.392 v 1.078 q -0.574,0.252 -1.134,0.364 -0.56,0.126 -1.33,0.126 -1.078,0 -1.89,-0.434 -0.812,-0.434 -1.274,-1.288 -0.448,-0.854 -0.448,-2.114 0,-1.232 0.406,-2.114 0.42,-0.882 1.162,-1.358 0.756,-0.476 1.75,-0.476 z m -0.014,1.008 q -0.882,0 -1.4,0.574 -0.504,0.56 -0.602,1.568 h 3.822 q -0.014,-0.952 -0.448,-1.54 -0.434,-0.602 -1.372,-0.602 z m 10.707837,4.564 q 0,1.092 -0.812,1.652 -0.812,0.56 -2.184,0.56 -0.784,0 -1.358,-0.126 -0.56,-0.126 -0.994,-0.35 v -1.12 q 0.448,0.224 1.078,0.42 0.644,0.182 1.302,0.182 0.938,0 1.358,-0.294 0.42,-0.308 0.42,-0.812 0,-0.28 -0.154,-0.504 -0.154,-0.224 -0.56,-0.448 -0.392,-0.224 -1.134,-0.504 -0.728,-0.28 -1.246,-0.56 -0.518,-0.28 -0.798,-0.672 -0.28,-0.392 -0.28,-1.008 0,-0.952 0.77,-1.47 0.784,-0.518 2.044,-0.518 0.686,0 1.274,0.14 0.602,0.14 1.12,0.364 l -0.42,0.98 q -0.476,-0.196 -0.994,-0.336 -0.518,-0.14 -1.064,-0.14 -0.756,0 -1.162,0.252 -0.392,0.238 -0.392,0.658 0,0.322 0.182,0.532 0.182,0.21 0.602,0.42 0.434,0.21 1.148,0.476 0.714,0.266 1.218,0.546 0.504,0.28 0.77,0.686 0.266,0.392 0.266,0.994 z m 7.51585,0 q 0,1.092 -0.812,1.652 -0.812,0.56 -2.184,0.56 -0.784,0 -1.358,-0.126 -0.56,-0.126 -0.994,-0.35 v -1.12 q 0.448,0.224 1.078,0.42 0.644,0.182 1.302,0.182 0.938,0 1.358,-0.294 0.42,-0.308 0.42,-0.812 0,-0.28 -0.154,-0.504 -0.154,-0.224 -0.56,-0.448 -0.392,-0.224 -1.134,-0.504 -0.728,-0.28 -1.246,-0.56 -0.518,-0.28 -0.798,-0.672 -0.28,-0.392 -0.28,-1.008 0,-0.952 0.77,-1.47 0.784,-0.518 2.044,-0.518 0.686,0 1.274,0.14 0.602,0.14 1.12,0.364 l -0.42,0.98 q -0.476,-0.196 -0.994,-0.336 -0.518,-0.14 -1.064,-0.14 -0.756,0 -1.162,0.252 -0.392,0.238 -0.392,0.658 0,0.322 0.182,0.532 0.182,0.21 0.602,0.42 0.434,0.21 1.148,0.476 0.714,0.266 1.218,0.546 0.504,0.28 0.77,0.686 0.266,0.392 0.266,0.994 z m 6.897698,-4.676 q 0,-0.532 0.252,-0.742 0.252,-0.21 0.602,-0.21 0.35,0 0.616,0.21 0.266,0.21 0.266,0.742 0,0.504 -0.266,0.728 -0.266,0.224 -0.616,0.224 -0.35,0 -0.602,-0.224 -0.252,-0.224 -0.252,-0.728 z m 0,5.992 q 0,-0.518 0.252,-0.728 0.252,-0.21 0.602,-0.21 0.35,0 0.616,0.21 0.266,0.21 0.266,0.728 0,0.504 -0.266,0.728 -0.266,0.224 -0.616,0.224 -0.35,0 -0.602,-0.224 -0.252,-0.224 -0.252,-0.728 z m 12.525697,0.756 h -1.26 v -8.89 h -3.122005 v -1.106 h 7.490005 v 1.106 h -3.108 z m 11.01584,0 h -5.586 v -9.996 h 5.586 v 1.106 h -4.326 v 3.122 h 4.074 v 1.092 h -4.074 v 3.57 h 4.326 z m 9.79785,0 h -1.428 l -2.646,-4.34 -2.688,4.34 h -1.33 l 3.318,-5.208 -3.108,-4.788 h 1.4 l 2.45,3.92 2.464,-3.92 h 1.33 l -3.094,4.76 z m 5.38785,0 h -1.26 v -8.89 h -3.122 v -1.106 h 7.49 v 1.106 h -3.108 z"
       id="text4"
       style="font-size:14px"
       aria-label="address : TEXT" />
    <path
       d="m 31.2,113.0257 q -1.008,0 -1.778,-0.406 -0.77,-0.406 -1.218,-1.26 -0.434,-0.854 -0.434,-2.184 0,-1.386 0.448,-2.254 0.462,-0.868 1.26,-1.274 0.798,-0.406 1.806,-0.406 0.56,0 1.092,0.126 0.546,0.112 0.882,0.28 l -0.378,1.022 q -0.336,-0.126 -0.784,-0.238 -0.448,-0.112 -0.84,-0.112 -2.212,0 -2.212,2.842 0,1.358 0.532,2.086 0.546,0.714 1.61,0.714 0.602,0 1.078,-0.126 0.476,-0.126 0.868,-0.308 v 1.092 q -0.378,0.196 -0.84,0.294 -0.448,0.112 -1.092,0.112 z m 6.014163,-0.14 h -1.232 v -10.64 h 1.232 z m 4.082162,-10.318 q 0.28,0 0.49,0.196 0.224,0.182 0.224,0.588 0,0.406 -0.224,0.602 -0.21,0.182 -0.49,0.182 -0.308,0 -0.518,-0.182 -0.21,-0.196 -0.21,-0.602 0,-0.406 0.21,-0.588 0.21,-0.196 0.518,-0.196 z m 0.602,2.814 v 7.504 h -1.232 v -7.504 z m 6.350161,-0.14 q 0.952,0 1.652,0.42 0.7,0.42 1.064,1.19 0.378,0.756 0.378,1.778 v 0.742 h -5.138 q 0.028,1.274 0.644,1.946 0.63,0.658 1.75,0.658 0.714,0 1.26,-0.126 0.56,-0.14 1.148,-0.392 v 1.078 q -0.574,0.252 -1.134,0.364 -0.56,0.126 -1.33,0.126 -1.078,0 -1.89,-0.434 -0.812,-0.434 -1.274,-1.288 -0.448,-0.854 -0.448,-2.114 0,-1.232 0.406,-2.114 0.42,-0.882 1.162,-1.358 0.756,-0.476 1.75,-0.476 z m -0.014,1.008 q -0.882,0 -1.4,0.574 -0.504,0.56 -0.602,1.568 h 3.822 q -0.014,-0.952 -0.448,-1.54 -0.434,-0.602 -1.372,-0.602 z m 9.696159,-1.008 q 1.344,0 2.03,0.658 0.686,0.658 0.686,2.1 v 4.886 h -1.218 v -4.802 q 0,-1.806 -1.68,-1.806 -1.246,0 -1.722,0.7 -0.476,0.7 -0.476,2.016 v 3.892 h -1.232 v -7.504 h 0.994 l 0.182,1.022 h 0.07 q 0.364,-0.588 1.008,-0.868 0.644,-0.294 1.358,-0.294 z m 8.618169,6.776 q 0.28,0 0.574,-0.042 0.294,-0.042 0.476,-0.112 v 0.938 q -0.196,0.098 -0.56,0.154 -0.364,0.07 -0.7,0.07 -0.588,0 -1.092,-0.196 -0.49,-0.21 -0.798,-0.714 -0.308,-0.504 -0.308,-1.414 v -4.368 h -1.064 v -0.588 l 1.078,-0.49 0.49,-1.596 h 0.728 v 1.722 h 2.17 v 0.952 h -2.17 v 4.34 q 0,0.686 0.322,1.022 0.336,0.322 0.854,0.322 z m 8.150344,-5.88 q 0,-0.532 0.252,-0.742 0.252,-0.21 0.602,-0.21 0.35,0 0.616,0.21 0.266,0.21 0.266,0.742 0,0.504 -0.266,0.728 -0.266,0.224 -0.616,0.224 -0.35,0 -0.602,-0.224 -0.252,-0.224 -0.252,-0.728 z m 0,5.992 q 0,-0.518 0.252,-0.728 0.252,-0.21 0.602,-0.21 0.35,0 0.616,0.21 0.266,0.21 0.266,0.728 0,0.504 -0.266,0.728 -0.266,0.224 -0.616,0.224 -0.35,0 -0.602,-0.224 -0.252,-0.224 -0.252,-0.728 z m 13.050339,0.756 h -1.26 v -8.89 h -3.122 v -1.106 h 7.49 v 1.106 h -3.108 z m 11.278167,0 h -5.586 v -9.996 h 5.586 v 1.106 h -4.326 v 3.122 h 4.074 v 1.092 h -4.074 v 3.57 h 4.326 z m 10.060166,0 h -1.428 l -2.646,-4.34 -2.688,4.34 h -1.33 l 3.318,-5.208 -3.108,-4.788 h 1.4 l 2.45,3.92 2.464,-3.92 h 1.33 l -3.094,4.76 z m 5.65017,0 h -1.26 v -8.89 h -3.122 v -1.106 h 7.49 v 1.106 h -3.108 z"
       id="text5"
       style="font-size:14px"
       aria-label="client : TEXT" />
    <path
       d="M 29.422,129.1826 H 28.19 v -10.64 h 1.232 z m 3.879224,-10.318 q 0.28,0 0.49,0.196 0.224,0.182 0.224,0.588 0,0.406 -0.224,0.602 -0.21,0.182 -0.49,0.182 -0.308,0 -0.518,-0.182 -0.21,-0.196 -0.21,-0.602 0,-0.406 0.21,-0.588 0.21,-0.196 0.518,-0.196 z m 0.602,2.814 v 7.504 h -1.232 v -7.504 z m 4.481223,-3.136 v 2.59 q 0,0.476 -0.028,0.896 -0.014,0.406 -0.042,0.644 h 0.07 q 0.322,-0.476 0.882,-0.798 0.56,-0.322 1.442,-0.322 1.4,0 2.24,0.98 0.854,0.966 0.854,2.898 0,1.932 -0.854,2.912 -0.854,0.98 -2.24,0.98 -0.882,0 -1.442,-0.322 -0.56,-0.322 -0.882,-0.77 h -0.098 l -0.252,0.952 h -0.882 v -10.64 z m 2.114,4.032 q -1.204,0 -1.666,0.686 -0.448,0.686 -0.448,2.128 v 0.056 q 0,1.386 0.448,2.128 0.462,0.728 1.694,0.728 1.008,0 1.498,-0.742 0.504,-0.742 0.504,-2.142 0,-2.842 -2.03,-2.842 z m 9.633228,-1.036 q 0.21,0 0.448,0.028 0.238,0.014 0.434,0.056 l -0.154,1.134 q -0.182,-0.042 -0.406,-0.07 -0.224,-0.028 -0.406,-0.028 -0.574,0 -1.078,0.322 -0.504,0.308 -0.812,0.882 -0.294,0.56 -0.294,1.316 v 4.004 h -1.232 v -7.504 h 1.008 l 0.14,1.372 h 0.056 q 0.35,-0.616 0.924,-1.064 0.588,-0.448 1.372,-0.448 z m 5.713227,0.014 q 1.372,0 2.03,0.602 0.658,0.602 0.658,1.918 v 5.11 h -0.896 l -0.238,-1.064 h -0.056 q -0.49,0.616 -1.036,0.91 -0.546,0.294 -1.484,0.294 -1.022,0 -1.694,-0.532 -0.672,-0.546 -0.672,-1.694 0,-1.12 0.882,-1.722 0.882,-0.616 2.716,-0.672 l 1.274,-0.042 v -0.448 q 0,-0.938 -0.406,-1.302 -0.406,-0.364 -1.148,-0.364 -0.588,0 -1.12,0.182 -0.532,0.168 -0.994,0.392 l -0.378,-0.924 q 0.49,-0.266 1.162,-0.448 0.672,-0.196 1.4,-0.196 z m 1.47,3.962 -1.106,0.042 q -1.4,0.056 -1.946,0.448 -0.532,0.392 -0.532,1.106 0,0.63 0.378,0.924 0.392,0.294 0.994,0.294 0.938,0 1.568,-0.518 0.644,-0.532 0.644,-1.624 z m 7.911242,-3.976 q 0.21,0 0.448,0.028 0.238,0.014 0.434,0.056 l -0.154,1.134 q -0.182,-0.042 -0.406,-0.07 -0.224,-0.028 -0.406,-0.028 -0.574,0 -1.078,0.322 -0.504,0.308 -0.812,0.882 -0.294,0.56 -0.294,1.316 v 4.004 h -1.232 v -7.504 h 1.008 l 0.14,1.372 h 0.056 q 0.35,-0.616 0.924,-1.064 0.588,-0.448 1.372,-0.448 z m 1.975234,0.14 h 1.316 l 1.624,4.27 q 0.21,0.574 0.378,1.078 0.168,0.504 0.252,0.966 h 0.056 q 0.084,-0.35 0.266,-0.91 0.182,-0.574 0.378,-1.148 l 1.526,-4.256 h 1.33 l -3.234,8.54 q -0.406,1.064 -1.022,1.694 -0.616,0.63 -1.708,0.63 -0.336,0 -0.588,-0.042 -0.252,-0.028 -0.434,-0.07 v -0.98 q 0.154,0.028 0.364,0.056 0.224,0.028 0.462,0.028 0.644,0 1.036,-0.364 0.392,-0.364 0.63,-0.966 l 0.392,-0.994 z m 13.512471,0.756 q 0,-0.532 0.252,-0.742 0.252,-0.21 0.602,-0.21 0.35,0 0.616,0.21 0.266,0.21 0.266,0.742 0,0.504 -0.266,0.728 -0.266,0.224 -0.616,0.224 -0.35,0 -0.602,-0.224 -0.252,-0.224 -0.252,-0.728 z m 0,5.992 q 0,-0.518 0.252,-0.728 0.252,-0.21 0.602,-0.21 0.35,0 0.616,0.21 0.266,0.21 0.266,0.728 0,0.504 -0.266,0.728 -0.266,0.224 -0.616,0.224 -0.35,0 -0.602,-0.224 -0.252,-0.224 -0.252,-0.728 z m 12.644459,0.756 h -1.26 v -8.89 h -3.122 v -1.106 h 7.49 v 1.106 h -3.108 z m 11.075232,0 h -5.586 v -9.996 h 5.586 v 1.106 h -4.326 v 3.122 h 4.074 v 1.092 h -4.074 v 3.57 h 4.326 z m 9.85723,0 h -1.428 l -2.646,-4.34 -2.688,4.34 h -1.33 l 3.318,-5.208 -3.108,-4.788 h 1.4 l 2.45,3.92 2.464,-3.92 h 1.33 l -3.094,4.76 z m 5.44723,0 h -1.26 v -8.89 h -3.122 v -1.106 h 7.49 v 1.106 h -3.108 z"
       id="text6"
       style="font-size:14px"
       aria-label="library : TEXT" />
    <circle
       cx="18"
       cy="142.1328"
       fill="#000000"
       style="stroke:#000000;stroke-width:1"
       id="ellipse6"
       r="3" />
    <path
       d="m 30.696,144.61151 q 0.28,0 0.574,-0.042 0.294,-0.042 0.476,-0.112 v 0.938 q -0.196,0.098 -0.56,0.154 -0.364,0.07 -0.7,0.07 -0.588,0 -1.092,-0.196 -0.49,-0.21 -0.798,-0.714 -0.308,-0.504 -0.308,-1.414 v -4.368 h -1.064 v -0.588 l 1.078,-0.49 0.49,-1.596 h 0.728 v 1.722 h 2.17 v 0.952 h -2.17 v 4.34 q 0,0.686 0.322,1.022 0.336,0.322 0.854,0.322 z m 4.260404,-9.45 q 0.28,0 0.49,0.196 0.224,0.182 0.224,0.588 0,0.406 -0.224,0.602 -0.21,0.182 -0.49,0.182 -0.308,0 -0.518,-0.182 -0.21,-0.196 -0.21,-0.602 0,-0.406 0.21,-0.588 0.21,-0.196 0.518,-0.196 z m 0.602,2.814 v 7.504 h -1.232 v -7.504 z m 11.694394,-0.14 q 1.274,0 1.904,0.658 0.63,0.658 0.63,2.1 v 4.886 h -1.218 v -4.83 q 0,-1.778 -1.526,-1.778 -1.092,0 -1.568,0.63 -0.462,0.63 -0.462,1.834 v 4.144 h -1.218 v -4.83 q 0,-1.778 -1.54,-1.778 -1.134,0 -1.568,0.7 -0.434,0.7 -0.434,2.016 v 3.892 h -1.232 v -7.504 h 0.994 l 0.182,1.022 h 0.07 q 0.35,-0.588 0.938,-0.868 0.602,-0.294 1.274,-0.294 1.764,0 2.296,1.26 h 0.07 q 0.378,-0.644 1.022,-0.952 0.644,-0.308 1.386,-0.308 z m 8.838395,0 q 0.952,0 1.652,0.42 0.7,0.42 1.064,1.19 0.378,0.756 0.378,1.778 v 0.742 h -5.138 q 0.028,1.274 0.644,1.946 0.63,0.658 1.75,0.658 0.714,0 1.26,-0.126 0.56,-0.14 1.148,-0.392 v 1.078 q -0.574,0.252 -1.134,0.364 -0.56,0.126 -1.33,0.126 -1.078,0 -1.89,-0.434 -0.812,-0.434 -1.274,-1.288 -0.448,-0.854 -0.448,-2.114 0,-1.232 0.406,-2.114 0.42,-0.882 1.162,-1.358 0.756,-0.476 1.75,-0.476 z m -0.014,1.008 q -0.882,0 -1.4,0.574 -0.504,0.56 -0.602,1.568 h 3.822 q -0.014,-0.952 -0.448,-1.54 -0.434,-0.602 -1.372,-0.602 z m 11.14839,8.792 h -6.272 v -0.896 h 6.272 z m 7.130408,-4.228 q 0,1.092 -0.812,1.652 -0.812,0.56 -2.184,0.56 -0.784,0 -1.358,-0.126 -0.56,-0.126 -0.994,-0.35 v -1.12 q 0.448,0.224 1.078,0.42 0.644,0.182 1.302,0.182 0.938,0 1.358,-0.294 0.42,-0.308 0.42,-0.812 0,-0.28 -0.154,-0.504 -0.154,-0.224 -0.56,-0.448 -0.392,-0.224 -1.134,-0.504 -0.728,-0.28 -1.246,-0.56 -0.518,-0.28 -0.798,-0.672 -0.28,-0.392 -0.28,-1.008 0,-0.952 0.77,-1.47 0.784,-0.518 2.044,-0.518 0.686,0 1.274,0.14 0.602,0.14 1.12,0.364 l -0.42,0.98 q -0.476,-0.196 -0.994,-0.336 -0.518,-0.14 -1.064,-0.14 -0.756,0 -1.162,0.252 -0.392,0.238 -0.392,0.658 0,0.322 0.182,0.532 0.182,0.21 0.602,0.42 0.434,0.21 1.148,0.476 0.714,0.266 1.218,0.546 0.504,0.28 0.77,0.686 0.266,0.392 0.266,0.994 z m 5.800403,-5.572 q 0.952,0 1.652,0.42 0.7,0.42 1.064,1.19 0.378,0.756 0.378,1.778 v 0.742 h -5.138 q 0.028,1.274 0.644,1.946 0.63,0.658 1.75,0.658 0.714,0 1.26,-0.126 0.56,-0.14 1.148,-0.392 v 1.078 q -0.574,0.252 -1.134,0.364 -0.56,0.126 -1.33,0.126 -1.078,0 -1.89,-0.434 -0.812,-0.434 -1.274,-1.288 -0.448,-0.854 -0.448,-2.114 0,-1.232 0.406,-2.114 0.42,-0.882 1.162,-1.358 0.756,-0.476 1.75,-0.476 z m -0.014,1.008 q -0.882,0 -1.4,0.574 -0.504,0.56 -0.602,1.568 h 3.822 q -0.014,-0.952 -0.448,-1.54 -0.434,-0.602 -1.372,-0.602 z m 9.706389,-1.008 q 1.344,0 2.03,0.658 0.686,0.658 0.686,2.1 v 4.886 h -1.218 v -4.802 q 0,-1.806 -1.68,-1.806 -1.246,0 -1.722,0.7 -0.476,0.7 -0.476,2.016 v 3.892 h -1.232 v -7.504 h 0.994 l 0.182,1.022 h 0.07 q 0.364,-0.588 1.008,-0.868 0.644,-0.294 1.358,-0.294 z m 8.628406,6.776 q 0.28,0 0.574,-0.042 0.294,-0.042 0.476,-0.112 v 0.938 q -0.196,0.098 -0.56,0.154 -0.364,0.07 -0.7,0.07 -0.588,0 -1.092,-0.196 -0.49,-0.21 -0.798,-0.714 -0.308,-0.504 -0.308,-1.414 v -4.368 h -1.064 v -0.588 l 1.078,-0.49 0.49,-1.596 h 0.728 v 1.722 h 2.17 v 0.952 h -2.17 v 4.34 q 0,0.686 0.322,1.022 0.336,0.322 0.854,0.322 z m 8.170811,-5.88 q 0,-0.532 0.252,-0.742 0.252,-0.21 0.602,-0.21 0.35,0 0.616,0.21 0.266,0.21 0.266,0.742 0,0.504 -0.266,0.728 -0.266,0.224 -0.616,0.224 -0.35,0 -0.602,-0.224 -0.252,-0.224 -0.252,-0.728 z m 0,5.992 q 0,-0.518 0.252,-0.728 0.252,-0.21 0.602,-0.21 0.35,0 0.616,0.21 0.266,0.21 0.266,0.728 0,0.504 -0.266,0.728 -0.266,0.224 -0.616,0.224 -0.35,0 -0.602,-0.224 -0.252,-0.224 -0.252,-0.728 z m 13.0708,0.756 h -1.26 v -8.89 h -3.122 v -1.106 h 7.49 v 1.106 h -3.108 z m 11.2884,0 h -5.586 v -9.996 h 5.586 v 1.106 h -4.326 v 3.122 h 4.074 v 1.092 h -4.074 v 3.57 h 4.326 z m 10.0704,0 h -1.428 l -2.646,-4.34 -2.688,4.34 h -1.33 l 3.318,-5.208 -3.108,-4.788 h 1.4 l 2.45,3.92 2.464,-3.92 h 1.33 l -3.094,4.76 z m 5.6604,0 h -1.26 v -8.89 h -3.122 v -1.106 h 7.49 v 1.106 h -3.108 z"
       id="text7"
       style="font-size:14px"
       aria-label="time_sent : TEXT" />
    <circle
       cx="18"
       cy="158.4297"
       fill="#000000"
       style="stroke:#000000;stroke-width:1"
       id="ellipse7"
       r="3" />
    <path
       d="m 30.696,160.9084 q 0.28,0 0.574,-0.042 0.294,-0.042 0.476,-0.112 v 0.938 q -0.196,0.098 -0.56,0.154 -0.364,0.07 -0.7,0.07 -0.588,0 -1.092,-0.196 -0.49,-0.21 -0.798,-0.714 -0.308,-0.504 -0.308,-1.414 v -4.368 h -1.064 v -0.588 l 1.078,-0.49 0.49,-1.596 h 0.728 v 1.722 h 2.17 v 0.952 h -2.17 v 4.34 q 0,0.686 0.322,1.022 0.336,0.322 0.854,0.322 z m 4.265604,-9.45 q 0.28,0 0.49,0.196 0.224,0.182 0.224,0.588 0,0.406 -0.224,0.602 -0.21,0.182 -0.49,0.182 -0.308,0 -0.518,-0.182 -0.21,-0.196 -0.21,-0.602 0,-0.406 0.21,-0.588 0.21,-0.196 0.518,-0.196 z m 0.602,2.814 v 7.504 h -1.232 v -7.504 z m 11.699596,-0.14 q 1.274,0 1.904,0.658 0.63,0.658 0.63,2.1 v 4.886 h -1.218 v -4.83 q 0,-1.778 -1.526,-1.778 -1.092,0 -1.568,0.63 -0.462,0.63 -0.462,1.834 v 4.144 h -1.218 v -4.83 q 0,-1.778 -1.54,-1.778 -1.134,0 -1.568,0.7 -0.434,0.7 -0.434,2.016 v 3.892 h -1.232 v -7.504 h 0.994 l 0.182,1.022 h 0.07 q 0.35,-0.588 0.938,-0.868 0.602,-0.294 1.274,-0.294 1.764,0 2.296,1.26 h 0.07 q 0.378,-0.644 1.022,-0.952 0.644,-0.308 1.386,-0.308 z m 8.843597,0 q 0.952,0 1.652,0.42 0.7,0.42 1.064,1.19 0.378,0.756 0.378,1.778 v 0.742 h -5.138 q 0.028,1.274 0.644,1.946 0.63,0.658 1.75,0.658 0.714,0 1.26,-0.126 0.56,-0.14 1.148,-0.392 v 1.078 q -0.574,0.252 -1.134,0.364 -0.56,0.126 -1.33,0.126 -1.078,0 -1.89,-0.434 -0.812,-0.434 -1.274,-1.288 -0.448,-0.854 -0.448,-2.114 0,-1.232 0.406,-2.114 0.42,-0.882 1.162,-1.358 0.756,-0.476 1.75,-0.476 z m -0.014,1.008 q -0.882,0 -1.4,0.574 -0.504,0.56 -0.602,1.568 h 3.822 q -0.014,-0.952 -0.448,-1.54 -0.434,-0.602 -1.372,-0.602 z m 11.153591,8.792 h -6.272 v -0.896 h 6.272 z m 5.749608,-9.8 q 0.21,0 0.448,0.028 0.238,0.014 0.434,0.056 l -0.154,1.134 q -0.182,-0.042 -0.406,-0.07 -0.224,-0.028 -0.406,-0.028 -0.574,0 -1.078,0.322 -0.504,0.308 -0.812,0.882 -0.294,0.56 -0.294,1.316 v 4.004 h -1.232 v -7.504 h 1.008 l 0.14,1.372 h 0.056 q 0.35,-0.616 0.924,-1.064 0.588,-0.448 1.372,-0.448 z m 5.9876,0 q 0.952,0 1.652,0.42 0.7,0.42 1.064,1.19 0.378,0.756 0.378,1.778 v 0.742 h -5.138 q 0.028,1.274 0.644,1.946 0.63,0.658 1.75,0.658 0.714,0 1.26,-0.126 0.56,-0.14 1.148,-0.392 v 1.078 q -0.574,0.252 -1.134,0.364 -0.56,0.126 -1.33,0.126 -1.078,0 -1.89,-0.434 -0.812,-0.434 -1.274,-1.288 -0.448,-0.854 -0.448,-2.114 0,-1.232 0.406,-2.114 0.42,-0.882 1.162,-1.358 0.756,-0.476 1.75,-0.476 z m -0.014,1.008 q -0.882,0 -1.4,0.574 -0.504,0.56 -0.602,1.568 h 3.822 q -0.014,-0.952 -0.448,-1.54 -0.434,-0.602 -1.372,-0.602 z m 9.109593,6.776 q -1.008,0 -1.778,-0.406 -0.77,-0.406 -1.218,-1.26 -0.434,-0.854 -0.434,-2.184 0,-1.386 0.448,-2.254 0.462,-0.868 1.26,-1.274 0.798,-0.406 1.806,-0.406 0.56,0 1.092,0.126 0.546,0.112 0.882,0.28 l -0.378,1.022 q -0.336,-0.126 -0.784,-0.238 -0.448,-0.112 -0.84,-0.112 -2.212,0 -2.212,2.842 0,1.358 0.532,2.086 0.546,0.714 1.61,0.714 0.602,0 1.078,-0.126 0.476,-0.126 0.868,-0.308 v 1.092 q -0.378,0.196 -0.84,0.294 -0.448,0.112 -1.092,0.112 z m 6.449594,-0.14 -2.842,-7.504 h 1.316 l 1.596,4.424 q 0.112,0.308 0.238,0.686 0.126,0.378 0.224,0.728 0.098,0.35 0.14,0.574 h 0.056 q 0.042,-0.224 0.154,-0.574 0.112,-0.364 0.238,-0.728 0.126,-0.378 0.238,-0.686 l 1.596,-4.424 h 1.316 l -2.856,7.504 z m 11.093207,-6.748 q 0,-0.532 0.252,-0.742 0.252,-0.21 0.602,-0.21 0.35,0 0.616,0.21 0.266,0.21 0.266,0.742 0,0.504 -0.266,0.728 -0.266,0.224 -0.616,0.224 -0.35,0 -0.602,-0.224 -0.252,-0.224 -0.252,-0.728 z m 0,5.992 q 0,-0.518 0.252,-0.728 0.252,-0.21 0.602,-0.21 0.35,0 0.616,0.21 0.266,0.21 0.266,0.728 0,0.504 -0.266,0.728 -0.266,0.224 -0.616,0.224 -0.35,0 -0.602,-0.224 -0.252,-0.224 -0.252,-0.728 z m 13.0812,0.756 h -1.26 v -8.89 h -3.122 v -1.106 h 7.49 v 1.106 h -3.108 z m 11.29361,0 h -5.586 v -9.996 h 5.586 v 1.106 h -4.326 v 3.122 h 4.074 v 1.092 h -4.074 v 3.57 h 4.326 z m 10.07559,0 h -1.428 l -2.646,-4.34 -2.688,4.34 h -1.33 l 3.318,-5.208 -3.108,-4.788 h 1.4 l 2.45,3.92 2.464,-3.92 h 1.33 l -3.094,4.76 z m 5.66561,0 h -1.26 v -8.89 h -3.122 v -1.106 h 7.49 v 1.106 h -3.108 z"
       id="text8"
       style="font-size:14px"
       aria-label="time_recv : TEXT" />
    <circle
       cx="18"
       cy="174.72659"
       fill="#000000"
       style="stroke:#000000;stroke-width:1"
       id="ellipse8"
       r="3" />
    <path
       d="m 31.088,170.4292 q 0.952,0 1.652,0.42 0.7,0.42 1.064,1.19 0.378,0.756 0.378,1.778 v 0.742 h -5.138 q 0.028,1.274 0.644,1.946 0.63,0.658 1.75,0.658 0.714,0 1.26,-0.126 0.56,-0.14 1.148,-0.392 v 1.078 q -0.574,0.252 -1.134,0.364 -0.56,0.126 -1.33,0.126 -1.078,0 -1.89,-0.434 -0.812,-0.434 -1.274,-1.288 -0.448,-0.854 -0.448,-2.114 0,-1.232 0.406,-2.114 0.42,-0.882 1.162,-1.358 0.756,-0.476 1.75,-0.476 z m -0.014,1.008 q -0.882,0 -1.4,0.574 -0.504,0.56 -0.602,1.568 h 3.822 q -0.014,-0.952 -0.448,-1.54 -0.434,-0.602 -1.372,-0.602 z m 9.147561,-1.008 q 0.21,0 0.448,0.028 0.238,0.014 0.434,0.056 l -0.154,1.134 q -0.182,-0.042 -0.406,-0.07 -0.224,-0.028 -0.406,-0.028 -0.574,0 -1.078,0.322 -0.504,0.308 -0.812,0.882 -0.294,0.56 -0.294,1.316 v 4.004 h -1.232 v -7.504 h 1.008 l 0.14,1.372 h 0.056 q 0.35,-0.616 0.924,-1.064 0.588,-0.448 1.372,-0.448 z m 6.417573,0 q 0.21,0 0.448,0.028 0.238,0.014 0.434,0.056 l -0.154,1.134 q -0.182,-0.042 -0.406,-0.07 -0.224,-0.028 -0.406,-0.028 -0.574,0 -1.078,0.322 -0.504,0.308 -0.812,0.882 -0.294,0.56 -0.294,1.316 v 4.004 h -1.232 v -7.504 h 1.008 l 0.14,1.372 h 0.056 q 0.35,-0.616 0.924,-1.064 0.588,-0.448 1.372,-0.448 z m 9.161568,3.878 q 0,1.862 -0.952,2.884 -0.938,1.022 -2.548,1.022 -0.994,0 -1.778,-0.448 -0.77,-0.462 -1.218,-1.33 -0.448,-0.882 -0.448,-2.128 0,-1.862 0.924,-2.87 0.938,-1.008 2.562,-1.008 1.008,0 1.792,0.462 0.784,0.448 1.218,1.316 0.448,0.854 0.448,2.1 z m -5.67,0 q 0,1.33 0.518,2.114 0.532,0.77 1.68,0.77 1.134,0 1.666,-0.77 0.532,-0.784 0.532,-2.114 0,-1.33 -0.532,-2.086 -0.532,-0.756 -1.68,-0.756 -1.148,0 -1.666,0.756 -0.518,0.756 -0.518,2.086 z m 11.751564,-3.878 q 0.21,0 0.448,0.028 0.238,0.014 0.434,0.056 l -0.154,1.134 q -0.182,-0.042 -0.406,-0.07 -0.224,-0.028 -0.406,-0.028 -0.574,0 -1.078,0.322 -0.504,0.308 -0.812,0.882 -0.294,0.56 -0.294,1.316 v 4.004 h -1.232 v -7.504 h 1.008 l 0.14,1.372 h 0.056 q 0.35,-0.616 0.924,-1.064 0.588,-0.448 1.372,-0.448 z m 7.011152,0.896 q 0,-0.532 0.252,-0.742 0.252,-0.21 0.602,-0.21 0.35,0 0.616,0.21 0.266,0.21 0.266,0.742 0,0.504 -0.266,0.728 -0.266,0.224 -0.616,0.224 -0.35,0 -0.602,-0.224 -0.252,-0.224 -0.252,-0.728 z m 0,5.992 q 0,-0.518 0.252,-0.728 0.252,-0.21 0.602,-0.21 0.35,0 0.616,0.21 0.266,0.21 0.266,0.728 0,0.504 -0.266,0.728 -0.266,0.224 -0.616,0.224 -0.35,0 -0.602,-0.224 -0.252,-0.224 -0.252,-0.728 z m 11.827139,0.756 h -3.612 v -0.728 l 1.176,-0.266 v -7.994 l -1.176,-0.28 v -0.728 h 3.612 v 0.728 l -1.176,0.28 v 7.994 l 1.176,0.266 z m 10.491584,0 h -1.47 l -5.348,-8.302 h -0.056 q 0.028,0.49 0.07,1.218 0.042,0.728 0.042,1.498 v 5.586 h -1.162 v -9.996 h 1.456 l 5.334,8.274 h 0.056 q -0.014,-0.224 -0.042,-0.672 -0.014,-0.448 -0.042,-0.966 -0.014,-0.532 -0.014,-0.994 v -5.642 h 1.176 z m 6.515578,0 h -1.26 v -8.89 h -3.122 v -1.106 h 7.490001 v 1.106 h -3.108001 z m 10.841561,0 h -5.586 v -9.996 h 5.586 v 1.106 h -4.326 v 3.122 h 4.074 v 1.092 h -4.074 v 3.57 h 4.326 z m 7.17357,-5.278 h 3.458 v 4.9 q -0.812,0.266 -1.638,0.392 -0.826,0.126 -1.876,0.126 -1.554,0 -2.618,-0.616 -1.064,-0.63 -1.624,-1.778 -0.546,-1.162 -0.546,-2.744 0,-1.554 0.602,-2.702 0.616,-1.162 1.778,-1.792 1.162,-0.644 2.8,-0.644 0.84,0 1.582,0.154 0.756,0.154 1.4,0.434 l -0.476,1.092 q -0.532,-0.224 -1.204,-0.392 -0.658,-0.182 -1.372,-0.182 -1.792,0 -2.8,1.092 -0.994,1.078 -0.994,2.94 0,1.19 0.378,2.114 0.392,0.91 1.218,1.428 0.826,0.504 2.17,0.504 0.658,0 1.12,-0.07 0.462,-0.07 0.84,-0.168 v -2.968 h -2.198 z m 12.07359,5.278 h -5.586 v -9.996 h 5.586 v 1.106 h -4.326 v 3.122 h 4.074 v 1.092 h -4.074 v 3.57 h 4.326 z m 5.59157,-9.996 q 1.862,0 2.744,0.714 0.896,0.7 0.896,2.128 0,0.798 -0.294,1.33 -0.294,0.532 -0.756,0.854 -0.448,0.322 -0.952,0.49 l 2.744,4.48 h -1.47 l -2.422,-4.13 h -1.988 v 4.13 h -1.26 v -9.996 z m -0.07,1.092 h -1.428 v 3.71 h 1.498 q 1.218,0 1.778,-0.476 0.56,-0.49 0.56,-1.428 0,-0.98 -0.588,-1.386 -0.588,-0.42 -1.82,-0.42 z"
       id="text9"
       style="font-size:14px"
       aria-label="error : INTEGER" />
    <circle
       cx="18"
       cy="191.02341"
       fill="#000000"
       style="stroke:#000000;stroke-width:1"
       id="ellipse9"
       r="3" />
    <path
       d="m 28.82,184.0521 q 0.28,0 0.49,0.196 0.224,0.182 0.224,0.588 0,0.406 -0.224,0.602 -0.21,0.182 -0.49,0.182 -0.308,0 -0.518,-0.182 -0.21,-0.196 -0.21,-0.602 0,-0.406 0.21,-0.588 0.21,-0.196 0.518,-0.196 z m 0.602,2.814 v 7.504 H 28.19 v -7.504 z m 6.683522,-0.14 q 1.344,0 2.03,0.658 0.686,0.658 0.686,2.1 v 4.886 h -1.218 v -4.802 q 0,-1.806 -1.68,-1.806 -1.246,0 -1.722,0.7 -0.476,0.7 -0.476,2.016 v 3.892 h -1.232 v -7.504 h 0.994 l 0.182,1.022 h 0.07 q 0.364,-0.588 1.008,-0.868 0.644,-0.294 1.358,-0.294 z m 8.237531,6.776 q 0.28,0 0.574,-0.042 0.294,-0.042 0.476,-0.112 v 0.938 q -0.196,0.098 -0.56,0.154 -0.364,0.07 -0.7,0.07 -0.588,0 -1.092,-0.196 -0.49,-0.21 -0.798,-0.714 -0.308,-0.504 -0.308,-1.414 v -4.368 h -1.064 v -0.588 l 1.078,-0.49 0.49,-1.596 h 0.728 v 1.722 h 2.17 v 0.952 h -2.17 v 4.34 q 0,0.686 0.322,1.022 0.336,0.322 0.854,0.322 z m 6.137531,-6.776 q 0.952,0 1.652,0.42 0.7,0.42 1.064,1.19 0.378,0.756 0.378,1.778 v 0.742 h -5.138 q 0.028,1.274 0.644,1.946 0.63,0.658 1.75,0.658 0.714,0 1.26,-0.126 0.56,-0.14 1.148,-0.392 v 1.078 q -0.574,0.252 -1.134,0.364 -0.56,0.126 -1.33,0.126 -1.078,0 -1.89,-0.434 -0.812,-0.434 -1.274,-1.288 -0.448,-0.854 -0.448,-2.114 0,-1.232 0.406,-2.114 0.42,-0.882 1.162,-1.358 0.756,-0.476 1.75,-0.476 z m -0.014,1.008 q -0.882,0 -1.4,0.574 -0.504,0.56 -0.602,1.568 h 3.822 q -0.014,-0.952 -0.448,-1.54 -0.434,-0.602 -1.372,-0.602 z m 9.203519,-1.008 q 0.21,0 0.448,0.028 0.238,0.014 0.434,0.056 l -0.154,1.134 q -0.182,-0.042 -0.406,-0.07 -0.224,-0.028 -0.406,-0.028 -0.574,0 -1.078,0.322 -0.504,0.308 -0.812,0.882 -0.294,0.56 -0.294,1.316 v 4.004 h -1.232 v -7.504 h 1.008 l 0.14,1.372 h 0.056 q 0.35,-0.616 0.924,-1.064 0.588,-0.448 1.372,-0.448 z m 4.625529,7.644 -2.842,-7.504 h 1.316 l 1.596,4.424 q 0.112,0.308 0.238,0.686 0.126,0.378 0.224,0.728 0.098,0.35 0.14,0.574 h 0.056 q 0.042,-0.224 0.154,-0.574 0.112,-0.364 0.238,-0.728 0.126,-0.378 0.238,-0.686 l 1.596,-4.424 h 1.316 l -2.856,7.504 z m 8.993524,-7.63 q 1.372,0 2.03,0.602 0.658,0.602 0.658,1.918 v 5.11 h -0.896 l -0.238,-1.064 h -0.056 q -0.49,0.616 -1.036,0.91 -0.546,0.294 -1.484,0.294 -1.022,0 -1.694,-0.532 -0.672,-0.546 -0.672,-1.694 0,-1.12 0.882,-1.722 0.882,-0.616 2.716,-0.672 l 1.274,-0.042 v -0.448 q 0,-0.938 -0.406,-1.302 -0.406,-0.364 -1.148,-0.364 -0.588,0 -1.12,0.182 -0.532,0.168 -0.994,0.392 l -0.378,-0.924 q 0.49,-0.266 1.162,-0.448 0.672,-0.196 1.4,-0.196 z m 1.47,3.962 -1.106,0.042 q -1.4,0.056 -1.946,0.448 -0.532,0.392 -0.532,1.106 0,0.63 0.378,0.924 0.392,0.294 0.994,0.294 0.938,0 1.568,-0.518 0.644,-0.532 0.644,-1.624 z m 5.46554,3.668 h -1.232 v -10.64 h 1.232 z m 7.221056,-6.748 q 0,-0.532 0.252,-0.742 0.252,-0.21 0.602,-0.21 0.35,0 0.616,0.21 0.266,0.21 0.266,0.742 0,0.504 -0.266,0.728 -0.266,0.224 -0.616,0.224 -0.35,0 -0.602,-0.224 -0.252,-0.224 -0.252,-0.728 z m 0,5.992 q 0,-0.518 0.252,-0.728 0.252,-0.21 0.602,-0.21 0.35,0 0.616,0.21 0.266,0.21 0.266,0.728 0,0.504 -0.266,0.728 -0.266,0.224 -0.616,0.224 -0.35,0 -0.602,-0.224 -0.252,-0.224 -0.252,-0.728 z m 11.939062,0.756 h -3.612 v -0.728 l 1.176,-0.266 v -7.994 l -1.176,-0.28 v -0.728 h 3.612 v 0.728 l -1.176,0.28 v 7.994 l 1.176,0.266 z m 10.547536,0 h -1.47 l -5.348,-8.302 h -0.056 q 0.028,0.49 0.07,1.218 0.042,0.728 0.042,1.498 v 5.586 h -1.162 v -9.996 h 1.456 l 5.334,8.274 h 0.056 q -0.014,-0.224 -0.042,-0.672 -0.014,-0.448 -0.042,-0.966 -0.014,-0.532 -0.014,-0.994 v -5.642 h 1.176 z m 6.57154,0 h -1.26 v -8.89 h -3.122 v -1.106 h 7.49 v 1.106 h -3.108 z m 10.89752,0 h -5.586 v -9.996 h 5.586 v 1.106 h -4.326 v 3.122 h 4.074 v 1.092 h -4.074 v 3.57 h 4.326 z m 7.22953,-5.278 h 3.458 v 4.9 q -0.812,0.266 -1.638,0.392 -0.826,0.126 -1.876,0.126 -1.554,0 -2.618,-0.616 -1.064,-0.63 -1.624,-1.778 -0.546,-1.162 -0.546,-2.744 0,-1.554 0.602,-2.702 0.616,-1.162 1.778,-1.792 1.162,-0.644 2.8,-0.644 0.84,0 1.582,0.154 0.756,0.154 1.4,0.434 l -0.476,1.092 q -0.532,-0.224 -1.204,-0.392 -0.658,-0.182 -1.372,-0.182 -1.792,0 -2.8,1.092 -0.994,1.078 -0.994,2.94 0,1.19 0.378,2.114 0.392,0.91 1.218,1.428 0.826,0.504 2.17,0.504 0.658,0 1.12,-0.07 0.462,-0.07 0.84,-0.168 v -2.968 h -2.198 z m 12.12953,5.278 h -5.586 v -9.996 h 5.586 v 1.106 h -4.326 v 3.122 h 4.074 v 1.092 h -4.074 v 3.57 h 4.326 z m 5.64754,-9.996 q 1.862,0 2.744,0.714 0.896,0.7 0.896,2.128 0,0.798 -0.294,1.33 -0.294,0.532 -0.756,0.854 -0.448,0.322 -0.952,0.49 l 2.744,4.48 h -1.47 l -2.422,-4.13 h -1.988 v 4.13 h -1.26 v -9.996 z m -0.07,1.092 h -1.428 v 3.71 h 1.498 q 1.218,0 1.778,-0.476 0.56,-0.49 0.56,-1.428 0,-0.98 -0.588,-1.386 -0.588,-0.42 -1.82,-0.42 z"
       id="text10"
       style="font-size:14px"
       aria-label="interval : INTEGER" />
    <circle
       cx="18"
       cy="207.3203"
       fill="#000000"
       style="stroke:#000000;stroke-width:1"
       id="ellipse10"
       r="3" />
    <path
       d="m 34.462,203.16301 v 7.504 h -1.008 l -0.182,-0.994 h -0.056 q -0.364,0.588 -1.008,0.868 -0.644,0.266 -1.372,0.266 -1.358,0 -2.044,-0.644 -0.686,-0.658 -0.686,-2.086 v -4.914 h 1.246 v 4.83 q 0,1.792 1.666,1.792 1.246,0 1.722,-0.7 0.49,-0.7 0.49,-2.016 v -3.906 z m 6.711068,-0.14 q 1.386,0 2.226,0.966 0.854,0.966 0.854,2.912 0,1.918 -0.854,2.912 -0.84,0.994 -2.24,0.994 -0.868,0 -1.442,-0.322 -0.56,-0.322 -0.882,-0.77 h -0.084 q 0.014,0.238 0.042,0.602 0.042,0.364 0.042,0.63 v 3.08 h -1.232 v -10.864 h 1.008 l 0.168,1.022 h 0.056 q 0.336,-0.49 0.882,-0.826 0.546,-0.336 1.456,-0.336 z m -0.224,1.036 q -1.148,0 -1.624,0.644 -0.476,0.644 -0.49,1.96 v 0.238 q 0,1.386 0.448,2.142 0.462,0.742 1.694,0.742 0.672,0 1.12,-0.364 0.448,-0.378 0.658,-1.036 0.224,-0.658 0.224,-1.498 0,-1.288 -0.504,-2.058 -0.49,-0.77 -1.526,-0.77 z m 8.531064,5.74 q 0.28,0 0.574,-0.042 0.294,-0.042 0.476,-0.112 v 0.938 q -0.196,0.098 -0.56,0.154 -0.364,0.07 -0.7,0.07 -0.588,0 -1.092,-0.196 -0.49,-0.21 -0.798,-0.714 -0.308,-0.504 -0.308,-1.414 v -4.368 h -1.064 v -0.588 l 1.078,-0.49 0.49,-1.596 h 0.728 v 1.722 h 2.17 v 0.952 h -2.17 v 4.34 q 0,0.686 0.322,1.022 0.336,0.322 0.854,0.322 z m 3.939069,-9.45 q 0.28,0 0.49,0.196 0.224,0.182 0.224,0.588 0,0.406 -0.224,0.602 -0.21,0.182 -0.49,0.182 -0.308,0 -0.518,-0.182 -0.21,-0.196 -0.21,-0.602 0,-0.406 0.21,-0.588 0.21,-0.196 0.518,-0.196 z m 0.602,2.814 v 7.504 h -1.232 v -7.504 z m 11.37306,-0.14 q 1.274,0 1.904,0.658 0.63,0.658 0.63,2.1 v 4.886 h -1.218 v -4.83 q 0,-1.778 -1.526,-1.778 -1.092,0 -1.568,0.63 -0.462,0.63 -0.462,1.834 v 4.144 h -1.218 v -4.83 q 0,-1.778 -1.54,-1.778 -1.134,0 -1.568,0.7 -0.434,0.7 -0.434,2.016 v 3.892 h -1.232 v -7.504 h 0.994 l 0.182,1.022 h 0.07 q 0.35,-0.588 0.938,-0.868 0.602,-0.294 1.274,-0.294 1.764,0 2.296,1.26 h 0.07 q 0.378,-0.644 1.022,-0.952 0.644,-0.308 1.386,-0.308 z m 8.517061,0 q 0.952,0 1.652,0.42 0.7,0.42 1.064,1.19 0.378,0.756 0.378,1.778 v 0.742 h -5.138 q 0.028,1.274 0.644,1.946 0.63,0.658 1.75,0.658 0.714,0 1.26,-0.126 0.56,-0.14 1.148,-0.392 v 1.078 q -0.574,0.252 -1.134,0.364 -0.56,0.126 -1.33,0.126 -1.078,0 -1.89,-0.434 -0.812,-0.434 -1.274,-1.288 -0.448,-0.854 -0.448,-2.114 0,-1.232 0.406,-2.114 0.42,-0.882 1.162,-1.358 0.756,-0.476 1.75,-0.476 z m -0.014,1.008 q -0.882,0 -1.4,0.574 -0.504,0.56 -0.602,1.568 h 3.822 q -0.014,-0.952 -0.448,-1.54 -0.434,-0.602 -1.372,-0.602 z m 9.992125,-0.112 q 0,-0.532 0.252,-0.742 0.252,-0.21 0.602,-0.21 0.35,0 0.616,0.21 0.266,0.21 0.266,0.742 0,0.504 -0.266,0.728 -0.266,0.224 -0.616,0.224 -0.35,0 -0.602,-0.224 -0.252,-0.224 -0.252,-0.728 z m 0,5.992 q 0,-0.518 0.252,-0.728 0.252,-0.21 0.602,-0.21 0.35,0 0.616,0.21 0.266,0.21 0.266,0.728 0,0.504 -0.266,0.728 -0.266,0.224 -0.616,0.224 -0.35,0 -0.602,-0.224 -0.252,-0.224 -0.252,-0.728 z m 12.078131,0.756 h -3.612 v -0.728 l 1.176,-0.266 v -7.994 l -1.176,-0.28 v -0.728 h 3.612 v 0.728 l -1.176,0.28 v 7.994 l 1.176,0.266 z m 10.617082,0 h -1.47 l -5.348002,-8.302 h -0.056 q 0.028,0.49 0.07,1.218 0.042,0.728 0.042,1.498 v 5.586 h -1.162 v -9.996 h 1.456002 l 5.334,8.274 h 0.056 q -0.014,-0.224 -0.042,-0.672 -0.014,-0.448 -0.042,-0.966 -0.014,-0.532 -0.014,-0.994 v -5.642 h 1.176 z m 6.64107,0 h -1.26 v -8.89 h -3.122 v -1.106 h 7.49 v 1.106 h -3.108 z m 10.96706,0 h -5.586 v -9.996 h 5.586 v 1.106 h -4.326 v 3.122 h 4.074 v 1.092 h -4.074 v 3.57 h 4.326 z m 7.29907,-5.278 h 3.458 v 4.9 q -0.812,0.266 -1.638,0.392 -0.826,0.126 -1.876,0.126 -1.554,0 -2.618,-0.616 -1.064,-0.63 -1.624,-1.778 -0.546,-1.162 -0.546,-2.744 0,-1.554 0.602,-2.702 0.616,-1.162 1.778,-1.792 1.162,-0.644 2.8,-0.644 0.84,0 1.582,0.154 0.756,0.154 1.4,0.434 l -0.476,1.092 q -0.532,-0.224 -1.204,-0.392 -0.658,-0.182 -1.372,-0.182 -1.792,0 -2.8,1.092 -0.994,1.078 -0.994,2.94 0,1.19 0.378,2.114 0.392,0.91 1.218,1.428 0.826,0.504 2.17,0.504 0.658,0 1.12,-0.07 0.462,-0.07 0.84,-0.168 v -2.968 h -2.198 z m 12.19907,5.278 h -5.586 v -9.996 h 5.586 v 1.106 h -4.326 v 3.122 h 4.074 v 1.092 h -4.074 v 3.57 h 4.326 z m 5.71707,-9.996 q 1.862,0 2.744,0.714 0.896,0.7 0.896,2.128 0,0.798 -0.294,1.33 -0.294,0.532 -0.756,0.854 -0.448,0.322 -0.952,0.49 l 2.744,4.48 h -1.47 l -2.422,-4.13 h -1.988 v 4.13 h -1.26 v -9.996 z m -0.07,1.092 h -1.428 v 3.71 h 1.498 q 1.218,0 1.778,-0.476 0.56,-0.49 0.56,-1.428 0,-0.98 -0.588,-1.386 -0.588,-0.42 -1.82,-0.42 z"
       id="text11"
       style="font-size:14px"
       aria-label="uptime : INTEGER" />
    <line
       style="stroke:#181818;stroke-width:1"
       x1="8"
       x2="284"
       y1="217.9688"
       y2="217.9688"
       id="line11" />
    <path
       d="m 28.82,224.6459 q 0.28,0 0.49,0.196 0.224,0.182 0.224,0.588 0,0.406 -0.224,0.602 -0.21,0.182 -0.49,0.182 -0.308,0 -0.518,-0.182 -0.21,-0.196 -0.21,-0.602 0,-0.406 0.21,-0.588 0.21,-0.196 0.518,-0.196 z m 0.602,2.814 v 7.504 H 28.19 v -7.504 z m 5.639197,7.644 q -1.4,0 -2.24,-0.966 -0.84,-0.98 -0.84,-2.912 0,-1.932 0.84,-2.912 0.854,-0.994 2.254,-0.994 0.868,0 1.414,0.322 0.56,0.322 0.91,0.784 h 0.084 q -0.028,-0.182 -0.056,-0.532 -0.028,-0.364 -0.028,-0.574 v -2.996 h 1.232 v 10.64 h -0.994 l -0.182,-1.008 h -0.056 q -0.336,0.476 -0.896,0.812 -0.56,0.336 -1.442,0.336 z m 0.196,-1.022 q 1.19,0 1.666,-0.644 0.49,-0.658 0.49,-1.974 v -0.224 q 0,-1.4 -0.462,-2.142 -0.462,-0.756 -1.708,-0.756 -0.994,0 -1.498,0.798 -0.49,0.784 -0.49,2.114 0,1.344 0.49,2.086 0.504,0.742 1.512,0.742 z m 8.131202,-2.954 -2.59,-3.668 h 1.4 l 1.932,2.828 1.918,-2.828 h 1.386 l -2.59,3.668 2.73,3.836 h -1.4 l -2.044,-2.996 -2.072,2.996 h -1.386 z m 11.281195,5.992 h -6.272 v -0.896 h 6.272 z m 5.373209,-9.8 q 1.344,0 2.03,0.658 0.686,0.658 0.686,2.1 v 4.886 h -1.218 v -4.802 q 0,-1.806 -1.68,-1.806 -1.246,0 -1.722,0.7 -0.476,0.7 -0.476,2.016 v 3.892 h -1.232 v -7.504 h 0.994 l 0.182,1.022 h 0.07 q 0.364,-0.588 1.008,-0.868 0.644,-0.294 1.358,-0.294 z m 12.163205,3.878 q 0,1.862 -0.952,2.884 -0.938,1.022 -2.548,1.022 -0.994,0 -1.778,-0.448 -0.77,-0.462 -1.218,-1.33 -0.448,-0.882 -0.448,-2.128 0,-1.862 0.924,-2.87 0.938,-1.008 2.562,-1.008 1.008,0 1.792,0.462 0.784,0.448 1.218,1.316 0.448,0.854 0.448,2.1 z m -5.67,0 q 0,1.33 0.518,2.114 0.532,0.77 1.68,0.77 1.134,0 1.666,-0.77 0.532,-0.784 0.532,-2.114 0,-1.33 -0.532,-2.086 -0.532,-0.756 -1.68,-0.756 -1.148,0 -1.666,0.756 -0.518,0.756 -0.518,2.086 z m 10.875199,3.906 q -1.4,0 -2.24,-0.966 -0.84,-0.98 -0.84,-2.912 0,-1.932 0.84,-2.912 0.854,-0.994 2.254,-0.994 0.868,0 1.414,0.322 0.56,0.322 0.91,0.784 h 0.084 q -0.028,-0.182 -0.056,-0.532 -0.028,-0.364 -0.028,-0.574 v -2.996 h 1.232 v 10.64 h -0.994 l -0.182,-1.008 h -0.056 q -0.336,0.476 -0.896,0.812 -0.56,0.336 -1.442,0.336 z m 0.196,-1.022 q 1.19,0 1.666,-0.644 0.49,-0.658 0.49,-1.974 v -0.224 q 0,-1.4 -0.462,-2.142 -0.462,-0.756 -1.708,-0.756 -0.994,0 -1.498,0.798 -0.49,0.784 -0.49,2.114 0,1.344 0.49,2.086 0.504,0.742 1.512,0.742 z m 9.251202,-6.762 q 0.952,0 1.652,0.42 0.7,0.42 1.064,1.19 0.378,0.756 0.378,1.778 v 0.742 h -5.138 q 0.028,1.274 0.644,1.946 0.63,0.658 1.75,0.658 0.714,0 1.26,-0.126 0.56,-0.14 1.148,-0.392 v 1.078 q -0.574,0.252 -1.134,0.364 -0.56,0.126 -1.33,0.126 -1.078,0 -1.89,-0.434 -0.812,-0.434 -1.274,-1.288 -0.448,-0.854 -0.448,-2.114 0,-1.232 0.406,-2.114 0.42,-0.882 1.162,-1.358 0.756,-0.476 1.75,-0.476 z m -0.014,1.008 q -0.882,0 -1.4,0.574 -0.504,0.56 -0.602,1.568 h 3.822 q -0.014,-0.952 -0.448,-1.54 -0.434,-0.602 -1.372,-0.602 z m 10.665193,8.792 h -6.272 v -0.896 h 6.272 z m 2.391209,-12.474 q 0.279999,0 0.489999,0.196 0.224,0.182 0.224,0.588 0,0.406 -0.224,0.602 -0.21,0.182 -0.489999,0.182 -0.308,0 -0.518,-0.182 -0.21,-0.196 -0.21,-0.602 0,-0.406 0.21,-0.588 0.21,-0.196 0.518,-0.196 z m 0.601999,2.814 v 7.504 h -1.231999 v -7.504 z m 5.6392,7.644 q -1.4,0 -2.24,-0.966 -0.84,-0.98 -0.84,-2.912 0,-1.932 0.84,-2.912 0.854,-0.994 2.254,-0.994 0.868,0 1.414,0.322 0.56,0.322 0.91,0.784 h 0.084 q -0.028,-0.182 -0.056,-0.532 -0.028,-0.364 -0.028,-0.574 v -2.996 h 1.232 v 10.64 h -0.994 l -0.182,-1.008 h -0.056 q -0.336,0.476 -0.896,0.812 -0.56,0.336 -1.442,0.336 z m 0.196,-1.022 q 1.19,0 1.666,-0.644 0.49,-0.658 0.49,-1.974 v -0.224 q 0,-1.4 -0.462,-2.142 -0.462,-0.756 -1.708,-0.756 -0.994,0 -1.498,0.798 -0.49,0.784 -0.49,2.114 0,1.344 0.49,2.086 0.504,0.742 1.512,0.742 z m 9.96241,-2.954 q 0,-1.708 0.49,-3.29 0.504,-1.596 1.568,-2.87 h 1.162 q -0.98,1.316 -1.484,2.898 -0.49,1.582 -0.49,3.248 0,1.624 0.49,3.192 0.504,1.554 1.47,2.87 h -1.148 q -1.064,-1.232 -1.568,-2.786 -0.49,-1.568 -0.49,-3.262 z m 9.04119,-3.808 q 1.344,0 2.03,0.658 0.686,0.658 0.686,2.1 v 4.886 h -1.218 v -4.802 q 0,-1.806 -1.68,-1.806 -1.246,0 -1.722,0.7 -0.476,0.7 -0.476,2.016 v 3.892 h -1.232 v -7.504 h 0.994 l 0.182,1.022 h 0.07 q 0.364,-0.588 1.008,-0.868 0.644,-0.294 1.358,-0.294 z m 12.16321,3.878 q 0,1.862 -0.952,2.884 -0.938,1.022 -2.548,1.022 -0.994,0 -1.778,-0.448 -0.77,-0.462 -1.218,-1.33 -0.448,-0.882 -0.448,-2.128 0,-1.862 0.924,-2.87 0.938,-1.008 2.562,-1.008 1.008,0 1.792,0.462 0.784,0.448 1.218,1.316 0.448,0.854 0.448,2.1 z m -5.67,0 q 0,1.33 0.518,2.114 0.532,0.77 1.68,0.77 1.134,0 1.666,-0.77 0.532,-0.784 0.532,-2.114 0,-1.33 -0.532,-2.086 -0.532,-0.756 -1.68,-0.756 -1.148,0 -1.666,0.756 -0.518,0.756 -0.518,2.086 z m 10.8752,3.906 q -1.4,0 -2.24,-0.966 -0.84,-0.98 -0.84,-2.912 0,-1.932 0.84,-2.912 0.854,-0.994 2.254,-0.994 0.868,0 1.414,0.322 0.56,0.322 0.91,0.784 h 0.084 q -0.028,-0.182 -0.056,-0.532 -0.028,-0.364 -0.028,-0.574 v -2.996 h 1.232 v 10.64 h -0.994 l -0.182,-1.008 h -0.056 q -0.336,0.476 -0.896,0.812 -0.56,0.336 -1.442,0.336 z m 0.196,-1.022 q 1.19,0 1.666,-0.644 0.49,-0.658 0.49,-1.974 v -0.224 q 0,-1.4 -0.462,-2.142 -0.462,-0.756 -1.708,-0.756 -0.994,0 -1.498,0.798 -0.49,0.784 -0.49,2.114 0,1.344 0.49,2.086 0.504,0.742 1.512,0.742 z m 9.25119,-6.762 q 0.952,0 1.652,0.42 0.7,0.42 1.064,1.19 0.378,0.756 0.378,1.778 v 0.742 h -5.138 q 0.028,1.274 0.644,1.946 0.63,0.658 1.75,0.658 0.714,0 1.26,-0.126 0.56,-0.14 1.148,-0.392 v 1.078 q -0.574,0.252 -1.134,0.364 -0.56,0.126 -1.33,0.126 -1.078,0 -1.89,-0.434 -0.812,-0.434 -1.274,-1.288 -0.448,-0.854 -0.448,-2.114 0,-1.232 0.406,-2.114 0.42,-0.882 1.162,-1.358 0.756,-0.476 1.75,-0.476 z m -0.014,1.008 q -0.882,0 -1.4,0.574 -0.504,0.56 -0.602,1.568 h 3.822 q -0.014,-0.952 -0.448,-1.54 -0.434,-0.602 -1.372,-0.602 z m 10.6652,8.792 h -6.272 v -0.896 h 6.272 z m 2.39121,-12.474 q 0.28,0 0.49,0.196 0.224,0.182 0.224,0.588 0,0.406 -0.224,0.602 -0.21,0.182 -0.49,0.182 -0.308,0 -0.518,-0.182 -0.21,-0.196 -0.21,-0.602 0,-0.406 0.21,-0.588 0.21,-0.196 0.518,-0.196 z m 0.602,2.814 v 7.504 h -1.232 v -7.504 z m 5.6392,7.644 q -1.4,0 -2.24,-0.966 -0.84,-0.98 -0.84,-2.912 0,-1.932 0.84,-2.912 0.854,-0.994 2.254,-0.994 0.868,0 1.414,0.322 0.56,0.322 0.91,0.784 h 0.084 q -0.028,-0.182 -0.056,-0.532 -0.028,-0.364 -0.028,-0.574 v -2.996 h 1.232 v 10.64 h -0.994 l -0.182,-1.008 h -0.056 q -0.336,0.476 -0.896,0.812 -0.56,0.336 -1.442,0.336 z m 0.196,-1.022 q 1.19,0 1.666,-0.644 0.49,-0.658 0.49,-1.974 v -0.224 q 0,-1.4 -0.462,-2.142 -0.462,-0.756 -1.708,-0.756 -0.994,0 -1.498,0.798 -0.49,0.784 -0.49,2.114 0,1.344 0.49,2.086 0.504,0.742 1.512,0.742 z m 8.8032,-2.954 q 0,1.694 -0.504,3.262 -0.49,1.554 -1.554,2.786 h -1.148 q 0.966,-1.316 1.456,-2.87 0.504,-1.568 0.504,-3.192 0,-1.666 -0.504,-3.248 -0.49,-1.582 -1.47,-2.898 h 1.162 q 1.064,1.274 1.554,2.87 0.504,1.582 0.504,3.29 z"
       id="text12"
       style="font-size:14px"
       aria-label="idx_node_id (node_id)" />
    <rect
       fill="#f24d5c"
       height="6"
       style="stroke:#c82930;stroke-width:1"
       width="6"
       x="15"
       y="244.91409"
       id="rect12" />
    <path
       d="m 33.076,249.1887 q 0,1.092 -0.812,1.652 -0.812,0.56 -2.184,0.56 -0.784,0 -1.358,-0.126 -0.56,-0.126 -0.994,-0.35 v -1.12 q 0.448,0.224 1.078,0.42 0.644,0.182 1.302,0.182 0.938,0 1.358,-0.294 0.42,-0.308 0.42,-0.812 0,-0.28 -0.154,-0.504 -0.154,-0.224 -0.56,-0.448 -0.392,-0.224 -1.134,-0.504 -0.728,-0.28 -1.246,-0.56 -0.518,-0.28 -0.798,-0.672 -0.28,-0.392 -0.28,-1.008 0,-0.952 0.77,-1.47 0.784,-0.518 2.044,-0.518 0.686,0 1.274,0.14 0.602,0.14 1.12,0.364 l -0.42,0.98 q -0.476,-0.196 -0.994,-0.336 -0.518,-0.14 -1.064,-0.14 -0.756,0 -1.162,0.252 -0.392,0.238 -0.392,0.658 0,0.322 0.182,0.532 0.182,0.21 0.602,0.42 0.434,0.21 1.148,0.476 0.714,0.266 1.218,0.546 0.504,0.28 0.77,0.686 0.266,0.392 0.266,0.994 z m 7.536246,5.432 v -3.206 q 0,-0.252 0.014,-0.588 0.014,-0.336 0.056,-0.574 h -0.084 q -0.322,0.476 -0.896,0.812 -0.56,0.336 -1.456,0.336 -1.358,0 -2.212,-0.966 -0.84,-0.98 -0.84,-2.912 0,-1.932 0.854,-2.912 0.868,-0.994 2.24,-0.994 0.882,0 1.442,0.336 0.56,0.336 0.896,0.826 h 0.056 l 0.182,-1.022 h 0.98 v 10.864 z m -2.128,-4.242 q 1.148,0 1.638,-0.63 0.49,-0.644 0.504,-1.96 v -0.252 q 0,-1.428 -0.476,-2.156 -0.476,-0.742 -1.694,-0.742 -1.008,0 -1.498,0.798 -0.49,0.784 -0.49,2.114 0,1.33 0.49,2.086 0.49,0.742 1.526,0.742 z m 7.690243,0.882 h -1.232 v -10.64 h 1.232 z m 3.728237,-10.318 q 0.28,0 0.49,0.196 0.224,0.182 0.224,0.588 0,0.406 -0.224,0.602 -0.21,0.182 -0.49,0.182 -0.308,0 -0.518,-0.182 -0.21,-0.196 -0.21,-0.602 0,-0.406 0.21,-0.588 0.21,-0.196 0.518,-0.196 z m 0.602,2.814 v 7.504 h -1.232 v -7.504 z m 5.604236,6.636 q 0.28,0 0.574,-0.042 0.294,-0.042 0.476,-0.112 v 0.938 q -0.196,0.098 -0.56,0.154 -0.364,0.07 -0.7,0.07 -0.588,0 -1.092,-0.196 -0.49,-0.21 -0.798,-0.714 -0.308,-0.504 -0.308,-1.414 v -4.368 h -1.064 v -0.588 l 1.078,-0.49 0.49,-1.596 h 0.728 v 1.722 h 2.17 v 0.952 h -2.17 v 4.34 q 0,0.686 0.322,1.022 0.336,0.322 0.854,0.322 z m 6.164245,-6.776 q 0.952,0 1.652,0.42 0.7,0.42 1.064,1.19 0.378,0.756 0.378,1.778 v 0.742 h -5.138 q 0.028,1.274 0.644,1.946 0.63,0.658 1.75,0.658 0.714,0 1.26,-0.126 0.56,-0.14 1.148,-0.392 v 1.078 q -0.574,0.252 -1.134,0.364 -0.56,0.126 -1.33,0.126 -1.078,0 -1.89,-0.434 -0.812,-0.434 -1.274,-1.288 -0.448,-0.854 -0.448,-2.114 0,-1.232 0.406,-2.114 0.42,-0.882 1.162,-1.358 0.756,-0.476 1.75,-0.476 z m -0.014,1.008 q -0.882,0 -1.4,0.574 -0.504,0.56 -0.602,1.568 h 3.822 q -0.014,-0.952 -0.448,-1.54 -0.434,-0.602 -1.372,-0.602 z m 10.784235,8.792 h -6.272 v -0.896 h 6.272 z m 4.722246,-9.786 q 1.372,0 2.03,0.602 0.658,0.602 0.658,1.918 v 5.11 h -0.896 l -0.238,-1.064 h -0.056 q -0.49,0.616 -1.036,0.91 -0.546,0.294 -1.484,0.294 -1.022,0 -1.694,-0.532 -0.672,-0.546 -0.672,-1.694 0,-1.12 0.882,-1.722 0.882,-0.616 2.716,-0.672 l 1.274,-0.042 v -0.448 q 0,-0.938 -0.406,-1.302 -0.406,-0.364 -1.148,-0.364 -0.588,0 -1.12,0.182 -0.532,0.168 -0.994,0.392 l -0.378,-0.924 q 0.49,-0.266 1.162,-0.448 0.672,-0.196 1.4,-0.196 z m 1.47,3.962 -1.106,0.042 q -1.4,0.056 -1.946,0.448 -0.532,0.392 -0.532,1.106 0,0.63 0.378,0.924 0.392,0.294 0.994,0.294 0.938,0 1.568,-0.518 0.644,-0.532 0.644,-1.624 z m 10.532258,-3.836 v 7.504 h -1.008 l -0.182,-0.994 h -0.056 q -0.364,0.588 -1.008,0.868 -0.644,0.266 -1.372,0.266 -1.358,0 -2.044,-0.644 -0.686,-0.658 -0.686,-2.086 v -4.914 h 1.246 v 4.83 q 0,1.792 1.666,1.792 1.246,0 1.722,-0.7 0.49,-0.7 0.49,-2.016 v -3.906 z m 5.604247,6.636 q 0.28,0 0.574,-0.042 0.294,-0.042 0.476,-0.112 v 0.938 q -0.196,0.098 -0.56,0.154 -0.364,0.07 -0.7,0.07 -0.588,0 -1.092,-0.196 -0.49,-0.21 -0.798,-0.714 -0.308,-0.504 -0.308,-1.414 v -4.368 h -1.064 v -0.588 l 1.078,-0.49 0.49,-1.596 h 0.728 v 1.722 h 2.17 v 0.952 h -2.17 v 4.34 q 0,0.686 0.322,1.022 0.336,0.322 0.854,0.322 z m 9.790247,-2.898 q 0,1.862 -0.952,2.884 -0.938,1.022 -2.548,1.022 -0.994,0 -1.777999,-0.448 -0.77,-0.462 -1.218,-1.33 -0.448,-0.882 -0.448,-2.128 0,-1.862 0.924,-2.87 0.937999,-1.008 2.561999,-1.008 1.008,0 1.792,0.462 0.784,0.448 1.218,1.316 0.448,0.854 0.448,2.1 z m -5.669999,0 q 0,1.33 0.517999,2.114 0.532,0.77 1.68,0.77 1.134,0 1.666,-0.77 0.532,-0.784 0.532,-2.114 0,-1.33 -0.532,-2.086 -0.532,-0.756 -1.68,-0.756 -1.148,0 -1.666,0.756 -0.517999,0.756 -0.517999,2.086 z m 8.964229,-6.552 q 0.28,0 0.49,0.196 0.224,0.182 0.224,0.588 0,0.406 -0.224,0.602 -0.21,0.182 -0.49,0.182 -0.308,0 -0.518,-0.182 -0.21,-0.196 -0.21,-0.602 0,-0.406 0.21,-0.588 0.21,-0.196 0.518,-0.196 z m 0.602,2.814 v 7.504 h -1.232 v -7.504 z m 6.71024,-0.14 q 1.344,0 2.03,0.658 0.686,0.658 0.686,2.1 v 4.886 h -1.218 v -4.802 q 0,-1.806 -1.68,-1.806 -1.246,0 -1.722,0.7 -0.476,0.7 -0.476,2.016 v 3.892 h -1.232 v -7.504 h 0.994 l 0.182,1.022 h 0.07 q 0.364,-0.588 1.008,-0.868 0.644,-0.294 1.358,-0.294 z m 8.41825,7.784 q -1.4,0 -2.24,-0.966 -0.84,-0.98 -0.84,-2.912 0,-1.932 0.84,-2.912 0.854,-0.994 2.254,-0.994 0.868,0 1.414,0.322 0.56,0.322 0.91,0.784 h 0.084 q -0.028,-0.182 -0.056,-0.532 -0.028,-0.364 -0.028,-0.574 v -2.996 h 1.232 v 10.64 h -0.994 l -0.182,-1.008 h -0.056 q -0.336,0.476 -0.896,0.812 -0.56,0.336 -1.442,0.336 z m 0.196,-1.022 q 1.19,0 1.666,-0.644 0.49,-0.658 0.49,-1.974 v -0.224 q 0,-1.4 -0.462,-2.142 -0.462,-0.756 -1.708,-0.756 -0.994,0 -1.498,0.798 -0.49,0.784 -0.49,2.114 0,1.344 0.49,2.086 0.504,0.742 1.512,0.742 z m 9.37024,-6.762 q 0.952,0 1.652,0.42 0.7,0.42 1.064,1.19 0.378,0.756 0.378,1.778 v 0.742 h -5.138 q 0.028,1.274 0.644,1.946 0.63,0.658 1.75,0.658 0.714,0 1.26,-0.126 0.56,-0.14 1.148,-0.392 v 1.078 q -0.574,0.252 -1.134,0.364 -0.56,0.126 -1.33,0.126 -1.078,0 -1.89,-0.434 -0.812,-0.434 -1.274,-1.288 -0.448,-0.854 -0.448,-2.114 0,-1.232 0.406,-2.114 0.42,-0.882 1.162,-1.358 0.756,-0.476 1.75,-0.476 z m -0.014,1.008 q -0.882,0 -1.4,0.574 -0.504,0.56 -0.602,1.568 h 3.822 q -0.014,-0.952 -0.448,-1.54 -0.434,-0.602 -1.372,-0.602 z m 7.22823,2.8 -2.59,-3.668 h 1.4 l 1.932,2.828 1.918,-2.828 h 1.386 l -2.59,3.668 2.73,3.836 h -1.4 l -2.044,-2.996 -2.072,2.996 h -1.386 z m 11.40023,5.992 h -6.272 v -0.896 h 6.272 z m 3.11225,-12.796 v 2.59 q 0,0.476 -0.028,0.896 -0.014,0.406 -0.042,0.644 h 0.07 q 0.322,-0.476 0.882,-0.798 0.56,-0.322 1.442,-0.322 1.4,0 2.24,0.98 0.854,0.966 0.854,2.898 0,1.932 -0.854,2.912 -0.854,0.98 -2.24,0.98 -0.882,0 -1.442,-0.322 -0.56,-0.322 -0.882,-0.77 h -0.098 l -0.252,0.952 h -0.882 v -10.64 z m 2.114,4.032 q -1.204,0 -1.666,0.686 -0.448,0.686 -0.448,2.128 v 0.056 q 0,1.386 0.448,2.128 0.462,0.728 1.694,0.728 1.008,0 1.498,-0.742 0.504,-0.742 0.504,-2.142 0,-2.842 -2.03,-2.842 z m 8.88024,-1.036 q 0.952,0 1.652,0.42 0.7,0.42 1.064,1.19 0.378,0.756 0.378,1.778 v 0.742 h -5.138 q 0.028,1.274 0.644,1.946 0.63,0.658 1.75,0.658 0.714,0 1.26,-0.126 0.56,-0.14 1.148,-0.392 v 1.078 q -0.574,0.252 -1.134,0.364 -0.56,0.126 -1.33,0.126 -1.078,0 -1.89,-0.434 -0.812,-0.434 -1.274,-1.288 -0.448,-0.854 -0.448,-2.114 0,-1.232 0.406,-2.114 0.42,-0.882 1.162,-1.358 0.756,-0.476 1.75,-0.476 z m -0.014,1.008 q -0.882,0 -1.4,0.574 -0.504,0.56 -0.602,1.568 h 3.822 q -0.014,-0.952 -0.448,-1.54 -0.434,-0.602 -1.372,-0.602 z m 8.57225,-0.994 q 1.372,0 2.03,0.602 0.658,0.602 0.658,1.918 v 5.11 h -0.896 l -0.238,-1.064 h -0.056 q -0.49,0.616 -1.036,0.91 -0.546,0.294 -1.484,0.294 -1.022,0 -1.694,-0.532 -0.672,-0.546 -0.672,-1.694 0,-1.12 0.882,-1.722 0.882,-0.616 2.716,-0.672 l 1.274,-0.042 v -0.448 q 0,-0.938 -0.406,-1.302 -0.406,-0.364 -1.148,-0.364 -0.588,0 -1.12,0.182 -0.532,0.168 -0.994,0.392 l -0.378,-0.924 q 0.49,-0.266 1.162,-0.448 0.672,-0.196 1.4,-0.196 z m 1.47,3.962 -1.106,0.042 q -1.4,0.056 -1.946,0.448 -0.532,0.392 -0.532,1.106 0,0.63 0.378,0.924 0.392,0.294 0.994,0.294 0.938,0 1.568,-0.518 0.644,-0.532 0.644,-1.624 z m 6.76625,2.8 q 0.28,0 0.574,-0.042 0.294,-0.042 0.476,-0.112 v 0.938 q -0.196,0.098 -0.56,0.154 -0.364,0.07 -0.7,0.07 -0.588,0 -1.092,-0.196 -0.49,-0.21 -0.798,-0.714 -0.308,-0.504 -0.308,-1.414 v -4.368 h -1.064 v -0.588 l 1.078,-0.49 0.49,-1.596 h 0.728 v 1.722 h 2.17 v 0.952 h -2.17 v 4.34 q 0,0.686 0.322,1.022 0.336,0.322 0.854,0.322 z m 8.15224,-1.204 q 0,1.092 -0.812,1.652 -0.812,0.56 -2.184,0.56 -0.784,0 -1.358,-0.126 -0.56,-0.126 -0.994,-0.35 v -1.12 q 0.448,0.224 1.078,0.42 0.644,0.182 1.302,0.182 0.938,0 1.358,-0.294 0.42,-0.308 0.42,-0.812 0,-0.28 -0.154,-0.504 -0.154,-0.224 -0.56,-0.448 -0.392,-0.224 -1.134,-0.504 -0.728,-0.28 -1.246,-0.56 -0.518,-0.28 -0.798,-0.672 -0.28,-0.392 -0.28,-1.008 0,-0.952 0.77,-1.47 0.784,-0.518 2.044,-0.518 0.686,0 1.274,0.14 0.602,0.14 1.12,0.364 l -0.42,0.98 q -0.476,-0.196 -0.994,-0.336 -0.518,-0.14 -1.064,-0.14 -0.756,0 -1.162,0.252 -0.392,0.238 -0.392,0.658 0,0.322 0.182,0.532 0.182,0.21 0.602,0.42 0.434,0.21 1.148,0.476 0.714,0.266 1.218,0.546 0.504,0.28 0.77,0.686 0.266,0.392 0.266,0.994 z m 7.59224,4.228 h -6.272 v -0.896 h 6.272 z m 5.66025,-2.156 h -1.204 v -6.986 q 0,-0.602 0.014,-0.966 0.014,-0.364 0.042,-0.756 -0.224,0.224 -0.42,0.378 -0.182,0.154 -0.448,0.392 l -1.064,0.868 -0.644,-0.826 2.702,-2.1 h 1.022 z m 8.67451,-3.836 q 0,-1.708 0.49,-3.29 0.504,-1.596 1.568,-2.87 h 1.162 q -0.98,1.316 -1.484,2.898 -0.49,1.582 -0.49,3.248 0,1.624 0.49,3.192 0.504,1.554 1.47,2.87 h -1.148 q -1.064,-1.232 -1.568,-2.786 -0.49,-1.568 -0.49,-3.262 z m 9.16022,-3.808 q 1.344,0 2.03,0.658 0.686,0.658 0.686,2.1 v 4.886 h -1.218 v -4.802 q 0,-1.806 -1.68,-1.806 -1.246,0 -1.722,0.7 -0.476,0.7 -0.476,2.016 v 3.892 h -1.232 v -7.504 h 0.994 l 0.182,1.022 h 0.07 q 0.364,-0.588 1.008,-0.868 0.644,-0.294 1.358,-0.294 z m 12.28226,3.878 q 0,1.862 -0.952,2.884 -0.938,1.022 -2.548,1.022 -0.994,0 -1.778,-0.448 -0.77,-0.462 -1.218,-1.33 -0.448,-0.882 -0.448,-2.128 0,-1.862 0.924,-2.87 0.938,-1.008 2.562,-1.008 1.008,0 1.792,0.462 0.784,0.448 1.218,1.316 0.448,0.854 0.448,2.1 z m -5.67,0 q 0,1.33 0.518,2.114 0.532,0.77 1.68,0.77 1.134,0 1.666,-0.77 0.532,-0.784 0.532,-2.114 0,-1.33 -0.532,-2.086 -0.532,-0.756 -1.68,-0.756 -1.148,0 -1.666,0.756 -0.518,0.756 -0.518,2.086 z m 10.99423,3.906 q -1.4,0 -2.24,-0.966 -0.84,-0.98 -0.84,-2.912 0,-1.932 0.84,-2.912 0.854,-0.994 2.254,-0.994 0.868,0 1.414,0.322 0.56,0.322 0.91,0.784 h 0.084 q -0.028,-0.182 -0.056,-0.532 -0.028,-0.364 -0.028,-0.574 v -2.996 h 1.232 v 10.64 h -0.994 l -0.182,-1.008 h -0.056 q -0.336,0.476 -0.896,0.812 -0.56,0.336 -1.442,0.336 z m 0.196,-1.022 q 1.19,0 1.666,-0.644 0.49,-0.658 0.49,-1.974 v -0.224 q 0,-1.4 -0.462,-2.142 -0.462,-0.756 -1.708,-0.756 -0.994,0 -1.498,0.798 -0.49,0.784 -0.49,2.114 0,1.344 0.49,2.086 0.504,0.742 1.512,0.742 z m 9.37025,-6.762 q 0.952,0 1.652,0.42 0.7,0.42 1.064,1.19 0.378,0.756 0.378,1.778 v 0.742 h -5.138 q 0.028,1.274 0.644,1.946 0.63,0.658 1.75,0.658 0.714,0 1.26,-0.126 0.56,-0.14 1.148,-0.392 v 1.078 q -0.574,0.252 -1.134,0.364 -0.56,0.126 -1.33,0.126 -1.078,0 -1.89,-0.434 -0.812,-0.434 -1.274,-1.288 -0.448,-0.854 -0.448,-2.114 0,-1.232 0.406,-2.114 0.42,-0.882 1.162,-1.358 0.756,-0.476 1.75,-0.476 z m -0.014,1.008 q -0.882,0 -1.4,0.574 -0.504,0.56 -0.602,1.568 h 3.822 q -0.014,-0.952 -0.448,-1.54 -0.434,-0.602 -1.372,-0.602 z m 10.78423,8.792 h -6.272 v -0.896 h 6.272 z m 2.51025,-12.474 q 0.28,0 0.49,0.196 0.224,0.182 0.224,0.588 0,0.406 -0.224,0.602 -0.21,0.182 -0.49,0.182 -0.308,0 -0.518,-0.182 -0.21,-0.196 -0.21,-0.602 0,-0.406 0.21,-0.588 0.21,-0.196 0.518,-0.196 z m 0.602,2.814 v 7.504 h -1.232 v -7.504 z m 5.75824,7.644 q -1.4,0 -2.24,-0.966 -0.84,-0.98 -0.84,-2.912 0,-1.932 0.84,-2.912 0.854,-0.994 2.254,-0.994 0.868,0 1.414,0.322 0.56,0.322 0.91,0.784 h 0.084 q -0.028,-0.182 -0.056,-0.532 -0.028,-0.364 -0.028,-0.574 v -2.996 h 1.232 v 10.64 h -0.994 l -0.182,-1.008 h -0.056 q -0.336,0.476 -0.896,0.812 -0.56,0.336 -1.442,0.336 z m 0.196,-1.022 q 1.19,0 1.666,-0.644 0.49,-0.658 0.49,-1.974 v -0.224 q 0,-1.4 -0.462,-2.142 -0.462,-0.756 -1.708,-0.756 -0.994,0 -1.498,0.798 -0.49,0.784 -0.49,2.114 0,1.344 0.49,2.086 0.504,0.742 1.512,0.742 z m 8.92223,-2.954 q 0,1.694 -0.504,3.262 -0.49,1.554 -1.554,2.786 h -1.148 q 0.966,-1.316 1.456,-2.87 0.504,-1.568 0.504,-3.192 0,-1.666 -0.504,-3.248 -0.49,-1.582 -1.47,-2.898 h 1.162 q 1.064,1.274 1.554,2.87 0.504,1.582 0.504,3.29 z"
       id="text13"
       style="font-size:14px"
       aria-label="sqlite_autoindex_beats_1 (node_id)" />
  </g>
</svg>
