<?xml version="1.0" encoding="us-ascii" standalone="no"?><svg xmlns="http://www.w3.org/2000/svg" xmlns:xlink="http://www.w3.org/1999/xlink" contentStyleType="text/css" height="215px" preserveAspectRatio="none" style="width:177px;height:215px;background:#FFFFFF;" version="1.1" viewBox="0 0 177 215" width="177px" zoomAndPan="magnify"><defs/><g><!--class beats--><g id="elem_beats"><rect codeLine="1" fill="#F1F1F1" height="194.6719" id="beats" rx="2.5" ry="2.5" style="stroke:#181818;stroke-width:0.5;" width="156" x="7" y="7"/><ellipse cx="60.25" cy="23" fill="#ADD1B2" rx="11" ry="11" style="stroke:#181818;stroke-width:1.0;"/><path d="M59.0469,23.875 L60.5,23.875 L60.5,23.9844 C60.5,24.3906 60.5313,24.5469 60.6094,24.7031 C60.7656,24.9531 61.0469,25.1094 61.3438,25.1094 C61.5938,25.1094 61.8594,24.9688 62.0156,24.75 C62.1406,24.5938 62.1719,24.4375 62.1719,23.9844 L62.1719,22.0625 C62.1719,21.9063 62.1719,21.8594 62.1563,21.7031 C62.0938,21.2344 61.7813,20.9219 61.3281,20.9219 C61.0781,20.9219 60.8125,21.0625 60.6406,21.2813 C60.5313,21.4531 60.5,21.6094 60.5,22.0625 L60.5,22.1875 L59.0469,22.1875 L59.0469,19.7813 L63.0313,19.7813 L63.0313,20.6406 C63.0313,21.0469 63.0625,21.2188 63.1406,21.375 C63.3125,21.625 63.5938,21.7813 63.875,21.7813 C64.1406,21.7813 64.4063,21.6406 64.5781,21.4219 C64.6875,21.25 64.7188,21.1094 64.7188,20.6406 L64.7188,18.0938 L57.0938,18.0938 C56.6563,18.0938 56.5313,18.1094 56.375,18.2031 C56.125,18.3594 55.9688,18.6563 55.9688,18.9375 C55.9688,19.2188 56.1094,19.4688 56.3281,19.6406 C56.4844,19.75 56.6719,19.7813 57.0938,19.7813 L57.3438,19.7813 L57.3438,26.2969 L57.0938,26.2969 C56.6875,26.2969 56.5313,26.3125 56.375,26.4219 C56.125,26.5938 55.9688,26.8594 55.9688,27.1563 C55.9688,27.4219 56.1094,27.6719 56.3281,27.8281 C56.4688,27.9531 56.7031,28 57.0938,28 L65.0938,28 L65.0938,25.4219 C65.0938,24.9844 65.0625,24.8438 64.9844,24.6875 C64.8125,24.4375 64.5313,24.2813 64.25,24.2813 C63.9844,24.2813 63.7188,24.3906 63.5469,24.6406 C63.4375,24.7969 63.4063,24.9375 63.4063,25.4219 L63.4063,26.2969 L59.0469,26.2969 L59.0469,23.875 Z " fill="#000000"/><text fill="#000000" font-family="sans-serif" font-size="14" lengthAdjust="spacing" textLength="41" x="80.75" y="27.8467">beats</text><line style="stroke:#181818;stroke-width:0.5;" x1="8" x2="162" y1="39" y2="39"/><text fill="#000000" font-family="sans-serif" font-size="14" lengthAdjust="spacing" textLength="129" x="13" y="55.9951">beat_id : INTEGER</text><line style="stroke:#181818;stroke-width:1.0;" x1="8" x2="162" y1="63.2969" y2="63.2969"/><ellipse cx="18" cy="76.9453" fill="#000000" rx="3" ry="3" style="stroke:#000000;stroke-width:1.0;"/><text fill="#000000" font-family="sans-serif" font-size="14" lengthAdjust="spacing" textLength="106" x="27" y="80.292">node_id : TEXT</text><text fill="#000000" font-family="sans-serif" font-size="14" lengthAdjust="spacing" textLength="105" x="27" y="96.5889">address : TEXT</text><text fill="#000000" font-family="sans-serif" font-size="14" lengthAdjust="spacing" textLength="91" x="27" y="112.8857">client : TEXT</text><ellipse cx="18" cy="125.8359" fill="#000000" rx="3" ry="3" style="stroke:#000000;stroke-width:1.0;"/><text fill="#000000" font-family="sans-serif" font-size="14" lengthAdjust="spacing" textLength="123" x="27" y="129.1826">time_sent : TEXT</text><ellipse cx="18" cy="142.1328" fill="#000000" rx="3" ry="3" style="stroke:#000000;stroke-width:1.0;"/><text fill="#000000" font-family="sans-serif" font-size="14" lengthAdjust="spacing" textLength="122" x="27" y="145.4795">time_recv : TEXT</text><ellipse cx="18" cy="158.4297" fill="#000000" rx="3" ry="3" style="stroke:#000000;stroke-width:1.0;"/><text fill="#000000" font-family="sans-serif" font-size="14" lengthAdjust="spacing" textLength="111" x="27" y="161.7764">error : INTEGER</text><ellipse cx="18" cy="174.7266" fill="#000000" rx="3" ry="3" style="stroke:#000000;stroke-width:1.0;"/><text fill="#000000" font-family="sans-serif" font-size="14" lengthAdjust="spacing" textLength="130" x="27" y="178.0732">interval : INTEGER</text><ellipse cx="18" cy="191.0234" fill="#000000" rx="3" ry="3" style="stroke:#000000;stroke-width:1.0;"/><text fill="#000000" font-family="sans-serif" font-size="14" lengthAdjust="spacing" textLength="127" x="27" y="194.3701">uptime : INTEGER</text></g><!--SRC=[IyqhoIofL4XAJImfLgZcKW2puZDJ5AmKFFr2NDrTWu1Ykhf0GaiXBpyb5I8LuXeH0XHAJ4afIYqkHWWavsIcvfKW-5eA9PcvgV75s0IBKfFBa0LJYuhoYr2irLB8p2j9BIfBp44JBYq0cO0aM0i0]--></g></svg>