<?xml version="1.0" encoding="us-ascii" standalone="no"?><svg xmlns="http://www.w3.org/2000/svg" xmlns:xlink="http://www.w3.org/1999/xlink" contentStyleType="text/css" height="609px" preserveAspectRatio="none" style="width:305px;height:609px;background:#FFFFFF;" version="1.1" viewBox="0 0 305 609" width="305px" zoomAndPan="magnify"><defs/><g><!--class logs--><g id="elem_logs"><rect codeLine="1" fill="#F1F1F1" height="381.9375" id="logs" rx="2.5" ry="2.5" style="stroke:#181818;stroke-width:0.5;" width="228" x="38.5" y="221"/><ellipse cx="133.75" cy="237" fill="#ADD1B2" rx="11" ry="11" style="stroke:#181818;stroke-width:1.0;"/><path d="M132.5469,237.875 L134,237.875 L134,237.9844 C134,238.3906 134.0313,238.5469 134.1094,238.7031 C134.2656,238.9531 134.5469,239.1094 134.8438,239.1094 C135.0938,239.1094 135.3594,238.9688 135.5156,238.75 C135.6406,238.5938 135.6719,238.4375 135.6719,237.9844 L135.6719,236.0625 C135.6719,235.9063 135.6719,235.8594 135.6563,235.7031 C135.5938,235.2344 135.2813,234.9219 134.8281,234.9219 C134.5781,234.9219 134.3125,235.0625 134.1406,235.2813 C134.0313,235.4531 134,235.6094 134,236.0625 L134,236.1875 L132.5469,236.1875 L132.5469,233.7813 L136.5313,233.7813 L136.5313,234.6406 C136.5313,235.0469 136.5625,235.2188 136.6406,235.375 C136.8125,235.625 137.0938,235.7813 137.375,235.7813 C137.6406,235.7813 137.9063,235.6406 138.0781,235.4219 C138.1875,235.25 138.2188,235.1094 138.2188,234.6406 L138.2188,232.0938 L130.5938,232.0938 C130.1563,232.0938 130.0313,232.1094 129.875,232.2031 C129.625,232.3594 129.4688,232.6563 129.4688,232.9375 C129.4688,233.2188 129.6094,233.4688 129.8281,233.6406 C129.9844,233.75 130.1719,233.7813 130.5938,233.7813 L130.8438,233.7813 L130.8438,240.2969 L130.5938,240.2969 C130.1875,240.2969 130.0313,240.3125 129.875,240.4219 C129.625,240.5938 129.4688,240.8594 129.4688,241.1563 C129.4688,241.4219 129.6094,241.6719 129.8281,241.8281 C129.9688,241.9531 130.2031,242 130.5938,242 L138.5938,242 L138.5938,239.4219 C138.5938,238.9844 138.5625,238.8438 138.4844,238.6875 C138.3125,238.4375 138.0313,238.2813 137.75,238.2813 C137.4844,238.2813 137.2188,238.3906 137.0469,238.6406 C136.9375,238.7969 136.9063,238.9375 136.9063,239.4219 L136.9063,240.2969 L132.5469,240.2969 L132.5469,237.875 Z " fill="#000000"/><text fill="#000000" font-family="sans-serif" font-size="14" lengthAdjust="spacing" textLength="29" x="154.25" y="241.8467">logs</text><line style="stroke:#181818;stroke-width:0.5;" x1="39.5" x2="265.5" y1="253" y2="253"/><text fill="#000000" font-family="sans-serif" font-size="14" lengthAdjust="spacing" textLength="117" x="44.5" y="269.9951">log_id : INTEGER</text><line style="stroke:#181818;stroke-width:1.0;" x1="39.5" x2="265.5" y1="277.2969" y2="277.2969"/><ellipse cx="49.5" cy="290.9453" fill="#000000" rx="3" ry="3" style="stroke:#000000;stroke-width:1.0;"/><text fill="#000000" font-family="sans-serif" font-size="14" lengthAdjust="spacing" textLength="63" x="58.5" y="294.292">id : TEXT</text><ellipse cx="49.5" cy="307.2422" fill="#000000" rx="3" ry="3" style="stroke:#000000;stroke-width:1.0;"/><text fill="#000000" font-family="sans-serif" font-size="14" lengthAdjust="spacing" textLength="109" x="58.5" y="310.5889">level : INTEGER</text><ellipse cx="49.5" cy="323.5391" fill="#000000" rx="3" ry="3" style="stroke:#000000;stroke-width:1.0;"/><text fill="#000000" font-family="sans-serif" font-size="14" lengthAdjust="spacing" textLength="111" x="58.5" y="326.8857">error : INTEGER</text><ellipse cx="49.5" cy="339.8359" fill="#000000" rx="3" ry="3" style="stroke:#000000;stroke-width:1.0;"/><text fill="#000000" font-family="sans-serif" font-size="14" lengthAdjust="spacing" textLength="130" x="58.5" y="343.1826">timestamp : TEXT</text><text fill="#000000" font-family="sans-serif" font-size="14" lengthAdjust="spacing" textLength="106" x="58.5" y="359.4795">node_id : TEXT</text><text fill="#000000" font-family="sans-serif" font-size="14" lengthAdjust="spacing" textLength="117" x="58.5" y="375.7764">sensor_id : TEXT</text><text fill="#000000" font-family="sans-serif" font-size="14" lengthAdjust="spacing" textLength="116" x="58.5" y="392.0732">target_id : TEXT</text><text fill="#000000" font-family="sans-serif" font-size="14" lengthAdjust="spacing" textLength="119" x="58.5" y="408.3701">observ_id : TEXT</text><text fill="#000000" font-family="sans-serif" font-size="14" lengthAdjust="spacing" textLength="97" x="58.5" y="424.667">source : TEXT</text><text fill="#000000" font-family="sans-serif" font-size="14" lengthAdjust="spacing" textLength="113" x="58.5" y="440.9639">message : TEXT</text><line style="stroke:#181818;stroke-width:1.0;" x1="39.5" x2="265.5" y1="448.2656" y2="448.2656"/><text fill="#000000" font-family="sans-serif" font-size="14" lengthAdjust="spacing" textLength="136" x="58.5" y="465.2607">idx_source (source)</text><text fill="#000000" font-family="sans-serif" font-size="14" lengthAdjust="spacing" textLength="180" x="58.5" y="481.5576">idx_observ_id (observ_id)</text><text fill="#000000" font-family="sans-serif" font-size="14" lengthAdjust="spacing" textLength="174" x="58.5" y="497.8545">idx_target_id (target_id)</text><text fill="#000000" font-family="sans-serif" font-size="14" lengthAdjust="spacing" textLength="176" x="58.5" y="514.1514">idx_sensor_id (sensor_id)</text><text fill="#000000" font-family="sans-serif" font-size="14" lengthAdjust="spacing" textLength="154" x="58.5" y="530.4482">idx_node_id (node_id)</text><text fill="#000000" font-family="sans-serif" font-size="14" lengthAdjust="spacing" textLength="114" x="58.5" y="546.7451">idx_error (error)</text><text fill="#000000" font-family="sans-serif" font-size="14" lengthAdjust="spacing" textLength="110" x="58.5" y="563.042">idx_level (level)</text><text fill="#000000" font-family="sans-serif" font-size="14" lengthAdjust="spacing" textLength="202" x="58.5" y="579.3389">idx_timestamp (timestamp)</text><rect fill="#F24D5C" height="6" style="stroke:#C82930;stroke-width:1.0;" width="6" x="46.5" y="589.2891"/><text fill="#000000" font-family="sans-serif" font-size="14" lengthAdjust="spacing" textLength="197" x="58.5" y="595.6357">sqlite_autoindex_logs_1 (id)</text></g><!--class sync_logs--><g id="elem_sync_logs"><rect codeLine="26" fill="#F1F1F1" height="153.7813" id="sync_logs" rx="2.5" ry="2.5" style="stroke:#181818;stroke-width:0.5;" width="291" x="7" y="7"/><ellipse cx="114.25" cy="23" fill="#ADD1B2" rx="11" ry="11" style="stroke:#181818;stroke-width:1.0;"/><path d="M113.0469,23.875 L114.5,23.875 L114.5,23.9844 C114.5,24.3906 114.5313,24.5469 114.6094,24.7031 C114.7656,24.9531 115.0469,25.1094 115.3438,25.1094 C115.5938,25.1094 115.8594,24.9688 116.0156,24.75 C116.1406,24.5938 116.1719,24.4375 116.1719,23.9844 L116.1719,22.0625 C116.1719,21.9063 116.1719,21.8594 116.1563,21.7031 C116.0938,21.2344 115.7813,20.9219 115.3281,20.9219 C115.0781,20.9219 114.8125,21.0625 114.6406,21.2813 C114.5313,21.4531 114.5,21.6094 114.5,22.0625 L114.5,22.1875 L113.0469,22.1875 L113.0469,19.7813 L117.0313,19.7813 L117.0313,20.6406 C117.0313,21.0469 117.0625,21.2188 117.1406,21.375 C117.3125,21.625 117.5938,21.7813 117.875,21.7813 C118.1406,21.7813 118.4063,21.6406 118.5781,21.4219 C118.6875,21.25 118.7188,21.1094 118.7188,20.6406 L118.7188,18.0938 L111.0938,18.0938 C110.6563,18.0938 110.5313,18.1094 110.375,18.2031 C110.125,18.3594 109.9688,18.6563 109.9688,18.9375 C109.9688,19.2188 110.1094,19.4688 110.3281,19.6406 C110.4844,19.75 110.6719,19.7813 111.0938,19.7813 L111.3438,19.7813 L111.3438,26.2969 L111.0938,26.2969 C110.6875,26.2969 110.5313,26.3125 110.375,26.4219 C110.125,26.5938 109.9688,26.8594 109.9688,27.1563 C109.9688,27.4219 110.1094,27.6719 110.3281,27.8281 C110.4688,27.9531 110.7031,28 111.0938,28 L119.0938,28 L119.0938,25.4219 C119.0938,24.9844 119.0625,24.8438 118.9844,24.6875 C118.8125,24.4375 118.5313,24.2813 118.25,24.2813 C117.9844,24.2813 117.7188,24.3906 117.5469,24.6406 C117.4375,24.7969 117.4063,24.9375 117.4063,25.4219 L117.4063,26.2969 L113.0469,26.2969 L113.0469,23.875 Z " fill="#000000"/><text fill="#000000" font-family="sans-serif" font-size="14" lengthAdjust="spacing" textLength="68" x="134.75" y="27.8467">sync_logs</text><line style="stroke:#181818;stroke-width:0.5;" x1="8" x2="297" y1="39" y2="39"/><text fill="#000000" font-family="sans-serif" font-size="14" lengthAdjust="spacing" textLength="156" x="13" y="55.9951">sync_log_id : INTEGER</text><line style="stroke:#181818;stroke-width:1.0;" x1="8" x2="297" y1="63.2969" y2="63.2969"/><ellipse cx="18" cy="76.9453" fill="#000000" rx="3" ry="3" style="stroke:#000000;stroke-width:1.0;"/><text fill="#000000" font-family="sans-serif" font-size="14" lengthAdjust="spacing" textLength="117" x="27" y="80.292">log_id : INTEGER</text><ellipse cx="18" cy="93.2422" fill="#000000" rx="3" ry="3" style="stroke:#000000;stroke-width:1.0;"/><text fill="#000000" font-family="sans-serif" font-size="14" lengthAdjust="spacing" textLength="130" x="27" y="96.5889">timestamp : TEXT</text><ellipse cx="18" cy="109.5391" fill="#000000" rx="3" ry="3" style="stroke:#000000;stroke-width:1.0;"/><text fill="#000000" font-family="sans-serif" font-size="14" lengthAdjust="spacing" textLength="110" x="27" y="112.8857">code : INTEGER</text><ellipse cx="18" cy="125.8359" fill="#000000" rx="3" ry="3" style="stroke:#000000;stroke-width:1.0;"/><text fill="#000000" font-family="sans-serif" font-size="14" lengthAdjust="spacing" textLength="153" x="27" y="129.1826">nattempts : INTEGER</text><line style="stroke:#181818;stroke-width:1.0;" x1="8" x2="297" y1="136.4844" y2="136.4844"/><rect fill="#F24D5C" height="6" style="stroke:#C82930;stroke-width:1.0;" width="6" x="15" y="147.1328"/><text fill="#000000" font-family="sans-serif" font-size="14" lengthAdjust="spacing" textLength="265" x="27" y="153.4795">sqlite_autoindex_sync_logs_1 (log_id)</text></g><!--reverse link sync_logs to logs--><g id="link_sync_logs_logs"><path codeLine="37" d="M152.5,169.021 C152.5,187.365 152.5,199.788 152.5,220.832 " fill="none" id="sync_logs-backto-logs" style="stroke:#181818;stroke-width:1.0;"/><line style="stroke:#181818;stroke-width:1.0;" x1="152.5" x2="144.5" y1="169.021" y2="161.021"/><line style="stroke:#181818;stroke-width:1.0;" x1="152.5" x2="160.5" y1="169.021" y2="161.021"/><line style="stroke:#181818;stroke-width:1.0;" x1="152.5" x2="152.5" y1="169.021" y2="161.021"/></g><!--SRC=[TL8zRyCW4DtzAswabXYwPhUgBXqY3zqGiKyMaWq9NA94KVvxC1Y8KtVnlNltzRWpQb9qWz4C3kuLp42e7dRm_TCsNytUKvpxJms1RPlVDdWZNd1SfTM0rXhxnf6Qq96SZgLOcnx5QpU7sXcxeaZQ0Mb5cOD3UraNchFjiFX-b9F32n6ag_ugbamMxSV2bfOimnGh2bY6ALO4imnJBBsEBI3nSJaicCJ59R9WyjoyC9RX7EFWJgCY5F9CHkaUVRa_clW4DWzvL1N6KxgRxaI-P_B-EUf6PFDcDNJ-EMzvMXBXT2Jtj_E6sgnhbXpd1jb5xuFpy2C-0G00]--></g></svg>