<?xml version="1.0" encoding="us-ascii" standalone="no"?><svg xmlns="http://www.w3.org/2000/svg" xmlns:xlink="http://www.w3.org/1999/xlink" contentStyleType="text/css" height="430px" preserveAspectRatio="none" style="width:193px;height:430px;background:#FFFFFF;" version="1.1" viewBox="0 0 193 430" width="193px" zoomAndPan="magnify"><defs/><g><!--class logs--><g id="elem_logs"><rect codeLine="1" fill="#F1F1F1" height="227.2656" id="logs" rx="2.5" ry="2.5" style="stroke:#181818;stroke-width:0.5;" width="156" x="18.5" y="196"/><ellipse cx="77.75" cy="212" fill="#ADD1B2" rx="11" ry="11" style="stroke:#181818;stroke-width:1.0;"/><path d="M76.5469,212.875 L78,212.875 L78,212.9844 C78,213.3906 78.0313,213.5469 78.1094,213.7031 C78.2656,213.9531 78.5469,214.1094 78.8438,214.1094 C79.0938,214.1094 79.3594,213.9688 79.5156,213.75 C79.6406,213.5938 79.6719,213.4375 79.6719,212.9844 L79.6719,211.0625 C79.6719,210.9063 79.6719,210.8594 79.6563,210.7031 C79.5938,210.2344 79.2813,209.9219 78.8281,209.9219 C78.5781,209.9219 78.3125,210.0625 78.1406,210.2813 C78.0313,210.4531 78,210.6094 78,211.0625 L78,211.1875 L76.5469,211.1875 L76.5469,208.7813 L80.5313,208.7813 L80.5313,209.6406 C80.5313,210.0469 80.5625,210.2188 80.6406,210.375 C80.8125,210.625 81.0938,210.7813 81.375,210.7813 C81.6406,210.7813 81.9063,210.6406 82.0781,210.4219 C82.1875,210.25 82.2188,210.1094 82.2188,209.6406 L82.2188,207.0938 L74.5938,207.0938 C74.1563,207.0938 74.0313,207.1094 73.875,207.2031 C73.625,207.3594 73.4688,207.6563 73.4688,207.9375 C73.4688,208.2188 73.6094,208.4688 73.8281,208.6406 C73.9844,208.75 74.1719,208.7813 74.5938,208.7813 L74.8438,208.7813 L74.8438,215.2969 L74.5938,215.2969 C74.1875,215.2969 74.0313,215.3125 73.875,215.4219 C73.625,215.5938 73.4688,215.8594 73.4688,216.1563 C73.4688,216.4219 73.6094,216.6719 73.8281,216.8281 C73.9688,216.9531 74.2031,217 74.5938,217 L82.5938,217 L82.5938,214.4219 C82.5938,213.9844 82.5625,213.8438 82.4844,213.6875 C82.3125,213.4375 82.0313,213.2813 81.75,213.2813 C81.4844,213.2813 81.2188,213.3906 81.0469,213.6406 C80.9375,213.7969 80.9063,213.9375 80.9063,214.4219 L80.9063,215.2969 L76.5469,215.2969 L76.5469,212.875 Z " fill="#000000"/><text fill="#000000" font-family="sans-serif" font-size="14" lengthAdjust="spacing" textLength="29" x="98.25" y="216.8467">logs</text><line style="stroke:#181818;stroke-width:0.5;" x1="19.5" x2="173.5" y1="228" y2="228"/><text fill="#000000" font-family="sans-serif" font-size="14" lengthAdjust="spacing" textLength="117" x="24.5" y="244.9951">log_id : INTEGER</text><line style="stroke:#181818;stroke-width:1.0;" x1="19.5" x2="173.5" y1="252.2969" y2="252.2969"/><ellipse cx="29.5" cy="265.9453" fill="#000000" rx="3" ry="3" style="stroke:#000000;stroke-width:1.0;"/><text fill="#000000" font-family="sans-serif" font-size="14" lengthAdjust="spacing" textLength="63" x="38.5" y="269.292">id : TEXT</text><ellipse cx="29.5" cy="282.2422" fill="#000000" rx="3" ry="3" style="stroke:#000000;stroke-width:1.0;"/><text fill="#000000" font-family="sans-serif" font-size="14" lengthAdjust="spacing" textLength="109" x="38.5" y="285.5889">level : INTEGER</text><ellipse cx="29.5" cy="298.5391" fill="#000000" rx="3" ry="3" style="stroke:#000000;stroke-width:1.0;"/><text fill="#000000" font-family="sans-serif" font-size="14" lengthAdjust="spacing" textLength="111" x="38.5" y="301.8857">error : INTEGER</text><ellipse cx="29.5" cy="314.8359" fill="#000000" rx="3" ry="3" style="stroke:#000000;stroke-width:1.0;"/><text fill="#000000" font-family="sans-serif" font-size="14" lengthAdjust="spacing" textLength="130" x="38.5" y="318.1826">timestamp : TEXT</text><text fill="#000000" font-family="sans-serif" font-size="14" lengthAdjust="spacing" textLength="106" x="38.5" y="334.4795">node_id : TEXT</text><text fill="#000000" font-family="sans-serif" font-size="14" lengthAdjust="spacing" textLength="117" x="38.5" y="350.7764">sensor_id : TEXT</text><text fill="#000000" font-family="sans-serif" font-size="14" lengthAdjust="spacing" textLength="116" x="38.5" y="367.0732">target_id : TEXT</text><text fill="#000000" font-family="sans-serif" font-size="14" lengthAdjust="spacing" textLength="119" x="38.5" y="383.3701">observ_id : TEXT</text><text fill="#000000" font-family="sans-serif" font-size="14" lengthAdjust="spacing" textLength="97" x="38.5" y="399.667">source : TEXT</text><text fill="#000000" font-family="sans-serif" font-size="14" lengthAdjust="spacing" textLength="113" x="38.5" y="415.9639">message : TEXT</text></g><!--class sync_logs--><g id="elem_sync_logs"><rect codeLine="16" fill="#F1F1F1" height="129.4844" id="sync_logs" rx="2.5" ry="2.5" style="stroke:#181818;stroke-width:0.5;" width="179" x="7" y="7"/><ellipse cx="58.25" cy="23" fill="#ADD1B2" rx="11" ry="11" style="stroke:#181818;stroke-width:1.0;"/><path d="M57.0469,23.875 L58.5,23.875 L58.5,23.9844 C58.5,24.3906 58.5313,24.5469 58.6094,24.7031 C58.7656,24.9531 59.0469,25.1094 59.3438,25.1094 C59.5938,25.1094 59.8594,24.9688 60.0156,24.75 C60.1406,24.5938 60.1719,24.4375 60.1719,23.9844 L60.1719,22.0625 C60.1719,21.9063 60.1719,21.8594 60.1563,21.7031 C60.0938,21.2344 59.7813,20.9219 59.3281,20.9219 C59.0781,20.9219 58.8125,21.0625 58.6406,21.2813 C58.5313,21.4531 58.5,21.6094 58.5,22.0625 L58.5,22.1875 L57.0469,22.1875 L57.0469,19.7813 L61.0313,19.7813 L61.0313,20.6406 C61.0313,21.0469 61.0625,21.2188 61.1406,21.375 C61.3125,21.625 61.5938,21.7813 61.875,21.7813 C62.1406,21.7813 62.4063,21.6406 62.5781,21.4219 C62.6875,21.25 62.7188,21.1094 62.7188,20.6406 L62.7188,18.0938 L55.0938,18.0938 C54.6563,18.0938 54.5313,18.1094 54.375,18.2031 C54.125,18.3594 53.9688,18.6563 53.9688,18.9375 C53.9688,19.2188 54.1094,19.4688 54.3281,19.6406 C54.4844,19.75 54.6719,19.7813 55.0938,19.7813 L55.3438,19.7813 L55.3438,26.2969 L55.0938,26.2969 C54.6875,26.2969 54.5313,26.3125 54.375,26.4219 C54.125,26.5938 53.9688,26.8594 53.9688,27.1563 C53.9688,27.4219 54.1094,27.6719 54.3281,27.8281 C54.4688,27.9531 54.7031,28 55.0938,28 L63.0938,28 L63.0938,25.4219 C63.0938,24.9844 63.0625,24.8438 62.9844,24.6875 C62.8125,24.4375 62.5313,24.2813 62.25,24.2813 C61.9844,24.2813 61.7188,24.3906 61.5469,24.6406 C61.4375,24.7969 61.4063,24.9375 61.4063,25.4219 L61.4063,26.2969 L57.0469,26.2969 L57.0469,23.875 Z " fill="#000000"/><text fill="#000000" font-family="sans-serif" font-size="14" lengthAdjust="spacing" textLength="68" x="78.75" y="27.8467">sync_logs</text><line style="stroke:#181818;stroke-width:0.5;" x1="8" x2="185" y1="39" y2="39"/><text fill="#000000" font-family="sans-serif" font-size="14" lengthAdjust="spacing" textLength="156" x="13" y="55.9951">sync_log_id : INTEGER</text><line style="stroke:#181818;stroke-width:1.0;" x1="8" x2="185" y1="63.2969" y2="63.2969"/><ellipse cx="18" cy="76.9453" fill="#000000" rx="3" ry="3" style="stroke:#000000;stroke-width:1.0;"/><text fill="#000000" font-family="sans-serif" font-size="14" lengthAdjust="spacing" textLength="117" x="27" y="80.292">log_id : INTEGER</text><ellipse cx="18" cy="93.2422" fill="#000000" rx="3" ry="3" style="stroke:#000000;stroke-width:1.0;"/><text fill="#000000" font-family="sans-serif" font-size="14" lengthAdjust="spacing" textLength="130" x="27" y="96.5889">timestamp : TEXT</text><ellipse cx="18" cy="109.5391" fill="#000000" rx="3" ry="3" style="stroke:#000000;stroke-width:1.0;"/><text fill="#000000" font-family="sans-serif" font-size="14" lengthAdjust="spacing" textLength="110" x="27" y="112.8857">code : INTEGER</text><ellipse cx="18" cy="125.8359" fill="#000000" rx="3" ry="3" style="stroke:#000000;stroke-width:1.0;"/><text fill="#000000" font-family="sans-serif" font-size="14" lengthAdjust="spacing" textLength="153" x="27" y="129.1826">nattempts : INTEGER</text></g><!--reverse link sync_logs to logs--><g id="link_sync_logs_logs"><path codeLine="25" d="M96.5,144.054 C96.5,162.485 96.5,175.185 96.5,195.677 " fill="none" id="sync_logs-backto-logs" style="stroke:#181818;stroke-width:1.0;"/><line style="stroke:#181818;stroke-width:1.0;" x1="96.5" x2="88.5" y1="144.054" y2="136.054"/><line style="stroke:#181818;stroke-width:1.0;" x1="96.5" x2="104.5" y1="144.054" y2="136.054"/><line style="stroke:#181818;stroke-width:1.0;" x1="96.5" x2="96.5" y1="144.054" y2="136.054"/></g><!--SRC=[TP312eCm38RlFaNEXRx0xcNiiiFmi9jq6efWMqaoGORlliunjU8kfV_NfCrN3DBA25rq3Ay2FfkgRU04bsjfpkQMaDPfKJ3JqjpBENKuO9ULAK2YI3ichKSMw_krESG6g-rjZ84ZPKWiEPGCnGSZ3NbZV5ADQqvFiNKBc8e2lteyXhfQ77_fZ-Z1oQ67WZgPxEg25K7V2szuccCTOD9w_kqt]--></g></svg>