<svg xmlns="http://www.w3.org/2000/svg" xmlns:xlink="http://www.w3.org/1999/xlink" contentStyleType="text/css" data-diagram-type="CLASS" height="430px" preserveAspectRatio="none" style="width:203px;height:430px;background:#FFFFFF;" version="1.1" viewBox="0 0 203 430" width="203px" zoomAndPan="magnify"><defs/><g><!--class logs--><g class="entity" data-entity="logs" data-source-line="6" data-uid="ent0002" id="entity_logs"><rect fill="#F1F1F1" height="227.2656" rx="2.5" ry="2.5" style="stroke:#181818;stroke-width:0.5;" width="189.2757" x="7" y="196"/><ellipse cx="83.07" cy="212" fill="#FFFFFF" rx="11" ry="11" style="stroke:#181818;stroke-width:1;"/><path d="M83.9137,218.75 L81.4606,218.75 L81.4606,208.5 L78.32,208.5 L78.32,206.3594 L87.0544,206.3594 L87.0544,208.5 L83.9137,208.5 L83.9137,218.75 Z " fill="#000000"/><text fill="#000000" font-family="sans-serif" font-size="14" lengthAdjust="spacing" textLength="28.6357" x="103.57" y="216.8467">logs</text><line style="stroke:#181818;stroke-width:0.5;" x1="8" x2="195.2757" y1="228" y2="228"/><path d="M20.4167,235.4635 C18.8067,235.4635 17.5,236.7702 17.5,238.3802 C17.5,238.5669 17.5,238.7535 17.535,238.9285 L14,242.4635 L14,244.7969 L17.5,244.7969 L17.5,242.4635 L19.8333,242.4635 L19.8333,241.2969 L19.8683,241.2619 C20.0433,241.2969 20.23,241.2969 20.4167,241.2969 C22.0267,241.2969 23.3333,239.9902 23.3333,238.3802 C23.3333,236.7702 22.0267,235.4635 20.4167,235.4635 M21,236.6302 C21.6417,236.6302 22.1667,237.1552 22.1667,237.7969 C22.1667,238.4385 21.6417,238.9635 21,238.9635 C20.3583,238.9635 19.8333,238.4385 19.8333,237.7969 C19.8333,237.1552 20.3583,236.6302 21,236.6302" fill="#B8861B"/><text fill="#000000" font-family="sans-serif" font-size="14" font-weight="bold" lengthAdjust="spacing" textLength="51.2764" x="29.2074" y="244.9951">row_id</text><text fill="#000000" font-family="sans-serif" font-size="14" lengthAdjust="spacing" textLength="109.792" x="80.4837" y="244.9951">: INTEGER &#171;PK&#187;</text><line style="stroke:#181818;stroke-width:1;" x1="8" x2="195.2757" y1="252.2969" y2="252.2969"/><path d="M18.6667,260.9271 C16.73,260.9271 15.1667,262.4904 15.1667,264.4271 C15.1667,266.3638 16.73,267.9271 18.6667,267.9271 C20.6033,267.9271 22.1667,266.3638 22.1667,264.4271 C22.1667,262.4904 20.6033,260.9271 18.6667,260.9271" fill="#EFEFEF"/><text fill="#000000" font-family="sans-serif" font-size="14" lengthAdjust="spacing" textLength="57.4834" x="28.7835" y="269.292">id: TEXT</text><path d="M18.6667,277.224 C16.73,277.224 15.1667,278.7873 15.1667,280.724 C15.1667,282.6606 16.73,284.224 18.6667,284.224 C20.6033,284.224 22.1667,282.6606 22.1667,280.724 C22.1667,278.7873 20.6033,277.224 18.6667,277.224" fill="#EFEFEF"/><text fill="#000000" font-family="sans-serif" font-size="14" lengthAdjust="spacing" textLength="103.8789" x="28.7835" y="285.5889">level: INTEGER</text><path d="M18.6667,293.5208 C16.73,293.5208 15.1667,295.0842 15.1667,297.0208 C15.1667,298.9575 16.73,300.5208 18.6667,300.5208 C20.6033,300.5208 22.1667,298.9575 22.1667,297.0208 C22.1667,295.0842 20.6033,293.5208 18.6667,293.5208" fill="#EFEFEF"/><text fill="#000000" font-family="sans-serif" font-size="14" lengthAdjust="spacing" textLength="105.0342" x="28.7835" y="301.8857">error: INTEGER</text><path d="M18.6667,309.8177 C16.73,309.8177 15.1667,311.381 15.1667,313.3177 C15.1667,315.2544 16.73,316.8177 18.6667,316.8177 C20.6033,316.8177 22.1667,315.2544 22.1667,313.3177 C22.1667,311.381 20.6033,309.8177 18.6667,309.8177" fill="#EFEFEF"/><text fill="#000000" font-family="sans-serif" font-size="14" lengthAdjust="spacing" textLength="120.2236" x="28.7835" y="318.1826">timestamp: TEXT</text><path d="M18.6667,326.1146 C16.73,326.1146 15.1667,327.6779 15.1667,329.6146 C15.1667,331.5513 16.73,333.1146 18.6667,333.1146 C20.6033,333.1146 22.1667,331.5513 22.1667,329.6146 C22.1667,327.6779 20.6033,326.1146 18.6667,326.1146" fill="#EFEFEF"/><text fill="#000000" font-family="sans-serif" font-size="14" lengthAdjust="spacing" textLength="99.4219" x="28.7835" y="334.4795">node_id: TEXT</text><path d="M18.6667,342.4115 C16.73,342.4115 15.1667,343.9748 15.1667,345.9115 C15.1667,347.8481 16.73,349.4115 18.6667,349.4115 C20.6033,349.4115 22.1667,347.8481 22.1667,345.9115 C22.1667,343.9748 20.6033,342.4115 18.6667,342.4115" fill="#EFEFEF"/><text fill="#000000" font-family="sans-serif" font-size="14" lengthAdjust="spacing" textLength="110.8789" x="28.7835" y="350.7764">sensor_id: TEXT</text><path d="M18.6667,358.7083 C16.73,358.7083 15.1667,360.2717 15.1667,362.2083 C15.1667,364.145 16.73,365.7083 18.6667,365.7083 C20.6033,365.7083 22.1667,364.145 22.1667,362.2083 C22.1667,360.2717 20.6033,358.7083 18.6667,358.7083" fill="#EFEFEF"/><text fill="#000000" font-family="sans-serif" font-size="14" lengthAdjust="spacing" textLength="107.2969" x="28.7835" y="367.0732">target_id: TEXT</text><path d="M18.6667,375.0052 C16.73,375.0052 15.1667,376.5685 15.1667,378.5052 C15.1667,380.4419 16.73,382.0052 18.6667,382.0052 C20.6033,382.0052 22.1667,380.4419 22.1667,378.5052 C22.1667,376.5685 20.6033,375.0052 18.6667,375.0052" fill="#EFEFEF"/><text fill="#000000" font-family="sans-serif" font-size="14" lengthAdjust="spacing" textLength="111.8838" x="28.7835" y="383.3701">observ_id: TEXT</text><path d="M18.6667,391.3021 C16.73,391.3021 15.1667,392.8654 15.1667,394.8021 C15.1667,396.7388 16.73,398.3021 18.6667,398.3021 C20.6033,398.3021 22.1667,396.7388 22.1667,394.8021 C22.1667,392.8654 20.6033,391.3021 18.6667,391.3021" fill="#EFEFEF"/><text fill="#000000" font-family="sans-serif" font-size="14" lengthAdjust="spacing" textLength="91.5059" x="28.7835" y="399.667">source: TEXT</text><path d="M18.6667,407.599 C16.73,407.599 15.1667,409.1623 15.1667,411.099 C15.1667,413.0356 16.73,414.599 18.6667,414.599 C20.6033,414.599 22.1667,413.0356 22.1667,411.099 C22.1667,409.1623 20.6033,407.599 18.6667,407.599" fill="#EFEFEF"/><text fill="#000000" font-family="sans-serif" font-size="14" lengthAdjust="spacing" textLength="107.625" x="28.7835" y="415.9639">message: TEXT</text></g><!--class sync_logs--><g class="entity" data-entity="sync_logs" data-source-line="21" data-uid="ent0003" id="entity_sync_logs"><rect fill="#F1F1F1" height="129.4844" rx="2.5" ry="2.5" style="stroke:#181818;stroke-width:0.5;" width="189.2757" x="7" y="7"/><ellipse cx="63.4953" cy="23" fill="#FFFFFF" rx="11" ry="11" style="stroke:#181818;stroke-width:1;"/><path d="M64.339,29.75 L61.8859,29.75 L61.8859,19.5 L58.7453,19.5 L58.7453,17.3594 L67.4797,17.3594 L67.4797,19.5 L64.339,19.5 L64.339,29.75 Z " fill="#000000"/><text fill="#000000" font-family="sans-serif" font-size="14" lengthAdjust="spacing" textLength="67.7852" x="83.9953" y="27.8467">sync_logs</text><line style="stroke:#181818;stroke-width:0.5;" x1="8" x2="195.2757" y1="39" y2="39"/><path d="M20.4167,46.4635 C18.8067,46.4635 17.5,47.7702 17.5,49.3802 C17.5,49.5669 17.5,49.7535 17.535,49.9285 L14,53.4635 L14,55.7969 L17.5,55.7969 L17.5,53.4635 L19.8333,53.4635 L19.8333,52.2969 L19.8683,52.2619 C20.0433,52.2969 20.23,52.2969 20.4167,52.2969 C22.0267,52.2969 23.3333,50.9902 23.3333,49.3802 C23.3333,47.7702 22.0267,46.4635 20.4167,46.4635 M21,47.6302 C21.6417,47.6302 22.1667,48.1552 22.1667,48.7969 C22.1667,49.4385 21.6417,49.9635 21,49.9635 C20.3583,49.9635 19.8333,49.4385 19.8333,48.7969 C19.8333,48.1552 20.3583,47.6302 21,47.6302" fill="#B8861B"/><text fill="#000000" font-family="sans-serif" font-size="14" font-weight="bold" lengthAdjust="spacing" textLength="51.2764" x="29.2074" y="55.9951">row_id</text><text fill="#000000" font-family="sans-serif" font-size="14" lengthAdjust="spacing" textLength="109.792" x="80.4837" y="55.9951">: INTEGER &#171;PK&#187;</text><line style="stroke:#181818;stroke-width:1;" x1="8" x2="195.2757" y1="63.2969" y2="63.2969"/><path d="M18.6667,71.9271 C16.73,71.9271 15.1667,73.4904 15.1667,75.4271 C15.1667,77.3638 16.73,78.9271 18.6667,78.9271 C20.6033,78.9271 22.1667,77.3638 22.1667,75.4271 C22.1667,73.4904 20.6033,71.9271 18.6667,71.9271" fill="#EFEFEF"/><text fill="#000000" font-family="sans-serif" font-size="14" lengthAdjust="spacing" textLength="111.7061" x="28.7835" y="80.292">log_id: INTEGER</text><path d="M18.6667,88.224 C16.73,88.224 15.1667,89.7873 15.1667,91.724 C15.1667,93.6606 16.73,95.224 18.6667,95.224 C20.6033,95.224 22.1667,93.6606 22.1667,91.724 C22.1667,89.7873 20.6033,88.224 18.6667,88.224" fill="#EFEFEF"/><text fill="#000000" font-family="sans-serif" font-size="14" lengthAdjust="spacing" textLength="120.2236" x="28.7835" y="96.5889">timestamp: TEXT</text><path d="M18.6667,104.5208 C16.73,104.5208 15.1667,106.0842 15.1667,108.0208 C15.1667,109.9575 16.73,111.5208 18.6667,111.5208 C20.6033,111.5208 22.1667,109.9575 22.1667,108.0208 C22.1667,106.0842 20.6033,104.5208 18.6667,104.5208" fill="#EFEFEF"/><text fill="#000000" font-family="sans-serif" font-size="14" lengthAdjust="spacing" textLength="104.3506" x="28.7835" y="112.8857">code: INTEGER</text><path d="M18.6667,120.8177 C16.73,120.8177 15.1667,122.381 15.1667,124.3177 C15.1667,126.2544 16.73,127.8177 18.6667,127.8177 C20.6033,127.8177 22.1667,126.2544 22.1667,124.3177 C22.1667,122.381 20.6033,120.8177 18.6667,120.8177" fill="#EFEFEF"/><text fill="#000000" font-family="sans-serif" font-size="14" lengthAdjust="spacing" textLength="142.9395" x="28.7835" y="129.1826">nattempts: INTEGER</text></g><!--reverse link sync_logs to logs--><g class="link" data-entity-1="sync_logs" data-entity-2="logs" data-source-line="30" data-uid="lnk4" id="link_sync_logs_logs"><path codeLine="30" d="M101.5,144.05 C101.5,162.48 101.5,175.18 101.5,195.68" fill="none" id="sync_logs-backto-logs" style="stroke:#181818;stroke-width:1;"/><line style="stroke:#181818;stroke-width:1;" x1="101.5" x2="93.5" y1="144.05" y2="136.05"/><line style="stroke:#181818;stroke-width:1;" x1="101.5" x2="109.5" y1="144.05" y2="136.05"/><line style="stroke:#181818;stroke-width:1;" x1="101.5" x2="101.5" y1="144.05" y2="136.05"/></g><!--SRC=[fP1HQuCm58NV_HMt34Q5ITdBA4No9cCCnXW-x4sYNbsOIUGcRPNH_xxedBOq3uCb499pxfUSt5M9bL08BGd9gSy-iLzt8SGvYmlTQDhTvDljmxqxtZgBnPjHPT35cvm5guckDA6erKnFA1_75JfZJjXBTKvWDKn7I2m5ZmWBJQKFjJnlS21HMM5xw22EOPtUmV53M0o1iI3ugMbqRKBu2k3YZwIFcIZ37JozfCbZykRmrsS70KIHMwPaOqMQlAUBrE01cuLR32JIv3Eia6Wib-tLNKgNc7dUCAYC9fzZETLeVOxE3TB1UvlUKu5NiWjbU3thfzz-cLuLsN-QvjYBghzqed2Ty16AMukojURCT4ddZ72A8XWstm00]--></g></svg>