<?xml version="1.0" encoding="us-ascii" standalone="no"?><svg xmlns="http://www.w3.org/2000/svg" xmlns:xlink="http://www.w3.org/1999/xlink" contentStyleType="text/css" height="1390px" preserveAspectRatio="none" style="width:751px;height:1390px;background:#FFFFFF;" version="1.1" viewBox="0 0 751 1390" width="751px" zoomAndPan="magnify"><defs/><g><!--class nodes--><g id="elem_nodes"><rect codeLine="1" fill="#F1F1F1" height="162.0781" id="nodes" rx="2.5" ry="2.5" style="stroke:#181818;stroke-width:0.5;" width="143" x="371.5" y="1221"/><ellipse cx="417.25" cy="1237" fill="#ADD1B2" rx="11" ry="11" style="stroke:#181818;stroke-width:1.0;"/><path d="M416.0469,1237.875 L417.5,1237.875 L417.5,1237.9844 C417.5,1238.3906 417.5313,1238.5469 417.6094,1238.7031 C417.7656,1238.9531 418.0469,1239.1094 418.3438,1239.1094 C418.5938,1239.1094 418.8594,1238.9688 419.0156,1238.75 C419.1406,1238.5938 419.1719,1238.4375 419.1719,1237.9844 L419.1719,1236.0625 C419.1719,1235.9063 419.1719,1235.8594 419.1563,1235.7031 C419.0938,1235.2344 418.7813,1234.9219 418.3281,1234.9219 C418.0781,1234.9219 417.8125,1235.0625 417.6406,1235.2813 C417.5313,1235.4531 417.5,1235.6094 417.5,1236.0625 L417.5,1236.1875 L416.0469,1236.1875 L416.0469,1233.7813 L420.0313,1233.7813 L420.0313,1234.6406 C420.0313,1235.0469 420.0625,1235.2188 420.1406,1235.375 C420.3125,1235.625 420.5938,1235.7813 420.875,1235.7813 C421.1406,1235.7813 421.4063,1235.6406 421.5781,1235.4219 C421.6875,1235.25 421.7188,1235.1094 421.7188,1234.6406 L421.7188,1232.0938 L414.0938,1232.0938 C413.6563,1232.0938 413.5313,1232.1094 413.375,1232.2031 C413.125,1232.3594 412.9688,1232.6563 412.9688,1232.9375 C412.9688,1233.2188 413.1094,1233.4688 413.3281,1233.6406 C413.4844,1233.75 413.6719,1233.7813 414.0938,1233.7813 L414.3438,1233.7813 L414.3438,1240.2969 L414.0938,1240.2969 C413.6875,1240.2969 413.5313,1240.3125 413.375,1240.4219 C413.125,1240.5938 412.9688,1240.8594 412.9688,1241.1563 C412.9688,1241.4219 413.1094,1241.6719 413.3281,1241.8281 C413.4688,1241.9531 413.7031,1242 414.0938,1242 L422.0938,1242 L422.0938,1239.4219 C422.0938,1238.9844 422.0625,1238.8438 421.9844,1238.6875 C421.8125,1238.4375 421.5313,1238.2813 421.25,1238.2813 C420.9844,1238.2813 420.7188,1238.3906 420.5469,1238.6406 C420.4375,1238.7969 420.4063,1238.9375 420.4063,1239.4219 L420.4063,1240.2969 L416.0469,1240.2969 L416.0469,1237.875 Z " fill="#000000"/><text fill="#000000" font-family="sans-serif" font-size="14" lengthAdjust="spacing" textLength="43" x="437.75" y="1241.8467">nodes</text><line style="stroke:#181818;stroke-width:0.5;" x1="372.5" x2="513.5" y1="1253" y2="1253"/><text fill="#000000" font-family="sans-serif" font-size="14" lengthAdjust="spacing" textLength="131" x="377.5" y="1269.9951">node_id : INTEGER</text><line style="stroke:#181818;stroke-width:1.0;" x1="372.5" x2="513.5" y1="1277.2969" y2="1277.2969"/><ellipse cx="382.5" cy="1290.9453" fill="#000000" rx="3" ry="3" style="stroke:#000000;stroke-width:1.0;"/><text fill="#000000" font-family="sans-serif" font-size="14" lengthAdjust="spacing" textLength="63" x="391.5" y="1294.292">id : TEXT</text><ellipse cx="382.5" cy="1307.2422" fill="#000000" rx="3" ry="3" style="stroke:#000000;stroke-width:1.0;"/><text fill="#000000" font-family="sans-serif" font-size="14" lengthAdjust="spacing" textLength="90" x="391.5" y="1310.5889">name : TEXT</text><text fill="#000000" font-family="sans-serif" font-size="14" lengthAdjust="spacing" textLength="88" x="391.5" y="1326.8857">meta : TEXT</text><ellipse cx="382.5" cy="1339.8359" fill="#000000" rx="3" ry="3" style="stroke:#000000;stroke-width:1.0;"/><text fill="#000000" font-family="sans-serif" font-size="14" lengthAdjust="spacing" textLength="58" x="391.5" y="1343.1826">x : REAL</text><ellipse cx="382.5" cy="1356.1328" fill="#000000" rx="3" ry="3" style="stroke:#000000;stroke-width:1.0;"/><text fill="#000000" font-family="sans-serif" font-size="14" lengthAdjust="spacing" textLength="58" x="391.5" y="1359.4795">y : REAL</text><ellipse cx="382.5" cy="1372.4297" fill="#000000" rx="3" ry="3" style="stroke:#000000;stroke-width:1.0;"/><text fill="#000000" font-family="sans-serif" font-size="14" lengthAdjust="spacing" textLength="58" x="391.5" y="1375.7764">z : REAL</text></g><!--class observs--><g id="elem_observs"><rect codeLine="12" fill="#F1F1F1" height="276.1563" id="observs" rx="2.5" ry="2.5" style="stroke:#181818;stroke-width:0.5;" width="176" x="234" y="614"/><ellipse cx="289.75" cy="630" fill="#ADD1B2" rx="11" ry="11" style="stroke:#181818;stroke-width:1.0;"/><path d="M288.5469,630.875 L290,630.875 L290,630.9844 C290,631.3906 290.0313,631.5469 290.1094,631.7031 C290.2656,631.9531 290.5469,632.1094 290.8438,632.1094 C291.0938,632.1094 291.3594,631.9688 291.5156,631.75 C291.6406,631.5938 291.6719,631.4375 291.6719,630.9844 L291.6719,629.0625 C291.6719,628.9063 291.6719,628.8594 291.6563,628.7031 C291.5938,628.2344 291.2813,627.9219 290.8281,627.9219 C290.5781,627.9219 290.3125,628.0625 290.1406,628.2813 C290.0313,628.4531 290,628.6094 290,629.0625 L290,629.1875 L288.5469,629.1875 L288.5469,626.7813 L292.5313,626.7813 L292.5313,627.6406 C292.5313,628.0469 292.5625,628.2188 292.6406,628.375 C292.8125,628.625 293.0938,628.7813 293.375,628.7813 C293.6406,628.7813 293.9063,628.6406 294.0781,628.4219 C294.1875,628.25 294.2188,628.1094 294.2188,627.6406 L294.2188,625.0938 L286.5938,625.0938 C286.1563,625.0938 286.0313,625.1094 285.875,625.2031 C285.625,625.3594 285.4688,625.6563 285.4688,625.9375 C285.4688,626.2188 285.6094,626.4688 285.8281,626.6406 C285.9844,626.75 286.1719,626.7813 286.5938,626.7813 L286.8438,626.7813 L286.8438,633.2969 L286.5938,633.2969 C286.1875,633.2969 286.0313,633.3125 285.875,633.4219 C285.625,633.5938 285.4688,633.8594 285.4688,634.1563 C285.4688,634.4219 285.6094,634.6719 285.8281,634.8281 C285.9688,634.9531 286.2031,635 286.5938,635 L294.5938,635 L294.5938,632.4219 C294.5938,631.9844 294.5625,631.8438 294.4844,631.6875 C294.3125,631.4375 294.0313,631.2813 293.75,631.2813 C293.4844,631.2813 293.2188,631.3906 293.0469,631.6406 C292.9375,631.7969 292.9063,631.9375 292.9063,632.4219 L292.9063,633.2969 L288.5469,633.2969 L288.5469,630.875 Z " fill="#000000"/><text fill="#000000" font-family="sans-serif" font-size="14" lengthAdjust="spacing" textLength="56" x="310.25" y="634.8467">observs</text><line style="stroke:#181818;stroke-width:0.5;" x1="235" x2="409" y1="646" y2="646"/><text fill="#000000" font-family="sans-serif" font-size="14" lengthAdjust="spacing" textLength="144" x="240" y="662.9951">observ_id : INTEGER</text><line style="stroke:#181818;stroke-width:1.0;" x1="235" x2="409" y1="670.2969" y2="670.2969"/><ellipse cx="245" cy="683.9453" fill="#000000" rx="3" ry="3" style="stroke:#000000;stroke-width:1.0;"/><text fill="#000000" font-family="sans-serif" font-size="14" lengthAdjust="spacing" textLength="131" x="254" y="687.292">node_id : INTEGER</text><ellipse cx="245" cy="700.2422" fill="#000000" rx="3" ry="3" style="stroke:#000000;stroke-width:1.0;"/><text fill="#000000" font-family="sans-serif" font-size="14" lengthAdjust="spacing" textLength="142" x="254" y="703.5889">sensor_id : INTEGER</text><ellipse cx="245" cy="716.5391" fill="#000000" rx="3" ry="3" style="stroke:#000000;stroke-width:1.0;"/><text fill="#000000" font-family="sans-serif" font-size="14" lengthAdjust="spacing" textLength="141" x="254" y="719.8857">target_id : INTEGER</text><ellipse cx="245" cy="732.8359" fill="#000000" rx="3" ry="3" style="stroke:#000000;stroke-width:1.0;"/><text fill="#000000" font-family="sans-serif" font-size="14" lengthAdjust="spacing" textLength="63" x="254" y="736.1826">id : TEXT</text><ellipse cx="245" cy="749.1328" fill="#000000" rx="3" ry="3" style="stroke:#000000;stroke-width:1.0;"/><text fill="#000000" font-family="sans-serif" font-size="14" lengthAdjust="spacing" textLength="90" x="254" y="752.4795">name : TEXT</text><ellipse cx="245" cy="765.4297" fill="#000000" rx="3" ry="3" style="stroke:#000000;stroke-width:1.0;"/><text fill="#000000" font-family="sans-serif" font-size="14" lengthAdjust="spacing" textLength="130" x="254" y="768.7764">timestamp : TEXT</text><text fill="#000000" font-family="sans-serif" font-size="14" lengthAdjust="spacing" textLength="97" x="254" y="785.0732">source : TEXT</text><text fill="#000000" font-family="sans-serif" font-size="14" lengthAdjust="spacing" textLength="84" x="254" y="801.3701">path : TEXT</text><ellipse cx="245" cy="814.3203" fill="#000000" rx="3" ry="3" style="stroke:#000000;stroke-width:1.0;"/><text fill="#000000" font-family="sans-serif" font-size="14" lengthAdjust="spacing" textLength="129" x="254" y="817.667">priority : INTEGER</text><ellipse cx="245" cy="830.6172" fill="#000000" rx="3" ry="3" style="stroke:#000000;stroke-width:1.0;"/><text fill="#000000" font-family="sans-serif" font-size="14" lengthAdjust="spacing" textLength="111" x="254" y="833.9639">error : INTEGER</text><ellipse cx="245" cy="846.9141" fill="#000000" rx="3" ry="3" style="stroke:#000000;stroke-width:1.0;"/><text fill="#000000" font-family="sans-serif" font-size="14" lengthAdjust="spacing" textLength="108" x="254" y="850.2607">next : INTEGER</text><ellipse cx="245" cy="863.2109" fill="#000000" rx="3" ry="3" style="stroke:#000000;stroke-width:1.0;"/><text fill="#000000" font-family="sans-serif" font-size="14" lengthAdjust="spacing" textLength="150" x="254" y="866.5576">nreceivers : INTEGER</text><ellipse cx="245" cy="879.5078" fill="#000000" rx="3" ry="3" style="stroke:#000000;stroke-width:1.0;"/><text fill="#000000" font-family="sans-serif" font-size="14" lengthAdjust="spacing" textLength="146" x="254" y="882.8545">nrequests : INTEGER</text></g><!--class receivers--><g id="elem_receivers"><rect codeLine="30" fill="#F1F1F1" height="113.1875" id="receivers" rx="2.5" ry="2.5" style="stroke:#181818;stroke-width:0.5;" width="170" x="25" y="343"/><ellipse cx="72.75" cy="359" fill="#ADD1B2" rx="11" ry="11" style="stroke:#181818;stroke-width:1.0;"/><path d="M71.5469,359.875 L73,359.875 L73,359.9844 C73,360.3906 73.0313,360.5469 73.1094,360.7031 C73.2656,360.9531 73.5469,361.1094 73.8438,361.1094 C74.0938,361.1094 74.3594,360.9688 74.5156,360.75 C74.6406,360.5938 74.6719,360.4375 74.6719,359.9844 L74.6719,358.0625 C74.6719,357.9063 74.6719,357.8594 74.6563,357.7031 C74.5938,357.2344 74.2813,356.9219 73.8281,356.9219 C73.5781,356.9219 73.3125,357.0625 73.1406,357.2813 C73.0313,357.4531 73,357.6094 73,358.0625 L73,358.1875 L71.5469,358.1875 L71.5469,355.7813 L75.5313,355.7813 L75.5313,356.6406 C75.5313,357.0469 75.5625,357.2188 75.6406,357.375 C75.8125,357.625 76.0938,357.7813 76.375,357.7813 C76.6406,357.7813 76.9063,357.6406 77.0781,357.4219 C77.1875,357.25 77.2188,357.1094 77.2188,356.6406 L77.2188,354.0938 L69.5938,354.0938 C69.1563,354.0938 69.0313,354.1094 68.875,354.2031 C68.625,354.3594 68.4688,354.6563 68.4688,354.9375 C68.4688,355.2188 68.6094,355.4688 68.8281,355.6406 C68.9844,355.75 69.1719,355.7813 69.5938,355.7813 L69.8438,355.7813 L69.8438,362.2969 L69.5938,362.2969 C69.1875,362.2969 69.0313,362.3125 68.875,362.4219 C68.625,362.5938 68.4688,362.8594 68.4688,363.1563 C68.4688,363.4219 68.6094,363.6719 68.8281,363.8281 C68.9688,363.9531 69.2031,364 69.5938,364 L77.5938,364 L77.5938,361.4219 C77.5938,360.9844 77.5625,360.8438 77.4844,360.6875 C77.3125,360.4375 77.0313,360.2813 76.75,360.2813 C76.4844,360.2813 76.2188,360.3906 76.0469,360.6406 C75.9375,360.7969 75.9063,360.9375 75.9063,361.4219 L75.9063,362.2969 L71.5469,362.2969 L71.5469,359.875 Z " fill="#000000"/><text fill="#000000" font-family="sans-serif" font-size="14" lengthAdjust="spacing" textLength="66" x="93.25" y="363.8467">receivers</text><line style="stroke:#181818;stroke-width:0.5;" x1="26" x2="194" y1="375" y2="375"/><text fill="#000000" font-family="sans-serif" font-size="14" lengthAdjust="spacing" textLength="154" x="31" y="391.9951">receiver_id : INTEGER</text><line style="stroke:#181818;stroke-width:1.0;" x1="26" x2="194" y1="399.2969" y2="399.2969"/><ellipse cx="36" cy="412.9453" fill="#000000" rx="3" ry="3" style="stroke:#000000;stroke-width:1.0;"/><text fill="#000000" font-family="sans-serif" font-size="14" lengthAdjust="spacing" textLength="144" x="45" y="416.292">observ_id : INTEGER</text><ellipse cx="36" cy="429.2422" fill="#000000" rx="3" ry="3" style="stroke:#000000;stroke-width:1.0;"/><text fill="#000000" font-family="sans-serif" font-size="14" lengthAdjust="spacing" textLength="96" x="45" y="432.5889">idx : INTEGER</text><ellipse cx="36" cy="445.5391" fill="#000000" rx="3" ry="3" style="stroke:#000000;stroke-width:1.0;"/><text fill="#000000" font-family="sans-serif" font-size="14" lengthAdjust="spacing" textLength="90" x="45" y="448.8857">name : TEXT</text></g><!--class requests--><g id="elem_requests"><rect codeLine="38" fill="#F1F1F1" height="308.75" id="requests" rx="2.5" ry="2.5" style="stroke:#181818;stroke-width:0.5;" width="183" x="230.5" y="245"/><ellipse cx="286.75" cy="261" fill="#ADD1B2" rx="11" ry="11" style="stroke:#181818;stroke-width:1.0;"/><path d="M285.5469,261.875 L287,261.875 L287,261.9844 C287,262.3906 287.0313,262.5469 287.1094,262.7031 C287.2656,262.9531 287.5469,263.1094 287.8438,263.1094 C288.0938,263.1094 288.3594,262.9688 288.5156,262.75 C288.6406,262.5938 288.6719,262.4375 288.6719,261.9844 L288.6719,260.0625 C288.6719,259.9063 288.6719,259.8594 288.6563,259.7031 C288.5938,259.2344 288.2813,258.9219 287.8281,258.9219 C287.5781,258.9219 287.3125,259.0625 287.1406,259.2813 C287.0313,259.4531 287,259.6094 287,260.0625 L287,260.1875 L285.5469,260.1875 L285.5469,257.7813 L289.5313,257.7813 L289.5313,258.6406 C289.5313,259.0469 289.5625,259.2188 289.6406,259.375 C289.8125,259.625 290.0938,259.7813 290.375,259.7813 C290.6406,259.7813 290.9063,259.6406 291.0781,259.4219 C291.1875,259.25 291.2188,259.1094 291.2188,258.6406 L291.2188,256.0938 L283.5938,256.0938 C283.1563,256.0938 283.0313,256.1094 282.875,256.2031 C282.625,256.3594 282.4688,256.6563 282.4688,256.9375 C282.4688,257.2188 282.6094,257.4688 282.8281,257.6406 C282.9844,257.75 283.1719,257.7813 283.5938,257.7813 L283.8438,257.7813 L283.8438,264.2969 L283.5938,264.2969 C283.1875,264.2969 283.0313,264.3125 282.875,264.4219 C282.625,264.5938 282.4688,264.8594 282.4688,265.1563 C282.4688,265.4219 282.6094,265.6719 282.8281,265.8281 C282.9688,265.9531 283.2031,266 283.5938,266 L291.5938,266 L291.5938,263.4219 C291.5938,262.9844 291.5625,262.8438 291.4844,262.6875 C291.3125,262.4375 291.0313,262.2813 290.75,262.2813 C290.4844,262.2813 290.2188,262.3906 290.0469,262.6406 C289.9375,262.7969 289.9063,262.9375 289.9063,263.4219 L289.9063,264.2969 L285.5469,264.2969 L285.5469,261.875 Z " fill="#000000"/><text fill="#000000" font-family="sans-serif" font-size="14" lengthAdjust="spacing" textLength="62" x="307.25" y="265.8467">requests</text><line style="stroke:#181818;stroke-width:0.5;" x1="231.5" x2="412.5" y1="277" y2="277"/><text fill="#000000" font-family="sans-serif" font-size="14" lengthAdjust="spacing" textLength="150" x="236.5" y="293.9951">request_id : INTEGER</text><line style="stroke:#181818;stroke-width:1.0;" x1="231.5" x2="412.5" y1="301.2969" y2="301.2969"/><ellipse cx="241.5" cy="314.9453" fill="#000000" rx="3" ry="3" style="stroke:#000000;stroke-width:1.0;"/><text fill="#000000" font-family="sans-serif" font-size="14" lengthAdjust="spacing" textLength="144" x="250.5" y="318.292">observ_id : INTEGER</text><ellipse cx="241.5" cy="331.2422" fill="#000000" rx="3" ry="3" style="stroke:#000000;stroke-width:1.0;"/><text fill="#000000" font-family="sans-serif" font-size="14" lengthAdjust="spacing" textLength="96" x="250.5" y="334.5889">idx : INTEGER</text><text fill="#000000" font-family="sans-serif" font-size="14" lengthAdjust="spacing" textLength="86" x="250.5" y="350.8857">name: TEXT</text><text fill="#000000" font-family="sans-serif" font-size="14" lengthAdjust="spacing" textLength="130" x="250.5" y="367.1826">timestamp : TEXT</text><text fill="#000000" font-family="sans-serif" font-size="14" lengthAdjust="spacing" textLength="105" x="250.5" y="383.4795">request : TEXT</text><text fill="#000000" font-family="sans-serif" font-size="14" lengthAdjust="spacing" textLength="116" x="250.5" y="399.7764">response : TEXT</text><text fill="#000000" font-family="sans-serif" font-size="14" lengthAdjust="spacing" textLength="116" x="250.5" y="416.0732">delimiter : TEXT</text><text fill="#000000" font-family="sans-serif" font-size="14" lengthAdjust="spacing" textLength="106" x="250.5" y="432.3701">pattern : TEXT</text><ellipse cx="241.5" cy="445.3203" fill="#000000" rx="3" ry="3" style="stroke:#000000;stroke-width:1.0;"/><text fill="#000000" font-family="sans-serif" font-size="14" lengthAdjust="spacing" textLength="113" x="250.5" y="448.667">delay : INTEGER</text><ellipse cx="241.5" cy="461.6172" fill="#000000" rx="3" ry="3" style="stroke:#000000;stroke-width:1.0;"/><text fill="#000000" font-family="sans-serif" font-size="14" lengthAdjust="spacing" textLength="111" x="250.5" y="464.9639">error : INTEGER</text><ellipse cx="241.5" cy="477.9141" fill="#000000" rx="3" ry="3" style="stroke:#000000;stroke-width:1.0;"/><text fill="#000000" font-family="sans-serif" font-size="14" lengthAdjust="spacing" textLength="116" x="250.5" y="481.2607">mode : INTEGER</text><ellipse cx="241.5" cy="494.2109" fill="#000000" rx="3" ry="3" style="stroke:#000000;stroke-width:1.0;"/><text fill="#000000" font-family="sans-serif" font-size="14" lengthAdjust="spacing" textLength="123" x="250.5" y="497.5576">retries : INTEGER</text><ellipse cx="241.5" cy="510.5078" fill="#000000" rx="3" ry="3" style="stroke:#000000;stroke-width:1.0;"/><text fill="#000000" font-family="sans-serif" font-size="14" lengthAdjust="spacing" textLength="113" x="250.5" y="513.8545">state : INTEGER</text><ellipse cx="241.5" cy="526.8047" fill="#000000" rx="3" ry="3" style="stroke:#000000;stroke-width:1.0;"/><text fill="#000000" font-family="sans-serif" font-size="14" lengthAdjust="spacing" textLength="133" x="250.5" y="530.1514">timeout : INTEGER</text><ellipse cx="241.5" cy="543.1016" fill="#000000" rx="3" ry="3" style="stroke:#000000;stroke-width:1.0;"/><text fill="#000000" font-family="sans-serif" font-size="14" lengthAdjust="spacing" textLength="157" x="250.5" y="546.4482">nresponses : INTEGER</text></g><!--class responses--><g id="elem_responses"><rect codeLine="58" fill="#F1F1F1" height="178.375" id="responses" rx="2.5" ry="2.5" style="stroke:#181818;stroke-width:0.5;" width="176" x="234" y="7"/><ellipse cx="281.25" cy="23" fill="#ADD1B2" rx="11" ry="11" style="stroke:#181818;stroke-width:1.0;"/><path d="M280.0469,23.875 L281.5,23.875 L281.5,23.9844 C281.5,24.3906 281.5313,24.5469 281.6094,24.7031 C281.7656,24.9531 282.0469,25.1094 282.3438,25.1094 C282.5938,25.1094 282.8594,24.9688 283.0156,24.75 C283.1406,24.5938 283.1719,24.4375 283.1719,23.9844 L283.1719,22.0625 C283.1719,21.9063 283.1719,21.8594 283.1563,21.7031 C283.0938,21.2344 282.7813,20.9219 282.3281,20.9219 C282.0781,20.9219 281.8125,21.0625 281.6406,21.2813 C281.5313,21.4531 281.5,21.6094 281.5,22.0625 L281.5,22.1875 L280.0469,22.1875 L280.0469,19.7813 L284.0313,19.7813 L284.0313,20.6406 C284.0313,21.0469 284.0625,21.2188 284.1406,21.375 C284.3125,21.625 284.5938,21.7813 284.875,21.7813 C285.1406,21.7813 285.4063,21.6406 285.5781,21.4219 C285.6875,21.25 285.7188,21.1094 285.7188,20.6406 L285.7188,18.0938 L278.0938,18.0938 C277.6563,18.0938 277.5313,18.1094 277.375,18.2031 C277.125,18.3594 276.9688,18.6563 276.9688,18.9375 C276.9688,19.2188 277.1094,19.4688 277.3281,19.6406 C277.4844,19.75 277.6719,19.7813 278.0938,19.7813 L278.3438,19.7813 L278.3438,26.2969 L278.0938,26.2969 C277.6875,26.2969 277.5313,26.3125 277.375,26.4219 C277.125,26.5938 276.9688,26.8594 276.9688,27.1563 C276.9688,27.4219 277.1094,27.6719 277.3281,27.8281 C277.4688,27.9531 277.7031,28 278.0938,28 L286.0938,28 L286.0938,25.4219 C286.0938,24.9844 286.0625,24.8438 285.9844,24.6875 C285.8125,24.4375 285.5313,24.2813 285.25,24.2813 C284.9844,24.2813 284.7188,24.3906 284.5469,24.6406 C284.4375,24.7969 284.4063,24.9375 284.4063,25.4219 L284.4063,26.2969 L280.0469,26.2969 L280.0469,23.875 Z " fill="#000000"/><text fill="#000000" font-family="sans-serif" font-size="14" lengthAdjust="spacing" textLength="73" x="301.75" y="27.8467">responses</text><line style="stroke:#181818;stroke-width:0.5;" x1="235" x2="409" y1="39" y2="39"/><text fill="#000000" font-family="sans-serif" font-size="14" lengthAdjust="spacing" textLength="161" x="240" y="55.9951">response_id : INTEGER</text><line style="stroke:#181818;stroke-width:1.0;" x1="235" x2="409" y1="63.2969" y2="63.2969"/><ellipse cx="245" cy="76.9453" fill="#000000" rx="3" ry="3" style="stroke:#000000;stroke-width:1.0;"/><text fill="#000000" font-family="sans-serif" font-size="14" lengthAdjust="spacing" textLength="150" x="254" y="80.292">request_id : INTEGER</text><ellipse cx="245" cy="93.2422" fill="#000000" rx="3" ry="3" style="stroke:#000000;stroke-width:1.0;"/><text fill="#000000" font-family="sans-serif" font-size="14" lengthAdjust="spacing" textLength="96" x="254" y="96.5889">idx : INTEGER</text><text fill="#000000" font-family="sans-serif" font-size="14" lengthAdjust="spacing" textLength="90" x="254" y="112.8857">name : TEXT</text><text fill="#000000" font-family="sans-serif" font-size="14" lengthAdjust="spacing" textLength="78" x="254" y="129.1826">unit : TEXT</text><ellipse cx="245" cy="142.1328" fill="#000000" rx="3" ry="3" style="stroke:#000000;stroke-width:1.0;"/><text fill="#000000" font-family="sans-serif" font-size="14" lengthAdjust="spacing" textLength="109" x="254" y="145.4795">type : INTEGER</text><ellipse cx="245" cy="158.4297" fill="#000000" rx="3" ry="3" style="stroke:#000000;stroke-width:1.0;"/><text fill="#000000" font-family="sans-serif" font-size="14" lengthAdjust="spacing" textLength="111" x="254" y="161.7764">error : INTEGER</text><ellipse cx="245" cy="174.7266" fill="#000000" rx="3" ry="3" style="stroke:#000000;stroke-width:1.0;"/><text fill="#000000" font-family="sans-serif" font-size="14" lengthAdjust="spacing" textLength="87" x="254" y="178.0732">value : REAL</text></g><!--class sensors--><g id="elem_sensors"><rect codeLine="70" fill="#F1F1F1" height="210.9688" id="sensors" rx="2.5" ry="2.5" style="stroke:#181818;stroke-width:0.5;" width="157" x="569.5" y="950"/><ellipse cx="616.75" cy="966" fill="#ADD1B2" rx="11" ry="11" style="stroke:#181818;stroke-width:1.0;"/><path d="M615.5469,966.875 L617,966.875 L617,966.9844 C617,967.3906 617.0313,967.5469 617.1094,967.7031 C617.2656,967.9531 617.5469,968.1094 617.8438,968.1094 C618.0938,968.1094 618.3594,967.9688 618.5156,967.75 C618.6406,967.5938 618.6719,967.4375 618.6719,966.9844 L618.6719,965.0625 C618.6719,964.9063 618.6719,964.8594 618.6563,964.7031 C618.5938,964.2344 618.2813,963.9219 617.8281,963.9219 C617.5781,963.9219 617.3125,964.0625 617.1406,964.2813 C617.0313,964.4531 617,964.6094 617,965.0625 L617,965.1875 L615.5469,965.1875 L615.5469,962.7813 L619.5313,962.7813 L619.5313,963.6406 C619.5313,964.0469 619.5625,964.2188 619.6406,964.375 C619.8125,964.625 620.0938,964.7813 620.375,964.7813 C620.6406,964.7813 620.9063,964.6406 621.0781,964.4219 C621.1875,964.25 621.2188,964.1094 621.2188,963.6406 L621.2188,961.0938 L613.5938,961.0938 C613.1563,961.0938 613.0313,961.1094 612.875,961.2031 C612.625,961.3594 612.4688,961.6563 612.4688,961.9375 C612.4688,962.2188 612.6094,962.4688 612.8281,962.6406 C612.9844,962.75 613.1719,962.7813 613.5938,962.7813 L613.8438,962.7813 L613.8438,969.2969 L613.5938,969.2969 C613.1875,969.2969 613.0313,969.3125 612.875,969.4219 C612.625,969.5938 612.4688,969.8594 612.4688,970.1563 C612.4688,970.4219 612.6094,970.6719 612.8281,970.8281 C612.9688,970.9531 613.2031,971 613.5938,971 L621.5938,971 L621.5938,968.4219 C621.5938,967.9844 621.5625,967.8438 621.4844,967.6875 C621.3125,967.4375 621.0313,967.2813 620.75,967.2813 C620.4844,967.2813 620.2188,967.3906 620.0469,967.6406 C619.9375,967.7969 619.9063,967.9375 619.9063,968.4219 L619.9063,969.2969 L615.5469,969.2969 L615.5469,966.875 Z " fill="#000000"/><text fill="#000000" font-family="sans-serif" font-size="14" lengthAdjust="spacing" textLength="54" x="637.25" y="970.8467">sensors</text><line style="stroke:#181818;stroke-width:0.5;" x1="570.5" x2="725.5" y1="982" y2="982"/><text fill="#000000" font-family="sans-serif" font-size="14" lengthAdjust="spacing" textLength="142" x="575.5" y="998.9951">sensor_id : INTEGER</text><line style="stroke:#181818;stroke-width:1.0;" x1="570.5" x2="725.5" y1="1006.2969" y2="1006.2969"/><ellipse cx="580.5" cy="1019.9453" fill="#000000" rx="3" ry="3" style="stroke:#000000;stroke-width:1.0;"/><text fill="#000000" font-family="sans-serif" font-size="14" lengthAdjust="spacing" textLength="131" x="589.5" y="1023.292">node_id : INTEGER</text><ellipse cx="580.5" cy="1036.2422" fill="#000000" rx="3" ry="3" style="stroke:#000000;stroke-width:1.0;"/><text fill="#000000" font-family="sans-serif" font-size="14" lengthAdjust="spacing" textLength="63" x="589.5" y="1039.5889">id : TEXT</text><ellipse cx="580.5" cy="1052.5391" fill="#000000" rx="3" ry="3" style="stroke:#000000;stroke-width:1.0;"/><text fill="#000000" font-family="sans-serif" font-size="14" lengthAdjust="spacing" textLength="109" x="589.5" y="1055.8857">type : INTEGER</text><ellipse cx="580.5" cy="1068.8359" fill="#000000" rx="3" ry="3" style="stroke:#000000;stroke-width:1.0;"/><text fill="#000000" font-family="sans-serif" font-size="14" lengthAdjust="spacing" textLength="90" x="589.5" y="1072.1826">name : TEXT</text><text fill="#000000" font-family="sans-serif" font-size="14" lengthAdjust="spacing" textLength="66" x="589.5" y="1088.4795">sn : TEXT</text><text fill="#000000" font-family="sans-serif" font-size="14" lengthAdjust="spacing" textLength="88" x="589.5" y="1104.7764">meta : TEXT</text><ellipse cx="580.5" cy="1117.7266" fill="#000000" rx="3" ry="3" style="stroke:#000000;stroke-width:1.0;"/><text fill="#000000" font-family="sans-serif" font-size="14" lengthAdjust="spacing" textLength="58" x="589.5" y="1121.0732">x : REAL</text><ellipse cx="580.5" cy="1134.0234" fill="#000000" rx="3" ry="3" style="stroke:#000000;stroke-width:1.0;"/><text fill="#000000" font-family="sans-serif" font-size="14" lengthAdjust="spacing" textLength="58" x="589.5" y="1137.3701">y : REAL</text><ellipse cx="580.5" cy="1150.3203" fill="#000000" rx="3" ry="3" style="stroke:#000000;stroke-width:1.0;"/><text fill="#000000" font-family="sans-serif" font-size="14" lengthAdjust="spacing" textLength="58" x="589.5" y="1153.667">z : REAL</text></g><!--class sync_nodes--><g id="elem_sync_nodes"><rect codeLine="84" fill="#F1F1F1" height="129.4844" id="sync_nodes" rx="2.5" ry="2.5" style="stroke:#181818;stroke-width:0.5;" width="182" x="352" y="991"/><ellipse cx="397.75" cy="1007" fill="#ADD1B2" rx="11" ry="11" style="stroke:#181818;stroke-width:1.0;"/><path d="M396.5469,1007.875 L398,1007.875 L398,1007.9844 C398,1008.3906 398.0313,1008.5469 398.1094,1008.7031 C398.2656,1008.9531 398.5469,1009.1094 398.8438,1009.1094 C399.0938,1009.1094 399.3594,1008.9688 399.5156,1008.75 C399.6406,1008.5938 399.6719,1008.4375 399.6719,1007.9844 L399.6719,1006.0625 C399.6719,1005.9063 399.6719,1005.8594 399.6563,1005.7031 C399.5938,1005.2344 399.2813,1004.9219 398.8281,1004.9219 C398.5781,1004.9219 398.3125,1005.0625 398.1406,1005.2813 C398.0313,1005.4531 398,1005.6094 398,1006.0625 L398,1006.1875 L396.5469,1006.1875 L396.5469,1003.7813 L400.5313,1003.7813 L400.5313,1004.6406 C400.5313,1005.0469 400.5625,1005.2188 400.6406,1005.375 C400.8125,1005.625 401.0938,1005.7813 401.375,1005.7813 C401.6406,1005.7813 401.9063,1005.6406 402.0781,1005.4219 C402.1875,1005.25 402.2188,1005.1094 402.2188,1004.6406 L402.2188,1002.0938 L394.5938,1002.0938 C394.1563,1002.0938 394.0313,1002.1094 393.875,1002.2031 C393.625,1002.3594 393.4688,1002.6563 393.4688,1002.9375 C393.4688,1003.2188 393.6094,1003.4688 393.8281,1003.6406 C393.9844,1003.75 394.1719,1003.7813 394.5938,1003.7813 L394.8438,1003.7813 L394.8438,1010.2969 L394.5938,1010.2969 C394.1875,1010.2969 394.0313,1010.3125 393.875,1010.4219 C393.625,1010.5938 393.4688,1010.8594 393.4688,1011.1563 C393.4688,1011.4219 393.6094,1011.6719 393.8281,1011.8281 C393.9688,1011.9531 394.2031,1012 394.5938,1012 L402.5938,1012 L402.5938,1009.4219 C402.5938,1008.9844 402.5625,1008.8438 402.4844,1008.6875 C402.3125,1008.4375 402.0313,1008.2813 401.75,1008.2813 C401.4844,1008.2813 401.2188,1008.3906 401.0469,1008.6406 C400.9375,1008.7969 400.9063,1008.9375 400.9063,1009.4219 L400.9063,1010.2969 L396.5469,1010.2969 L396.5469,1007.875 Z " fill="#000000"/><text fill="#000000" font-family="sans-serif" font-size="14" lengthAdjust="spacing" textLength="82" x="418.25" y="1011.8467">sync_nodes</text><line style="stroke:#181818;stroke-width:0.5;" x1="353" x2="533" y1="1023" y2="1023"/><text fill="#000000" font-family="sans-serif" font-size="14" lengthAdjust="spacing" textLength="170" x="358" y="1039.9951">sync_node_id : INTEGER</text><line style="stroke:#181818;stroke-width:1.0;" x1="353" x2="533" y1="1047.2969" y2="1047.2969"/><ellipse cx="363" cy="1060.9453" fill="#000000" rx="3" ry="3" style="stroke:#000000;stroke-width:1.0;"/><text fill="#000000" font-family="sans-serif" font-size="14" lengthAdjust="spacing" textLength="131" x="372" y="1064.292">node_id : INTEGER</text><ellipse cx="363" cy="1077.2422" fill="#000000" rx="3" ry="3" style="stroke:#000000;stroke-width:1.0;"/><text fill="#000000" font-family="sans-serif" font-size="14" lengthAdjust="spacing" textLength="130" x="372" y="1080.5889">timestamp : TEXT</text><ellipse cx="363" cy="1093.5391" fill="#000000" rx="3" ry="3" style="stroke:#000000;stroke-width:1.0;"/><text fill="#000000" font-family="sans-serif" font-size="14" lengthAdjust="spacing" textLength="110" x="372" y="1096.8857">code : INTEGER</text><ellipse cx="363" cy="1109.8359" fill="#000000" rx="3" ry="3" style="stroke:#000000;stroke-width:1.0;"/><text fill="#000000" font-family="sans-serif" font-size="14" lengthAdjust="spacing" textLength="144" x="372" y="1113.1826">attempts : INTEGER</text></g><!--class sync_observs--><g id="elem_sync_observs"><rect codeLine="93" fill="#F1F1F1" height="129.4844" id="sync_observs" rx="2.5" ry="2.5" style="stroke:#181818;stroke-width:0.5;" width="195" x="448.5" y="335"/><ellipse cx="494.25" cy="351" fill="#ADD1B2" rx="11" ry="11" style="stroke:#181818;stroke-width:1.0;"/><path d="M493.0469,351.875 L494.5,351.875 L494.5,351.9844 C494.5,352.3906 494.5313,352.5469 494.6094,352.7031 C494.7656,352.9531 495.0469,353.1094 495.3438,353.1094 C495.5938,353.1094 495.8594,352.9688 496.0156,352.75 C496.1406,352.5938 496.1719,352.4375 496.1719,351.9844 L496.1719,350.0625 C496.1719,349.9063 496.1719,349.8594 496.1563,349.7031 C496.0938,349.2344 495.7813,348.9219 495.3281,348.9219 C495.0781,348.9219 494.8125,349.0625 494.6406,349.2813 C494.5313,349.4531 494.5,349.6094 494.5,350.0625 L494.5,350.1875 L493.0469,350.1875 L493.0469,347.7813 L497.0313,347.7813 L497.0313,348.6406 C497.0313,349.0469 497.0625,349.2188 497.1406,349.375 C497.3125,349.625 497.5938,349.7813 497.875,349.7813 C498.1406,349.7813 498.4063,349.6406 498.5781,349.4219 C498.6875,349.25 498.7188,349.1094 498.7188,348.6406 L498.7188,346.0938 L491.0938,346.0938 C490.6563,346.0938 490.5313,346.1094 490.375,346.2031 C490.125,346.3594 489.9688,346.6563 489.9688,346.9375 C489.9688,347.2188 490.1094,347.4688 490.3281,347.6406 C490.4844,347.75 490.6719,347.7813 491.0938,347.7813 L491.3438,347.7813 L491.3438,354.2969 L491.0938,354.2969 C490.6875,354.2969 490.5313,354.3125 490.375,354.4219 C490.125,354.5938 489.9688,354.8594 489.9688,355.1563 C489.9688,355.4219 490.1094,355.6719 490.3281,355.8281 C490.4688,355.9531 490.7031,356 491.0938,356 L499.0938,356 L499.0938,353.4219 C499.0938,352.9844 499.0625,352.8438 498.9844,352.6875 C498.8125,352.4375 498.5313,352.2813 498.25,352.2813 C497.9844,352.2813 497.7188,352.3906 497.5469,352.6406 C497.4375,352.7969 497.4063,352.9375 497.4063,353.4219 L497.4063,354.2969 L493.0469,354.2969 L493.0469,351.875 Z " fill="#000000"/><text fill="#000000" font-family="sans-serif" font-size="14" lengthAdjust="spacing" textLength="95" x="514.75" y="355.8467">sync_observs</text><line style="stroke:#181818;stroke-width:0.5;" x1="449.5" x2="642.5" y1="367" y2="367"/><text fill="#000000" font-family="sans-serif" font-size="14" lengthAdjust="spacing" textLength="183" x="454.5" y="383.9951">sync_observ_id : INTEGER</text><line style="stroke:#181818;stroke-width:1.0;" x1="449.5" x2="642.5" y1="391.2969" y2="391.2969"/><ellipse cx="459.5" cy="404.9453" fill="#000000" rx="3" ry="3" style="stroke:#000000;stroke-width:1.0;"/><text fill="#000000" font-family="sans-serif" font-size="14" lengthAdjust="spacing" textLength="144" x="468.5" y="408.292">observ_id : INTEGER</text><ellipse cx="459.5" cy="421.2422" fill="#000000" rx="3" ry="3" style="stroke:#000000;stroke-width:1.0;"/><text fill="#000000" font-family="sans-serif" font-size="14" lengthAdjust="spacing" textLength="130" x="468.5" y="424.5889">timestamp : TEXT</text><ellipse cx="459.5" cy="437.5391" fill="#000000" rx="3" ry="3" style="stroke:#000000;stroke-width:1.0;"/><text fill="#000000" font-family="sans-serif" font-size="14" lengthAdjust="spacing" textLength="110" x="468.5" y="440.8857">code : INTEGER</text><ellipse cx="459.5" cy="453.8359" fill="#000000" rx="3" ry="3" style="stroke:#000000;stroke-width:1.0;"/><text fill="#000000" font-family="sans-serif" font-size="14" lengthAdjust="spacing" textLength="144" x="468.5" y="457.1826">attempts : INTEGER</text></g><!--class sync_sensors--><g id="elem_sync_sensors"><rect codeLine="102" fill="#F1F1F1" height="129.4844" id="sync_sensors" rx="2.5" ry="2.5" style="stroke:#181818;stroke-width:0.5;" width="193" x="551.5" y="687.5"/><ellipse cx="597.25" cy="703.5" fill="#ADD1B2" rx="11" ry="11" style="stroke:#181818;stroke-width:1.0;"/><path d="M596.0469,704.375 L597.5,704.375 L597.5,704.4844 C597.5,704.8906 597.5313,705.0469 597.6094,705.2031 C597.7656,705.4531 598.0469,705.6094 598.3438,705.6094 C598.5938,705.6094 598.8594,705.4688 599.0156,705.25 C599.1406,705.0938 599.1719,704.9375 599.1719,704.4844 L599.1719,702.5625 C599.1719,702.4063 599.1719,702.3594 599.1563,702.2031 C599.0938,701.7344 598.7813,701.4219 598.3281,701.4219 C598.0781,701.4219 597.8125,701.5625 597.6406,701.7813 C597.5313,701.9531 597.5,702.1094 597.5,702.5625 L597.5,702.6875 L596.0469,702.6875 L596.0469,700.2813 L600.0313,700.2813 L600.0313,701.1406 C600.0313,701.5469 600.0625,701.7188 600.1406,701.875 C600.3125,702.125 600.5938,702.2813 600.875,702.2813 C601.1406,702.2813 601.4063,702.1406 601.5781,701.9219 C601.6875,701.75 601.7188,701.6094 601.7188,701.1406 L601.7188,698.5938 L594.0938,698.5938 C593.6563,698.5938 593.5313,698.6094 593.375,698.7031 C593.125,698.8594 592.9688,699.1563 592.9688,699.4375 C592.9688,699.7188 593.1094,699.9688 593.3281,700.1406 C593.4844,700.25 593.6719,700.2813 594.0938,700.2813 L594.3438,700.2813 L594.3438,706.7969 L594.0938,706.7969 C593.6875,706.7969 593.5313,706.8125 593.375,706.9219 C593.125,707.0938 592.9688,707.3594 592.9688,707.6563 C592.9688,707.9219 593.1094,708.1719 593.3281,708.3281 C593.4688,708.4531 593.7031,708.5 594.0938,708.5 L602.0938,708.5 L602.0938,705.9219 C602.0938,705.4844 602.0625,705.3438 601.9844,705.1875 C601.8125,704.9375 601.5313,704.7813 601.25,704.7813 C600.9844,704.7813 600.7188,704.8906 600.5469,705.1406 C600.4375,705.2969 600.4063,705.4375 600.4063,705.9219 L600.4063,706.7969 L596.0469,706.7969 L596.0469,704.375 Z " fill="#000000"/><text fill="#000000" font-family="sans-serif" font-size="14" lengthAdjust="spacing" textLength="93" x="617.75" y="708.3467">sync_sensors</text><line style="stroke:#181818;stroke-width:0.5;" x1="552.5" x2="743.5" y1="719.5" y2="719.5"/><text fill="#000000" font-family="sans-serif" font-size="14" lengthAdjust="spacing" textLength="181" x="557.5" y="736.4951">sync_sensor_id : INTEGER</text><line style="stroke:#181818;stroke-width:1.0;" x1="552.5" x2="743.5" y1="743.7969" y2="743.7969"/><ellipse cx="562.5" cy="757.4453" fill="#000000" rx="3" ry="3" style="stroke:#000000;stroke-width:1.0;"/><text fill="#000000" font-family="sans-serif" font-size="14" lengthAdjust="spacing" textLength="142" x="571.5" y="760.792">sensor_id : INTEGER</text><ellipse cx="562.5" cy="773.7422" fill="#000000" rx="3" ry="3" style="stroke:#000000;stroke-width:1.0;"/><text fill="#000000" font-family="sans-serif" font-size="14" lengthAdjust="spacing" textLength="130" x="571.5" y="777.0889">timestamp : TEXT</text><ellipse cx="562.5" cy="790.0391" fill="#000000" rx="3" ry="3" style="stroke:#000000;stroke-width:1.0;"/><text fill="#000000" font-family="sans-serif" font-size="14" lengthAdjust="spacing" textLength="110" x="571.5" y="793.3857">code : INTEGER</text><ellipse cx="562.5" cy="806.3359" fill="#000000" rx="3" ry="3" style="stroke:#000000;stroke-width:1.0;"/><text fill="#000000" font-family="sans-serif" font-size="14" lengthAdjust="spacing" textLength="144" x="571.5" y="809.6826">attempts : INTEGER</text></g><!--class sync_targets--><g id="elem_sync_targets"><rect codeLine="111" fill="#F1F1F1" height="129.4844" id="sync_targets" rx="2.5" ry="2.5" style="stroke:#181818;stroke-width:0.5;" width="192" x="7" y="687.5"/><ellipse cx="52.75" cy="703.5" fill="#ADD1B2" rx="11" ry="11" style="stroke:#181818;stroke-width:1.0;"/><path d="M51.5469,704.375 L53,704.375 L53,704.4844 C53,704.8906 53.0313,705.0469 53.1094,705.2031 C53.2656,705.4531 53.5469,705.6094 53.8438,705.6094 C54.0938,705.6094 54.3594,705.4688 54.5156,705.25 C54.6406,705.0938 54.6719,704.9375 54.6719,704.4844 L54.6719,702.5625 C54.6719,702.4063 54.6719,702.3594 54.6563,702.2031 C54.5938,701.7344 54.2813,701.4219 53.8281,701.4219 C53.5781,701.4219 53.3125,701.5625 53.1406,701.7813 C53.0313,701.9531 53,702.1094 53,702.5625 L53,702.6875 L51.5469,702.6875 L51.5469,700.2813 L55.5313,700.2813 L55.5313,701.1406 C55.5313,701.5469 55.5625,701.7188 55.6406,701.875 C55.8125,702.125 56.0938,702.2813 56.375,702.2813 C56.6406,702.2813 56.9063,702.1406 57.0781,701.9219 C57.1875,701.75 57.2188,701.6094 57.2188,701.1406 L57.2188,698.5938 L49.5938,698.5938 C49.1563,698.5938 49.0313,698.6094 48.875,698.7031 C48.625,698.8594 48.4688,699.1563 48.4688,699.4375 C48.4688,699.7188 48.6094,699.9688 48.8281,700.1406 C48.9844,700.25 49.1719,700.2813 49.5938,700.2813 L49.8438,700.2813 L49.8438,706.7969 L49.5938,706.7969 C49.1875,706.7969 49.0313,706.8125 48.875,706.9219 C48.625,707.0938 48.4688,707.3594 48.4688,707.6563 C48.4688,707.9219 48.6094,708.1719 48.8281,708.3281 C48.9688,708.4531 49.2031,708.5 49.5938,708.5 L57.5938,708.5 L57.5938,705.9219 C57.5938,705.4844 57.5625,705.3438 57.4844,705.1875 C57.3125,704.9375 57.0313,704.7813 56.75,704.7813 C56.4844,704.7813 56.2188,704.8906 56.0469,705.1406 C55.9375,705.2969 55.9063,705.4375 55.9063,705.9219 L55.9063,706.7969 L51.5469,706.7969 L51.5469,704.375 Z " fill="#000000"/><text fill="#000000" font-family="sans-serif" font-size="14" lengthAdjust="spacing" textLength="92" x="73.25" y="708.3467">sync_targets</text><line style="stroke:#181818;stroke-width:0.5;" x1="8" x2="198" y1="719.5" y2="719.5"/><text fill="#000000" font-family="sans-serif" font-size="14" lengthAdjust="spacing" textLength="180" x="13" y="736.4951">sync_target_id : INTEGER</text><line style="stroke:#181818;stroke-width:1.0;" x1="8" x2="198" y1="743.7969" y2="743.7969"/><ellipse cx="18" cy="757.4453" fill="#000000" rx="3" ry="3" style="stroke:#000000;stroke-width:1.0;"/><text fill="#000000" font-family="sans-serif" font-size="14" lengthAdjust="spacing" textLength="141" x="27" y="760.792">target_id : INTEGER</text><ellipse cx="18" cy="773.7422" fill="#000000" rx="3" ry="3" style="stroke:#000000;stroke-width:1.0;"/><text fill="#000000" font-family="sans-serif" font-size="14" lengthAdjust="spacing" textLength="130" x="27" y="777.0889">timestamp : TEXT</text><ellipse cx="18" cy="790.0391" fill="#000000" rx="3" ry="3" style="stroke:#000000;stroke-width:1.0;"/><text fill="#000000" font-family="sans-serif" font-size="14" lengthAdjust="spacing" textLength="110" x="27" y="793.3857">code : INTEGER</text><ellipse cx="18" cy="806.3359" fill="#000000" rx="3" ry="3" style="stroke:#000000;stroke-width:1.0;"/><text fill="#000000" font-family="sans-serif" font-size="14" lengthAdjust="spacing" textLength="144" x="27" y="809.6826">attempts : INTEGER</text></g><!--class targets--><g id="elem_targets"><rect codeLine="120" fill="#F1F1F1" height="178.375" id="targets" rx="2.5" ry="2.5" style="stroke:#181818;stroke-width:0.5;" width="153" x="48.5" y="966.5"/><ellipse cx="94.25" cy="982.5" fill="#ADD1B2" rx="11" ry="11" style="stroke:#181818;stroke-width:1.0;"/><path d="M93.0469,983.375 L94.5,983.375 L94.5,983.4844 C94.5,983.8906 94.5313,984.0469 94.6094,984.2031 C94.7656,984.4531 95.0469,984.6094 95.3438,984.6094 C95.5938,984.6094 95.8594,984.4688 96.0156,984.25 C96.1406,984.0938 96.1719,983.9375 96.1719,983.4844 L96.1719,981.5625 C96.1719,981.4063 96.1719,981.3594 96.1563,981.2031 C96.0938,980.7344 95.7813,980.4219 95.3281,980.4219 C95.0781,980.4219 94.8125,980.5625 94.6406,980.7813 C94.5313,980.9531 94.5,981.1094 94.5,981.5625 L94.5,981.6875 L93.0469,981.6875 L93.0469,979.2813 L97.0313,979.2813 L97.0313,980.1406 C97.0313,980.5469 97.0625,980.7188 97.1406,980.875 C97.3125,981.125 97.5938,981.2813 97.875,981.2813 C98.1406,981.2813 98.4063,981.1406 98.5781,980.9219 C98.6875,980.75 98.7188,980.6094 98.7188,980.1406 L98.7188,977.5938 L91.0938,977.5938 C90.6563,977.5938 90.5313,977.6094 90.375,977.7031 C90.125,977.8594 89.9688,978.1563 89.9688,978.4375 C89.9688,978.7188 90.1094,978.9688 90.3281,979.1406 C90.4844,979.25 90.6719,979.2813 91.0938,979.2813 L91.3438,979.2813 L91.3438,985.7969 L91.0938,985.7969 C90.6875,985.7969 90.5313,985.8125 90.375,985.9219 C90.125,986.0938 89.9688,986.3594 89.9688,986.6563 C89.9688,986.9219 90.1094,987.1719 90.3281,987.3281 C90.4688,987.4531 90.7031,987.5 91.0938,987.5 L99.0938,987.5 L99.0938,984.9219 C99.0938,984.4844 99.0625,984.3438 98.9844,984.1875 C98.8125,983.9375 98.5313,983.7813 98.25,983.7813 C97.9844,983.7813 97.7188,983.8906 97.5469,984.1406 C97.4375,984.2969 97.4063,984.4375 97.4063,984.9219 L97.4063,985.7969 L93.0469,985.7969 L93.0469,983.375 Z " fill="#000000"/><text fill="#000000" font-family="sans-serif" font-size="14" lengthAdjust="spacing" textLength="53" x="114.75" y="987.3467">targets</text><line style="stroke:#181818;stroke-width:0.5;" x1="49.5" x2="200.5" y1="998.5" y2="998.5"/><text fill="#000000" font-family="sans-serif" font-size="14" lengthAdjust="spacing" textLength="141" x="54.5" y="1015.4951">target_id : INTEGER</text><line style="stroke:#181818;stroke-width:1.0;" x1="49.5" x2="200.5" y1="1022.7969" y2="1022.7969"/><ellipse cx="59.5" cy="1036.4453" fill="#000000" rx="3" ry="3" style="stroke:#000000;stroke-width:1.0;"/><text fill="#000000" font-family="sans-serif" font-size="14" lengthAdjust="spacing" textLength="63" x="68.5" y="1039.792">id : TEXT</text><text fill="#000000" font-family="sans-serif" font-size="14" lengthAdjust="spacing" textLength="90" x="68.5" y="1056.0889">name : TEXT</text><text fill="#000000" font-family="sans-serif" font-size="14" lengthAdjust="spacing" textLength="88" x="68.5" y="1072.3857">meta : TEXT</text><ellipse cx="59.5" cy="1085.3359" fill="#000000" rx="3" ry="3" style="stroke:#000000;stroke-width:1.0;"/><text fill="#000000" font-family="sans-serif" font-size="14" lengthAdjust="spacing" textLength="113" x="68.5" y="1088.6826">state : INTEGER</text><ellipse cx="59.5" cy="1101.6328" fill="#000000" rx="3" ry="3" style="stroke:#000000;stroke-width:1.0;"/><text fill="#000000" font-family="sans-serif" font-size="14" lengthAdjust="spacing" textLength="58" x="68.5" y="1104.9795">x : REAL</text><ellipse cx="59.5" cy="1117.9297" fill="#000000" rx="3" ry="3" style="stroke:#000000;stroke-width:1.0;"/><text fill="#000000" font-family="sans-serif" font-size="14" lengthAdjust="spacing" textLength="58" x="68.5" y="1121.2764">y : REAL</text><ellipse cx="59.5" cy="1134.2266" fill="#000000" rx="3" ry="3" style="stroke:#000000;stroke-width:1.0;"/><text fill="#000000" font-family="sans-serif" font-size="14" lengthAdjust="spacing" textLength="58" x="68.5" y="1137.5732">z : REAL</text></g><!--reverse link observs to targets--><g id="link_observs_targets"><path codeLine="132" d="M229.496,894.5741 C212.08,921.2281 198.603,941.854 182.523,966.464 " fill="none" id="observs-backto-targets" style="stroke:#181818;stroke-width:1.0;"/><line style="stroke:#181818;stroke-width:1.0;" x1="229.496" x2="233.872" y1="894.5741" y2="883.501"/><line style="stroke:#181818;stroke-width:1.0;" x1="229.496" x2="233.872" y1="894.5741" y2="892.253"/><line style="stroke:#181818;stroke-width:1.0;" x1="229.496" x2="233.872" y1="894.5741" y2="887.877"/></g><!--reverse link observs to sensors--><g id="link_observs_sensors"><path codeLine="134" d="M416.3377,830.0473 C459.7547,866.4303 506.14,906.803 551,950 C557.062,955.838 563.226,961.968 569.356,968.21 " fill="none" id="observs-backto-sensors" style="stroke:#181818;stroke-width:1.0;"/><line style="stroke:#181818;stroke-width:1.0;" x1="416.3377" x2="410.206" y1="830.0473" y2="831.0407"/><line style="stroke:#181818;stroke-width:1.0;" x1="416.3377" x2="410.206" y1="830.0473" y2="818.7773"/><line style="stroke:#181818;stroke-width:1.0;" x1="416.3377" x2="410.206" y1="830.0473" y2="824.909"/></g><!--reverse link observs to nodes--><g id="link_observs_nodes"><path codeLine="136" d="M304.6462,898.1484 C299.7332,979.2454 302.923,1074.653 334,1161 C342.397,1184.332 356.291,1206.833 371.395,1226.72 " fill="none" id="observs-backto-nodes" style="stroke:#181818;stroke-width:1.0;"/><line style="stroke:#181818;stroke-width:1.0;" x1="304.6462" x2="297.1446" y1="898.1484" y2="890.163"/><line style="stroke:#181818;stroke-width:1.0;" x1="304.6462" x2="313.1154" y1="898.1484" y2="890.163"/><line style="stroke:#181818;stroke-width:1.0;" x1="304.6462" x2="305.13" y1="898.1484" y2="890.163"/></g><!--reverse link receivers to observs--><g id="link_receivers_observs"><path codeLine="138" d="M147.7324,462.8832 C173.3604,505.2532 205.664,558.661 238.94,613.676 " fill="none" id="receivers-backto-observs" style="stroke:#181818;stroke-width:1.0;"/><line style="stroke:#181818;stroke-width:1.0;" x1="147.7324" x2="136.7468" y1="462.8832" y2="456.038"/><line style="stroke:#181818;stroke-width:1.0;" x1="147.7324" x2="150.4372" y1="462.8832" y2="456.038"/><line style="stroke:#181818;stroke-width:1.0;" x1="147.7324" x2="143.592" y1="462.8832" y2="456.038"/></g><!--reverse link requests to observs--><g id="link_requests_observs"><path codeLine="140" d="M322,562.234 C322,582.099 322,594.339 322,613.911 " fill="none" id="requests-backto-observs" style="stroke:#181818;stroke-width:1.0;"/><line style="stroke:#181818;stroke-width:1.0;" x1="322" x2="314" y1="562.234" y2="554.234"/><line style="stroke:#181818;stroke-width:1.0;" x1="322" x2="330" y1="562.234" y2="554.234"/><line style="stroke:#181818;stroke-width:1.0;" x1="322" x2="322" y1="562.234" y2="554.234"/></g><!--reverse link responses to requests--><g id="link_responses_requests"><path codeLine="142" d="M322,193.02 C322,211.88 322,224.33 322,244.85 " fill="none" id="responses-backto-requests" style="stroke:#181818;stroke-width:1.0;"/><line style="stroke:#181818;stroke-width:1.0;" x1="322" x2="314" y1="193.02" y2="185.02"/><line style="stroke:#181818;stroke-width:1.0;" x1="322" x2="330" y1="193.02" y2="185.02"/><line style="stroke:#181818;stroke-width:1.0;" x1="322" x2="322" y1="193.02" y2="185.02"/></g><!--reverse link sensors to nodes--><g id="link_sensors_nodes"><path codeLine="144" d="M564.1879,1156.4612 C544.6539,1179.7582 529.038,1198.384 510.116,1220.952 " fill="none" id="sensors-backto-nodes" style="stroke:#181818;stroke-width:1.0;"/><line style="stroke:#181818;stroke-width:1.0;" x1="564.1879" x2="569.328" y1="1156.4612" y2="1145.1909"/><line style="stroke:#181818;stroke-width:1.0;" x1="564.1879" x2="569.328" y1="1156.4612" y2="1155.4711"/><line style="stroke:#181818;stroke-width:1.0;" x1="564.1879" x2="569.328" y1="1156.4612" y2="1150.331"/></g><!--reverse link sync_nodes to nodes--><g id="link_sync_nodes_nodes"><path codeLine="146" d="M443,1128.101 C443,1158.805 443,1187.978 443,1220.62 " fill="none" id="sync_nodes-backto-nodes" style="stroke:#181818;stroke-width:1.0;"/><line style="stroke:#181818;stroke-width:1.0;" x1="443" x2="435" y1="1128.101" y2="1120.101"/><line style="stroke:#181818;stroke-width:1.0;" x1="443" x2="451" y1="1128.101" y2="1120.101"/><line style="stroke:#181818;stroke-width:1.0;" x1="443" x2="443" y1="1128.101" y2="1120.101"/></g><!--reverse link sync_observs to observs--><g id="link_sync_observs_observs"><path codeLine="148" d="M500.8669,471.121 C474.1779,512.882 442.59,562.309 409.647,613.856 " fill="none" id="sync_observs-backto-observs" style="stroke:#181818;stroke-width:1.0;"/><line style="stroke:#181818;stroke-width:1.0;" x1="500.8669" x2="498.434" y1="471.121" y2="464.38"/><line style="stroke:#181818;stroke-width:1.0;" x1="500.8669" x2="511.916" y1="471.121" y2="464.38"/><line style="stroke:#181818;stroke-width:1.0;" x1="500.8669" x2="505.175" y1="471.121" y2="464.38"/></g><!--reverse link sync_sensors to sensors--><g id="link_sync_sensors_sensors"><path codeLine="150" d="M648,824.572 C648,863.185 648,905.425 648,949.783 " fill="none" id="sync_sensors-backto-sensors" style="stroke:#181818;stroke-width:1.0;"/><line style="stroke:#181818;stroke-width:1.0;" x1="648" x2="640" y1="824.572" y2="816.572"/><line style="stroke:#181818;stroke-width:1.0;" x1="648" x2="656" y1="824.572" y2="816.572"/><line style="stroke:#181818;stroke-width:1.0;" x1="648" x2="648" y1="824.572" y2="816.572"/></g><!--reverse link sync_targets to targets--><g id="link_sync_targets_targets"><path codeLine="152" d="M108.2212,824.5508 C111.3982,868.0878 115.071,918.427 118.574,966.429 " fill="none" id="sync_targets-backto-targets" style="stroke:#181818;stroke-width:1.0;"/><line style="stroke:#181818;stroke-width:1.0;" x1="108.2212" x2="99.6602" y1="824.5508" y2="816.572"/><line style="stroke:#181818;stroke-width:1.0;" x1="108.2212" x2="115.6178" y1="824.5508" y2="816.572"/><line style="stroke:#181818;stroke-width:1.0;" x1="108.2212" x2="107.639" y1="824.5508" y2="816.572"/></g><!--SRC=[hLKzRuCm4Dtv5PuZyGUwTK1LfQf3bA5RHCcfjHHiQfieDCf_hurnV3OsIbGMn3sVkNVlFW2cg1e8umUGv5AGyMrF3-I9lBxlgfTggx6or8yD6T5TzR4RBLQtuEqML8rFpzhOLizlep5WuzSPrw806vr_IX0d6z- -PnYao6s812QvcEEg5b-WvlXI7leMRK6gkkqyA7al6kJKrUeRN-a4vS8a4iO18RY8C0Pd5KC26g0d479-yDDhBXZtelbRHZPdPOHBgsgaECT1aHmusCJ4nXgDVuOoWMuQ9aIVec10Tfn9L8S376bB5OYWDDfck3hQgxwdDArkhWWIe0I5k2wQg8ezJGAyJvJMSiwLq9rUK7uPNJEgfuNr-VUCgg2zXmxk4EDK7tkOJweTDSitFNQBanfENe9Ao5sobHQC75YpzplkPZv4Fj6Z6zBCcyPqODjbfdOCZVST0XuSgFNu15NrG8PFTjskniSkRiGdlSadFharlmeVJ6MH1MxjvLzZQdtSryskRwvbwOY5u5J841pxlYZy_yA0auE1fyqUeMup6TZv58Nh5FHTD5inYbdSFXrqN40wg3tAyGy0]--></g></svg>