<svg xmlns="http://www.w3.org/2000/svg" xmlns:xlink="http://www.w3.org/1999/xlink" contentStyleType="text/css" height="1487px" preserveAspectRatio="none" style="width:746px;height:1487px;background:#FFFFFF;" version="1.1" viewBox="0 0 746 1487" width="746px" zoomAndPan="magnify"><defs/><g><!--class nodes--><g id="elem_nodes"><rect codeLine="1" fill="#F1F1F1" height="210.9688" id="nodes" rx="2.5" ry="2.5" style="stroke:#181818;stroke-width:0.5;" width="141.7529" x="368.5" y="1270"/><ellipse cx="414.0103" cy="1286" fill="#ADD1B2" rx="11" ry="11" style="stroke:#181818;stroke-width:1;"/><path d="M418.1196,1292 L410.4009,1292 L410.4009,1279.6094 L418.1196,1279.6094 L418.1196,1281.7656 L412.854,1281.7656 L412.854,1284.4375 L417.6196,1284.4375 L417.6196,1286.5938 L412.854,1286.5938 L412.854,1289.8438 L418.1196,1289.8438 L418.1196,1292 Z " fill="#000000"/><text fill="#000000" font-family="sans-serif" font-size="14" lengthAdjust="spacing" textLength="42.2324" x="434.5103" y="1290.8467">nodes</text><line style="stroke:#181818;stroke-width:0.5;" x1="369.5" x2="509.2529" y1="1302" y2="1302"/><text fill="#000000" font-family="sans-serif" font-size="14" lengthAdjust="spacing" textLength="129.7529" x="374.5" y="1318.9951">node_id : INTEGER</text><line style="stroke:#181818;stroke-width:1;" x1="369.5" x2="509.2529" y1="1326.2969" y2="1326.2969"/><ellipse cx="379.5" cy="1339.9453" fill="#000000" rx="3" ry="3" style="stroke:#000000;stroke-width:1;"/><text fill="#000000" font-family="sans-serif" font-size="14" lengthAdjust="spacing" textLength="61.9336" x="388.5" y="1343.292">id : TEXT</text><ellipse cx="379.5" cy="1356.2422" fill="#000000" rx="3" ry="3" style="stroke:#000000;stroke-width:1;"/><text fill="#000000" font-family="sans-serif" font-size="14" lengthAdjust="spacing" textLength="88.8604" x="388.5" y="1359.5889">name : TEXT</text><text fill="#000000" font-family="sans-serif" font-size="14" lengthAdjust="spacing" textLength="85.4766" x="388.5" y="1375.8857">meta : TEXT</text><ellipse cx="379.5" cy="1388.8359" fill="#000000" rx="3" ry="3" style="stroke:#000000;stroke-width:1;"/><text fill="#000000" font-family="sans-serif" font-size="14" lengthAdjust="spacing" textLength="57.8525" x="388.5" y="1392.1826">x : REAL</text><ellipse cx="379.5" cy="1405.1328" fill="#000000" rx="3" ry="3" style="stroke:#000000;stroke-width:1;"/><text fill="#000000" font-family="sans-serif" font-size="14" lengthAdjust="spacing" textLength="57.8525" x="388.5" y="1408.4795">y : REAL</text><ellipse cx="379.5" cy="1421.4297" fill="#000000" rx="3" ry="3" style="stroke:#000000;stroke-width:1;"/><text fill="#000000" font-family="sans-serif" font-size="14" lengthAdjust="spacing" textLength="56.916" x="388.5" y="1424.7764">z : REAL</text><ellipse cx="379.5" cy="1437.7266" fill="#000000" rx="3" ry="3" style="stroke:#000000;stroke-width:1;"/><text fill="#000000" font-family="sans-serif" font-size="14" lengthAdjust="spacing" textLength="70.8955" x="388.5" y="1441.0732">lon : REAL</text><ellipse cx="379.5" cy="1454.0234" fill="#000000" rx="3" ry="3" style="stroke:#000000;stroke-width:1;"/><text fill="#000000" font-family="sans-serif" font-size="14" lengthAdjust="spacing" textLength="67.5254" x="388.5" y="1457.3701">lat : REAL</text><ellipse cx="379.5" cy="1470.3203" fill="#000000" rx="3" ry="3" style="stroke:#000000;stroke-width:1;"/><text fill="#000000" font-family="sans-serif" font-size="14" lengthAdjust="spacing" textLength="78.9688" x="388.5" y="1473.667">elev : REAL</text></g><!--class observs--><g id="elem_observs"><rect codeLine="15" fill="#F1F1F1" height="276.1563" id="observs" rx="2.5" ry="2.5" style="stroke:#181818;stroke-width:0.5;" width="174.4287" x="231.5" y="614"/><ellipse cx="287.1172" cy="630" fill="#ADD1B2" rx="11" ry="11" style="stroke:#181818;stroke-width:1;"/><path d="M291.2266,636 L283.5078,636 L283.5078,623.6094 L291.2266,623.6094 L291.2266,625.7656 L285.9609,625.7656 L285.9609,628.4375 L290.7266,628.4375 L290.7266,630.5938 L285.9609,630.5938 L285.9609,633.8438 L291.2266,633.8438 L291.2266,636 Z " fill="#000000"/><text fill="#000000" font-family="sans-serif" font-size="14" lengthAdjust="spacing" textLength="54.6943" x="307.6172" y="634.8467">observs</text><line style="stroke:#181818;stroke-width:0.5;" x1="232.5" x2="404.9287" y1="646" y2="646"/><text fill="#000000" font-family="sans-serif" font-size="14" lengthAdjust="spacing" textLength="142.2148" x="237.5" y="662.9951">observ_id : INTEGER</text><line style="stroke:#181818;stroke-width:1;" x1="232.5" x2="404.9287" y1="670.2969" y2="670.2969"/><ellipse cx="242.5" cy="683.9453" fill="#000000" rx="3" ry="3" style="stroke:#000000;stroke-width:1;"/><text fill="#000000" font-family="sans-serif" font-size="14" lengthAdjust="spacing" textLength="129.7529" x="251.5" y="687.292">node_id : INTEGER</text><ellipse cx="242.5" cy="700.2422" fill="#000000" rx="3" ry="3" style="stroke:#000000;stroke-width:1;"/><text fill="#000000" font-family="sans-serif" font-size="14" lengthAdjust="spacing" textLength="141.21" x="251.5" y="703.5889">sensor_id : INTEGER</text><ellipse cx="242.5" cy="716.5391" fill="#000000" rx="3" ry="3" style="stroke:#000000;stroke-width:1;"/><text fill="#000000" font-family="sans-serif" font-size="14" lengthAdjust="spacing" textLength="137.6279" x="251.5" y="719.8857">target_id : INTEGER</text><ellipse cx="242.5" cy="732.8359" fill="#000000" rx="3" ry="3" style="stroke:#000000;stroke-width:1;"/><text fill="#000000" font-family="sans-serif" font-size="14" lengthAdjust="spacing" textLength="61.9336" x="251.5" y="736.1826">id : TEXT</text><ellipse cx="242.5" cy="749.1328" fill="#000000" rx="3" ry="3" style="stroke:#000000;stroke-width:1;"/><text fill="#000000" font-family="sans-serif" font-size="14" lengthAdjust="spacing" textLength="88.8604" x="251.5" y="752.4795">name : TEXT</text><ellipse cx="242.5" cy="765.4297" fill="#000000" rx="3" ry="3" style="stroke:#000000;stroke-width:1;"/><text fill="#000000" font-family="sans-serif" font-size="14" lengthAdjust="spacing" textLength="124.6738" x="251.5" y="768.7764">timestamp : TEXT</text><text fill="#000000" font-family="sans-serif" font-size="14" lengthAdjust="spacing" textLength="95.9561" x="251.5" y="785.0732">source : TEXT</text><text fill="#000000" font-family="sans-serif" font-size="14" lengthAdjust="spacing" textLength="95.1426" x="251.5" y="801.3701">device : TEXT</text><ellipse cx="242.5" cy="814.3203" fill="#000000" rx="3" ry="3" style="stroke:#000000;stroke-width:1;"/><text fill="#000000" font-family="sans-serif" font-size="14" lengthAdjust="spacing" textLength="125.5557" x="251.5" y="817.667">priority : INTEGER</text><ellipse cx="242.5" cy="830.6172" fill="#000000" rx="3" ry="3" style="stroke:#000000;stroke-width:1;"/><text fill="#000000" font-family="sans-serif" font-size="14" lengthAdjust="spacing" textLength="109.4844" x="251.5" y="833.9639">error : INTEGER</text><ellipse cx="242.5" cy="846.9141" fill="#000000" rx="3" ry="3" style="stroke:#000000;stroke-width:1;"/><text fill="#000000" font-family="sans-serif" font-size="14" lengthAdjust="spacing" textLength="106.2988" x="251.5" y="850.2607">next : INTEGER</text><ellipse cx="242.5" cy="863.2109" fill="#000000" rx="3" ry="3" style="stroke:#000000;stroke-width:1;"/><text fill="#000000" font-family="sans-serif" font-size="14" lengthAdjust="spacing" textLength="148.4287" x="251.5" y="866.5576">nreceivers : INTEGER</text><ellipse cx="242.5" cy="879.5078" fill="#000000" rx="3" ry="3" style="stroke:#000000;stroke-width:1;"/><text fill="#000000" font-family="sans-serif" font-size="14" lengthAdjust="spacing" textLength="144.7305" x="251.5" y="882.8545">nrequests : INTEGER</text></g><!--class receivers--><g id="elem_receivers"><rect codeLine="33" fill="#F1F1F1" height="113.1875" id="receivers" rx="2.5" ry="2.5" style="stroke:#181818;stroke-width:0.5;" width="168.2148" x="24.5" y="343"/><ellipse cx="72.0986" cy="359" fill="#ADD1B2" rx="11" ry="11" style="stroke:#181818;stroke-width:1;"/><path d="M76.208,365 L68.4893,365 L68.4893,352.6094 L76.208,352.6094 L76.208,354.7656 L70.9424,354.7656 L70.9424,357.4375 L75.708,357.4375 L75.708,359.5938 L70.9424,359.5938 L70.9424,362.8438 L76.208,362.8438 L76.208,365 Z " fill="#000000"/><text fill="#000000" font-family="sans-serif" font-size="14" lengthAdjust="spacing" textLength="64.5176" x="92.5986" y="363.8467">receivers</text><line style="stroke:#181818;stroke-width:0.5;" x1="25.5" x2="191.7148" y1="375" y2="375"/><text fill="#000000" font-family="sans-serif" font-size="14" lengthAdjust="spacing" textLength="152.0381" x="30.5" y="391.9951">receiver_id : INTEGER</text><line style="stroke:#181818;stroke-width:1;" x1="25.5" x2="191.7148" y1="399.2969" y2="399.2969"/><ellipse cx="35.5" cy="412.9453" fill="#000000" rx="3" ry="3" style="stroke:#000000;stroke-width:1;"/><text fill="#000000" font-family="sans-serif" font-size="14" lengthAdjust="spacing" textLength="142.2148" x="44.5" y="416.292">observ_id : INTEGER</text><ellipse cx="35.5" cy="429.2422" fill="#000000" rx="3" ry="3" style="stroke:#000000;stroke-width:1;"/><text fill="#000000" font-family="sans-serif" font-size="14" lengthAdjust="spacing" textLength="96.0996" x="44.5" y="432.5889">idx : INTEGER</text><ellipse cx="35.5" cy="445.5391" fill="#000000" rx="3" ry="3" style="stroke:#000000;stroke-width:1;"/><text fill="#000000" font-family="sans-serif" font-size="14" lengthAdjust="spacing" textLength="88.8604" x="44.5" y="448.8857">name : TEXT</text></g><!--class requests--><g id="elem_requests"><rect codeLine="41" fill="#F1F1F1" height="308.75" id="requests" rx="2.5" ry="2.5" style="stroke:#181818;stroke-width:0.5;" width="181.1006" x="228" y="245"/><ellipse cx="283.8906" cy="261" fill="#ADD1B2" rx="11" ry="11" style="stroke:#181818;stroke-width:1;"/><path d="M288,267 L280.2813,267 L280.2813,254.6094 L288,254.6094 L288,256.7656 L282.7344,256.7656 L282.7344,259.4375 L287.5,259.4375 L287.5,261.5938 L282.7344,261.5938 L282.7344,264.8438 L288,264.8438 L288,267 Z " fill="#000000"/><text fill="#000000" font-family="sans-serif" font-size="14" lengthAdjust="spacing" textLength="60.8193" x="304.3906" y="265.8467">requests</text><line style="stroke:#181818;stroke-width:0.5;" x1="229" x2="408.1006" y1="277" y2="277"/><text fill="#000000" font-family="sans-serif" font-size="14" lengthAdjust="spacing" textLength="148.3398" x="234" y="293.9951">request_id : INTEGER</text><line style="stroke:#181818;stroke-width:1;" x1="229" x2="408.1006" y1="301.2969" y2="301.2969"/><ellipse cx="239" cy="314.9453" fill="#000000" rx="3" ry="3" style="stroke:#000000;stroke-width:1;"/><text fill="#000000" font-family="sans-serif" font-size="14" lengthAdjust="spacing" textLength="142.2148" x="248" y="318.292">observ_id : INTEGER</text><ellipse cx="239" cy="331.2422" fill="#000000" rx="3" ry="3" style="stroke:#000000;stroke-width:1;"/><text fill="#000000" font-family="sans-serif" font-size="14" lengthAdjust="spacing" textLength="96.0996" x="248" y="334.5889">idx : INTEGER</text><ellipse cx="239" cy="347.5391" fill="#000000" rx="3" ry="3" style="stroke:#000000;stroke-width:1;"/><text fill="#000000" font-family="sans-serif" font-size="14" lengthAdjust="spacing" textLength="88.8604" x="248" y="350.8857">name : TEXT</text><ellipse cx="239" cy="363.8359" fill="#000000" rx="3" ry="3" style="stroke:#000000;stroke-width:1;"/><text fill="#000000" font-family="sans-serif" font-size="14" lengthAdjust="spacing" textLength="124.6738" x="248" y="367.1826">timestamp : TEXT</text><text fill="#000000" font-family="sans-serif" font-size="14" lengthAdjust="spacing" textLength="102.6826" x="248" y="383.4795">request : TEXT</text><text fill="#000000" font-family="sans-serif" font-size="14" lengthAdjust="spacing" textLength="113.0527" x="248" y="399.7764">response : TEXT</text><text fill="#000000" font-family="sans-serif" font-size="14" lengthAdjust="spacing" textLength="111.8223" x="248" y="416.0732">delimiter : TEXT</text><text fill="#000000" font-family="sans-serif" font-size="14" lengthAdjust="spacing" textLength="100.8438" x="248" y="432.3701">pattern : TEXT</text><ellipse cx="239" cy="445.3203" fill="#000000" rx="3" ry="3" style="stroke:#000000;stroke-width:1;"/><text fill="#000000" font-family="sans-serif" font-size="14" lengthAdjust="spacing" textLength="113.292" x="248" y="448.667">delay : INTEGER</text><ellipse cx="239" cy="461.6172" fill="#000000" rx="3" ry="3" style="stroke:#000000;stroke-width:1;"/><text fill="#000000" font-family="sans-serif" font-size="14" lengthAdjust="spacing" textLength="109.4844" x="248" y="464.9639">error : INTEGER</text><ellipse cx="239" cy="477.9141" fill="#000000" rx="3" ry="3" style="stroke:#000000;stroke-width:1;"/><text fill="#000000" font-family="sans-serif" font-size="14" lengthAdjust="spacing" textLength="114.7412" x="248" y="481.2607">mode : INTEGER</text><ellipse cx="239" cy="494.2109" fill="#000000" rx="3" ry="3" style="stroke:#000000;stroke-width:1;"/><text fill="#000000" font-family="sans-serif" font-size="14" lengthAdjust="spacing" textLength="120.4492" x="248" y="497.5576">retries : INTEGER</text><ellipse cx="239" cy="510.5078" fill="#000000" rx="3" ry="3" style="stroke:#000000;stroke-width:1;"/><text fill="#000000" font-family="sans-serif" font-size="14" lengthAdjust="spacing" textLength="110.5029" x="248" y="513.8545">state : INTEGER</text><ellipse cx="239" cy="526.8047" fill="#000000" rx="3" ry="3" style="stroke:#000000;stroke-width:1;"/><text fill="#000000" font-family="sans-serif" font-size="14" lengthAdjust="spacing" textLength="129.5957" x="248" y="530.1514">timeout : INTEGER</text><ellipse cx="239" cy="543.1016" fill="#000000" rx="3" ry="3" style="stroke:#000000;stroke-width:1;"/><text fill="#000000" font-family="sans-serif" font-size="14" lengthAdjust="spacing" textLength="155.1006" x="248" y="546.4482">nresponses : INTEGER</text></g><!--class responses--><g id="elem_responses"><rect codeLine="61" fill="#F1F1F1" height="178.375" id="responses" rx="2.5" ry="2.5" style="stroke:#181818;stroke-width:0.5;" width="174.3398" x="231.5" y="7"/><ellipse cx="278.8252" cy="23" fill="#ADD1B2" rx="11" ry="11" style="stroke:#181818;stroke-width:1;"/><path d="M282.9346,29 L275.2158,29 L275.2158,16.6094 L282.9346,16.6094 L282.9346,18.7656 L277.6689,18.7656 L277.6689,21.4375 L282.4346,21.4375 L282.4346,23.5938 L277.6689,23.5938 L277.6689,26.8438 L282.9346,26.8438 L282.9346,29 Z " fill="#000000"/><text fill="#000000" font-family="sans-serif" font-size="14" lengthAdjust="spacing" textLength="71.1895" x="299.3252" y="27.8467">responses</text><line style="stroke:#181818;stroke-width:0.5;" x1="232.5" x2="404.8398" y1="39" y2="39"/><text fill="#000000" font-family="sans-serif" font-size="14" lengthAdjust="spacing" textLength="158.71" x="237.5" y="55.9951">response_id : INTEGER</text><line style="stroke:#181818;stroke-width:1;" x1="232.5" x2="404.8398" y1="63.2969" y2="63.2969"/><ellipse cx="242.5" cy="76.9453" fill="#000000" rx="3" ry="3" style="stroke:#000000;stroke-width:1;"/><text fill="#000000" font-family="sans-serif" font-size="14" lengthAdjust="spacing" textLength="148.3398" x="251.5" y="80.292">request_id : INTEGER</text><ellipse cx="242.5" cy="93.2422" fill="#000000" rx="3" ry="3" style="stroke:#000000;stroke-width:1;"/><text fill="#000000" font-family="sans-serif" font-size="14" lengthAdjust="spacing" textLength="96.0996" x="251.5" y="96.5889">idx : INTEGER</text><text fill="#000000" font-family="sans-serif" font-size="14" lengthAdjust="spacing" textLength="88.8604" x="251.5" y="112.8857">name : TEXT</text><text fill="#000000" font-family="sans-serif" font-size="14" lengthAdjust="spacing" textLength="76.2822" x="251.5" y="129.1826">unit : TEXT</text><ellipse cx="242.5" cy="142.1328" fill="#000000" rx="3" ry="3" style="stroke:#000000;stroke-width:1;"/><text fill="#000000" font-family="sans-serif" font-size="14" lengthAdjust="spacing" textLength="106.3125" x="251.5" y="145.4795">type : INTEGER</text><ellipse cx="242.5" cy="158.4297" fill="#000000" rx="3" ry="3" style="stroke:#000000;stroke-width:1;"/><text fill="#000000" font-family="sans-serif" font-size="14" lengthAdjust="spacing" textLength="109.4844" x="251.5" y="161.7764">error : INTEGER</text><ellipse cx="242.5" cy="174.7266" fill="#000000" rx="3" ry="3" style="stroke:#000000;stroke-width:1;"/><text fill="#000000" font-family="sans-serif" font-size="14" lengthAdjust="spacing" textLength="87.8076" x="251.5" y="178.0732">value : REAL</text></g><!--class sensors--><g id="elem_sensors"><rect codeLine="73" fill="#F1F1F1" height="259.8594" id="sensors" rx="2.5" ry="2.5" style="stroke:#181818;stroke-width:0.5;" width="155.7529" x="565.5" y="950"/><ellipse cx="612.2817" cy="966" fill="#ADD1B2" rx="11" ry="11" style="stroke:#181818;stroke-width:1;"/><path d="M616.3911,972 L608.6724,972 L608.6724,959.6094 L616.3911,959.6094 L616.3911,961.7656 L611.1255,961.7656 L611.1255,964.4375 L615.8911,964.4375 L615.8911,966.5938 L611.1255,966.5938 L611.1255,969.8438 L616.3911,969.8438 L616.3911,972 Z " fill="#000000"/><text fill="#000000" font-family="sans-serif" font-size="14" lengthAdjust="spacing" textLength="53.6895" x="632.7817" y="970.8467">sensors</text><line style="stroke:#181818;stroke-width:0.5;" x1="566.5" x2="720.2529" y1="982" y2="982"/><text fill="#000000" font-family="sans-serif" font-size="14" lengthAdjust="spacing" textLength="141.21" x="571.5" y="998.9951">sensor_id : INTEGER</text><line style="stroke:#181818;stroke-width:1;" x1="566.5" x2="720.2529" y1="1006.2969" y2="1006.2969"/><ellipse cx="576.5" cy="1019.9453" fill="#000000" rx="3" ry="3" style="stroke:#000000;stroke-width:1;"/><text fill="#000000" font-family="sans-serif" font-size="14" lengthAdjust="spacing" textLength="129.7529" x="585.5" y="1023.292">node_id : INTEGER</text><ellipse cx="576.5" cy="1036.2422" fill="#000000" rx="3" ry="3" style="stroke:#000000;stroke-width:1;"/><text fill="#000000" font-family="sans-serif" font-size="14" lengthAdjust="spacing" textLength="61.9336" x="585.5" y="1039.5889">id : TEXT</text><ellipse cx="576.5" cy="1052.5391" fill="#000000" rx="3" ry="3" style="stroke:#000000;stroke-width:1;"/><text fill="#000000" font-family="sans-serif" font-size="14" lengthAdjust="spacing" textLength="106.3125" x="585.5" y="1055.8857">type : INTEGER</text><ellipse cx="576.5" cy="1068.8359" fill="#000000" rx="3" ry="3" style="stroke:#000000;stroke-width:1;"/><text fill="#000000" font-family="sans-serif" font-size="14" lengthAdjust="spacing" textLength="88.8604" x="585.5" y="1072.1826">name : TEXT</text><text fill="#000000" font-family="sans-serif" font-size="14" lengthAdjust="spacing" textLength="65.3242" x="585.5" y="1088.4795">sn : TEXT</text><text fill="#000000" font-family="sans-serif" font-size="14" lengthAdjust="spacing" textLength="85.4766" x="585.5" y="1104.7764">meta : TEXT</text><ellipse cx="576.5" cy="1117.7266" fill="#000000" rx="3" ry="3" style="stroke:#000000;stroke-width:1;"/><text fill="#000000" font-family="sans-serif" font-size="14" lengthAdjust="spacing" textLength="57.8525" x="585.5" y="1121.0732">x : REAL</text><ellipse cx="576.5" cy="1134.0234" fill="#000000" rx="3" ry="3" style="stroke:#000000;stroke-width:1;"/><text fill="#000000" font-family="sans-serif" font-size="14" lengthAdjust="spacing" textLength="57.8525" x="585.5" y="1137.3701">y : REAL</text><ellipse cx="576.5" cy="1150.3203" fill="#000000" rx="3" ry="3" style="stroke:#000000;stroke-width:1;"/><text fill="#000000" font-family="sans-serif" font-size="14" lengthAdjust="spacing" textLength="56.916" x="585.5" y="1153.667">z : REAL</text><ellipse cx="576.5" cy="1166.6172" fill="#000000" rx="3" ry="3" style="stroke:#000000;stroke-width:1;"/><text fill="#000000" font-family="sans-serif" font-size="14" lengthAdjust="spacing" textLength="70.8955" x="585.5" y="1169.9639">lon : REAL</text><ellipse cx="576.5" cy="1182.9141" fill="#000000" rx="3" ry="3" style="stroke:#000000;stroke-width:1;"/><text fill="#000000" font-family="sans-serif" font-size="14" lengthAdjust="spacing" textLength="67.5254" x="585.5" y="1186.2607">lat : REAL</text><ellipse cx="576.5" cy="1199.2109" fill="#000000" rx="3" ry="3" style="stroke:#000000;stroke-width:1;"/><text fill="#000000" font-family="sans-serif" font-size="14" lengthAdjust="spacing" textLength="78.9688" x="585.5" y="1202.5576">elev : REAL</text></g><!--class sync_nodes--><g id="elem_sync_nodes"><rect codeLine="90" fill="#F1F1F1" height="129.4844" id="sync_nodes" rx="2.5" ry="2.5" style="stroke:#181818;stroke-width:0.5;" width="180.9023" x="349" y="1015.5"/><ellipse cx="394.5103" cy="1031.5" fill="#ADD1B2" rx="11" ry="11" style="stroke:#181818;stroke-width:1;"/><path d="M398.6196,1037.5 L390.9009,1037.5 L390.9009,1025.1094 L398.6196,1025.1094 L398.6196,1027.2656 L393.354,1027.2656 L393.354,1029.9375 L398.1196,1029.9375 L398.1196,1032.0938 L393.354,1032.0938 L393.354,1035.3438 L398.6196,1035.3438 L398.6196,1037.5 Z " fill="#000000"/><text fill="#000000" font-family="sans-serif" font-size="14" lengthAdjust="spacing" textLength="81.3818" x="415.0103" y="1036.3467">sync_nodes</text><line style="stroke:#181818;stroke-width:0.5;" x1="350" x2="528.9023" y1="1047.5" y2="1047.5"/><text fill="#000000" font-family="sans-serif" font-size="14" lengthAdjust="spacing" textLength="168.9023" x="355" y="1064.4951">sync_node_id : INTEGER</text><line style="stroke:#181818;stroke-width:1;" x1="350" x2="528.9023" y1="1071.7969" y2="1071.7969"/><ellipse cx="360" cy="1085.4453" fill="#000000" rx="3" ry="3" style="stroke:#000000;stroke-width:1;"/><text fill="#000000" font-family="sans-serif" font-size="14" lengthAdjust="spacing" textLength="129.7529" x="369" y="1088.792">node_id : INTEGER</text><ellipse cx="360" cy="1101.7422" fill="#000000" rx="3" ry="3" style="stroke:#000000;stroke-width:1;"/><text fill="#000000" font-family="sans-serif" font-size="14" lengthAdjust="spacing" textLength="124.6738" x="369" y="1105.0889">timestamp : TEXT</text><ellipse cx="360" cy="1118.0391" fill="#000000" rx="3" ry="3" style="stroke:#000000;stroke-width:1;"/><text fill="#000000" font-family="sans-serif" font-size="14" lengthAdjust="spacing" textLength="108.8008" x="369" y="1121.3857">code : INTEGER</text><ellipse cx="360" cy="1134.3359" fill="#000000" rx="3" ry="3" style="stroke:#000000;stroke-width:1;"/><text fill="#000000" font-family="sans-serif" font-size="14" lengthAdjust="spacing" textLength="138.5166" x="369" y="1137.6826">attempts : INTEGER</text></g><!--class sync_observs--><g id="elem_sync_observs"><rect codeLine="99" fill="#F1F1F1" height="129.4844" id="sync_observs" rx="2.5" ry="2.5" style="stroke:#181818;stroke-width:0.5;" width="193.3643" x="444" y="335"/><ellipse cx="489.5103" cy="351" fill="#ADD1B2" rx="11" ry="11" style="stroke:#181818;stroke-width:1;"/><path d="M493.6196,357 L485.9009,357 L485.9009,344.6094 L493.6196,344.6094 L493.6196,346.7656 L488.354,346.7656 L488.354,349.4375 L493.1196,349.4375 L493.1196,351.5938 L488.354,351.5938 L488.354,354.8438 L493.6196,354.8438 L493.6196,357 Z " fill="#000000"/><text fill="#000000" font-family="sans-serif" font-size="14" lengthAdjust="spacing" textLength="93.8438" x="510.0103" y="355.8467">sync_observs</text><line style="stroke:#181818;stroke-width:0.5;" x1="445" x2="636.3643" y1="367" y2="367"/><text fill="#000000" font-family="sans-serif" font-size="14" lengthAdjust="spacing" textLength="181.3643" x="450" y="383.9951">sync_observ_id : INTEGER</text><line style="stroke:#181818;stroke-width:1;" x1="445" x2="636.3643" y1="391.2969" y2="391.2969"/><ellipse cx="455" cy="404.9453" fill="#000000" rx="3" ry="3" style="stroke:#000000;stroke-width:1;"/><text fill="#000000" font-family="sans-serif" font-size="14" lengthAdjust="spacing" textLength="142.2148" x="464" y="408.292">observ_id : INTEGER</text><ellipse cx="455" cy="421.2422" fill="#000000" rx="3" ry="3" style="stroke:#000000;stroke-width:1;"/><text fill="#000000" font-family="sans-serif" font-size="14" lengthAdjust="spacing" textLength="124.6738" x="464" y="424.5889">timestamp : TEXT</text><ellipse cx="455" cy="437.5391" fill="#000000" rx="3" ry="3" style="stroke:#000000;stroke-width:1;"/><text fill="#000000" font-family="sans-serif" font-size="14" lengthAdjust="spacing" textLength="108.8008" x="464" y="440.8857">code : INTEGER</text><ellipse cx="455" cy="453.8359" fill="#000000" rx="3" ry="3" style="stroke:#000000;stroke-width:1;"/><text fill="#000000" font-family="sans-serif" font-size="14" lengthAdjust="spacing" textLength="138.5166" x="464" y="457.1826">attempts : INTEGER</text></g><!--class sync_sensors--><g id="elem_sync_sensors"><rect codeLine="108" fill="#F1F1F1" height="129.4844" id="sync_sensors" rx="2.5" ry="2.5" style="stroke:#181818;stroke-width:0.5;" width="192.3594" x="547.5" y="687.5"/><ellipse cx="593.0103" cy="703.5" fill="#ADD1B2" rx="11" ry="11" style="stroke:#181818;stroke-width:1;"/><path d="M597.1196,709.5 L589.4009,709.5 L589.4009,697.1094 L597.1196,697.1094 L597.1196,699.2656 L591.854,699.2656 L591.854,701.9375 L596.6196,701.9375 L596.6196,704.0938 L591.854,704.0938 L591.854,707.3438 L597.1196,707.3438 L597.1196,709.5 Z " fill="#000000"/><text fill="#000000" font-family="sans-serif" font-size="14" lengthAdjust="spacing" textLength="92.8389" x="613.5103" y="708.3467">sync_sensors</text><line style="stroke:#181818;stroke-width:0.5;" x1="548.5" x2="738.8594" y1="719.5" y2="719.5"/><text fill="#000000" font-family="sans-serif" font-size="14" lengthAdjust="spacing" textLength="180.3594" x="553.5" y="736.4951">sync_sensor_id : INTEGER</text><line style="stroke:#181818;stroke-width:1;" x1="548.5" x2="738.8594" y1="743.7969" y2="743.7969"/><ellipse cx="558.5" cy="757.4453" fill="#000000" rx="3" ry="3" style="stroke:#000000;stroke-width:1;"/><text fill="#000000" font-family="sans-serif" font-size="14" lengthAdjust="spacing" textLength="141.21" x="567.5" y="760.792">sensor_id : INTEGER</text><ellipse cx="558.5" cy="773.7422" fill="#000000" rx="3" ry="3" style="stroke:#000000;stroke-width:1;"/><text fill="#000000" font-family="sans-serif" font-size="14" lengthAdjust="spacing" textLength="124.6738" x="567.5" y="777.0889">timestamp : TEXT</text><ellipse cx="558.5" cy="790.0391" fill="#000000" rx="3" ry="3" style="stroke:#000000;stroke-width:1;"/><text fill="#000000" font-family="sans-serif" font-size="14" lengthAdjust="spacing" textLength="108.8008" x="567.5" y="793.3857">code : INTEGER</text><ellipse cx="558.5" cy="806.3359" fill="#000000" rx="3" ry="3" style="stroke:#000000;stroke-width:1;"/><text fill="#000000" font-family="sans-serif" font-size="14" lengthAdjust="spacing" textLength="138.5166" x="567.5" y="809.6826">attempts : INTEGER</text></g><!--class sync_targets--><g id="elem_sync_targets"><rect codeLine="117" fill="#F1F1F1" height="129.4844" id="sync_targets" rx="2.5" ry="2.5" style="stroke:#181818;stroke-width:0.5;" width="188.7773" x="7" y="687.5"/><ellipse cx="52.5103" cy="703.5" fill="#ADD1B2" rx="11" ry="11" style="stroke:#181818;stroke-width:1;"/><path d="M56.6196,709.5 L48.9009,709.5 L48.9009,697.1094 L56.6196,697.1094 L56.6196,699.2656 L51.354,699.2656 L51.354,701.9375 L56.1196,701.9375 L56.1196,704.0938 L51.354,704.0938 L51.354,707.3438 L56.6196,707.3438 L56.6196,709.5 Z " fill="#000000"/><text fill="#000000" font-family="sans-serif" font-size="14" lengthAdjust="spacing" textLength="89.2568" x="73.0103" y="708.3467">sync_targets</text><line style="stroke:#181818;stroke-width:0.5;" x1="8" x2="194.7773" y1="719.5" y2="719.5"/><text fill="#000000" font-family="sans-serif" font-size="14" lengthAdjust="spacing" textLength="176.7773" x="13" y="736.4951">sync_target_id : INTEGER</text><line style="stroke:#181818;stroke-width:1;" x1="8" x2="194.7773" y1="743.7969" y2="743.7969"/><ellipse cx="18" cy="757.4453" fill="#000000" rx="3" ry="3" style="stroke:#000000;stroke-width:1;"/><text fill="#000000" font-family="sans-serif" font-size="14" lengthAdjust="spacing" textLength="137.6279" x="27" y="760.792">target_id : INTEGER</text><ellipse cx="18" cy="773.7422" fill="#000000" rx="3" ry="3" style="stroke:#000000;stroke-width:1;"/><text fill="#000000" font-family="sans-serif" font-size="14" lengthAdjust="spacing" textLength="124.6738" x="27" y="777.0889">timestamp : TEXT</text><ellipse cx="18" cy="790.0391" fill="#000000" rx="3" ry="3" style="stroke:#000000;stroke-width:1;"/><text fill="#000000" font-family="sans-serif" font-size="14" lengthAdjust="spacing" textLength="108.8008" x="27" y="793.3857">code : INTEGER</text><ellipse cx="18" cy="806.3359" fill="#000000" rx="3" ry="3" style="stroke:#000000;stroke-width:1;"/><text fill="#000000" font-family="sans-serif" font-size="14" lengthAdjust="spacing" textLength="138.5166" x="27" y="809.6826">attempts : INTEGER</text></g><!--class targets--><g id="elem_targets"><rect codeLine="126" fill="#F1F1F1" height="227.2656" id="targets" rx="2.5" ry="2.5" style="stroke:#181818;stroke-width:0.5;" width="149.6279" x="70.5" y="966.5"/><ellipse cx="116.0103" cy="982.5" fill="#ADD1B2" rx="11" ry="11" style="stroke:#181818;stroke-width:1;"/><path d="M120.1196,988.5 L112.4009,988.5 L112.4009,976.1094 L120.1196,976.1094 L120.1196,978.2656 L114.854,978.2656 L114.854,980.9375 L119.6196,980.9375 L119.6196,983.0938 L114.854,983.0938 L114.854,986.3438 L120.1196,986.3438 L120.1196,988.5 Z " fill="#000000"/><text fill="#000000" font-family="sans-serif" font-size="14" lengthAdjust="spacing" textLength="50.1074" x="136.5103" y="987.3467">targets</text><line style="stroke:#181818;stroke-width:0.5;" x1="71.5" x2="219.1279" y1="998.5" y2="998.5"/><text fill="#000000" font-family="sans-serif" font-size="14" lengthAdjust="spacing" textLength="137.6279" x="76.5" y="1015.4951">target_id : INTEGER</text><line style="stroke:#181818;stroke-width:1;" x1="71.5" x2="219.1279" y1="1022.7969" y2="1022.7969"/><ellipse cx="81.5" cy="1036.4453" fill="#000000" rx="3" ry="3" style="stroke:#000000;stroke-width:1;"/><text fill="#000000" font-family="sans-serif" font-size="14" lengthAdjust="spacing" textLength="61.9336" x="90.5" y="1039.792">id : TEXT</text><text fill="#000000" font-family="sans-serif" font-size="14" lengthAdjust="spacing" textLength="88.8604" x="90.5" y="1056.0889">name : TEXT</text><text fill="#000000" font-family="sans-serif" font-size="14" lengthAdjust="spacing" textLength="85.4766" x="90.5" y="1072.3857">meta : TEXT</text><ellipse cx="81.5" cy="1085.3359" fill="#000000" rx="3" ry="3" style="stroke:#000000;stroke-width:1;"/><text fill="#000000" font-family="sans-serif" font-size="14" lengthAdjust="spacing" textLength="110.5029" x="90.5" y="1088.6826">state : INTEGER</text><ellipse cx="81.5" cy="1101.6328" fill="#000000" rx="3" ry="3" style="stroke:#000000;stroke-width:1;"/><text fill="#000000" font-family="sans-serif" font-size="14" lengthAdjust="spacing" textLength="57.8525" x="90.5" y="1104.9795">x : REAL</text><ellipse cx="81.5" cy="1117.9297" fill="#000000" rx="3" ry="3" style="stroke:#000000;stroke-width:1;"/><text fill="#000000" font-family="sans-serif" font-size="14" lengthAdjust="spacing" textLength="57.8525" x="90.5" y="1121.2764">y : REAL</text><ellipse cx="81.5" cy="1134.2266" fill="#000000" rx="3" ry="3" style="stroke:#000000;stroke-width:1;"/><text fill="#000000" font-family="sans-serif" font-size="14" lengthAdjust="spacing" textLength="56.916" x="90.5" y="1137.5732">z : REAL</text><ellipse cx="81.5" cy="1150.5234" fill="#000000" rx="3" ry="3" style="stroke:#000000;stroke-width:1;"/><text fill="#000000" font-family="sans-serif" font-size="14" lengthAdjust="spacing" textLength="70.8955" x="90.5" y="1153.8701">lon : REAL</text><ellipse cx="81.5" cy="1166.8203" fill="#000000" rx="3" ry="3" style="stroke:#000000;stroke-width:1;"/><text fill="#000000" font-family="sans-serif" font-size="14" lengthAdjust="spacing" textLength="67.5254" x="90.5" y="1170.167">lat : REAL</text><ellipse cx="81.5" cy="1183.1172" fill="#000000" rx="3" ry="3" style="stroke:#000000;stroke-width:1;"/><text fill="#000000" font-family="sans-serif" font-size="14" lengthAdjust="spacing" textLength="78.9688" x="90.5" y="1186.4639">elev : REAL</text></g><!--reverse link observs to targets--><g id="link_observs_targets"><path codeLine="141" d="M241.8814,897.3774 C228.4514,922.6974 218.31,941.79 205.32,966.28 " fill="none" id="observs-backto-targets" style="stroke:#181818;stroke-width:1;"/><line style="stroke:#181818;stroke-width:1;" x1="241.8814" x2="238.5626" y1="897.3774" y2="890.31"/><line style="stroke:#181818;stroke-width:1;" x1="241.8814" x2="252.6974" y1="897.3774" y2="890.31"/><line style="stroke:#181818;stroke-width:1;" x1="241.8814" x2="245.63" y1="897.3774" y2="890.31"/></g><!--reverse link observs to sensors--><g id="link_observs_sensors"><path codeLine="143" d="M411.9442,825.4406 C456.4742,861.6906 504.06,903.38 547.5,950 C553.49,956.43 559.47,963.24 565.33,970.22 " fill="none" id="observs-backto-sensors" style="stroke:#181818;stroke-width:1;"/><line style="stroke:#181818;stroke-width:1;" x1="411.9442" x2="405.74" y1="825.4406" y2="826.5942"/><line style="stroke:#181818;stroke-width:1;" x1="411.9442" x2="405.74" y1="825.4406" y2="814.1858"/><line style="stroke:#181818;stroke-width:1;" x1="411.9442" x2="405.74" y1="825.4406" y2="820.39"/></g><!--reverse link observs to nodes--><g id="link_observs_nodes"><path codeLine="145" d="M302.6761,898.1847 C296.9561,990.6647 298.88,1106.27 331.5,1210 C339.75,1236.24 353.49,1262.24 368.45,1285.56 " fill="none" id="observs-backto-nodes" style="stroke:#181818;stroke-width:1;"/><line style="stroke:#181818;stroke-width:1;" x1="302.6761" x2="295.1853" y1="898.1847" y2="890.2"/><line style="stroke:#181818;stroke-width:1;" x1="302.6761" x2="311.1547" y1="898.1847" y2="890.2"/><line style="stroke:#181818;stroke-width:1;" x1="302.6761" x2="303.17" y1="898.1847" y2="890.2"/></g><!--reverse link receivers to observs--><g id="link_receivers_observs"><path codeLine="147" d="M145.891,462.9029 C171.271,505.2729 203.26,558.66 236.22,613.68 " fill="none" id="receivers-backto-observs" style="stroke:#181818;stroke-width:1;"/><line style="stroke:#181818;stroke-width:1;" x1="145.891" x2="134.9171" y1="462.9029" y2="456.04"/><line style="stroke:#181818;stroke-width:1;" x1="145.891" x2="148.6429" y1="462.9029" y2="456.04"/><line style="stroke:#181818;stroke-width:1;" x1="145.891" x2="141.78" y1="462.9029" y2="456.04"/></g><!--reverse link requests to observs--><g id="link_requests_observs"><path codeLine="149" d="M318.5,562.23 C318.5,582.1 318.5,594.34 318.5,613.91 " fill="none" id="requests-backto-observs" style="stroke:#181818;stroke-width:1;"/><line style="stroke:#181818;stroke-width:1;" x1="318.5" x2="310.5" y1="562.23" y2="554.23"/><line style="stroke:#181818;stroke-width:1;" x1="318.5" x2="326.5" y1="562.23" y2="554.23"/><line style="stroke:#181818;stroke-width:1;" x1="318.5" x2="318.5" y1="562.23" y2="554.23"/></g><!--reverse link responses to requests--><g id="link_responses_requests"><path codeLine="151" d="M318.5,193.02 C318.5,211.88 318.5,224.33 318.5,244.85 " fill="none" id="responses-backto-requests" style="stroke:#181818;stroke-width:1;"/><line style="stroke:#181818;stroke-width:1;" x1="318.5" x2="310.5" y1="193.02" y2="185.02"/><line style="stroke:#181818;stroke-width:1;" x1="318.5" x2="326.5" y1="193.02" y2="185.02"/><line style="stroke:#181818;stroke-width:1;" x1="318.5" x2="318.5" y1="193.02" y2="185.02"/></g><!--reverse link sensors to nodes--><g id="link_sensors_nodes"><path codeLine="153" d="M560.6431,1200.2084 C542.6631,1226.0684 528.22,1246.86 510.56,1272.26 " fill="none" id="sensors-backto-nodes" style="stroke:#181818;stroke-width:1;"/><line style="stroke:#181818;stroke-width:1;" x1="560.6431" x2="565.21" y1="1200.2084" y2="1189.0731"/><line style="stroke:#181818;stroke-width:1;" x1="560.6431" x2="565.21" y1="1200.2084" y2="1198.2069"/><line style="stroke:#181818;stroke-width:1;" x1="560.6431" x2="565.21" y1="1200.2084" y2="1193.64"/></g><!--reverse link sync_nodes to nodes--><g id="link_sync_nodes_nodes"><path codeLine="155" d="M439.5,1152.69 C439.5,1189.27 439.5,1228.13 439.5,1269.97 " fill="none" id="sync_nodes-backto-nodes" style="stroke:#181818;stroke-width:1;"/><line style="stroke:#181818;stroke-width:1;" x1="439.5" x2="431.5" y1="1152.69" y2="1144.69"/><line style="stroke:#181818;stroke-width:1;" x1="439.5" x2="447.5" y1="1152.69" y2="1144.69"/><line style="stroke:#181818;stroke-width:1;" x1="439.5" x2="439.5" y1="1152.69" y2="1144.69"/></g><!--reverse link sync_observs to observs--><g id="link_sync_observs_observs"><path codeLine="157" d="M495.7594,471.1384 C469.3094,512.8984 438.01,562.31 405.36,613.86 " fill="none" id="sync_observs-backto-observs" style="stroke:#181818;stroke-width:1;"/><line style="stroke:#181818;stroke-width:1;" x1="495.7594" x2="493.2816" y1="471.1384" y2="464.38"/><line style="stroke:#181818;stroke-width:1;" x1="495.7594" x2="506.7984" y1="471.1384" y2="464.38"/><line style="stroke:#181818;stroke-width:1;" x1="495.7594" x2="500.04" y1="471.1384" y2="464.38"/></g><!--reverse link sync_sensors to sensors--><g id="link_sync_sensors_sensors"><path codeLine="159" d="M643.5,824.63 C643.5,862.52 643.5,904 643.5,949.77 " fill="none" id="sync_sensors-backto-sensors" style="stroke:#181818;stroke-width:1;"/><line style="stroke:#181818;stroke-width:1;" x1="643.5" x2="635.5" y1="824.63" y2="816.63"/><line style="stroke:#181818;stroke-width:1;" x1="643.5" x2="651.5" y1="824.63" y2="816.63"/><line style="stroke:#181818;stroke-width:1;" x1="643.5" x2="643.5" y1="824.63" y2="816.63"/></g><!--reverse link sync_targets to targets--><g id="link_sync_targets_targets"><path codeLine="161" d="M111.16,824.5581 C116.9,867.0881 123.54,916.27 130.3,966.36 " fill="none" id="sync_targets-backto-targets" style="stroke:#181818;stroke-width:1;"/><line style="stroke:#181818;stroke-width:1;" x1="111.16" x2="102.1619" y1="824.5581" y2="816.63"/><line style="stroke:#181818;stroke-width:1;" x1="111.16" x2="118.0181" y1="824.5581" y2="816.63"/><line style="stroke:#181818;stroke-width:1;" x1="111.16" x2="110.09" y1="824.5581" y2="816.63"/></g><!--SRC=[nLN1QeGm4Btx5PuN_87UUf1IA3qiU-XjiUvG0fhO9ChQPV-zYJ6RIKna5oozYEyPCszUPYP09P5ZJja9H7x9ykdjI4xvK_xwVYXVohtYYa8zTld47igFmuHerOB3BSWAVpqhi2-VtoOmOl23GSEe1ok98JGmM7pDCZ1QsQS0FXYrvZsXDvRABXT01UDBNbRy2-IINyjQ_KLQ4B9gEqSArlCQBJh1G6hlfuuJndKgVYJWdF60et2M8SMX1Z805yiFtxrIWtbdc_jB6sTHmhguhzgCSnWK6OA3pKfCh0bi6YhX_HmA4w9ZL7Z7qP2MIE2EwYgfCCLxgrNLFUVJgXeBA0wI4mWFHmcLuKgT0EiZvsiqfyxHVhsW_1Bc9gnVkkjxsrCYFQV73kumOwYQ7fODQphEw8rttsh3-WqOaU9h5_HVff8OQNrqO_G67qerKj6xl5wMcAxNjaiq-XGQ3qb4FDY3s-dnQi0H2Jt96RsP7ZFjaPxu-9_rfEw6JVHWAQigS2EitxwnOVCNjM-hx5eKDWsVd8_T9wSkoJ9t8MboNg3f-Ue8M3lrD6tNP9cjAxGlwiIGnIfkMtlrwOdsAWNb-0i0]--></g></svg>