<svg xmlns="http://www.w3.org/2000/svg" xmlns:xlink="http://www.w3.org/1999/xlink" contentStyleType="text/css" data-diagram-type="CLASS" height="1281px" preserveAspectRatio="none" style="width:826px;height:1281px;background:#FFFFFF;" version="1.1" viewBox="0 0 826 1281" width="826px" zoomAndPan="magnify"><defs/><g><!--class nodes--><g class="entity" data-entity="nodes" data-source-line="6" data-uid="ent0002" id="entity_nodes"><rect fill="#F1F1F1" height="210.9688" rx="2.5" ry="2.5" style="stroke:#181818;stroke-width:0.5;" width="189.2757" x="402.5" y="1064"/><ellipse cx="471.7716" cy="1080" fill="#FFFFFF" rx="11" ry="11" style="stroke:#181818;stroke-width:1;"/><path d="M472.6154,1086.75 L470.1623,1086.75 L470.1623,1076.5 L467.0216,1076.5 L467.0216,1074.3594 L475.756,1074.3594 L475.756,1076.5 L472.6154,1076.5 L472.6154,1086.75 Z " fill="#000000"/><text fill="#000000" font-family="sans-serif" font-size="14" lengthAdjust="spacing" textLength="42.2324" x="492.2716" y="1084.8467">nodes</text><line style="stroke:#181818;stroke-width:0.5;" x1="403.5" x2="590.7757" y1="1096" y2="1096"/><path d="M415.9167,1103.4635 C414.3067,1103.4635 413,1104.7702 413,1106.3802 C413,1106.5669 413,1106.7535 413.035,1106.9285 L409.5,1110.4635 L409.5,1112.7969 L413,1112.7969 L413,1110.4635 L415.3333,1110.4635 L415.3333,1109.2969 L415.3683,1109.2619 C415.5433,1109.2969 415.73,1109.2969 415.9167,1109.2969 C417.5267,1109.2969 418.8333,1107.9902 418.8333,1106.3802 C418.8333,1104.7702 417.5267,1103.4635 415.9167,1103.4635 M416.5,1104.6302 C417.1417,1104.6302 417.6667,1105.1552 417.6667,1105.7969 C417.6667,1106.4385 417.1417,1106.9635 416.5,1106.9635 C415.8583,1106.9635 415.3333,1106.4385 415.3333,1105.7969 C415.3333,1105.1552 415.8583,1104.6302 416.5,1104.6302" fill="#B8861B"/><text fill="#000000" font-family="sans-serif" font-size="14" font-weight="bold" lengthAdjust="spacing" textLength="51.2764" x="424.7074" y="1112.9951">row_id</text><text fill="#000000" font-family="sans-serif" font-size="14" lengthAdjust="spacing" textLength="109.792" x="475.9837" y="1112.9951">: INTEGER &#171;PK&#187;</text><line style="stroke:#181818;stroke-width:1;" x1="403.5" x2="590.7757" y1="1120.2969" y2="1120.2969"/><path d="M414.1667,1128.9271 C412.23,1128.9271 410.6667,1130.4904 410.6667,1132.4271 C410.6667,1134.3638 412.23,1135.9271 414.1667,1135.9271 C416.1033,1135.9271 417.6667,1134.3638 417.6667,1132.4271 C417.6667,1130.4904 416.1033,1128.9271 414.1667,1128.9271" fill="#EFEFEF"/><text fill="#000000" font-family="sans-serif" font-size="14" lengthAdjust="spacing" textLength="57.4834" x="424.2835" y="1137.292">id: TEXT</text><path d="M414.1667,1145.224 C412.23,1145.224 410.6667,1146.7873 410.6667,1148.724 C410.6667,1150.6606 412.23,1152.224 414.1667,1152.224 C416.1033,1152.224 417.6667,1150.6606 417.6667,1148.724 C417.6667,1146.7873 416.1033,1145.224 414.1667,1145.224" fill="#EFEFEF"/><text fill="#000000" font-family="sans-serif" font-size="14" lengthAdjust="spacing" textLength="84.4102" x="424.2835" y="1153.5889">name: TEXT</text><path d="M414.1667,1161.5208 C412.23,1161.5208 410.6667,1163.0842 410.6667,1165.0208 C410.6667,1166.9575 412.23,1168.5208 414.1667,1168.5208 C416.1033,1168.5208 417.6667,1166.9575 417.6667,1165.0208 C417.6667,1163.0842 416.1033,1161.5208 414.1667,1161.5208" fill="#EFEFEF"/><text fill="#000000" font-family="sans-serif" font-size="14" lengthAdjust="spacing" textLength="81.0264" x="424.2835" y="1169.8857">meta: TEXT</text><path d="M414.1667,1177.8177 C412.23,1177.8177 410.6667,1179.381 410.6667,1181.3177 C410.6667,1183.2544 412.23,1184.8177 414.1667,1184.8177 C416.1033,1184.8177 417.6667,1183.2544 417.6667,1181.3177 C417.6667,1179.381 416.1033,1177.8177 414.1667,1177.8177" fill="#EFEFEF"/><text fill="#000000" font-family="sans-serif" font-size="14" lengthAdjust="spacing" textLength="53.4023" x="424.2835" y="1186.1826">x: REAL</text><path d="M414.1667,1194.1146 C412.23,1194.1146 410.6667,1195.6779 410.6667,1197.6146 C410.6667,1199.5513 412.23,1201.1146 414.1667,1201.1146 C416.1033,1201.1146 417.6667,1199.5513 417.6667,1197.6146 C417.6667,1195.6779 416.1033,1194.1146 414.1667,1194.1146" fill="#EFEFEF"/><text fill="#000000" font-family="sans-serif" font-size="14" lengthAdjust="spacing" textLength="53.4023" x="424.2835" y="1202.4795">y: REAL</text><path d="M414.1667,1210.4115 C412.23,1210.4115 410.6667,1211.9748 410.6667,1213.9115 C410.6667,1215.8481 412.23,1217.4115 414.1667,1217.4115 C416.1033,1217.4115 417.6667,1215.8481 417.6667,1213.9115 C417.6667,1211.9748 416.1033,1210.4115 414.1667,1210.4115" fill="#EFEFEF"/><text fill="#000000" font-family="sans-serif" font-size="14" lengthAdjust="spacing" textLength="52.4658" x="424.2835" y="1218.7764">z: REAL</text><path d="M414.1667,1226.7083 C412.23,1226.7083 410.6667,1228.2717 410.6667,1230.2083 C410.6667,1232.145 412.23,1233.7083 414.1667,1233.7083 C416.1033,1233.7083 417.6667,1232.145 417.6667,1230.2083 C417.6667,1228.2717 416.1033,1226.7083 414.1667,1226.7083" fill="#EFEFEF"/><text fill="#000000" font-family="sans-serif" font-size="14" lengthAdjust="spacing" textLength="111.084" x="424.2835" y="1235.0732">longitude: REAL</text><path d="M414.1667,1243.0052 C412.23,1243.0052 410.6667,1244.5685 410.6667,1246.5052 C410.6667,1248.4419 412.23,1250.0052 414.1667,1250.0052 C416.1033,1250.0052 417.6667,1248.4419 417.6667,1246.5052 C417.6667,1244.5685 416.1033,1243.0052 414.1667,1243.0052" fill="#EFEFEF"/><text fill="#000000" font-family="sans-serif" font-size="14" lengthAdjust="spacing" textLength="98.8271" x="424.2835" y="1251.3701">latitude: REAL</text><path d="M414.1667,1259.3021 C412.23,1259.3021 410.6667,1260.8654 410.6667,1262.8021 C410.6667,1264.7388 412.23,1266.3021 414.1667,1266.3021 C416.1033,1266.3021 417.6667,1264.7388 417.6667,1262.8021 C417.6667,1260.8654 416.1033,1259.3021 414.1667,1259.3021" fill="#EFEFEF"/><text fill="#000000" font-family="sans-serif" font-size="14" lengthAdjust="spacing" textLength="109.915" x="424.2835" y="1267.667">elevation: REAL</text></g><!--class sensors--><g class="entity" data-entity="sensors" data-source-line="20" data-uid="ent0003" id="entity_sensors"><rect fill="#F1F1F1" height="259.8594" rx="2.5" ry="2.5" style="stroke:#181818;stroke-width:0.5;" width="191.9007" x="401" y="744"/><ellipse cx="465.8556" cy="760" fill="#FFFFFF" rx="11" ry="11" style="stroke:#181818;stroke-width:1;"/><path d="M466.6994,766.75 L464.2463,766.75 L464.2463,756.5 L461.1056,756.5 L461.1056,754.3594 L469.84,754.3594 L469.84,756.5 L466.6994,756.5 L466.6994,766.75 Z " fill="#000000"/><text fill="#000000" font-family="sans-serif" font-size="14" lengthAdjust="spacing" textLength="53.6895" x="486.3556" y="764.8467">sensors</text><line style="stroke:#181818;stroke-width:0.5;" x1="402" x2="591.9007" y1="776" y2="776"/><path d="M414.4167,783.4635 C412.8067,783.4635 411.5,784.7702 411.5,786.3802 C411.5,786.5669 411.5,786.7535 411.535,786.9285 L408,790.4635 L408,792.7969 L411.5,792.7969 L411.5,790.4635 L413.8333,790.4635 L413.8333,789.2969 L413.8683,789.2619 C414.0433,789.2969 414.23,789.2969 414.4167,789.2969 C416.0267,789.2969 417.3333,787.9902 417.3333,786.3802 C417.3333,784.7702 416.0267,783.4635 414.4167,783.4635 M415,784.6302 C415.6417,784.6302 416.1667,785.1552 416.1667,785.7969 C416.1667,786.4385 415.6417,786.9635 415,786.9635 C414.3583,786.9635 413.8333,786.4385 413.8333,785.7969 C413.8333,785.1552 414.3583,784.6302 415,784.6302" fill="#B8861B"/><text fill="#000000" font-family="sans-serif" font-size="14" font-weight="bold" lengthAdjust="spacing" textLength="51.2764" x="423.2074" y="792.9951">row_id</text><text fill="#000000" font-family="sans-serif" font-size="14" lengthAdjust="spacing" textLength="109.792" x="474.4837" y="792.9951">: INTEGER &#171;PK&#187;</text><line style="stroke:#181818;stroke-width:1;" x1="402" x2="591.9007" y1="800.2969" y2="800.2969"/><path d="M414.4167,807.7604 C412.8067,807.7604 411.5,809.0671 411.5,810.6771 C411.5,810.8638 411.5,811.0504 411.535,811.2254 L408,814.7604 L408,817.0938 L411.5,817.0938 L411.5,814.7604 L413.8333,814.7604 L413.8333,813.5938 L413.8683,813.5587 C414.0433,813.5938 414.23,813.5938 414.4167,813.5938 C416.0267,813.5938 417.3333,812.2871 417.3333,810.6771 C417.3333,809.0671 416.0267,807.7604 414.4167,807.7604 M415,808.9271 C415.6417,808.9271 416.1667,809.4521 416.1667,810.0938 C416.1667,810.7354 415.6417,811.2604 415,811.2604 C414.3583,811.2604 413.8333,810.7354 413.8333,810.0938 C413.8333,809.4521 414.3583,808.9271 415,808.9271" fill="#AAAAAA"/><text fill="#000000" font-family="sans-serif" font-size="14" lengthAdjust="spacing" textLength="164.1172" x="422.7835" y="817.292">node_id: INTEGER &#171;FK&#187;</text><path d="M412.6667,825.224 C410.73,825.224 409.1667,826.7873 409.1667,828.724 C409.1667,830.6606 410.73,832.224 412.6667,832.224 C414.6033,832.224 416.1667,830.6606 416.1667,828.724 C416.1667,826.7873 414.6033,825.224 412.6667,825.224" fill="#EFEFEF"/><text fill="#000000" font-family="sans-serif" font-size="14" lengthAdjust="spacing" textLength="57.4834" x="422.7835" y="833.5889">id: TEXT</text><path d="M412.6667,841.5208 C410.73,841.5208 409.1667,843.0842 409.1667,845.0208 C409.1667,846.9575 410.73,848.5208 412.6667,848.5208 C414.6033,848.5208 416.1667,846.9575 416.1667,845.0208 C416.1667,843.0842 414.6033,841.5208 412.6667,841.5208" fill="#EFEFEF"/><text fill="#000000" font-family="sans-serif" font-size="14" lengthAdjust="spacing" textLength="101.8623" x="422.7835" y="849.8857">type: INTEGER</text><path d="M412.6667,857.8177 C410.73,857.8177 409.1667,859.381 409.1667,861.3177 C409.1667,863.2544 410.73,864.8177 412.6667,864.8177 C414.6033,864.8177 416.1667,863.2544 416.1667,861.3177 C416.1667,859.381 414.6033,857.8177 412.6667,857.8177" fill="#EFEFEF"/><text fill="#000000" font-family="sans-serif" font-size="14" lengthAdjust="spacing" textLength="84.4102" x="422.7835" y="866.1826">name: TEXT</text><path d="M412.6667,874.1146 C410.73,874.1146 409.1667,875.6779 409.1667,877.6146 C409.1667,879.5513 410.73,881.1146 412.6667,881.1146 C414.6033,881.1146 416.1667,879.5513 416.1667,877.6146 C416.1667,875.6779 414.6033,874.1146 412.6667,874.1146" fill="#EFEFEF"/><text fill="#000000" font-family="sans-serif" font-size="14" lengthAdjust="spacing" textLength="60.874" x="422.7835" y="882.4795">sn: TEXT</text><path d="M412.6667,890.4115 C410.73,890.4115 409.1667,891.9748 409.1667,893.9115 C409.1667,895.8481 410.73,897.4115 412.6667,897.4115 C414.6033,897.4115 416.1667,895.8481 416.1667,893.9115 C416.1667,891.9748 414.6033,890.4115 412.6667,890.4115" fill="#EFEFEF"/><text fill="#000000" font-family="sans-serif" font-size="14" lengthAdjust="spacing" textLength="81.0264" x="422.7835" y="898.7764">meta: TEXT</text><path d="M412.6667,906.7083 C410.73,906.7083 409.1667,908.2717 409.1667,910.2083 C409.1667,912.145 410.73,913.7083 412.6667,913.7083 C414.6033,913.7083 416.1667,912.145 416.1667,910.2083 C416.1667,908.2717 414.6033,906.7083 412.6667,906.7083" fill="#EFEFEF"/><text fill="#000000" font-family="sans-serif" font-size="14" lengthAdjust="spacing" textLength="53.4023" x="422.7835" y="915.0732">x: REAL</text><path d="M412.6667,923.0052 C410.73,923.0052 409.1667,924.5685 409.1667,926.5052 C409.1667,928.4419 410.73,930.0052 412.6667,930.0052 C414.6033,930.0052 416.1667,928.4419 416.1667,926.5052 C416.1667,924.5685 414.6033,923.0052 412.6667,923.0052" fill="#EFEFEF"/><text fill="#000000" font-family="sans-serif" font-size="14" lengthAdjust="spacing" textLength="53.4023" x="422.7835" y="931.3701">y: REAL</text><path d="M412.6667,939.3021 C410.73,939.3021 409.1667,940.8654 409.1667,942.8021 C409.1667,944.7388 410.73,946.3021 412.6667,946.3021 C414.6033,946.3021 416.1667,944.7388 416.1667,942.8021 C416.1667,940.8654 414.6033,939.3021 412.6667,939.3021" fill="#EFEFEF"/><text fill="#000000" font-family="sans-serif" font-size="14" lengthAdjust="spacing" textLength="52.4658" x="422.7835" y="947.667">z: REAL</text><path d="M412.6667,955.599 C410.73,955.599 409.1667,957.1623 409.1667,959.099 C409.1667,961.0356 410.73,962.599 412.6667,962.599 C414.6033,962.599 416.1667,961.0356 416.1667,959.099 C416.1667,957.1623 414.6033,955.599 412.6667,955.599" fill="#EFEFEF"/><text fill="#000000" font-family="sans-serif" font-size="14" lengthAdjust="spacing" textLength="111.084" x="422.7835" y="963.9639">longitude: REAL</text><path d="M412.6667,971.8958 C410.73,971.8958 409.1667,973.4592 409.1667,975.3958 C409.1667,977.3325 410.73,978.8958 412.6667,978.8958 C414.6033,978.8958 416.1667,977.3325 416.1667,975.3958 C416.1667,973.4592 414.6033,971.8958 412.6667,971.8958" fill="#EFEFEF"/><text fill="#000000" font-family="sans-serif" font-size="14" lengthAdjust="spacing" textLength="98.8271" x="422.7835" y="980.2607">latitude: REAL</text><path d="M412.6667,988.1927 C410.73,988.1927 409.1667,989.756 409.1667,991.6927 C409.1667,993.6294 410.73,995.1927 412.6667,995.1927 C414.6033,995.1927 416.1667,993.6294 416.1667,991.6927 C416.1667,989.756 414.6033,988.1927 412.6667,988.1927" fill="#EFEFEF"/><text fill="#000000" font-family="sans-serif" font-size="14" lengthAdjust="spacing" textLength="109.915" x="422.7835" y="996.5576">elevation: REAL</text></g><!--class targets--><g class="entity" data-entity="targets" data-source-line="37" data-uid="ent0004" id="entity_targets"><rect fill="#F1F1F1" height="227.2656" rx="2.5" ry="2.5" style="stroke:#181818;stroke-width:0.5;" width="189.2757" x="61.5" y="760.5"/><ellipse cx="126.8341" cy="776.5" fill="#FFFFFF" rx="11" ry="11" style="stroke:#181818;stroke-width:1;"/><path d="M127.6779,783.25 L125.2248,783.25 L125.2248,773 L122.0841,773 L122.0841,770.8594 L130.8185,770.8594 L130.8185,773 L127.6779,773 L127.6779,783.25 Z " fill="#000000"/><text fill="#000000" font-family="sans-serif" font-size="14" lengthAdjust="spacing" textLength="50.1074" x="147.3341" y="781.3467">targets</text><line style="stroke:#181818;stroke-width:0.5;" x1="62.5" x2="249.7757" y1="792.5" y2="792.5"/><path d="M74.9167,799.9635 C73.3067,799.9635 72,801.2702 72,802.8802 C72,803.0669 72,803.2535 72.035,803.4285 L68.5,806.9635 L68.5,809.2969 L72,809.2969 L72,806.9635 L74.3333,806.9635 L74.3333,805.7969 L74.3683,805.7619 C74.5433,805.7969 74.73,805.7969 74.9167,805.7969 C76.5267,805.7969 77.8333,804.4902 77.8333,802.8802 C77.8333,801.2702 76.5267,799.9635 74.9167,799.9635 M75.5,801.1302 C76.1417,801.1302 76.6667,801.6552 76.6667,802.2969 C76.6667,802.9385 76.1417,803.4635 75.5,803.4635 C74.8583,803.4635 74.3333,802.9385 74.3333,802.2969 C74.3333,801.6552 74.8583,801.1302 75.5,801.1302" fill="#B8861B"/><text fill="#000000" font-family="sans-serif" font-size="14" font-weight="bold" lengthAdjust="spacing" textLength="51.2764" x="83.7074" y="809.4951">row_id</text><text fill="#000000" font-family="sans-serif" font-size="14" lengthAdjust="spacing" textLength="109.792" x="134.9837" y="809.4951">: INTEGER &#171;PK&#187;</text><line style="stroke:#181818;stroke-width:1;" x1="62.5" x2="249.7757" y1="816.7969" y2="816.7969"/><path d="M73.1667,825.4271 C71.23,825.4271 69.6667,826.9904 69.6667,828.9271 C69.6667,830.8638 71.23,832.4271 73.1667,832.4271 C75.1033,832.4271 76.6667,830.8638 76.6667,828.9271 C76.6667,826.9904 75.1033,825.4271 73.1667,825.4271" fill="#EFEFEF"/><text fill="#000000" font-family="sans-serif" font-size="14" lengthAdjust="spacing" textLength="57.4834" x="83.2835" y="833.792">id: TEXT</text><path d="M73.1667,841.724 C71.23,841.724 69.6667,843.2873 69.6667,845.224 C69.6667,847.1606 71.23,848.724 73.1667,848.724 C75.1033,848.724 76.6667,847.1606 76.6667,845.224 C76.6667,843.2873 75.1033,841.724 73.1667,841.724" fill="#EFEFEF"/><text fill="#000000" font-family="sans-serif" font-size="14" lengthAdjust="spacing" textLength="84.4102" x="83.2835" y="850.0889">name: TEXT</text><path d="M73.1667,858.0208 C71.23,858.0208 69.6667,859.5842 69.6667,861.5208 C69.6667,863.4575 71.23,865.0208 73.1667,865.0208 C75.1033,865.0208 76.6667,863.4575 76.6667,861.5208 C76.6667,859.5842 75.1033,858.0208 73.1667,858.0208" fill="#EFEFEF"/><text fill="#000000" font-family="sans-serif" font-size="14" lengthAdjust="spacing" textLength="81.0264" x="83.2835" y="866.3857">meta: TEXT</text><path d="M73.1667,874.3177 C71.23,874.3177 69.6667,875.881 69.6667,877.8177 C69.6667,879.7544 71.23,881.3177 73.1667,881.3177 C75.1033,881.3177 76.6667,879.7544 76.6667,877.8177 C76.6667,875.881 75.1033,874.3177 73.1667,874.3177" fill="#EFEFEF"/><text fill="#000000" font-family="sans-serif" font-size="14" lengthAdjust="spacing" textLength="106.0527" x="83.2835" y="882.6826">state: INTEGER</text><path d="M73.1667,890.6146 C71.23,890.6146 69.6667,892.1779 69.6667,894.1146 C69.6667,896.0513 71.23,897.6146 73.1667,897.6146 C75.1033,897.6146 76.6667,896.0513 76.6667,894.1146 C76.6667,892.1779 75.1033,890.6146 73.1667,890.6146" fill="#EFEFEF"/><text fill="#000000" font-family="sans-serif" font-size="14" lengthAdjust="spacing" textLength="53.4023" x="83.2835" y="898.9795">x: REAL</text><path d="M73.1667,906.9115 C71.23,906.9115 69.6667,908.4748 69.6667,910.4115 C69.6667,912.3481 71.23,913.9115 73.1667,913.9115 C75.1033,913.9115 76.6667,912.3481 76.6667,910.4115 C76.6667,908.4748 75.1033,906.9115 73.1667,906.9115" fill="#EFEFEF"/><text fill="#000000" font-family="sans-serif" font-size="14" lengthAdjust="spacing" textLength="53.4023" x="83.2835" y="915.2764">y: REAL</text><path d="M73.1667,923.2083 C71.23,923.2083 69.6667,924.7717 69.6667,926.7083 C69.6667,928.645 71.23,930.2083 73.1667,930.2083 C75.1033,930.2083 76.6667,928.645 76.6667,926.7083 C76.6667,924.7717 75.1033,923.2083 73.1667,923.2083" fill="#EFEFEF"/><text fill="#000000" font-family="sans-serif" font-size="14" lengthAdjust="spacing" textLength="52.4658" x="83.2835" y="931.5732">z: REAL</text><path d="M73.1667,939.5052 C71.23,939.5052 69.6667,941.0685 69.6667,943.0052 C69.6667,944.9419 71.23,946.5052 73.1667,946.5052 C75.1033,946.5052 76.6667,944.9419 76.6667,943.0052 C76.6667,941.0685 75.1033,939.5052 73.1667,939.5052" fill="#EFEFEF"/><text fill="#000000" font-family="sans-serif" font-size="14" lengthAdjust="spacing" textLength="111.084" x="83.2835" y="947.8701">longitude: REAL</text><path d="M73.1667,955.8021 C71.23,955.8021 69.6667,957.3654 69.6667,959.3021 C69.6667,961.2388 71.23,962.8021 73.1667,962.8021 C75.1033,962.8021 76.6667,961.2388 76.6667,959.3021 C76.6667,957.3654 75.1033,955.8021 73.1667,955.8021" fill="#EFEFEF"/><text fill="#000000" font-family="sans-serif" font-size="14" lengthAdjust="spacing" textLength="98.8271" x="83.2835" y="964.167">latitude: REAL</text><path d="M73.1667,972.099 C71.23,972.099 69.6667,973.6623 69.6667,975.599 C69.6667,977.5356 71.23,979.099 73.1667,979.099 C75.1033,979.099 76.6667,977.5356 76.6667,975.599 C76.6667,973.6623 75.1033,972.099 73.1667,972.099" fill="#EFEFEF"/><text fill="#000000" font-family="sans-serif" font-size="14" lengthAdjust="spacing" textLength="109.915" x="83.2835" y="980.4639">elevation: REAL</text></g><!--class receivers--><g class="entity" data-entity="receivers" data-source-line="52" data-uid="ent0005" id="entity_receivers"><rect fill="#F1F1F1" height="113.1875" rx="2.5" ry="2.5" style="stroke:#181818;stroke-width:0.5;" width="204.3626" x="7" y="39.5"/><ellipse cx="72.6725" cy="55.5" fill="#FFFFFF" rx="11" ry="11" style="stroke:#181818;stroke-width:1;"/><path d="M73.5163,62.25 L71.0632,62.25 L71.0632,52 L67.9225,52 L67.9225,49.8594 L76.6569,49.8594 L76.6569,52 L73.5163,52 L73.5163,62.25 Z " fill="#000000"/><text fill="#000000" font-family="sans-serif" font-size="14" lengthAdjust="spacing" textLength="64.5176" x="93.1725" y="60.3467">receivers</text><line style="stroke:#181818;stroke-width:0.5;" x1="8" x2="210.3626" y1="71.5" y2="71.5"/><path d="M20.4167,78.9635 C18.8067,78.9635 17.5,80.2702 17.5,81.8802 C17.5,82.0669 17.5,82.2535 17.535,82.4285 L14,85.9635 L14,88.2969 L17.5,88.2969 L17.5,85.9635 L19.8333,85.9635 L19.8333,84.7969 L19.8683,84.7619 C20.0433,84.7969 20.23,84.7969 20.4167,84.7969 C22.0267,84.7969 23.3333,83.4902 23.3333,81.8802 C23.3333,80.2702 22.0267,78.9635 20.4167,78.9635 M21,80.1302 C21.6417,80.1302 22.1667,80.6552 22.1667,81.2969 C22.1667,81.9385 21.6417,82.4635 21,82.4635 C20.3583,82.4635 19.8333,81.9385 19.8333,81.2969 C19.8333,80.6552 20.3583,80.1302 21,80.1302" fill="#B8861B"/><text fill="#000000" font-family="sans-serif" font-size="14" font-weight="bold" lengthAdjust="spacing" textLength="51.2764" x="29.2074" y="88.4951">row_id</text><text fill="#000000" font-family="sans-serif" font-size="14" lengthAdjust="spacing" textLength="109.792" x="80.4837" y="88.4951">: INTEGER &#171;PK&#187;</text><line style="stroke:#181818;stroke-width:1;" x1="8" x2="210.3626" y1="95.7969" y2="95.7969"/><path d="M20.4167,103.2604 C18.8067,103.2604 17.5,104.5671 17.5,106.1771 C17.5,106.3638 17.5,106.5504 17.535,106.7254 L14,110.2604 L14,112.5937 L17.5,112.5937 L17.5,110.2604 L19.8333,110.2604 L19.8333,109.0937 L19.8683,109.0587 C20.0433,109.0937 20.23,109.0937 20.4167,109.0937 C22.0267,109.0937 23.3333,107.7871 23.3333,106.1771 C23.3333,104.5671 22.0267,103.2604 20.4167,103.2604 M21,104.4271 C21.6417,104.4271 22.1667,104.9521 22.1667,105.5937 C22.1667,106.2354 21.6417,106.7604 21,106.7604 C20.3583,106.7604 19.8333,106.2354 19.8333,105.5937 C19.8333,104.9521 20.3583,104.4271 21,104.4271" fill="#AAAAAA"/><text fill="#000000" font-family="sans-serif" font-size="14" lengthAdjust="spacing" textLength="176.5791" x="28.7835" y="112.792">observ_id: INTEGER &#171;FK&#187;</text><path d="M18.6667,120.724 C16.73,120.724 15.1667,122.2873 15.1667,124.224 C15.1667,126.1606 16.73,127.724 18.6667,127.724 C20.6033,127.724 22.1667,126.1606 22.1667,124.224 C22.1667,122.2873 20.6033,120.724 18.6667,120.724" fill="#EFEFEF"/><text fill="#000000" font-family="sans-serif" font-size="14" lengthAdjust="spacing" textLength="91.6494" x="28.7835" y="129.0889">idx: INTEGER</text><path d="M18.6667,137.0208 C16.73,137.0208 15.1667,138.5842 15.1667,140.5208 C15.1667,142.4575 16.73,144.0208 18.6667,144.0208 C20.6033,144.0208 22.1667,142.4575 22.1667,140.5208 C22.1667,138.5842 20.6033,137.0208 18.6667,137.0208" fill="#EFEFEF"/><text fill="#000000" font-family="sans-serif" font-size="14" lengthAdjust="spacing" textLength="84.4102" x="28.7835" y="145.3857">name: TEXT</text></g><!--class responses--><g class="entity" data-entity="responses" data-source-line="60" data-uid="ent0006" id="entity_responses"><rect fill="#F1F1F1" height="178.375" rx="2.5" ry="2.5" style="stroke:#181818;stroke-width:0.5;" width="204.3626" x="246" y="7"/><ellipse cx="308.3366" cy="23" fill="#FFFFFF" rx="11" ry="11" style="stroke:#181818;stroke-width:1;"/><path d="M309.1803,29.75 L306.7272,29.75 L306.7272,19.5 L303.5866,19.5 L303.5866,17.3594 L312.321,17.3594 L312.321,19.5 L309.1803,19.5 L309.1803,29.75 Z " fill="#000000"/><text fill="#000000" font-family="sans-serif" font-size="14" lengthAdjust="spacing" textLength="71.1895" x="328.8366" y="27.8467">responses</text><line style="stroke:#181818;stroke-width:0.5;" x1="247" x2="449.3626" y1="39" y2="39"/><path d="M259.4167,46.4635 C257.8067,46.4635 256.5,47.7702 256.5,49.3802 C256.5,49.5669 256.5,49.7535 256.535,49.9285 L253,53.4635 L253,55.7969 L256.5,55.7969 L256.5,53.4635 L258.8333,53.4635 L258.8333,52.2969 L258.8683,52.2619 C259.0433,52.2969 259.23,52.2969 259.4167,52.2969 C261.0267,52.2969 262.3333,50.9902 262.3333,49.3802 C262.3333,47.7702 261.0267,46.4635 259.4167,46.4635 M260,47.6302 C260.6417,47.6302 261.1667,48.1552 261.1667,48.7969 C261.1667,49.4385 260.6417,49.9635 260,49.9635 C259.3583,49.9635 258.8333,49.4385 258.8333,48.7969 C258.8333,48.1552 259.3583,47.6302 260,47.6302" fill="#B8861B"/><text fill="#000000" font-family="sans-serif" font-size="14" font-weight="bold" lengthAdjust="spacing" textLength="51.2764" x="268.2074" y="55.9951">row_id</text><text fill="#000000" font-family="sans-serif" font-size="14" lengthAdjust="spacing" textLength="109.792" x="319.4837" y="55.9951">: INTEGER &#171;PK&#187;</text><line style="stroke:#181818;stroke-width:1;" x1="247" x2="449.3626" y1="63.2969" y2="63.2969"/><path d="M259.4167,70.7604 C257.8067,70.7604 256.5,72.0671 256.5,73.6771 C256.5,73.8638 256.5,74.0504 256.535,74.2254 L253,77.7604 L253,80.0937 L256.5,80.0937 L256.5,77.7604 L258.8333,77.7604 L258.8333,76.5937 L258.8683,76.5587 C259.0433,76.5937 259.23,76.5937 259.4167,76.5937 C261.0267,76.5937 262.3333,75.2871 262.3333,73.6771 C262.3333,72.0671 261.0267,70.7604 259.4167,70.7604 M260,71.9271 C260.6417,71.9271 261.1667,72.4521 261.1667,73.0937 C261.1667,73.7354 260.6417,74.2604 260,74.2604 C259.3583,74.2604 258.8333,73.7354 258.8333,73.0937 C258.8333,72.4521 259.3583,71.9271 260,71.9271" fill="#AAAAAA"/><text fill="#000000" font-family="sans-serif" font-size="14" lengthAdjust="spacing" textLength="176.5791" x="267.7835" y="80.292">observ_id: INTEGER &#171;FK&#187;</text><path d="M257.6667,88.224 C255.73,88.224 254.1667,89.7873 254.1667,91.724 C254.1667,93.6606 255.73,95.224 257.6667,95.224 C259.6033,95.224 261.1667,93.6606 261.1667,91.724 C261.1667,89.7873 259.6033,88.224 257.6667,88.224" fill="#EFEFEF"/><text fill="#000000" font-family="sans-serif" font-size="14" lengthAdjust="spacing" textLength="91.6494" x="267.7835" y="96.5889">idx: INTEGER</text><path d="M257.6667,104.5208 C255.73,104.5208 254.1667,106.0842 254.1667,108.0208 C254.1667,109.9575 255.73,111.5208 257.6667,111.5208 C259.6033,111.5208 261.1667,109.9575 261.1667,108.0208 C261.1667,106.0842 259.6033,104.5208 257.6667,104.5208" fill="#EFEFEF"/><text fill="#000000" font-family="sans-serif" font-size="14" lengthAdjust="spacing" textLength="84.4102" x="267.7835" y="112.8857">name: TEXT</text><path d="M257.6667,120.8177 C255.73,120.8177 254.1667,122.381 254.1667,124.3177 C254.1667,126.2544 255.73,127.8177 257.6667,127.8177 C259.6033,127.8177 261.1667,126.2544 261.1667,124.3177 C261.1667,122.381 259.6033,120.8177 257.6667,120.8177" fill="#EFEFEF"/><text fill="#000000" font-family="sans-serif" font-size="14" lengthAdjust="spacing" textLength="71.832" x="267.7835" y="129.1826">unit: TEXT</text><path d="M257.6667,137.1146 C255.73,137.1146 254.1667,138.6779 254.1667,140.6146 C254.1667,142.5512 255.73,144.1146 257.6667,144.1146 C259.6033,144.1146 261.1667,142.5512 261.1667,140.6146 C261.1667,138.6779 259.6033,137.1146 257.6667,137.1146" fill="#EFEFEF"/><text fill="#000000" font-family="sans-serif" font-size="14" lengthAdjust="spacing" textLength="101.8623" x="267.7835" y="145.4795">type: INTEGER</text><path d="M257.6667,153.4115 C255.73,153.4115 254.1667,154.9748 254.1667,156.9115 C254.1667,158.8481 255.73,160.4115 257.6667,160.4115 C259.6033,160.4115 261.1667,158.8481 261.1667,156.9115 C261.1667,154.9748 259.6033,153.4115 257.6667,153.4115" fill="#EFEFEF"/><text fill="#000000" font-family="sans-serif" font-size="14" lengthAdjust="spacing" textLength="105.0342" x="267.7835" y="161.7764">error: INTEGER</text><path d="M257.6667,169.7083 C255.73,169.7083 254.1667,171.2717 254.1667,173.2083 C254.1667,175.145 255.73,176.7083 257.6667,176.7083 C259.6033,176.7083 261.1667,175.145 261.1667,173.2083 C261.1667,171.2717 259.6033,169.7083 257.6667,169.7083" fill="#EFEFEF"/><text fill="#000000" font-family="sans-serif" font-size="14" lengthAdjust="spacing" textLength="83.3574" x="267.7835" y="178.0732">value: REAL</text></g><!--class observs--><g class="entity" data-entity="observs" data-source-line="72" data-uid="ent0007" id="entity_observs"><rect fill="#F1F1F1" height="439.125" rx="2.5" ry="2.5" style="stroke:#181818;stroke-width:0.5;" width="203.3577" x="246.5" y="245"/><ellipse cx="316.5817" cy="261" fill="#FFFFFF" rx="11" ry="11" style="stroke:#181818;stroke-width:1;"/><path d="M317.4255,267.75 L314.9723,267.75 L314.9723,257.5 L311.8317,257.5 L311.8317,255.3594 L320.5661,255.3594 L320.5661,257.5 L317.4255,257.5 L317.4255,267.75 Z " fill="#000000"/><text fill="#000000" font-family="sans-serif" font-size="14" lengthAdjust="spacing" textLength="54.6943" x="337.0817" y="265.8467">observs</text><line style="stroke:#181818;stroke-width:0.5;" x1="247.5" x2="448.8577" y1="277" y2="277"/><path d="M259.9167,284.4635 C258.3067,284.4635 257,285.7702 257,287.3802 C257,287.5669 257,287.7535 257.035,287.9285 L253.5,291.4635 L253.5,293.7969 L257,293.7969 L257,291.4635 L259.3333,291.4635 L259.3333,290.2969 L259.3683,290.2619 C259.5433,290.2969 259.73,290.2969 259.9167,290.2969 C261.5267,290.2969 262.8333,288.9902 262.8333,287.3802 C262.8333,285.7702 261.5267,284.4635 259.9167,284.4635 M260.5,285.6302 C261.1417,285.6302 261.6667,286.1552 261.6667,286.7969 C261.6667,287.4385 261.1417,287.9635 260.5,287.9635 C259.8583,287.9635 259.3333,287.4385 259.3333,286.7969 C259.3333,286.1552 259.8583,285.6302 260.5,285.6302" fill="#B8861B"/><text fill="#000000" font-family="sans-serif" font-size="14" font-weight="bold" lengthAdjust="spacing" textLength="51.2764" x="268.7074" y="293.9951">row_id</text><text fill="#000000" font-family="sans-serif" font-size="14" lengthAdjust="spacing" textLength="109.792" x="319.9837" y="293.9951">: INTEGER &#171;PK&#187;</text><line style="stroke:#181818;stroke-width:1;" x1="247.5" x2="448.8577" y1="301.2969" y2="301.2969"/><path d="M258.1667,309.9271 C256.23,309.9271 254.6667,311.4904 254.6667,313.4271 C254.6667,315.3638 256.23,316.9271 258.1667,316.9271 C260.1033,316.9271 261.6667,315.3638 261.6667,313.4271 C261.6667,311.4904 260.1033,309.9271 258.1667,309.9271" fill="#EFEFEF"/><text fill="#000000" font-family="sans-serif" font-size="14" lengthAdjust="spacing" textLength="57.4834" x="268.2835" y="318.292">id: TEXT</text><path d="M258.1667,326.224 C256.23,326.224 254.6667,327.7873 254.6667,329.724 C254.6667,331.6606 256.23,333.224 258.1667,333.224 C260.1033,333.224 261.6667,331.6606 261.6667,329.724 C261.6667,327.7873 260.1033,326.224 258.1667,326.224" fill="#EFEFEF"/><text fill="#000000" font-family="sans-serif" font-size="14" lengthAdjust="spacing" textLength="105.4512" x="268.2835" y="334.5889">group_id: TEXT</text><path d="M259.9167,341.3542 C258.3067,341.3542 257,342.6608 257,344.2708 C257,344.4575 257,344.6442 257.035,344.8192 L253.5,348.3542 L253.5,350.6875 L257,350.6875 L257,348.3542 L259.3333,348.3542 L259.3333,347.1875 L259.3683,347.1525 C259.5433,347.1875 259.73,347.1875 259.9167,347.1875 C261.5267,347.1875 262.8333,345.8808 262.8333,344.2708 C262.8333,342.6608 261.5267,341.3542 259.9167,341.3542 M260.5,342.5208 C261.1417,342.5208 261.6667,343.0458 261.6667,343.6875 C261.6667,344.3292 261.1417,344.8542 260.5,344.8542 C259.8583,344.8542 259.3333,344.3292 259.3333,343.6875 C259.3333,343.0458 259.8583,342.5208 260.5,342.5208" fill="#AAAAAA"/><text fill="#000000" font-family="sans-serif" font-size="14" lengthAdjust="spacing" textLength="164.1172" x="268.2835" y="350.8857">node_id: INTEGER &#171;FK&#187;</text><path d="M259.9167,357.651 C258.3067,357.651 257,358.9577 257,360.5677 C257,360.7544 257,360.941 257.035,361.116 L253.5,364.651 L253.5,366.9844 L257,366.9844 L257,364.651 L259.3333,364.651 L259.3333,363.4844 L259.3683,363.4494 C259.5433,363.4844 259.73,363.4844 259.9167,363.4844 C261.5267,363.4844 262.8333,362.1777 262.8333,360.5677 C262.8333,358.9577 261.5267,357.651 259.9167,357.651 M260.5,358.8177 C261.1417,358.8177 261.6667,359.3427 261.6667,359.9844 C261.6667,360.626 261.1417,361.151 260.5,361.151 C259.8583,361.151 259.3333,360.626 259.3333,359.9844 C259.3333,359.3427 259.8583,358.8177 260.5,358.8177" fill="#AAAAAA"/><text fill="#000000" font-family="sans-serif" font-size="14" lengthAdjust="spacing" textLength="175.5742" x="268.2835" y="367.1826">sensor_id: INTEGER &#171;FK&#187;</text><path d="M259.9167,373.9479 C258.3067,373.9479 257,375.2546 257,376.8646 C257,377.0513 257,377.2379 257.035,377.4129 L253.5,380.9479 L253.5,383.2812 L257,383.2812 L257,380.9479 L259.3333,380.9479 L259.3333,379.7812 L259.3683,379.7463 C259.5433,379.7812 259.73,379.7812 259.9167,379.7812 C261.5267,379.7812 262.8333,378.4746 262.8333,376.8646 C262.8333,375.2546 261.5267,373.9479 259.9167,373.9479 M260.5,375.1146 C261.1417,375.1146 261.6667,375.6396 261.6667,376.2812 C261.6667,376.9229 261.1417,377.4479 260.5,377.4479 C259.8583,377.4479 259.3333,376.9229 259.3333,376.2812 C259.3333,375.6396 259.8583,375.1146 260.5,375.1146" fill="#AAAAAA"/><text fill="#000000" font-family="sans-serif" font-size="14" lengthAdjust="spacing" textLength="171.9922" x="268.2835" y="383.4795">target_id: INTEGER &#171;FK&#187;</text><path d="M258.1667,391.4115 C256.23,391.4115 254.6667,392.9748 254.6667,394.9115 C254.6667,396.8481 256.23,398.4115 258.1667,398.4115 C260.1033,398.4115 261.6667,396.8481 261.6667,394.9115 C261.6667,392.9748 260.1033,391.4115 258.1667,391.4115" fill="#EFEFEF"/><text fill="#000000" font-family="sans-serif" font-size="14" lengthAdjust="spacing" textLength="120.2236" x="268.2835" y="399.7764">timestamp: TEXT</text><path d="M258.1667,407.7083 C256.23,407.7083 254.6667,409.2717 254.6667,411.2083 C254.6667,413.145 256.23,414.7083 258.1667,414.7083 C260.1033,414.7083 261.6667,413.145 261.6667,411.2083 C261.6667,409.2717 260.1033,407.7083 258.1667,407.7083" fill="#EFEFEF"/><text fill="#000000" font-family="sans-serif" font-size="14" lengthAdjust="spacing" textLength="84.4102" x="268.2835" y="416.0732">name: TEXT</text><path d="M258.1667,424.0052 C256.23,424.0052 254.6667,425.5685 254.6667,427.5052 C254.6667,429.4419 256.23,431.0052 258.1667,431.0052 C260.1033,431.0052 261.6667,429.4419 261.6667,427.5052 C261.6667,425.5685 260.1033,424.0052 258.1667,424.0052" fill="#EFEFEF"/><text fill="#000000" font-family="sans-serif" font-size="14" lengthAdjust="spacing" textLength="91.5059" x="268.2835" y="432.3701">source: TEXT</text><path d="M258.1667,440.3021 C256.23,440.3021 254.6667,441.8654 254.6667,443.8021 C254.6667,445.7388 256.23,447.3021 258.1667,447.3021 C260.1033,447.3021 261.6667,445.7388 261.6667,443.8021 C261.6667,441.8654 260.1033,440.3021 258.1667,440.3021" fill="#EFEFEF"/><text fill="#000000" font-family="sans-serif" font-size="14" lengthAdjust="spacing" textLength="90.6924" x="268.2835" y="448.667">device: TEXT</text><path d="M258.1667,456.599 C256.23,456.599 254.6667,458.1623 254.6667,460.099 C254.6667,462.0356 256.23,463.599 258.1667,463.599 C260.1033,463.599 261.6667,462.0356 261.6667,460.099 C261.6667,458.1623 260.1033,456.599 258.1667,456.599" fill="#EFEFEF"/><text fill="#000000" font-family="sans-serif" font-size="14" lengthAdjust="spacing" textLength="98.2324" x="268.2835" y="464.9639">request: TEXT</text><path d="M258.1667,472.8958 C256.23,472.8958 254.6667,474.4592 254.6667,476.3958 C254.6667,478.3325 256.23,479.8958 258.1667,479.8958 C260.1033,479.8958 261.6667,478.3325 261.6667,476.3958 C261.6667,474.4592 260.1033,472.8958 258.1667,472.8958" fill="#EFEFEF"/><text fill="#000000" font-family="sans-serif" font-size="14" lengthAdjust="spacing" textLength="108.6025" x="268.2835" y="481.2607">response: TEXT</text><path d="M258.1667,489.1927 C256.23,489.1927 254.6667,490.756 254.6667,492.6927 C254.6667,494.6294 256.23,496.1927 258.1667,496.1927 C260.1033,496.1927 261.6667,494.6294 261.6667,492.6927 C261.6667,490.756 260.1033,489.1927 258.1667,489.1927" fill="#EFEFEF"/><text fill="#000000" font-family="sans-serif" font-size="14" lengthAdjust="spacing" textLength="107.3721" x="268.2835" y="497.5576">delimiter: TEXT</text><path d="M258.1667,505.4896 C256.23,505.4896 254.6667,507.0529 254.6667,508.9896 C254.6667,510.9263 256.23,512.4896 258.1667,512.4896 C260.1033,512.4896 261.6667,510.9263 261.6667,508.9896 C261.6667,507.0529 260.1033,505.4896 258.1667,505.4896" fill="#EFEFEF"/><text fill="#000000" font-family="sans-serif" font-size="14" lengthAdjust="spacing" textLength="96.3936" x="268.2835" y="513.8545">pattern: TEXT</text><path d="M258.1667,521.7865 C256.23,521.7865 254.6667,523.3498 254.6667,525.2865 C254.6667,527.2231 256.23,528.7865 258.1667,528.7865 C260.1033,528.7865 261.6667,527.2231 261.6667,525.2865 C261.6667,523.3498 260.1033,521.7865 258.1667,521.7865" fill="#EFEFEF"/><text fill="#000000" font-family="sans-serif" font-size="14" lengthAdjust="spacing" textLength="108.8418" x="268.2835" y="530.1514">delay: INTEGER</text><path d="M258.1667,538.0833 C256.23,538.0833 254.6667,539.6467 254.6667,541.5833 C254.6667,543.52 256.23,545.0833 258.1667,545.0833 C260.1033,545.0833 261.6667,543.52 261.6667,541.5833 C261.6667,539.6467 260.1033,538.0833 258.1667,538.0833" fill="#EFEFEF"/><text fill="#000000" font-family="sans-serif" font-size="14" lengthAdjust="spacing" textLength="105.0342" x="268.2835" y="546.4482">error: INTEGER</text><path d="M258.1667,554.3802 C256.23,554.3802 254.6667,555.9435 254.6667,557.8802 C254.6667,559.8169 256.23,561.3802 258.1667,561.3802 C260.1033,561.3802 261.6667,559.8169 261.6667,557.8802 C261.6667,555.9435 260.1033,554.3802 258.1667,554.3802" fill="#EFEFEF"/><text fill="#000000" font-family="sans-serif" font-size="14" lengthAdjust="spacing" textLength="110.291" x="268.2835" y="562.7451">mode: INTEGER</text><path d="M258.1667,570.6771 C256.23,570.6771 254.6667,572.2404 254.6667,574.1771 C254.6667,576.1138 256.23,577.6771 258.1667,577.6771 C260.1033,577.6771 261.6667,576.1138 261.6667,574.1771 C261.6667,572.2404 260.1033,570.6771 258.1667,570.6771" fill="#EFEFEF"/><text fill="#000000" font-family="sans-serif" font-size="14" lengthAdjust="spacing" textLength="101.8486" x="268.2835" y="579.042">next: INTEGER</text><path d="M258.1667,586.974 C256.23,586.974 254.6667,588.5373 254.6667,590.474 C254.6667,592.4106 256.23,593.974 258.1667,593.974 C260.1033,593.974 261.6667,592.4106 261.6667,590.474 C261.6667,588.5373 260.1033,586.974 258.1667,586.974" fill="#EFEFEF"/><text fill="#000000" font-family="sans-serif" font-size="14" lengthAdjust="spacing" textLength="121.1055" x="268.2835" y="595.3389">priority: INTEGER</text><path d="M258.1667,603.2708 C256.23,603.2708 254.6667,604.8342 254.6667,606.7708 C254.6667,608.7075 256.23,610.2708 258.1667,610.2708 C260.1033,610.2708 261.6667,608.7075 261.6667,606.7708 C261.6667,604.8342 260.1033,603.2708 258.1667,603.2708" fill="#EFEFEF"/><text fill="#000000" font-family="sans-serif" font-size="14" lengthAdjust="spacing" textLength="115.999" x="268.2835" y="611.6357">retries: INTEGER</text><path d="M258.1667,619.5677 C256.23,619.5677 254.6667,621.131 254.6667,623.0677 C254.6667,625.0044 256.23,626.5677 258.1667,626.5677 C260.1033,626.5677 261.6667,625.0044 261.6667,623.0677 C261.6667,621.131 260.1033,619.5677 258.1667,619.5677" fill="#EFEFEF"/><text fill="#000000" font-family="sans-serif" font-size="14" lengthAdjust="spacing" textLength="106.0527" x="268.2835" y="627.9326">state: INTEGER</text><path d="M258.1667,635.8646 C256.23,635.8646 254.6667,637.4279 254.6667,639.3646 C254.6667,641.3013 256.23,642.8646 258.1667,642.8646 C260.1033,642.8646 261.6667,641.3013 261.6667,639.3646 C261.6667,637.4279 260.1033,635.8646 258.1667,635.8646" fill="#EFEFEF"/><text fill="#000000" font-family="sans-serif" font-size="14" lengthAdjust="spacing" textLength="125.1455" x="268.2835" y="644.2295">timeout: INTEGER</text><path d="M258.1667,652.1615 C256.23,652.1615 254.6667,653.7248 254.6667,655.6615 C254.6667,657.5981 256.23,659.1615 258.1667,659.1615 C260.1033,659.1615 261.6667,657.5981 261.6667,655.6615 C261.6667,653.7248 260.1033,652.1615 258.1667,652.1615" fill="#EFEFEF"/><text fill="#000000" font-family="sans-serif" font-size="14" lengthAdjust="spacing" textLength="143.9785" x="268.2835" y="660.5264">nreceivers: INTEGER</text><path d="M258.1667,668.4583 C256.23,668.4583 254.6667,670.0217 254.6667,671.9583 C254.6667,673.895 256.23,675.4583 258.1667,675.4583 C260.1033,675.4583 261.6667,673.895 261.6667,671.9583 C261.6667,670.0217 260.1033,668.4583 258.1667,668.4583" fill="#EFEFEF"/><text fill="#000000" font-family="sans-serif" font-size="14" lengthAdjust="spacing" textLength="150.6504" x="268.2835" y="676.8232">nresponses: INTEGER</text></g><!--class sync_nodes--><g class="entity" data-entity="sync_nodes" data-source-line="100" data-uid="ent0008" id="entity_sync_nodes"><rect fill="#F1F1F1" height="129.4844" rx="2.5" ry="2.5" style="stroke:#181818;stroke-width:0.5;" width="191.9007" x="628" y="809.5"/><ellipse cx="679.0094" cy="825.5" fill="#FFFFFF" rx="11" ry="11" style="stroke:#181818;stroke-width:1;"/><path d="M679.8532,832.25 L677.4001,832.25 L677.4001,822 L674.2594,822 L674.2594,819.8594 L682.9938,819.8594 L682.9938,822 L679.8532,822 L679.8532,832.25 Z " fill="#000000"/><text fill="#000000" font-family="sans-serif" font-size="14" lengthAdjust="spacing" textLength="81.3818" x="699.5094" y="830.3467">sync_nodes</text><line style="stroke:#181818;stroke-width:0.5;" x1="629" x2="818.9007" y1="841.5" y2="841.5"/><path d="M641.4167,848.9635 C639.8067,848.9635 638.5,850.2702 638.5,851.8802 C638.5,852.0669 638.5,852.2535 638.535,852.4285 L635,855.9635 L635,858.2969 L638.5,858.2969 L638.5,855.9635 L640.8333,855.9635 L640.8333,854.7969 L640.8683,854.7619 C641.0433,854.7969 641.23,854.7969 641.4167,854.7969 C643.0267,854.7969 644.3333,853.4902 644.3333,851.8802 C644.3333,850.2702 643.0267,848.9635 641.4167,848.9635 M642,850.1302 C642.6417,850.1302 643.1667,850.6552 643.1667,851.2969 C643.1667,851.9385 642.6417,852.4635 642,852.4635 C641.3583,852.4635 640.8333,851.9385 640.8333,851.2969 C640.8333,850.6552 641.3583,850.1302 642,850.1302" fill="#B8861B"/><text fill="#000000" font-family="sans-serif" font-size="14" font-weight="bold" lengthAdjust="spacing" textLength="51.2764" x="650.2074" y="858.4951">row_id</text><text fill="#000000" font-family="sans-serif" font-size="14" lengthAdjust="spacing" textLength="109.792" x="701.4837" y="858.4951">: INTEGER &#171;PK&#187;</text><line style="stroke:#181818;stroke-width:1;" x1="629" x2="818.9007" y1="865.7969" y2="865.7969"/><path d="M641.4167,873.2604 C639.8067,873.2604 638.5,874.5671 638.5,876.1771 C638.5,876.3638 638.5,876.5504 638.535,876.7254 L635,880.2604 L635,882.5938 L638.5,882.5938 L638.5,880.2604 L640.8333,880.2604 L640.8333,879.0938 L640.8683,879.0587 C641.0433,879.0938 641.23,879.0938 641.4167,879.0938 C643.0267,879.0938 644.3333,877.7871 644.3333,876.1771 C644.3333,874.5671 643.0267,873.2604 641.4167,873.2604 M642,874.4271 C642.6417,874.4271 643.1667,874.9521 643.1667,875.5938 C643.1667,876.2354 642.6417,876.7604 642,876.7604 C641.3583,876.7604 640.8333,876.2354 640.8333,875.5938 C640.8333,874.9521 641.3583,874.4271 642,874.4271" fill="#AAAAAA"/><text fill="#000000" font-family="sans-serif" font-size="14" lengthAdjust="spacing" textLength="164.1172" x="649.7835" y="882.792">node_id: INTEGER &#171;FK&#187;</text><path d="M639.6667,890.724 C637.73,890.724 636.1667,892.2873 636.1667,894.224 C636.1667,896.1606 637.73,897.724 639.6667,897.724 C641.6033,897.724 643.1667,896.1606 643.1667,894.224 C643.1667,892.2873 641.6033,890.724 639.6667,890.724" fill="#EFEFEF"/><text fill="#000000" font-family="sans-serif" font-size="14" lengthAdjust="spacing" textLength="120.2236" x="649.7835" y="899.0889">timestamp: TEXT</text><path d="M639.6667,907.0208 C637.73,907.0208 636.1667,908.5842 636.1667,910.5208 C636.1667,912.4575 637.73,914.0208 639.6667,914.0208 C641.6033,914.0208 643.1667,912.4575 643.1667,910.5208 C643.1667,908.5842 641.6033,907.0208 639.6667,907.0208" fill="#EFEFEF"/><text fill="#000000" font-family="sans-serif" font-size="14" lengthAdjust="spacing" textLength="104.3506" x="649.7835" y="915.3857">code: INTEGER</text><path d="M639.6667,923.3177 C637.73,923.3177 636.1667,924.881 636.1667,926.8177 C636.1667,928.7544 637.73,930.3177 639.6667,930.3177 C641.6033,930.3177 643.1667,928.7544 643.1667,926.8177 C643.1667,924.881 641.6033,923.3177 639.6667,923.3177" fill="#EFEFEF"/><text fill="#000000" font-family="sans-serif" font-size="14" lengthAdjust="spacing" textLength="134.0664" x="649.7835" y="931.6826">attempts: INTEGER</text></g><!--class sync_observs--><g class="entity" data-entity="sync_observs" data-source-line="109" data-uid="ent0009" id="entity_sync_observs"><rect fill="#F1F1F1" height="129.4844" rx="2.5" ry="2.5" style="stroke:#181818;stroke-width:0.5;" width="204.3626" x="485" y="31.5"/><ellipse cx="536.0094" cy="47.5" fill="#FFFFFF" rx="11" ry="11" style="stroke:#181818;stroke-width:1;"/><path d="M536.8532,54.25 L534.4001,54.25 L534.4001,44 L531.2594,44 L531.2594,41.8594 L539.9938,41.8594 L539.9938,44 L536.8532,44 L536.8532,54.25 Z " fill="#000000"/><text fill="#000000" font-family="sans-serif" font-size="14" lengthAdjust="spacing" textLength="93.8438" x="556.5094" y="52.3467">sync_observs</text><line style="stroke:#181818;stroke-width:0.5;" x1="486" x2="688.3626" y1="63.5" y2="63.5"/><path d="M498.4167,70.9635 C496.8067,70.9635 495.5,72.2702 495.5,73.8802 C495.5,74.0669 495.5,74.2535 495.535,74.4285 L492,77.9635 L492,80.2969 L495.5,80.2969 L495.5,77.9635 L497.8333,77.9635 L497.8333,76.7969 L497.8683,76.7619 C498.0433,76.7969 498.23,76.7969 498.4167,76.7969 C500.0267,76.7969 501.3333,75.4902 501.3333,73.8802 C501.3333,72.2702 500.0267,70.9635 498.4167,70.9635 M499,72.1302 C499.6417,72.1302 500.1667,72.6552 500.1667,73.2969 C500.1667,73.9385 499.6417,74.4635 499,74.4635 C498.3583,74.4635 497.8333,73.9385 497.8333,73.2969 C497.8333,72.6552 498.3583,72.1302 499,72.1302" fill="#B8861B"/><text fill="#000000" font-family="sans-serif" font-size="14" font-weight="bold" lengthAdjust="spacing" textLength="51.2764" x="507.2074" y="80.4951">row_id</text><text fill="#000000" font-family="sans-serif" font-size="14" lengthAdjust="spacing" textLength="109.792" x="558.4837" y="80.4951">: INTEGER &#171;PK&#187;</text><line style="stroke:#181818;stroke-width:1;" x1="486" x2="688.3626" y1="87.7969" y2="87.7969"/><path d="M498.4167,95.2604 C496.8067,95.2604 495.5,96.5671 495.5,98.1771 C495.5,98.3638 495.5,98.5504 495.535,98.7254 L492,102.2604 L492,104.5937 L495.5,104.5937 L495.5,102.2604 L497.8333,102.2604 L497.8333,101.0937 L497.8683,101.0587 C498.0433,101.0937 498.23,101.0937 498.4167,101.0937 C500.0267,101.0937 501.3333,99.7871 501.3333,98.1771 C501.3333,96.5671 500.0267,95.2604 498.4167,95.2604 M499,96.4271 C499.6417,96.4271 500.1667,96.9521 500.1667,97.5937 C500.1667,98.2354 499.6417,98.7604 499,98.7604 C498.3583,98.7604 497.8333,98.2354 497.8333,97.5937 C497.8333,96.9521 498.3583,96.4271 499,96.4271" fill="#AAAAAA"/><text fill="#000000" font-family="sans-serif" font-size="14" lengthAdjust="spacing" textLength="176.5791" x="506.7835" y="104.792">observ_id: INTEGER &#171;FK&#187;</text><path d="M496.6667,112.724 C494.73,112.724 493.1667,114.2873 493.1667,116.224 C493.1667,118.1606 494.73,119.724 496.6667,119.724 C498.6033,119.724 500.1667,118.1606 500.1667,116.224 C500.1667,114.2873 498.6033,112.724 496.6667,112.724" fill="#EFEFEF"/><text fill="#000000" font-family="sans-serif" font-size="14" lengthAdjust="spacing" textLength="120.2236" x="506.7835" y="121.0889">timestamp: TEXT</text><path d="M496.6667,129.0208 C494.73,129.0208 493.1667,130.5842 493.1667,132.5208 C493.1667,134.4575 494.73,136.0208 496.6667,136.0208 C498.6033,136.0208 500.1667,134.4575 500.1667,132.5208 C500.1667,130.5842 498.6033,129.0208 496.6667,129.0208" fill="#EFEFEF"/><text fill="#000000" font-family="sans-serif" font-size="14" lengthAdjust="spacing" textLength="104.3506" x="506.7835" y="137.3857">code: INTEGER</text><path d="M496.6667,145.3177 C494.73,145.3177 493.1667,146.881 493.1667,148.8177 C493.1667,150.7544 494.73,152.3177 496.6667,152.3177 C498.6033,152.3177 500.1667,150.7544 500.1667,148.8177 C500.1667,146.881 498.6033,145.3177 496.6667,145.3177" fill="#EFEFEF"/><text fill="#000000" font-family="sans-serif" font-size="14" lengthAdjust="spacing" textLength="134.0664" x="506.7835" y="153.6826">attempts: INTEGER</text></g><!--class sync_sensors--><g class="entity" data-entity="sync_sensors" data-source-line="118" data-uid="ent0010" id="entity_sync_sensors"><rect fill="#F1F1F1" height="129.4844" rx="2.5" ry="2.5" style="stroke:#181818;stroke-width:0.5;" width="203.3577" x="484.5" y="400"/><ellipse cx="535.5094" cy="416" fill="#FFFFFF" rx="11" ry="11" style="stroke:#181818;stroke-width:1;"/><path d="M536.3532,422.75 L533.9001,422.75 L533.9001,412.5 L530.7594,412.5 L530.7594,410.3594 L539.4938,410.3594 L539.4938,412.5 L536.3532,412.5 L536.3532,422.75 Z " fill="#000000"/><text fill="#000000" font-family="sans-serif" font-size="14" lengthAdjust="spacing" textLength="92.8389" x="556.0094" y="420.8467">sync_sensors</text><line style="stroke:#181818;stroke-width:0.5;" x1="485.5" x2="686.8577" y1="432" y2="432"/><path d="M497.9167,439.4635 C496.3067,439.4635 495,440.7702 495,442.3802 C495,442.5669 495,442.7535 495.035,442.9285 L491.5,446.4635 L491.5,448.7969 L495,448.7969 L495,446.4635 L497.3333,446.4635 L497.3333,445.2969 L497.3683,445.2619 C497.5433,445.2969 497.73,445.2969 497.9167,445.2969 C499.5267,445.2969 500.8333,443.9902 500.8333,442.3802 C500.8333,440.7702 499.5267,439.4635 497.9167,439.4635 M498.5,440.6302 C499.1417,440.6302 499.6667,441.1552 499.6667,441.7969 C499.6667,442.4385 499.1417,442.9635 498.5,442.9635 C497.8583,442.9635 497.3333,442.4385 497.3333,441.7969 C497.3333,441.1552 497.8583,440.6302 498.5,440.6302" fill="#B8861B"/><text fill="#000000" font-family="sans-serif" font-size="14" font-weight="bold" lengthAdjust="spacing" textLength="51.2764" x="506.7074" y="448.9951">row_id</text><text fill="#000000" font-family="sans-serif" font-size="14" lengthAdjust="spacing" textLength="109.792" x="557.9837" y="448.9951">: INTEGER &#171;PK&#187;</text><line style="stroke:#181818;stroke-width:1;" x1="485.5" x2="686.8577" y1="456.2969" y2="456.2969"/><path d="M497.9167,463.7604 C496.3067,463.7604 495,465.0671 495,466.6771 C495,466.8638 495,467.0504 495.035,467.2254 L491.5,470.7604 L491.5,473.0938 L495,473.0938 L495,470.7604 L497.3333,470.7604 L497.3333,469.5938 L497.3683,469.5588 C497.5433,469.5938 497.73,469.5938 497.9167,469.5938 C499.5267,469.5938 500.8333,468.2871 500.8333,466.6771 C500.8333,465.0671 499.5267,463.7604 497.9167,463.7604 M498.5,464.9271 C499.1417,464.9271 499.6667,465.4521 499.6667,466.0938 C499.6667,466.7354 499.1417,467.2604 498.5,467.2604 C497.8583,467.2604 497.3333,466.7354 497.3333,466.0938 C497.3333,465.4521 497.8583,464.9271 498.5,464.9271" fill="#AAAAAA"/><text fill="#000000" font-family="sans-serif" font-size="14" lengthAdjust="spacing" textLength="175.5742" x="506.2835" y="473.292">sensor_id: INTEGER &#171;FK&#187;</text><path d="M496.1667,481.224 C494.23,481.224 492.6667,482.7873 492.6667,484.724 C492.6667,486.6606 494.23,488.224 496.1667,488.224 C498.1033,488.224 499.6667,486.6606 499.6667,484.724 C499.6667,482.7873 498.1033,481.224 496.1667,481.224" fill="#EFEFEF"/><text fill="#000000" font-family="sans-serif" font-size="14" lengthAdjust="spacing" textLength="120.2236" x="506.2835" y="489.5889">timestamp: TEXT</text><path d="M496.1667,497.5208 C494.23,497.5208 492.6667,499.0842 492.6667,501.0208 C492.6667,502.9575 494.23,504.5208 496.1667,504.5208 C498.1033,504.5208 499.6667,502.9575 499.6667,501.0208 C499.6667,499.0842 498.1033,497.5208 496.1667,497.5208" fill="#EFEFEF"/><text fill="#000000" font-family="sans-serif" font-size="14" lengthAdjust="spacing" textLength="104.3506" x="506.2835" y="505.8857">code: INTEGER</text><path d="M496.1667,513.8177 C494.23,513.8177 492.6667,515.381 492.6667,517.3177 C492.6667,519.2544 494.23,520.8177 496.1667,520.8177 C498.1033,520.8177 499.6667,519.2544 499.6667,517.3177 C499.6667,515.381 498.1033,513.8177 496.1667,513.8177" fill="#EFEFEF"/><text fill="#000000" font-family="sans-serif" font-size="14" lengthAdjust="spacing" textLength="134.0664" x="506.2835" y="522.1826">attempts: INTEGER</text></g><!--class sync_targets--><g class="entity" data-entity="sync_targets" data-source-line="127" data-uid="ent0011" id="entity_sync_targets"><rect fill="#F1F1F1" height="129.4844" rx="2.5" ry="2.5" style="stroke:#181818;stroke-width:0.5;" width="199.7757" x="11" y="400"/><ellipse cx="62.0094" cy="416" fill="#FFFFFF" rx="11" ry="11" style="stroke:#181818;stroke-width:1;"/><path d="M62.8532,422.75 L60.4001,422.75 L60.4001,412.5 L57.2594,412.5 L57.2594,410.3594 L65.9938,410.3594 L65.9938,412.5 L62.8532,412.5 L62.8532,422.75 Z " fill="#000000"/><text fill="#000000" font-family="sans-serif" font-size="14" lengthAdjust="spacing" textLength="89.2568" x="82.5094" y="420.8467">sync_targets</text><line style="stroke:#181818;stroke-width:0.5;" x1="12" x2="209.7757" y1="432" y2="432"/><path d="M24.4167,439.4635 C22.8067,439.4635 21.5,440.7702 21.5,442.3802 C21.5,442.5669 21.5,442.7535 21.535,442.9285 L18,446.4635 L18,448.7969 L21.5,448.7969 L21.5,446.4635 L23.8333,446.4635 L23.8333,445.2969 L23.8683,445.2619 C24.0433,445.2969 24.23,445.2969 24.4167,445.2969 C26.0267,445.2969 27.3333,443.9902 27.3333,442.3802 C27.3333,440.7702 26.0267,439.4635 24.4167,439.4635 M25,440.6302 C25.6417,440.6302 26.1667,441.1552 26.1667,441.7969 C26.1667,442.4385 25.6417,442.9635 25,442.9635 C24.3583,442.9635 23.8333,442.4385 23.8333,441.7969 C23.8333,441.1552 24.3583,440.6302 25,440.6302" fill="#B8861B"/><text fill="#000000" font-family="sans-serif" font-size="14" font-weight="bold" lengthAdjust="spacing" textLength="51.2764" x="33.2074" y="448.9951">row_id</text><text fill="#000000" font-family="sans-serif" font-size="14" lengthAdjust="spacing" textLength="109.792" x="84.4837" y="448.9951">: INTEGER &#171;PK&#187;</text><line style="stroke:#181818;stroke-width:1;" x1="12" x2="209.7757" y1="456.2969" y2="456.2969"/><path d="M24.4167,463.7604 C22.8067,463.7604 21.5,465.0671 21.5,466.6771 C21.5,466.8638 21.5,467.0504 21.535,467.2254 L18,470.7604 L18,473.0938 L21.5,473.0938 L21.5,470.7604 L23.8333,470.7604 L23.8333,469.5938 L23.8683,469.5588 C24.0433,469.5938 24.23,469.5938 24.4167,469.5938 C26.0267,469.5938 27.3333,468.2871 27.3333,466.6771 C27.3333,465.0671 26.0267,463.7604 24.4167,463.7604 M25,464.9271 C25.6417,464.9271 26.1667,465.4521 26.1667,466.0938 C26.1667,466.7354 25.6417,467.2604 25,467.2604 C24.3583,467.2604 23.8333,466.7354 23.8333,466.0938 C23.8333,465.4521 24.3583,464.9271 25,464.9271" fill="#AAAAAA"/><text fill="#000000" font-family="sans-serif" font-size="14" lengthAdjust="spacing" textLength="171.9922" x="32.7835" y="473.292">target_id: INTEGER &#171;FK&#187;</text><path d="M22.6667,481.224 C20.73,481.224 19.1667,482.7873 19.1667,484.724 C19.1667,486.6606 20.73,488.224 22.6667,488.224 C24.6033,488.224 26.1667,486.6606 26.1667,484.724 C26.1667,482.7873 24.6033,481.224 22.6667,481.224" fill="#EFEFEF"/><text fill="#000000" font-family="sans-serif" font-size="14" lengthAdjust="spacing" textLength="120.2236" x="32.7835" y="489.5889">timestamp: TEXT</text><path d="M22.6667,497.5208 C20.73,497.5208 19.1667,499.0842 19.1667,501.0208 C19.1667,502.9575 20.73,504.5208 22.6667,504.5208 C24.6033,504.5208 26.1667,502.9575 26.1667,501.0208 C26.1667,499.0842 24.6033,497.5208 22.6667,497.5208" fill="#EFEFEF"/><text fill="#000000" font-family="sans-serif" font-size="14" lengthAdjust="spacing" textLength="104.3506" x="32.7835" y="505.8857">code: INTEGER</text><path d="M22.6667,513.8177 C20.73,513.8177 19.1667,515.381 19.1667,517.3177 C19.1667,519.2544 20.73,520.8177 22.6667,520.8177 C24.6033,520.8177 26.1667,519.2544 26.1667,517.3177 C26.1667,515.381 24.6033,513.8177 22.6667,513.8177" fill="#EFEFEF"/><text fill="#000000" font-family="sans-serif" font-size="14" lengthAdjust="spacing" textLength="134.0664" x="32.7835" y="522.1826">attempts: INTEGER</text></g><!--reverse link observs to targets--><g class="link" data-entity-1="observs" data-entity-2="targets" data-source-line="137" data-uid="lnk12" id="link_observs_targets"><path codeLine="137" d="M242.9686,688.4162 C230.0986,715.7162 220.79,735.5 209.12,760.25" fill="none" id="observs-backto-targets" style="stroke:#181818;stroke-width:1;"/><line style="stroke:#181818;stroke-width:1;" x1="242.9686" x2="246.38" y1="688.4162" y2="677.7686"/><line style="stroke:#181818;stroke-width:1;" x1="242.9686" x2="246.38" y1="688.4162" y2="684.5914"/><line style="stroke:#181818;stroke-width:1;" x1="242.9686" x2="246.38" y1="688.4162" y2="681.18"/></g><!--reverse link observs to sensors--><g class="link" data-entity-1="observs" data-entity-2="sensors" data-source-line="139" data-uid="lnk13" id="link_observs_sensors"><path codeLine="139" d="M430.6987,691.673 C438.1587,712.063 442.79,724.74 449.8,743.91" fill="none" id="observs-backto-sensors" style="stroke:#181818;stroke-width:1;"/><line style="stroke:#181818;stroke-width:1;" x1="430.6987" x2="420.437" y1="691.673" y2="684.16"/><line style="stroke:#181818;stroke-width:1;" x1="430.6987" x2="435.463" y1="691.673" y2="684.16"/><line style="stroke:#181818;stroke-width:1;" x1="430.6987" x2="427.95" y1="691.673" y2="684.16"/></g><!--reverse link observs to nodes--><g class="link" data-entity-1="observs" data-entity-2="nodes" data-source-line="141" data-uid="lnk14" id="link_observs_nodes"><path codeLine="141" d="M335.974,692.0196 C337.024,792.0396 347.65,902.6 383,1004 C390.15,1024.51 400.6,1044.8 412.32,1063.77" fill="none" id="observs-backto-nodes" style="stroke:#181818;stroke-width:1;"/><line style="stroke:#181818;stroke-width:1;" x1="335.974" x2="327.8904" y1="692.0196" y2="684.02"/><line style="stroke:#181818;stroke-width:1;" x1="335.974" x2="343.8896" y1="692.0196" y2="684.02"/><line style="stroke:#181818;stroke-width:1;" x1="335.974" x2="335.89" y1="692.0196" y2="684.02"/></g><!--reverse link receivers to observs--><g class="link" data-entity-1="receivers" data-entity-2="observs" data-source-line="143" data-uid="lnk15" id="link_receivers_observs"><path codeLine="143" d="M162.6006,158.6481 C185.2106,185.6981 206.64,213.08 228,245 C234.2,254.26 240.36,263.87 246.44,273.66" fill="none" id="receivers-backto-observs" style="stroke:#181818;stroke-width:1;"/><line style="stroke:#181818;stroke-width:1;" x1="162.6006" x2="151.3319" y1="158.6481" y2="152.51"/><line style="stroke:#181818;stroke-width:1;" x1="162.6006" x2="163.6081" y1="158.6481" y2="152.51"/><line style="stroke:#181818;stroke-width:1;" x1="162.6006" x2="157.47" y1="158.6481" y2="152.51"/></g><!--reverse link responses to observs--><g class="link" data-entity-1="responses" data-entity-2="observs" data-source-line="145" data-uid="lnk16" id="link_responses_observs"><path codeLine="145" d="M348,193.25 C348,211.68 348,223.88 348,244.72" fill="none" id="responses-backto-observs" style="stroke:#181818;stroke-width:1;"/><line style="stroke:#181818;stroke-width:1;" x1="348" x2="340" y1="193.25" y2="185.25"/><line style="stroke:#181818;stroke-width:1;" x1="348" x2="356" y1="193.25" y2="185.25"/><line style="stroke:#181818;stroke-width:1;" x1="348" x2="348" y1="193.25" y2="185.25"/></g><!--reverse link sensors to nodes--><g class="link" data-entity-1="sensors" data-entity-2="nodes" data-source-line="147" data-uid="lnk17" id="link_sensors_nodes"><path codeLine="147" d="M497,1012.16 C497,1032.15 497,1044.59 497,1063.95" fill="none" id="sensors-backto-nodes" style="stroke:#181818;stroke-width:1;"/><line style="stroke:#181818;stroke-width:1;" x1="497" x2="489" y1="1012.16" y2="1004.16"/><line style="stroke:#181818;stroke-width:1;" x1="497" x2="505" y1="1012.16" y2="1004.16"/><line style="stroke:#181818;stroke-width:1;" x1="497" x2="497" y1="1012.16" y2="1004.16"/></g><!--reverse link sync_nodes to nodes--><g class="link" data-entity-1="sync_nodes" data-entity-2="nodes" data-source-line="149" data-uid="lnk18" id="link_sync_nodes_nodes"><path codeLine="149" d="M669.8459,945.0183 C641.5559,981.5983 610.21,1022.13 577.84,1063.97" fill="none" id="sync_nodes-backto-nodes" style="stroke:#181818;stroke-width:1;"/><line style="stroke:#181818;stroke-width:1;" x1="669.8459" x2="668.4117" y1="945.0183" y2="938.69"/><line style="stroke:#181818;stroke-width:1;" x1="669.8459" x2="681.0683" y1="945.0183" y2="938.69"/><line style="stroke:#181818;stroke-width:1;" x1="669.8459" x2="674.74" y1="945.0183" y2="938.69"/></g><!--reverse link sync_observs to observs--><g class="link" data-entity-1="sync_observs" data-entity-2="observs" data-source-line="151" data-uid="lnk19" id="link_sync_observs_observs"><path codeLine="151" d="M526.0511,166.7579 C504.8611,192.2079 486.32,216.14 467,245 C461.17,253.7 455.38,262.72 449.67,271.91" fill="none" id="sync_observs-backto-observs" style="stroke:#181818;stroke-width:1;"/><line style="stroke:#181818;stroke-width:1;" x1="526.0511" x2="525.0221" y1="166.7579" y2="160.61"/><line style="stroke:#181818;stroke-width:1;" x1="526.0511" x2="537.3179" y1="166.7579" y2="160.61"/><line style="stroke:#181818;stroke-width:1;" x1="526.0511" x2="531.17" y1="166.7579" y2="160.61"/></g><!--reverse link sync_sensors to sensors--><g class="link" data-entity-1="sync_sensors" data-entity-2="sensors" data-source-line="153" data-uid="lnk20" id="link_sync_sensors_sensors"><path codeLine="153" d="M570.3831,536.9858 C557.8931,594.1758 540.88,672.1 525.25,743.64" fill="none" id="sync_sensors-backto-sensors" style="stroke:#181818;stroke-width:1;"/><line style="stroke:#181818;stroke-width:1;" x1="570.3831" x2="564.2742" y1="536.9858" y2="529.17"/><line style="stroke:#181818;stroke-width:1;" x1="570.3831" x2="579.9058" y1="536.9858" y2="529.17"/><line style="stroke:#181818;stroke-width:1;" x1="570.3831" x2="572.09" y1="536.9858" y2="529.17"/></g><!--reverse link sync_targets to targets--><g class="link" data-entity-1="sync_targets" data-entity-2="targets" data-source-line="155" data-uid="lnk21" id="link_sync_targets_targets"><path codeLine="155" d="M118.9081,537.1217 C125.7181,598.7917 135.32,685.69 143.54,760.16" fill="none" id="sync_targets-backto-targets" style="stroke:#181818;stroke-width:1;"/><line style="stroke:#181818;stroke-width:1;" x1="118.9081" x2="110.0783" y1="537.1217" y2="529.17"/><line style="stroke:#181818;stroke-width:1;" x1="118.9081" x2="125.9817" y1="537.1217" y2="529.17"/><line style="stroke:#181818;stroke-width:1;" x1="118.9081" x2="118.03" y1="537.1217" y2="529.17"/></g><!--SRC=[rLRVQzim47xtNw4o60tCbBsCKenX3zaO6sEKFEmjoFOb4xKaxooxzaR_zya_4ikJtCHfohe40ldkFlbqTz-TBnBOC04aGyOfrkixg2-h1GcYC8XbAl7cLNHz_Uwj_ljQcyBWgaL3KWLNKUXTzEoDH61RiMVtLDf-BEgUfe622vC1c-Qh6HmIHds4M6BYeYeQfT0mGIYcQbAH822NgpVa_WTJi21Xw7cTZv09v0losoEZIwAyNxDaSKC-VLqjFovlDV_RPyqYnFVrJnzQwx5QVbyDaA0SB923eXPOQUHs-VxBWDGMyij2KYcsJ1K9s1Qgt0P8eTGsANQMXztbSn2vnFdNDmlQ9F1ltm-TxtIML9t1m3YGlLpyDmbL5BUW_aq_vOegPr9VG5wqKe6LyCHMar4EM1vgjkfGOnbHvPaKERo8gFPW8PWwMZ20AD5bA6bQW5M7BjPpzkSMPP6jJSEHmy5qw-RG4OwTlXxFjM8Sj1PuTfoMSbbWRCC9bCm18_mizEaEl6ibnpafuthde6N9gDAmS35eFQlMN2RkQGgLSk6wy1BrMdJP41GohGY7QNB0D1cNXVDHOb2-sxfJu60TjbCjulLf-tdUWfhkc7WYiqtfUAQcmpvLQ7C7opE4VewNWaS5_NoXdxf-ppTYveNkzMr27doVzC6FmRuOOx3LXEVjfTM2lKC3zveQm_r9vW63m2pKVDnmXD4Uu-ZCx9kN-GC0]--></g></svg>