<?xml version="1.0" encoding="us-ascii" standalone="no"?><svg xmlns="http://www.w3.org/2000/svg" xmlns:xlink="http://www.w3.org/1999/xlink" contentStyleType="text/css" height="1642px" preserveAspectRatio="none" style="width:1223px;height:1642px;background:#FFFFFF;" version="1.1" viewBox="0 0 1223 1642" width="1223px" zoomAndPan="magnify"><defs/><g><!--class nodes--><g id="elem_nodes"><rect codeLine="1" fill="#F1F1F1" height="202.6719" id="nodes" rx="2.5" ry="2.5" style="stroke:#181818;stroke-width:0.5;" width="237" x="608" y="1433"/><ellipse cx="700.75" cy="1449" fill="#ADD1B2" rx="11" ry="11" style="stroke:#181818;stroke-width:1.0;"/><path d="M699.5469,1449.875 L701,1449.875 L701,1449.9844 C701,1450.3906 701.0313,1450.5469 701.1094,1450.7031 C701.2656,1450.9531 701.5469,1451.1094 701.8438,1451.1094 C702.0938,1451.1094 702.3594,1450.9688 702.5156,1450.75 C702.6406,1450.5938 702.6719,1450.4375 702.6719,1449.9844 L702.6719,1448.0625 C702.6719,1447.9063 702.6719,1447.8594 702.6563,1447.7031 C702.5938,1447.2344 702.2813,1446.9219 701.8281,1446.9219 C701.5781,1446.9219 701.3125,1447.0625 701.1406,1447.2813 C701.0313,1447.4531 701,1447.6094 701,1448.0625 L701,1448.1875 L699.5469,1448.1875 L699.5469,1445.7813 L703.5313,1445.7813 L703.5313,1446.6406 C703.5313,1447.0469 703.5625,1447.2188 703.6406,1447.375 C703.8125,1447.625 704.0938,1447.7813 704.375,1447.7813 C704.6406,1447.7813 704.9063,1447.6406 705.0781,1447.4219 C705.1875,1447.25 705.2188,1447.1094 705.2188,1446.6406 L705.2188,1444.0938 L697.5938,1444.0938 C697.1563,1444.0938 697.0313,1444.1094 696.875,1444.2031 C696.625,1444.3594 696.4688,1444.6563 696.4688,1444.9375 C696.4688,1445.2188 696.6094,1445.4688 696.8281,1445.6406 C696.9844,1445.75 697.1719,1445.7813 697.5938,1445.7813 L697.8438,1445.7813 L697.8438,1452.2969 L697.5938,1452.2969 C697.1875,1452.2969 697.0313,1452.3125 696.875,1452.4219 C696.625,1452.5938 696.4688,1452.8594 696.4688,1453.1563 C696.4688,1453.4219 696.6094,1453.6719 696.8281,1453.8281 C696.9688,1453.9531 697.2031,1454 697.5938,1454 L705.5938,1454 L705.5938,1451.4219 C705.5938,1450.9844 705.5625,1450.8438 705.4844,1450.6875 C705.3125,1450.4375 705.0313,1450.2813 704.75,1450.2813 C704.4844,1450.2813 704.2188,1450.3906 704.0469,1450.6406 C703.9375,1450.7969 703.9063,1450.9375 703.9063,1451.4219 L703.9063,1452.2969 L699.5469,1452.2969 L699.5469,1449.875 Z " fill="#000000"/><text fill="#000000" font-family="sans-serif" font-size="14" lengthAdjust="spacing" textLength="43" x="721.25" y="1453.8467">nodes</text><line style="stroke:#181818;stroke-width:0.5;" x1="609" x2="844" y1="1465" y2="1465"/><text fill="#000000" font-family="sans-serif" font-size="14" lengthAdjust="spacing" textLength="131" x="614" y="1481.9951">node_id : INTEGER</text><line style="stroke:#181818;stroke-width:1.0;" x1="609" x2="844" y1="1489.2969" y2="1489.2969"/><ellipse cx="619" cy="1502.9453" fill="#000000" rx="3" ry="3" style="stroke:#000000;stroke-width:1.0;"/><text fill="#000000" font-family="sans-serif" font-size="14" lengthAdjust="spacing" textLength="63" x="628" y="1506.292">id : TEXT</text><ellipse cx="619" cy="1519.2422" fill="#000000" rx="3" ry="3" style="stroke:#000000;stroke-width:1.0;"/><text fill="#000000" font-family="sans-serif" font-size="14" lengthAdjust="spacing" textLength="90" x="628" y="1522.5889">name : TEXT</text><text fill="#000000" font-family="sans-serif" font-size="14" lengthAdjust="spacing" textLength="88" x="628" y="1538.8857">meta : TEXT</text><ellipse cx="619" cy="1551.8359" fill="#000000" rx="3" ry="3" style="stroke:#000000;stroke-width:1.0;"/><text fill="#000000" font-family="sans-serif" font-size="14" lengthAdjust="spacing" textLength="58" x="628" y="1555.1826">x : REAL</text><ellipse cx="619" cy="1568.1328" fill="#000000" rx="3" ry="3" style="stroke:#000000;stroke-width:1.0;"/><text fill="#000000" font-family="sans-serif" font-size="14" lengthAdjust="spacing" textLength="58" x="628" y="1571.4795">y : REAL</text><ellipse cx="619" cy="1584.4297" fill="#000000" rx="3" ry="3" style="stroke:#000000;stroke-width:1.0;"/><text fill="#000000" font-family="sans-serif" font-size="14" lengthAdjust="spacing" textLength="58" x="628" y="1587.7764">z : REAL</text><line style="stroke:#181818;stroke-width:1.0;" x1="609" x2="844" y1="1595.0781" y2="1595.0781"/><text fill="#000000" font-family="sans-serif" font-size="14" lengthAdjust="spacing" textLength="118" x="628" y="1612.0732">idx_nodes_id (id)</text><rect fill="#F24D5C" height="6" style="stroke:#C82930;stroke-width:1.0;" width="6" x="616" y="1622.0234"/><text fill="#000000" font-family="sans-serif" font-size="14" lengthAdjust="spacing" textLength="211" x="628" y="1628.3701">sqlite_autoindex_nodes_1 (id)</text></g><!--class observs--><g id="elem_observs"><rect codeLine="15" fill="#F1F1F1" height="333.0469" id="observs" rx="2.5" ry="2.5" style="stroke:#181818;stroke-width:0.5;" width="296" x="409.5" y="728"/><ellipse cx="525.25" cy="744" fill="#ADD1B2" rx="11" ry="11" style="stroke:#181818;stroke-width:1.0;"/><path d="M524.0469,744.875 L525.5,744.875 L525.5,744.9844 C525.5,745.3906 525.5313,745.5469 525.6094,745.7031 C525.7656,745.9531 526.0469,746.1094 526.3438,746.1094 C526.5938,746.1094 526.8594,745.9688 527.0156,745.75 C527.1406,745.5938 527.1719,745.4375 527.1719,744.9844 L527.1719,743.0625 C527.1719,742.9063 527.1719,742.8594 527.1563,742.7031 C527.0938,742.2344 526.7813,741.9219 526.3281,741.9219 C526.0781,741.9219 525.8125,742.0625 525.6406,742.2813 C525.5313,742.4531 525.5,742.6094 525.5,743.0625 L525.5,743.1875 L524.0469,743.1875 L524.0469,740.7813 L528.0313,740.7813 L528.0313,741.6406 C528.0313,742.0469 528.0625,742.2188 528.1406,742.375 C528.3125,742.625 528.5938,742.7813 528.875,742.7813 C529.1406,742.7813 529.4063,742.6406 529.5781,742.4219 C529.6875,742.25 529.7188,742.1094 529.7188,741.6406 L529.7188,739.0938 L522.0938,739.0938 C521.6563,739.0938 521.5313,739.1094 521.375,739.2031 C521.125,739.3594 520.9688,739.6563 520.9688,739.9375 C520.9688,740.2188 521.1094,740.4688 521.3281,740.6406 C521.4844,740.75 521.6719,740.7813 522.0938,740.7813 L522.3438,740.7813 L522.3438,747.2969 L522.0938,747.2969 C521.6875,747.2969 521.5313,747.3125 521.375,747.4219 C521.125,747.5938 520.9688,747.8594 520.9688,748.1563 C520.9688,748.4219 521.1094,748.6719 521.3281,748.8281 C521.4688,748.9531 521.7031,749 522.0938,749 L530.0938,749 L530.0938,746.4219 C530.0938,745.9844 530.0625,745.8438 529.9844,745.6875 C529.8125,745.4375 529.5313,745.2813 529.25,745.2813 C528.9844,745.2813 528.7188,745.3906 528.5469,745.6406 C528.4375,745.7969 528.4063,745.9375 528.4063,746.4219 L528.4063,747.2969 L524.0469,747.2969 L524.0469,744.875 Z " fill="#000000"/><text fill="#000000" font-family="sans-serif" font-size="14" lengthAdjust="spacing" textLength="56" x="545.75" y="748.8467">observs</text><line style="stroke:#181818;stroke-width:0.5;" x1="410.5" x2="704.5" y1="760" y2="760"/><text fill="#000000" font-family="sans-serif" font-size="14" lengthAdjust="spacing" textLength="144" x="415.5" y="776.9951">observ_id : INTEGER</text><line style="stroke:#181818;stroke-width:1.0;" x1="410.5" x2="704.5" y1="784.2969" y2="784.2969"/><ellipse cx="420.5" cy="797.9453" fill="#000000" rx="3" ry="3" style="stroke:#000000;stroke-width:1.0;"/><text fill="#000000" font-family="sans-serif" font-size="14" lengthAdjust="spacing" textLength="131" x="429.5" y="801.292">node_id : INTEGER</text><ellipse cx="420.5" cy="814.2422" fill="#000000" rx="3" ry="3" style="stroke:#000000;stroke-width:1.0;"/><text fill="#000000" font-family="sans-serif" font-size="14" lengthAdjust="spacing" textLength="142" x="429.5" y="817.5889">sensor_id : INTEGER</text><ellipse cx="420.5" cy="830.5391" fill="#000000" rx="3" ry="3" style="stroke:#000000;stroke-width:1.0;"/><text fill="#000000" font-family="sans-serif" font-size="14" lengthAdjust="spacing" textLength="141" x="429.5" y="833.8857">target_id : INTEGER</text><ellipse cx="420.5" cy="846.8359" fill="#000000" rx="3" ry="3" style="stroke:#000000;stroke-width:1.0;"/><text fill="#000000" font-family="sans-serif" font-size="14" lengthAdjust="spacing" textLength="63" x="429.5" y="850.1826">id : TEXT</text><ellipse cx="420.5" cy="863.1328" fill="#000000" rx="3" ry="3" style="stroke:#000000;stroke-width:1.0;"/><text fill="#000000" font-family="sans-serif" font-size="14" lengthAdjust="spacing" textLength="90" x="429.5" y="866.4795">name : TEXT</text><text fill="#000000" font-family="sans-serif" font-size="14" lengthAdjust="spacing" textLength="97" x="429.5" y="882.7764">source : TEXT</text><ellipse cx="420.5" cy="895.7266" fill="#000000" rx="3" ry="3" style="stroke:#000000;stroke-width:1.0;"/><text fill="#000000" font-family="sans-serif" font-size="14" lengthAdjust="spacing" textLength="130" x="429.5" y="899.0732">timestamp : TEXT</text><text fill="#000000" font-family="sans-serif" font-size="14" lengthAdjust="spacing" textLength="84" x="429.5" y="915.3701">path : TEXT</text><ellipse cx="420.5" cy="928.3203" fill="#000000" rx="3" ry="3" style="stroke:#000000;stroke-width:1.0;"/><text fill="#000000" font-family="sans-serif" font-size="14" lengthAdjust="spacing" textLength="129" x="429.5" y="931.667">priority : INTEGER</text><ellipse cx="420.5" cy="944.6172" fill="#000000" rx="3" ry="3" style="stroke:#000000;stroke-width:1.0;"/><text fill="#000000" font-family="sans-serif" font-size="14" lengthAdjust="spacing" textLength="111" x="429.5" y="947.9639">error : INTEGER</text><ellipse cx="420.5" cy="960.9141" fill="#000000" rx="3" ry="3" style="stroke:#000000;stroke-width:1.0;"/><text fill="#000000" font-family="sans-serif" font-size="14" lengthAdjust="spacing" textLength="108" x="429.5" y="964.2607">next : INTEGER</text><ellipse cx="420.5" cy="977.2109" fill="#000000" rx="3" ry="3" style="stroke:#000000;stroke-width:1.0;"/><text fill="#000000" font-family="sans-serif" font-size="14" lengthAdjust="spacing" textLength="150" x="429.5" y="980.5576">nreceivers : INTEGER</text><ellipse cx="420.5" cy="993.5078" fill="#000000" rx="3" ry="3" style="stroke:#000000;stroke-width:1.0;"/><text fill="#000000" font-family="sans-serif" font-size="14" lengthAdjust="spacing" textLength="146" x="429.5" y="996.8545">nrequests : INTEGER</text><line style="stroke:#181818;stroke-width:1.0;" x1="410.5" x2="704.5" y1="1004.1563" y2="1004.1563"/><text fill="#000000" font-family="sans-serif" font-size="14" lengthAdjust="spacing" textLength="265" x="429.5" y="1021.1514">idx_observs_timestamp (timestamp)</text><text fill="#000000" font-family="sans-serif" font-size="14" lengthAdjust="spacing" textLength="270" x="429.5" y="1037.4482">idx_observs (timestamp, name, error)</text><rect fill="#F24D5C" height="6" style="stroke:#C82930;stroke-width:1.0;" width="6" x="417.5" y="1047.3984"/><text fill="#000000" font-family="sans-serif" font-size="14" lengthAdjust="spacing" textLength="224" x="429.5" y="1053.7451">sqlite_autoindex_observs_1 (id)</text></g><!--class receivers--><g id="elem_receivers"><rect codeLine="37" fill="#F1F1F1" height="153.7813" id="receivers" rx="2.5" ry="2.5" style="stroke:#181818;stroke-width:0.5;" width="345" x="7" y="416.5"/><ellipse cx="142.25" cy="432.5" fill="#ADD1B2" rx="11" ry="11" style="stroke:#181818;stroke-width:1.0;"/><path d="M141.0469,433.375 L142.5,433.375 L142.5,433.4844 C142.5,433.8906 142.5313,434.0469 142.6094,434.2031 C142.7656,434.4531 143.0469,434.6094 143.3438,434.6094 C143.5938,434.6094 143.8594,434.4688 144.0156,434.25 C144.1406,434.0938 144.1719,433.9375 144.1719,433.4844 L144.1719,431.5625 C144.1719,431.4063 144.1719,431.3594 144.1563,431.2031 C144.0938,430.7344 143.7813,430.4219 143.3281,430.4219 C143.0781,430.4219 142.8125,430.5625 142.6406,430.7813 C142.5313,430.9531 142.5,431.1094 142.5,431.5625 L142.5,431.6875 L141.0469,431.6875 L141.0469,429.2813 L145.0313,429.2813 L145.0313,430.1406 C145.0313,430.5469 145.0625,430.7188 145.1406,430.875 C145.3125,431.125 145.5938,431.2813 145.875,431.2813 C146.1406,431.2813 146.4063,431.1406 146.5781,430.9219 C146.6875,430.75 146.7188,430.6094 146.7188,430.1406 L146.7188,427.5938 L139.0938,427.5938 C138.6563,427.5938 138.5313,427.6094 138.375,427.7031 C138.125,427.8594 137.9688,428.1563 137.9688,428.4375 C137.9688,428.7188 138.1094,428.9688 138.3281,429.1406 C138.4844,429.25 138.6719,429.2813 139.0938,429.2813 L139.3438,429.2813 L139.3438,435.7969 L139.0938,435.7969 C138.6875,435.7969 138.5313,435.8125 138.375,435.9219 C138.125,436.0938 137.9688,436.3594 137.9688,436.6563 C137.9688,436.9219 138.1094,437.1719 138.3281,437.3281 C138.4688,437.4531 138.7031,437.5 139.0938,437.5 L147.0938,437.5 L147.0938,434.9219 C147.0938,434.4844 147.0625,434.3438 146.9844,434.1875 C146.8125,433.9375 146.5313,433.7813 146.25,433.7813 C145.9844,433.7813 145.7188,433.8906 145.5469,434.1406 C145.4375,434.2969 145.4063,434.4375 145.4063,434.9219 L145.4063,435.7969 L141.0469,435.7969 L141.0469,433.375 Z " fill="#000000"/><text fill="#000000" font-family="sans-serif" font-size="14" lengthAdjust="spacing" textLength="66" x="162.75" y="437.3467">receivers</text><line style="stroke:#181818;stroke-width:0.5;" x1="8" x2="351" y1="448.5" y2="448.5"/><text fill="#000000" font-family="sans-serif" font-size="14" lengthAdjust="spacing" textLength="154" x="13" y="465.4951">receiver_id : INTEGER</text><line style="stroke:#181818;stroke-width:1.0;" x1="8" x2="351" y1="472.7969" y2="472.7969"/><ellipse cx="18" cy="486.4453" fill="#000000" rx="3" ry="3" style="stroke:#000000;stroke-width:1.0;"/><text fill="#000000" font-family="sans-serif" font-size="14" lengthAdjust="spacing" textLength="144" x="27" y="489.792">observ_id : INTEGER</text><ellipse cx="18" cy="502.7422" fill="#000000" rx="3" ry="3" style="stroke:#000000;stroke-width:1.0;"/><text fill="#000000" font-family="sans-serif" font-size="14" lengthAdjust="spacing" textLength="96" x="27" y="506.0889">idx : INTEGER</text><ellipse cx="18" cy="519.0391" fill="#000000" rx="3" ry="3" style="stroke:#000000;stroke-width:1.0;"/><text fill="#000000" font-family="sans-serif" font-size="14" lengthAdjust="spacing" textLength="90" x="27" y="522.3857">name : TEXT</text><line style="stroke:#181818;stroke-width:1.0;" x1="8" x2="351" y1="529.6875" y2="529.6875"/><text fill="#000000" font-family="sans-serif" font-size="14" lengthAdjust="spacing" textLength="157" x="27" y="546.6826">idx_receivers_idx (idx)</text><rect fill="#F24D5C" height="6" style="stroke:#C82930;stroke-width:1.0;" width="6" x="15" y="556.6328"/><text fill="#000000" font-family="sans-serif" font-size="14" lengthAdjust="spacing" textLength="319" x="27" y="562.9795">sqlite_autoindex_receivers_1 (observ_id, idx)</text></g><!--class requests--><g id="elem_requests"><rect codeLine="48" fill="#F1F1F1" height="349.3438" id="requests" rx="2.5" ry="2.5" style="stroke:#181818;stroke-width:0.5;" width="341" x="387" y="319"/><ellipse cx="522.25" cy="335" fill="#ADD1B2" rx="11" ry="11" style="stroke:#181818;stroke-width:1.0;"/><path d="M521.0469,335.875 L522.5,335.875 L522.5,335.9844 C522.5,336.3906 522.5313,336.5469 522.6094,336.7031 C522.7656,336.9531 523.0469,337.1094 523.3438,337.1094 C523.5938,337.1094 523.8594,336.9688 524.0156,336.75 C524.1406,336.5938 524.1719,336.4375 524.1719,335.9844 L524.1719,334.0625 C524.1719,333.9063 524.1719,333.8594 524.1563,333.7031 C524.0938,333.2344 523.7813,332.9219 523.3281,332.9219 C523.0781,332.9219 522.8125,333.0625 522.6406,333.2813 C522.5313,333.4531 522.5,333.6094 522.5,334.0625 L522.5,334.1875 L521.0469,334.1875 L521.0469,331.7813 L525.0313,331.7813 L525.0313,332.6406 C525.0313,333.0469 525.0625,333.2188 525.1406,333.375 C525.3125,333.625 525.5938,333.7813 525.875,333.7813 C526.1406,333.7813 526.4063,333.6406 526.5781,333.4219 C526.6875,333.25 526.7188,333.1094 526.7188,332.6406 L526.7188,330.0938 L519.0938,330.0938 C518.6563,330.0938 518.5313,330.1094 518.375,330.2031 C518.125,330.3594 517.9688,330.6563 517.9688,330.9375 C517.9688,331.2188 518.1094,331.4688 518.3281,331.6406 C518.4844,331.75 518.6719,331.7813 519.0938,331.7813 L519.3438,331.7813 L519.3438,338.2969 L519.0938,338.2969 C518.6875,338.2969 518.5313,338.3125 518.375,338.4219 C518.125,338.5938 517.9688,338.8594 517.9688,339.1563 C517.9688,339.4219 518.1094,339.6719 518.3281,339.8281 C518.4688,339.9531 518.7031,340 519.0938,340 L527.0938,340 L527.0938,337.4219 C527.0938,336.9844 527.0625,336.8438 526.9844,336.6875 C526.8125,336.4375 526.5313,336.2813 526.25,336.2813 C525.9844,336.2813 525.7188,336.3906 525.5469,336.6406 C525.4375,336.7969 525.4063,336.9375 525.4063,337.4219 L525.4063,338.2969 L521.0469,338.2969 L521.0469,335.875 Z " fill="#000000"/><text fill="#000000" font-family="sans-serif" font-size="14" lengthAdjust="spacing" textLength="62" x="542.75" y="339.8467">requests</text><line style="stroke:#181818;stroke-width:0.5;" x1="388" x2="727" y1="351" y2="351"/><text fill="#000000" font-family="sans-serif" font-size="14" lengthAdjust="spacing" textLength="150" x="393" y="367.9951">request_id : INTEGER</text><line style="stroke:#181818;stroke-width:1.0;" x1="388" x2="727" y1="375.2969" y2="375.2969"/><ellipse cx="398" cy="388.9453" fill="#000000" rx="3" ry="3" style="stroke:#000000;stroke-width:1.0;"/><text fill="#000000" font-family="sans-serif" font-size="14" lengthAdjust="spacing" textLength="144" x="407" y="392.292">observ_id : INTEGER</text><ellipse cx="398" cy="405.2422" fill="#000000" rx="3" ry="3" style="stroke:#000000;stroke-width:1.0;"/><text fill="#000000" font-family="sans-serif" font-size="14" lengthAdjust="spacing" textLength="96" x="407" y="408.5889">idx : INTEGER</text><text fill="#000000" font-family="sans-serif" font-size="14" lengthAdjust="spacing" textLength="105" x="407" y="424.8857">request : TEXT</text><text fill="#000000" font-family="sans-serif" font-size="14" lengthAdjust="spacing" textLength="116" x="407" y="441.1826">response : TEXT</text><text fill="#000000" font-family="sans-serif" font-size="14" lengthAdjust="spacing" textLength="116" x="407" y="457.4795">delimiter : TEXT</text><text fill="#000000" font-family="sans-serif" font-size="14" lengthAdjust="spacing" textLength="106" x="407" y="473.7764">pattern : TEXT</text><text fill="#000000" font-family="sans-serif" font-size="14" lengthAdjust="spacing" textLength="130" x="407" y="490.0732">timestamp : TEXT</text><ellipse cx="398" cy="503.0234" fill="#000000" rx="3" ry="3" style="stroke:#000000;stroke-width:1.0;"/><text fill="#000000" font-family="sans-serif" font-size="14" lengthAdjust="spacing" textLength="113" x="407" y="506.3701">delay : INTEGER</text><ellipse cx="398" cy="519.3203" fill="#000000" rx="3" ry="3" style="stroke:#000000;stroke-width:1.0;"/><text fill="#000000" font-family="sans-serif" font-size="14" lengthAdjust="spacing" textLength="111" x="407" y="522.667">error : INTEGER</text><ellipse cx="398" cy="535.6172" fill="#000000" rx="3" ry="3" style="stroke:#000000;stroke-width:1.0;"/><text fill="#000000" font-family="sans-serif" font-size="14" lengthAdjust="spacing" textLength="116" x="407" y="538.9639">mode : INTEGER</text><ellipse cx="398" cy="551.9141" fill="#000000" rx="3" ry="3" style="stroke:#000000;stroke-width:1.0;"/><text fill="#000000" font-family="sans-serif" font-size="14" lengthAdjust="spacing" textLength="123" x="407" y="555.2607">retries : INTEGER</text><ellipse cx="398" cy="568.2109" fill="#000000" rx="3" ry="3" style="stroke:#000000;stroke-width:1.0;"/><text fill="#000000" font-family="sans-serif" font-size="14" lengthAdjust="spacing" textLength="113" x="407" y="571.5576">state : INTEGER</text><ellipse cx="398" cy="584.5078" fill="#000000" rx="3" ry="3" style="stroke:#000000;stroke-width:1.0;"/><text fill="#000000" font-family="sans-serif" font-size="14" lengthAdjust="spacing" textLength="133" x="407" y="587.8545">timeout : INTEGER</text><ellipse cx="398" cy="600.8047" fill="#000000" rx="3" ry="3" style="stroke:#000000;stroke-width:1.0;"/><text fill="#000000" font-family="sans-serif" font-size="14" lengthAdjust="spacing" textLength="157" x="407" y="604.1514">nresponses : INTEGER</text><line style="stroke:#181818;stroke-width:1.0;" x1="388" x2="727" y1="611.4531" y2="611.4531"/><text fill="#000000" font-family="sans-serif" font-size="14" lengthAdjust="spacing" textLength="271" x="407" y="628.4482">idx_requests_timestamp (timestamp)</text><text fill="#000000" font-family="sans-serif" font-size="14" lengthAdjust="spacing" textLength="153" x="407" y="644.7451">idx_requests_idx (idx)</text><rect fill="#F24D5C" height="6" style="stroke:#C82930;stroke-width:1.0;" width="6" x="395" y="654.6953"/><text fill="#000000" font-family="sans-serif" font-size="14" lengthAdjust="spacing" textLength="315" x="407" y="661.042">sqlite_autoindex_requests_1 (observ_id, idx)</text></g><!--class responses--><g id="elem_responses"><rect codeLine="71" fill="#F1F1F1" height="251.5625" id="responses" rx="2.5" ry="2.5" style="stroke:#181818;stroke-width:0.5;" width="460" x="327.5" y="7"/><ellipse cx="516.75" cy="23" fill="#ADD1B2" rx="11" ry="11" style="stroke:#181818;stroke-width:1.0;"/><path d="M515.5469,23.875 L517,23.875 L517,23.9844 C517,24.3906 517.0313,24.5469 517.1094,24.7031 C517.2656,24.9531 517.5469,25.1094 517.8438,25.1094 C518.0938,25.1094 518.3594,24.9688 518.5156,24.75 C518.6406,24.5938 518.6719,24.4375 518.6719,23.9844 L518.6719,22.0625 C518.6719,21.9063 518.6719,21.8594 518.6563,21.7031 C518.5938,21.2344 518.2813,20.9219 517.8281,20.9219 C517.5781,20.9219 517.3125,21.0625 517.1406,21.2813 C517.0313,21.4531 517,21.6094 517,22.0625 L517,22.1875 L515.5469,22.1875 L515.5469,19.7813 L519.5313,19.7813 L519.5313,20.6406 C519.5313,21.0469 519.5625,21.2188 519.6406,21.375 C519.8125,21.625 520.0938,21.7813 520.375,21.7813 C520.6406,21.7813 520.9063,21.6406 521.0781,21.4219 C521.1875,21.25 521.2188,21.1094 521.2188,20.6406 L521.2188,18.0938 L513.5938,18.0938 C513.1563,18.0938 513.0313,18.1094 512.875,18.2031 C512.625,18.3594 512.4688,18.6563 512.4688,18.9375 C512.4688,19.2188 512.6094,19.4688 512.8281,19.6406 C512.9844,19.75 513.1719,19.7813 513.5938,19.7813 L513.8438,19.7813 L513.8438,26.2969 L513.5938,26.2969 C513.1875,26.2969 513.0313,26.3125 512.875,26.4219 C512.625,26.5938 512.4688,26.8594 512.4688,27.1563 C512.4688,27.4219 512.6094,27.6719 512.8281,27.8281 C512.9688,27.9531 513.2031,28 513.5938,28 L521.5938,28 L521.5938,25.4219 C521.5938,24.9844 521.5625,24.8438 521.4844,24.6875 C521.3125,24.4375 521.0313,24.2813 520.75,24.2813 C520.4844,24.2813 520.2188,24.3906 520.0469,24.6406 C519.9375,24.7969 519.9063,24.9375 519.9063,25.4219 L519.9063,26.2969 L515.5469,26.2969 L515.5469,23.875 Z " fill="#000000"/><text fill="#000000" font-family="sans-serif" font-size="14" lengthAdjust="spacing" textLength="73" x="537.25" y="27.8467">responses</text><line style="stroke:#181818;stroke-width:0.5;" x1="328.5" x2="786.5" y1="39" y2="39"/><text fill="#000000" font-family="sans-serif" font-size="14" lengthAdjust="spacing" textLength="161" x="333.5" y="55.9951">response_id : INTEGER</text><line style="stroke:#181818;stroke-width:1.0;" x1="328.5" x2="786.5" y1="63.2969" y2="63.2969"/><ellipse cx="338.5" cy="76.9453" fill="#000000" rx="3" ry="3" style="stroke:#000000;stroke-width:1.0;"/><text fill="#000000" font-family="sans-serif" font-size="14" lengthAdjust="spacing" textLength="150" x="347.5" y="80.292">request_id : INTEGER</text><ellipse cx="338.5" cy="93.2422" fill="#000000" rx="3" ry="3" style="stroke:#000000;stroke-width:1.0;"/><text fill="#000000" font-family="sans-serif" font-size="14" lengthAdjust="spacing" textLength="96" x="347.5" y="96.5889">idx : INTEGER</text><text fill="#000000" font-family="sans-serif" font-size="14" lengthAdjust="spacing" textLength="90" x="347.5" y="112.8857">name : TEXT</text><text fill="#000000" font-family="sans-serif" font-size="14" lengthAdjust="spacing" textLength="78" x="347.5" y="129.1826">unit : TEXT</text><ellipse cx="338.5" cy="142.1328" fill="#000000" rx="3" ry="3" style="stroke:#000000;stroke-width:1.0;"/><text fill="#000000" font-family="sans-serif" font-size="14" lengthAdjust="spacing" textLength="109" x="347.5" y="145.4795">type : INTEGER</text><ellipse cx="338.5" cy="158.4297" fill="#000000" rx="3" ry="3" style="stroke:#000000;stroke-width:1.0;"/><text fill="#000000" font-family="sans-serif" font-size="14" lengthAdjust="spacing" textLength="111" x="347.5" y="161.7764">error : INTEGER</text><ellipse cx="338.5" cy="174.7266" fill="#000000" rx="3" ry="3" style="stroke:#000000;stroke-width:1.0;"/><text fill="#000000" font-family="sans-serif" font-size="14" lengthAdjust="spacing" textLength="87" x="347.5" y="178.0732">value : REAL</text><line style="stroke:#181818;stroke-width:1.0;" x1="328.5" x2="786.5" y1="185.375" y2="185.375"/><text fill="#000000" font-family="sans-serif" font-size="14" lengthAdjust="spacing" textLength="202" x="347.5" y="202.3701">idx_responses_name (name)</text><text fill="#000000" font-family="sans-serif" font-size="14" lengthAdjust="spacing" textLength="272" x="347.5" y="218.667">idx_responses_request_id (request_id)</text><text fill="#000000" font-family="sans-serif" font-size="14" lengthAdjust="spacing" textLength="434" x="347.5" y="234.9639">idx_responses (request_id, idx, name, unit, type, error, value)</text><rect fill="#F24D5C" height="6" style="stroke:#C82930;stroke-width:1.0;" width="6" x="335.5" y="244.9141"/><text fill="#000000" font-family="sans-serif" font-size="14" lengthAdjust="spacing" textLength="332" x="347.5" y="251.2607">sqlite_autoindex_responses_1 (request_id, idx)</text></g><!--class sensors--><g id="elem_sensors"><rect codeLine="88" fill="#F1F1F1" height="251.5625" id="sensors" rx="2.5" ry="2.5" style="stroke:#181818;stroke-width:0.5;" width="248" x="921.5" y="1121"/><ellipse cx="1014.25" cy="1137" fill="#ADD1B2" rx="11" ry="11" style="stroke:#181818;stroke-width:1.0;"/><path d="M1013.0469,1137.875 L1014.5,1137.875 L1014.5,1137.9844 C1014.5,1138.3906 1014.5313,1138.5469 1014.6094,1138.7031 C1014.7656,1138.9531 1015.0469,1139.1094 1015.3438,1139.1094 C1015.5938,1139.1094 1015.8594,1138.9688 1016.0156,1138.75 C1016.1406,1138.5938 1016.1719,1138.4375 1016.1719,1137.9844 L1016.1719,1136.0625 C1016.1719,1135.9063 1016.1719,1135.8594 1016.1563,1135.7031 C1016.0938,1135.2344 1015.7813,1134.9219 1015.3281,1134.9219 C1015.0781,1134.9219 1014.8125,1135.0625 1014.6406,1135.2813 C1014.5313,1135.4531 1014.5,1135.6094 1014.5,1136.0625 L1014.5,1136.1875 L1013.0469,1136.1875 L1013.0469,1133.7813 L1017.0313,1133.7813 L1017.0313,1134.6406 C1017.0313,1135.0469 1017.0625,1135.2188 1017.1406,1135.375 C1017.3125,1135.625 1017.5938,1135.7813 1017.875,1135.7813 C1018.1406,1135.7813 1018.4063,1135.6406 1018.5781,1135.4219 C1018.6875,1135.25 1018.7188,1135.1094 1018.7188,1134.6406 L1018.7188,1132.0938 L1011.0938,1132.0938 C1010.6563,1132.0938 1010.5313,1132.1094 1010.375,1132.2031 C1010.125,1132.3594 1009.9688,1132.6563 1009.9688,1132.9375 C1009.9688,1133.2188 1010.1094,1133.4688 1010.3281,1133.6406 C1010.4844,1133.75 1010.6719,1133.7813 1011.0938,1133.7813 L1011.3438,1133.7813 L1011.3438,1140.2969 L1011.0938,1140.2969 C1010.6875,1140.2969 1010.5313,1140.3125 1010.375,1140.4219 C1010.125,1140.5938 1009.9688,1140.8594 1009.9688,1141.1563 C1009.9688,1141.4219 1010.1094,1141.6719 1010.3281,1141.8281 C1010.4688,1141.9531 1010.7031,1142 1011.0938,1142 L1019.0938,1142 L1019.0938,1139.4219 C1019.0938,1138.9844 1019.0625,1138.8438 1018.9844,1138.6875 C1018.8125,1138.4375 1018.5313,1138.2813 1018.25,1138.2813 C1017.9844,1138.2813 1017.7188,1138.3906 1017.5469,1138.6406 C1017.4375,1138.7969 1017.4063,1138.9375 1017.4063,1139.4219 L1017.4063,1140.2969 L1013.0469,1140.2969 L1013.0469,1137.875 Z " fill="#000000"/><text fill="#000000" font-family="sans-serif" font-size="14" lengthAdjust="spacing" textLength="54" x="1034.75" y="1141.8467">sensors</text><line style="stroke:#181818;stroke-width:0.5;" x1="922.5" x2="1168.5" y1="1153" y2="1153"/><text fill="#000000" font-family="sans-serif" font-size="14" lengthAdjust="spacing" textLength="142" x="927.5" y="1169.9951">sensor_id : INTEGER</text><line style="stroke:#181818;stroke-width:1.0;" x1="922.5" x2="1168.5" y1="1177.2969" y2="1177.2969"/><ellipse cx="932.5" cy="1190.9453" fill="#000000" rx="3" ry="3" style="stroke:#000000;stroke-width:1.0;"/><text fill="#000000" font-family="sans-serif" font-size="14" lengthAdjust="spacing" textLength="131" x="941.5" y="1194.292">node_id : INTEGER</text><ellipse cx="932.5" cy="1207.2422" fill="#000000" rx="3" ry="3" style="stroke:#000000;stroke-width:1.0;"/><text fill="#000000" font-family="sans-serif" font-size="14" lengthAdjust="spacing" textLength="63" x="941.5" y="1210.5889">id : TEXT</text><ellipse cx="932.5" cy="1223.5391" fill="#000000" rx="3" ry="3" style="stroke:#000000;stroke-width:1.0;"/><text fill="#000000" font-family="sans-serif" font-size="14" lengthAdjust="spacing" textLength="109" x="941.5" y="1226.8857">type : INTEGER</text><ellipse cx="932.5" cy="1239.8359" fill="#000000" rx="3" ry="3" style="stroke:#000000;stroke-width:1.0;"/><text fill="#000000" font-family="sans-serif" font-size="14" lengthAdjust="spacing" textLength="90" x="941.5" y="1243.1826">name : TEXT</text><text fill="#000000" font-family="sans-serif" font-size="14" lengthAdjust="spacing" textLength="66" x="941.5" y="1259.4795">sn : TEXT</text><text fill="#000000" font-family="sans-serif" font-size="14" lengthAdjust="spacing" textLength="88" x="941.5" y="1275.7764">meta : TEXT</text><ellipse cx="932.5" cy="1288.7266" fill="#000000" rx="3" ry="3" style="stroke:#000000;stroke-width:1.0;"/><text fill="#000000" font-family="sans-serif" font-size="14" lengthAdjust="spacing" textLength="58" x="941.5" y="1292.0732">x : REAL</text><ellipse cx="932.5" cy="1305.0234" fill="#000000" rx="3" ry="3" style="stroke:#000000;stroke-width:1.0;"/><text fill="#000000" font-family="sans-serif" font-size="14" lengthAdjust="spacing" textLength="58" x="941.5" y="1308.3701">y : REAL</text><ellipse cx="932.5" cy="1321.3203" fill="#000000" rx="3" ry="3" style="stroke:#000000;stroke-width:1.0;"/><text fill="#000000" font-family="sans-serif" font-size="14" lengthAdjust="spacing" textLength="58" x="941.5" y="1324.667">z : REAL</text><line style="stroke:#181818;stroke-width:1.0;" x1="922.5" x2="1168.5" y1="1331.9688" y2="1331.9688"/><text fill="#000000" font-family="sans-serif" font-size="14" lengthAdjust="spacing" textLength="129" x="941.5" y="1348.9639">idx_sensors_id (id)</text><rect fill="#F24D5C" height="6" style="stroke:#C82930;stroke-width:1.0;" width="6" x="929.5" y="1358.9141"/><text fill="#000000" font-family="sans-serif" font-size="14" lengthAdjust="spacing" textLength="222" x="941.5" y="1365.2607">sqlite_autoindex_sensors_1 (id)</text></g><!--class sync_nodes--><g id="elem_sync_nodes"><rect codeLine="105" fill="#F1F1F1" height="153.7813" id="sync_nodes" rx="2.5" ry="2.5" style="stroke:#181818;stroke-width:0.5;" width="319" x="567" y="1170"/><ellipse cx="681.25" cy="1186" fill="#ADD1B2" rx="11" ry="11" style="stroke:#181818;stroke-width:1.0;"/><path d="M680.0469,1186.875 L681.5,1186.875 L681.5,1186.9844 C681.5,1187.3906 681.5313,1187.5469 681.6094,1187.7031 C681.7656,1187.9531 682.0469,1188.1094 682.3438,1188.1094 C682.5938,1188.1094 682.8594,1187.9688 683.0156,1187.75 C683.1406,1187.5938 683.1719,1187.4375 683.1719,1186.9844 L683.1719,1185.0625 C683.1719,1184.9063 683.1719,1184.8594 683.1563,1184.7031 C683.0938,1184.2344 682.7813,1183.9219 682.3281,1183.9219 C682.0781,1183.9219 681.8125,1184.0625 681.6406,1184.2813 C681.5313,1184.4531 681.5,1184.6094 681.5,1185.0625 L681.5,1185.1875 L680.0469,1185.1875 L680.0469,1182.7813 L684.0313,1182.7813 L684.0313,1183.6406 C684.0313,1184.0469 684.0625,1184.2188 684.1406,1184.375 C684.3125,1184.625 684.5938,1184.7813 684.875,1184.7813 C685.1406,1184.7813 685.4063,1184.6406 685.5781,1184.4219 C685.6875,1184.25 685.7188,1184.1094 685.7188,1183.6406 L685.7188,1181.0938 L678.0938,1181.0938 C677.6563,1181.0938 677.5313,1181.1094 677.375,1181.2031 C677.125,1181.3594 676.9688,1181.6563 676.9688,1181.9375 C676.9688,1182.2188 677.1094,1182.4688 677.3281,1182.6406 C677.4844,1182.75 677.6719,1182.7813 678.0938,1182.7813 L678.3438,1182.7813 L678.3438,1189.2969 L678.0938,1189.2969 C677.6875,1189.2969 677.5313,1189.3125 677.375,1189.4219 C677.125,1189.5938 676.9688,1189.8594 676.9688,1190.1563 C676.9688,1190.4219 677.1094,1190.6719 677.3281,1190.8281 C677.4688,1190.9531 677.7031,1191 678.0938,1191 L686.0938,1191 L686.0938,1188.4219 C686.0938,1187.9844 686.0625,1187.8438 685.9844,1187.6875 C685.8125,1187.4375 685.5313,1187.2813 685.25,1187.2813 C684.9844,1187.2813 684.7188,1187.3906 684.5469,1187.6406 C684.4375,1187.7969 684.4063,1187.9375 684.4063,1188.4219 L684.4063,1189.2969 L680.0469,1189.2969 L680.0469,1186.875 Z " fill="#000000"/><text fill="#000000" font-family="sans-serif" font-size="14" lengthAdjust="spacing" textLength="82" x="701.75" y="1190.8467">sync_nodes</text><line style="stroke:#181818;stroke-width:0.5;" x1="568" x2="885" y1="1202" y2="1202"/><text fill="#000000" font-family="sans-serif" font-size="14" lengthAdjust="spacing" textLength="170" x="573" y="1218.9951">sync_node_id : INTEGER</text><line style="stroke:#181818;stroke-width:1.0;" x1="568" x2="885" y1="1226.2969" y2="1226.2969"/><ellipse cx="578" cy="1239.9453" fill="#000000" rx="3" ry="3" style="stroke:#000000;stroke-width:1.0;"/><text fill="#000000" font-family="sans-serif" font-size="14" lengthAdjust="spacing" textLength="131" x="587" y="1243.292">node_id : INTEGER</text><ellipse cx="578" cy="1256.2422" fill="#000000" rx="3" ry="3" style="stroke:#000000;stroke-width:1.0;"/><text fill="#000000" font-family="sans-serif" font-size="14" lengthAdjust="spacing" textLength="130" x="587" y="1259.5889">timestamp : TEXT</text><ellipse cx="578" cy="1272.5391" fill="#000000" rx="3" ry="3" style="stroke:#000000;stroke-width:1.0;"/><text fill="#000000" font-family="sans-serif" font-size="14" lengthAdjust="spacing" textLength="110" x="587" y="1275.8857">code : INTEGER</text><ellipse cx="578" cy="1288.8359" fill="#000000" rx="3" ry="3" style="stroke:#000000;stroke-width:1.0;"/><text fill="#000000" font-family="sans-serif" font-size="14" lengthAdjust="spacing" textLength="144" x="587" y="1292.1826">attempts : INTEGER</text><line style="stroke:#181818;stroke-width:1.0;" x1="568" x2="885" y1="1299.4844" y2="1299.4844"/><rect fill="#F24D5C" height="6" style="stroke:#C82930;stroke-width:1.0;" width="6" x="575" y="1310.1328"/><text fill="#000000" font-family="sans-serif" font-size="14" lengthAdjust="spacing" textLength="293" x="587" y="1316.4795">sqlite_autoindex_sync_nodes_1 (node_id)</text></g><!--class sync_observs--><g id="elem_sync_observs"><rect codeLine="116" fill="#F1F1F1" height="153.7813" id="sync_observs" rx="2.5" ry="2.5" style="stroke:#181818;stroke-width:0.5;" width="345" x="763" y="416.5"/><ellipse cx="883.75" cy="432.5" fill="#ADD1B2" rx="11" ry="11" style="stroke:#181818;stroke-width:1.0;"/><path d="M882.5469,433.375 L884,433.375 L884,433.4844 C884,433.8906 884.0313,434.0469 884.1094,434.2031 C884.2656,434.4531 884.5469,434.6094 884.8438,434.6094 C885.0938,434.6094 885.3594,434.4688 885.5156,434.25 C885.6406,434.0938 885.6719,433.9375 885.6719,433.4844 L885.6719,431.5625 C885.6719,431.4063 885.6719,431.3594 885.6563,431.2031 C885.5938,430.7344 885.2813,430.4219 884.8281,430.4219 C884.5781,430.4219 884.3125,430.5625 884.1406,430.7813 C884.0313,430.9531 884,431.1094 884,431.5625 L884,431.6875 L882.5469,431.6875 L882.5469,429.2813 L886.5313,429.2813 L886.5313,430.1406 C886.5313,430.5469 886.5625,430.7188 886.6406,430.875 C886.8125,431.125 887.0938,431.2813 887.375,431.2813 C887.6406,431.2813 887.9063,431.1406 888.0781,430.9219 C888.1875,430.75 888.2188,430.6094 888.2188,430.1406 L888.2188,427.5938 L880.5938,427.5938 C880.1563,427.5938 880.0313,427.6094 879.875,427.7031 C879.625,427.8594 879.4688,428.1563 879.4688,428.4375 C879.4688,428.7188 879.6094,428.9688 879.8281,429.1406 C879.9844,429.25 880.1719,429.2813 880.5938,429.2813 L880.8438,429.2813 L880.8438,435.7969 L880.5938,435.7969 C880.1875,435.7969 880.0313,435.8125 879.875,435.9219 C879.625,436.0938 879.4688,436.3594 879.4688,436.6563 C879.4688,436.9219 879.6094,437.1719 879.8281,437.3281 C879.9688,437.4531 880.2031,437.5 880.5938,437.5 L888.5938,437.5 L888.5938,434.9219 C888.5938,434.4844 888.5625,434.3438 888.4844,434.1875 C888.3125,433.9375 888.0313,433.7813 887.75,433.7813 C887.4844,433.7813 887.2188,433.8906 887.0469,434.1406 C886.9375,434.2969 886.9063,434.4375 886.9063,434.9219 L886.9063,435.7969 L882.5469,435.7969 L882.5469,433.375 Z " fill="#000000"/><text fill="#000000" font-family="sans-serif" font-size="14" lengthAdjust="spacing" textLength="95" x="904.25" y="437.3467">sync_observs</text><line style="stroke:#181818;stroke-width:0.5;" x1="764" x2="1107" y1="448.5" y2="448.5"/><text fill="#000000" font-family="sans-serif" font-size="14" lengthAdjust="spacing" textLength="183" x="769" y="465.4951">sync_observ_id : INTEGER</text><line style="stroke:#181818;stroke-width:1.0;" x1="764" x2="1107" y1="472.7969" y2="472.7969"/><ellipse cx="774" cy="486.4453" fill="#000000" rx="3" ry="3" style="stroke:#000000;stroke-width:1.0;"/><text fill="#000000" font-family="sans-serif" font-size="14" lengthAdjust="spacing" textLength="144" x="783" y="489.792">observ_id : INTEGER</text><ellipse cx="774" cy="502.7422" fill="#000000" rx="3" ry="3" style="stroke:#000000;stroke-width:1.0;"/><text fill="#000000" font-family="sans-serif" font-size="14" lengthAdjust="spacing" textLength="130" x="783" y="506.0889">timestamp : TEXT</text><ellipse cx="774" cy="519.0391" fill="#000000" rx="3" ry="3" style="stroke:#000000;stroke-width:1.0;"/><text fill="#000000" font-family="sans-serif" font-size="14" lengthAdjust="spacing" textLength="110" x="783" y="522.3857">code : INTEGER</text><ellipse cx="774" cy="535.3359" fill="#000000" rx="3" ry="3" style="stroke:#000000;stroke-width:1.0;"/><text fill="#000000" font-family="sans-serif" font-size="14" lengthAdjust="spacing" textLength="144" x="783" y="538.6826">attempts : INTEGER</text><line style="stroke:#181818;stroke-width:1.0;" x1="764" x2="1107" y1="545.9844" y2="545.9844"/><rect fill="#F24D5C" height="6" style="stroke:#C82930;stroke-width:1.0;" width="6" x="771" y="556.6328"/><text fill="#000000" font-family="sans-serif" font-size="14" lengthAdjust="spacing" textLength="319" x="783" y="562.9795">sqlite_autoindex_sync_observs_1 (observ_id)</text></g><!--class sync_sensors--><g id="elem_sync_sensors"><rect codeLine="127" fill="#F1F1F1" height="153.7813" id="sync_sensors" rx="2.5" ry="2.5" style="stroke:#181818;stroke-width:0.5;" width="341" x="875" y="817.5"/><ellipse cx="994.75" cy="833.5" fill="#ADD1B2" rx="11" ry="11" style="stroke:#181818;stroke-width:1.0;"/><path d="M993.5469,834.375 L995,834.375 L995,834.4844 C995,834.8906 995.0313,835.0469 995.1094,835.2031 C995.2656,835.4531 995.5469,835.6094 995.8438,835.6094 C996.0938,835.6094 996.3594,835.4688 996.5156,835.25 C996.6406,835.0938 996.6719,834.9375 996.6719,834.4844 L996.6719,832.5625 C996.6719,832.4063 996.6719,832.3594 996.6563,832.2031 C996.5938,831.7344 996.2813,831.4219 995.8281,831.4219 C995.5781,831.4219 995.3125,831.5625 995.1406,831.7813 C995.0313,831.9531 995,832.1094 995,832.5625 L995,832.6875 L993.5469,832.6875 L993.5469,830.2813 L997.5313,830.2813 L997.5313,831.1406 C997.5313,831.5469 997.5625,831.7188 997.6406,831.875 C997.8125,832.125 998.0938,832.2813 998.375,832.2813 C998.6406,832.2813 998.9063,832.1406 999.0781,831.9219 C999.1875,831.75 999.2188,831.6094 999.2188,831.1406 L999.2188,828.5938 L991.5938,828.5938 C991.1563,828.5938 991.0313,828.6094 990.875,828.7031 C990.625,828.8594 990.4688,829.1563 990.4688,829.4375 C990.4688,829.7188 990.6094,829.9688 990.8281,830.1406 C990.9844,830.25 991.1719,830.2813 991.5938,830.2813 L991.8438,830.2813 L991.8438,836.7969 L991.5938,836.7969 C991.1875,836.7969 991.0313,836.8125 990.875,836.9219 C990.625,837.0938 990.4688,837.3594 990.4688,837.6563 C990.4688,837.9219 990.6094,838.1719 990.8281,838.3281 C990.9688,838.4531 991.2031,838.5 991.5938,838.5 L999.5938,838.5 L999.5938,835.9219 C999.5938,835.4844 999.5625,835.3438 999.4844,835.1875 C999.3125,834.9375 999.0313,834.7813 998.75,834.7813 C998.4844,834.7813 998.2188,834.8906 998.0469,835.1406 C997.9375,835.2969 997.9063,835.4375 997.9063,835.9219 L997.9063,836.7969 L993.5469,836.7969 L993.5469,834.375 Z " fill="#000000"/><text fill="#000000" font-family="sans-serif" font-size="14" lengthAdjust="spacing" textLength="93" x="1015.25" y="838.3467">sync_sensors</text><line style="stroke:#181818;stroke-width:0.5;" x1="876" x2="1215" y1="849.5" y2="849.5"/><text fill="#000000" font-family="sans-serif" font-size="14" lengthAdjust="spacing" textLength="181" x="881" y="866.4951">sync_sensor_id : INTEGER</text><line style="stroke:#181818;stroke-width:1.0;" x1="876" x2="1215" y1="873.7969" y2="873.7969"/><ellipse cx="886" cy="887.4453" fill="#000000" rx="3" ry="3" style="stroke:#000000;stroke-width:1.0;"/><text fill="#000000" font-family="sans-serif" font-size="14" lengthAdjust="spacing" textLength="142" x="895" y="890.792">sensor_id : INTEGER</text><ellipse cx="886" cy="903.7422" fill="#000000" rx="3" ry="3" style="stroke:#000000;stroke-width:1.0;"/><text fill="#000000" font-family="sans-serif" font-size="14" lengthAdjust="spacing" textLength="130" x="895" y="907.0889">timestamp : TEXT</text><ellipse cx="886" cy="920.0391" fill="#000000" rx="3" ry="3" style="stroke:#000000;stroke-width:1.0;"/><text fill="#000000" font-family="sans-serif" font-size="14" lengthAdjust="spacing" textLength="110" x="895" y="923.3857">code : INTEGER</text><ellipse cx="886" cy="936.3359" fill="#000000" rx="3" ry="3" style="stroke:#000000;stroke-width:1.0;"/><text fill="#000000" font-family="sans-serif" font-size="14" lengthAdjust="spacing" textLength="144" x="895" y="939.6826">attempts : INTEGER</text><line style="stroke:#181818;stroke-width:1.0;" x1="876" x2="1215" y1="946.9844" y2="946.9844"/><rect fill="#F24D5C" height="6" style="stroke:#C82930;stroke-width:1.0;" width="6" x="883" y="957.6328"/><text fill="#000000" font-family="sans-serif" font-size="14" lengthAdjust="spacing" textLength="315" x="895" y="963.9795">sqlite_autoindex_sync_sensors_1 (sensor_id)</text></g><!--class sync_targets--><g id="elem_sync_targets"><rect codeLine="138" fill="#F1F1F1" height="153.7813" id="sync_targets" rx="2.5" ry="2.5" style="stroke:#181818;stroke-width:0.5;" width="339" x="35" y="817.5"/><ellipse cx="154.25" cy="833.5" fill="#ADD1B2" rx="11" ry="11" style="stroke:#181818;stroke-width:1.0;"/><path d="M153.0469,834.375 L154.5,834.375 L154.5,834.4844 C154.5,834.8906 154.5313,835.0469 154.6094,835.2031 C154.7656,835.4531 155.0469,835.6094 155.3438,835.6094 C155.5938,835.6094 155.8594,835.4688 156.0156,835.25 C156.1406,835.0938 156.1719,834.9375 156.1719,834.4844 L156.1719,832.5625 C156.1719,832.4063 156.1719,832.3594 156.1563,832.2031 C156.0938,831.7344 155.7813,831.4219 155.3281,831.4219 C155.0781,831.4219 154.8125,831.5625 154.6406,831.7813 C154.5313,831.9531 154.5,832.1094 154.5,832.5625 L154.5,832.6875 L153.0469,832.6875 L153.0469,830.2813 L157.0313,830.2813 L157.0313,831.1406 C157.0313,831.5469 157.0625,831.7188 157.1406,831.875 C157.3125,832.125 157.5938,832.2813 157.875,832.2813 C158.1406,832.2813 158.4063,832.1406 158.5781,831.9219 C158.6875,831.75 158.7188,831.6094 158.7188,831.1406 L158.7188,828.5938 L151.0938,828.5938 C150.6563,828.5938 150.5313,828.6094 150.375,828.7031 C150.125,828.8594 149.9688,829.1563 149.9688,829.4375 C149.9688,829.7188 150.1094,829.9688 150.3281,830.1406 C150.4844,830.25 150.6719,830.2813 151.0938,830.2813 L151.3438,830.2813 L151.3438,836.7969 L151.0938,836.7969 C150.6875,836.7969 150.5313,836.8125 150.375,836.9219 C150.125,837.0938 149.9688,837.3594 149.9688,837.6563 C149.9688,837.9219 150.1094,838.1719 150.3281,838.3281 C150.4688,838.4531 150.7031,838.5 151.0938,838.5 L159.0938,838.5 L159.0938,835.9219 C159.0938,835.4844 159.0625,835.3438 158.9844,835.1875 C158.8125,834.9375 158.5313,834.7813 158.25,834.7813 C157.9844,834.7813 157.7188,834.8906 157.5469,835.1406 C157.4375,835.2969 157.4063,835.4375 157.4063,835.9219 L157.4063,836.7969 L153.0469,836.7969 L153.0469,834.375 Z " fill="#000000"/><text fill="#000000" font-family="sans-serif" font-size="14" lengthAdjust="spacing" textLength="92" x="174.75" y="838.3467">sync_targets</text><line style="stroke:#181818;stroke-width:0.5;" x1="36" x2="373" y1="849.5" y2="849.5"/><text fill="#000000" font-family="sans-serif" font-size="14" lengthAdjust="spacing" textLength="180" x="41" y="866.4951">sync_target_id : INTEGER</text><line style="stroke:#181818;stroke-width:1.0;" x1="36" x2="373" y1="873.7969" y2="873.7969"/><ellipse cx="46" cy="887.4453" fill="#000000" rx="3" ry="3" style="stroke:#000000;stroke-width:1.0;"/><text fill="#000000" font-family="sans-serif" font-size="14" lengthAdjust="spacing" textLength="141" x="55" y="890.792">target_id : INTEGER</text><ellipse cx="46" cy="903.7422" fill="#000000" rx="3" ry="3" style="stroke:#000000;stroke-width:1.0;"/><text fill="#000000" font-family="sans-serif" font-size="14" lengthAdjust="spacing" textLength="130" x="55" y="907.0889">timestamp : TEXT</text><ellipse cx="46" cy="920.0391" fill="#000000" rx="3" ry="3" style="stroke:#000000;stroke-width:1.0;"/><text fill="#000000" font-family="sans-serif" font-size="14" lengthAdjust="spacing" textLength="110" x="55" y="923.3857">code : INTEGER</text><ellipse cx="46" cy="936.3359" fill="#000000" rx="3" ry="3" style="stroke:#000000;stroke-width:1.0;"/><text fill="#000000" font-family="sans-serif" font-size="14" lengthAdjust="spacing" textLength="144" x="55" y="939.6826">attempts : INTEGER</text><line style="stroke:#181818;stroke-width:1.0;" x1="36" x2="373" y1="946.9844" y2="946.9844"/><rect fill="#F24D5C" height="6" style="stroke:#C82930;stroke-width:1.0;" width="6" x="43" y="957.6328"/><text fill="#000000" font-family="sans-serif" font-size="14" lengthAdjust="spacing" textLength="313" x="55" y="963.9795">sqlite_autoindex_sync_targets_1 (target_id)</text></g><!--class targets--><g id="elem_targets"><rect codeLine="149" fill="#F1F1F1" height="218.9688" id="targets" rx="2.5" ry="2.5" style="stroke:#181818;stroke-width:0.5;" width="247" x="125" y="1137.5"/><ellipse cx="217.75" cy="1153.5" fill="#ADD1B2" rx="11" ry="11" style="stroke:#181818;stroke-width:1.0;"/><path d="M216.5469,1154.375 L218,1154.375 L218,1154.4844 C218,1154.8906 218.0313,1155.0469 218.1094,1155.2031 C218.2656,1155.4531 218.5469,1155.6094 218.8438,1155.6094 C219.0938,1155.6094 219.3594,1155.4688 219.5156,1155.25 C219.6406,1155.0938 219.6719,1154.9375 219.6719,1154.4844 L219.6719,1152.5625 C219.6719,1152.4063 219.6719,1152.3594 219.6563,1152.2031 C219.5938,1151.7344 219.2813,1151.4219 218.8281,1151.4219 C218.5781,1151.4219 218.3125,1151.5625 218.1406,1151.7813 C218.0313,1151.9531 218,1152.1094 218,1152.5625 L218,1152.6875 L216.5469,1152.6875 L216.5469,1150.2813 L220.5313,1150.2813 L220.5313,1151.1406 C220.5313,1151.5469 220.5625,1151.7188 220.6406,1151.875 C220.8125,1152.125 221.0938,1152.2813 221.375,1152.2813 C221.6406,1152.2813 221.9063,1152.1406 222.0781,1151.9219 C222.1875,1151.75 222.2188,1151.6094 222.2188,1151.1406 L222.2188,1148.5938 L214.5938,1148.5938 C214.1563,1148.5938 214.0313,1148.6094 213.875,1148.7031 C213.625,1148.8594 213.4688,1149.1563 213.4688,1149.4375 C213.4688,1149.7188 213.6094,1149.9688 213.8281,1150.1406 C213.9844,1150.25 214.1719,1150.2813 214.5938,1150.2813 L214.8438,1150.2813 L214.8438,1156.7969 L214.5938,1156.7969 C214.1875,1156.7969 214.0313,1156.8125 213.875,1156.9219 C213.625,1157.0938 213.4688,1157.3594 213.4688,1157.6563 C213.4688,1157.9219 213.6094,1158.1719 213.8281,1158.3281 C213.9688,1158.4531 214.2031,1158.5 214.5938,1158.5 L222.5938,1158.5 L222.5938,1155.9219 C222.5938,1155.4844 222.5625,1155.3438 222.4844,1155.1875 C222.3125,1154.9375 222.0313,1154.7813 221.75,1154.7813 C221.4844,1154.7813 221.2188,1154.8906 221.0469,1155.1406 C220.9375,1155.2969 220.9063,1155.4375 220.9063,1155.9219 L220.9063,1156.7969 L216.5469,1156.7969 L216.5469,1154.375 Z " fill="#000000"/><text fill="#000000" font-family="sans-serif" font-size="14" lengthAdjust="spacing" textLength="53" x="238.25" y="1158.3467">targets</text><line style="stroke:#181818;stroke-width:0.5;" x1="126" x2="371" y1="1169.5" y2="1169.5"/><text fill="#000000" font-family="sans-serif" font-size="14" lengthAdjust="spacing" textLength="141" x="131" y="1186.4951">target_id : INTEGER</text><line style="stroke:#181818;stroke-width:1.0;" x1="126" x2="371" y1="1193.7969" y2="1193.7969"/><ellipse cx="136" cy="1207.4453" fill="#000000" rx="3" ry="3" style="stroke:#000000;stroke-width:1.0;"/><text fill="#000000" font-family="sans-serif" font-size="14" lengthAdjust="spacing" textLength="63" x="145" y="1210.792">id : TEXT</text><text fill="#000000" font-family="sans-serif" font-size="14" lengthAdjust="spacing" textLength="90" x="145" y="1227.0889">name : TEXT</text><text fill="#000000" font-family="sans-serif" font-size="14" lengthAdjust="spacing" textLength="88" x="145" y="1243.3857">meta : TEXT</text><ellipse cx="136" cy="1256.3359" fill="#000000" rx="3" ry="3" style="stroke:#000000;stroke-width:1.0;"/><text fill="#000000" font-family="sans-serif" font-size="14" lengthAdjust="spacing" textLength="113" x="145" y="1259.6826">state : INTEGER</text><ellipse cx="136" cy="1272.6328" fill="#000000" rx="3" ry="3" style="stroke:#000000;stroke-width:1.0;"/><text fill="#000000" font-family="sans-serif" font-size="14" lengthAdjust="spacing" textLength="58" x="145" y="1275.9795">x : REAL</text><ellipse cx="136" cy="1288.9297" fill="#000000" rx="3" ry="3" style="stroke:#000000;stroke-width:1.0;"/><text fill="#000000" font-family="sans-serif" font-size="14" lengthAdjust="spacing" textLength="58" x="145" y="1292.2764">y : REAL</text><ellipse cx="136" cy="1305.2266" fill="#000000" rx="3" ry="3" style="stroke:#000000;stroke-width:1.0;"/><text fill="#000000" font-family="sans-serif" font-size="14" lengthAdjust="spacing" textLength="58" x="145" y="1308.5732">z : REAL</text><line style="stroke:#181818;stroke-width:1.0;" x1="126" x2="371" y1="1315.875" y2="1315.875"/><text fill="#000000" font-family="sans-serif" font-size="14" lengthAdjust="spacing" textLength="128" x="145" y="1332.8701">idx_targets_id (id)</text><rect fill="#F24D5C" height="6" style="stroke:#C82930;stroke-width:1.0;" width="6" x="133" y="1342.8203"/><text fill="#000000" font-family="sans-serif" font-size="14" lengthAdjust="spacing" textLength="221" x="145" y="1349.167">sqlite_autoindex_targets_1 (id)</text></g><!--reverse link observs to targets--><g id="link_observs_targets"><path codeLine="164" d="M406.0797,1067.257 C383.2857,1093.113 365.538,1113.244 344.248,1137.392 " fill="none" id="observs-backto-targets" style="stroke:#181818;stroke-width:1.0;"/><line style="stroke:#181818;stroke-width:1.0;" x1="406.0797" x2="405.369" y1="1067.257" y2="1061.256"/><line style="stroke:#181818;stroke-width:1.0;" x1="406.0797" x2="417.371" y1="1067.257" y2="1061.256"/><line style="stroke:#181818;stroke-width:1.0;" x1="406.0797" x2="411.37" y1="1067.257" y2="1061.256"/></g><!--reverse link observs to sensors--><g id="link_observs_sensors"><path codeLine="166" d="M712.6545,989.8737 C775.0705,1029.4467 840.841,1073.395 903.5,1121 C909.384,1125.47 915.331,1130.121 921.284,1134.885 " fill="none" id="observs-backto-sensors" style="stroke:#181818;stroke-width:1.0;"/><line style="stroke:#181818;stroke-width:1.0;" x1="712.6545" x2="705.898" y1="989.8737" y2="992.3465"/><line style="stroke:#181818;stroke-width:1.0;" x1="712.6545" x2="705.898" y1="989.8737" y2="978.8335"/><line style="stroke:#181818;stroke-width:1.0;" x1="712.6545" x2="705.898" y1="989.8737" y2="985.59"/></g><!--reverse link observs to nodes--><g id="link_observs_nodes"><path codeLine="168" d="M520.226,1069.1308 C507.444,1164.2938 506.463,1275.879 549.5,1373 C562.608,1402.581 584.16,1429.036 607.794,1451.524 " fill="none" id="observs-backto-nodes" style="stroke:#181818;stroke-width:1.0;"/><line style="stroke:#181818;stroke-width:1.0;" x1="520.226" x2="513.3622" y1="1069.1308" y2="1061.202"/><line style="stroke:#181818;stroke-width:1.0;" x1="520.226" x2="529.2198" y1="1069.1308" y2="1061.202"/><line style="stroke:#181818;stroke-width:1.0;" x1="520.226" x2="521.291" y1="1069.1308" y2="1061.202"/></g><!--reverse link receivers to observs--><g id="link_receivers_observs"><path codeLine="170" d="M257.4367,576.7678 C302.0257,623.8378 355.315,680.083 409.41,737.182 " fill="none" id="receivers-backto-observs" style="stroke:#181818;stroke-width:1.0;"/><line style="stroke:#181818;stroke-width:1.0;" x1="257.4367" x2="246.1272" y1="576.7678" y2="570.96"/><line style="stroke:#181818;stroke-width:1.0;" x1="257.4367" x2="257.7428" y1="576.7678" y2="570.96"/><line style="stroke:#181818;stroke-width:1.0;" x1="257.4367" x2="251.935" y1="576.7678" y2="570.96"/></g><!--reverse link requests to observs--><g id="link_requests_observs"><path codeLine="172" d="M557.5,676.056 C557.5,695.916 557.5,708.125 557.5,727.878 " fill="none" id="requests-backto-observs" style="stroke:#181818;stroke-width:1.0;"/><line style="stroke:#181818;stroke-width:1.0;" x1="557.5" x2="549.5" y1="676.056" y2="668.056"/><line style="stroke:#181818;stroke-width:1.0;" x1="557.5" x2="565.5" y1="676.056" y2="668.056"/><line style="stroke:#181818;stroke-width:1.0;" x1="557.5" x2="557.5" y1="676.056" y2="668.056"/></g><!--reverse link responses to requests--><g id="link_responses_requests"><path codeLine="174" d="M557.5,267.13 C557.5,286.42 557.5,298.64 557.5,318.76 " fill="none" id="responses-backto-requests" style="stroke:#181818;stroke-width:1.0;"/><line style="stroke:#181818;stroke-width:1.0;" x1="557.5" x2="549.5" y1="267.13" y2="259.13"/><line style="stroke:#181818;stroke-width:1.0;" x1="557.5" x2="565.5" y1="267.13" y2="259.13"/><line style="stroke:#181818;stroke-width:1.0;" x1="557.5" x2="557.5" y1="267.13" y2="259.13"/></g><!--reverse link sensors to nodes--><g id="link_sensors_nodes"><path codeLine="176" d="M915.2919,1364.5343 C888.1759,1388.8033 865.59,1409.016 838.964,1432.847 " fill="none" id="sensors-backto-nodes" style="stroke:#181818;stroke-width:1.0;"/><line style="stroke:#181818;stroke-width:1.0;" x1="915.2919" x2="921.253" y1="1364.5343" y2="1353.2379"/><line style="stroke:#181818;stroke-width:1.0;" x1="915.2919" x2="921.253" y1="1364.5343" y2="1365.1601"/><line style="stroke:#181818;stroke-width:1.0;" x1="915.2919" x2="921.253" y1="1364.5343" y2="1359.199"/></g><!--reverse link sync_nodes to nodes--><g id="link_sync_nodes_nodes"><path codeLine="178" d="M726.5,1332.134 C726.5,1365.501 726.5,1397.129 726.5,1432.883 " fill="none" id="sync_nodes-backto-nodes" style="stroke:#181818;stroke-width:1.0;"/><line style="stroke:#181818;stroke-width:1.0;" x1="726.5" x2="718.5" y1="1332.134" y2="1324.134"/><line style="stroke:#181818;stroke-width:1.0;" x1="726.5" x2="734.5" y1="1332.134" y2="1324.134"/><line style="stroke:#181818;stroke-width:1.0;" x1="726.5" x2="726.5" y1="1332.134" y2="1324.134"/></g><!--reverse link sync_observs to observs--><g id="link_sync_observs_observs"><path codeLine="180" d="M857.5633,576.7678 C812.9743,623.8378 759.685,680.083 705.59,737.182 " fill="none" id="sync_observs-backto-observs" style="stroke:#181818;stroke-width:1.0;"/><line style="stroke:#181818;stroke-width:1.0;" x1="857.5633" x2="857.2572" y1="576.7678" y2="570.96"/><line style="stroke:#181818;stroke-width:1.0;" x1="857.5633" x2="868.8728" y1="576.7678" y2="570.96"/><line style="stroke:#181818;stroke-width:1.0;" x1="857.5633" x2="863.065" y1="576.7678" y2="570.96"/></g><!--reverse link sync_sensors to sensors--><g id="link_sync_sensors_sensors"><path codeLine="182" d="M1045.5,979.553 C1045.5,1023.143 1045.5,1070.941 1045.5,1120.828 " fill="none" id="sync_sensors-backto-sensors" style="stroke:#181818;stroke-width:1.0;"/><line style="stroke:#181818;stroke-width:1.0;" x1="1045.5" x2="1037.5" y1="979.553" y2="971.553"/><line style="stroke:#181818;stroke-width:1.0;" x1="1045.5" x2="1053.5" y1="979.553" y2="971.553"/><line style="stroke:#181818;stroke-width:1.0;" x1="1045.5" x2="1045.5" y1="979.553" y2="971.553"/></g><!--reverse link sync_targets to targets--><g id="link_sync_targets_targets"><path codeLine="184" d="M215.0435,979.4907 C221.1225,1027.9127 228.096,1083.462 234.839,1137.176 " fill="none" id="sync_targets-backto-targets" style="stroke:#181818;stroke-width:1.0;"/><line style="stroke:#181818;stroke-width:1.0;" x1="215.0435" x2="206.1093" y1="979.4907" y2="971.553"/><line style="stroke:#181818;stroke-width:1.0;" x1="215.0435" x2="221.9847" y1="979.4907" y2="971.553"/><line style="stroke:#181818;stroke-width:1.0;" x1="215.0435" x2="214.047" y1="979.4907" y2="971.553"/></g><!--SRC=[jLOxRzim4DxrApJQXZraxTR1A0eK7G8FtGJLEhG4B4eXAKDkaFzUldaKIIL6wqNW7K-yxxiN2LGGSQlfq06lNwjQhnhIrP_ghzzFno_7Pwax7EHdLsljwVZZf2NQzX3a7aIBTsSfF1y_VzF23Gj_Wg3F9TtSQFVAwuPqMxLHyvSB4T2qanW8xS2PF1cBjwe20tpuoO5T3NIpBe3FyThL72WVMAeNBVi58jMlXO0F4pi3tXUa1oxQVWpAiHM_iSd8oC0KaTWFC3QmXOx2B9Og1cSWLs0ytNYPf6-UXaB5sqQj2G0tVhcDRT3ENXFU6t25DBcJaqG5f2fLJYeaAvz95VvvIJHAWIVelJNg5mbbBk0DXXAnTxklzHyOlGsd0Q-5VyHkJmdW6V1ne1pHwU12UecNHVKZPHeKcHhRgH_RZvHKBvjYeM8W685bFKaFOccfF0zJfYGDZKBfkKYkrfutUZTxrkwTv3b4hoZCXVGLaflcBwwyYH8HjVvjX0yauDfU9iWCH0-vqMuswhjDzX3MJLWdTdXJ1ySriWAzrr1jK-yDe6AqdUEdv4WSRpDKJRJp0tPr9iSpDXF8nTYb_-iMihZNxo5db0muVgFd9joZNhoBUxQRpscNgYdGZxdndeFiaIdKrd427T-aI77db7iS0NIpUES9YQZqWg90edZxFum4gXxlF25X7X-8HFurOacKdYgF8s7nAHBUEIQ1yQz2nvs-_fpCtJ_tDRS3lThSY9cbvBhYxN1ml6AbpMYirCrMLU7DevJMGAdjOsAXTUDQgPrDLRcIHkUYKRFKOXJ-wAWr8j1HlI6EVm40]--></g></svg>